<?xml version="1.0" encoding="UTF-8"?>
<svg id="Layer_1" data-name="Layer 1" xmlns="http://www.w3.org/2000/svg" viewBox="0 0 226.33 76.99">
  <defs>
    <style>
      .cls-1 {
        fill: #231f20;
      }

      .cls-1, .cls-2 {
        stroke-width: 0px;
      }

      .cls-2 {
        fill: #d34327;
      }
    </style>
  </defs>
  <path class="cls-2" d="m72.23,43.64c.05.28.1.56.14.83.09.62.15,1.18.19,1.71.06.31.11.59.17.9.02.09.03.21.05.28,0,.08.05.16.05.24.08.41.07.83.16,1.24.06.26.16.5.17.75.26.76.48,1.53.66,2.29.17.71.3,1.25.52,2.01,0,.05.12.38.12.43.05.21.07.24.1.46v.05c.45.92.84,1.8,1.16,2.69,0,.02.05.12.06.14.03.09.05.13.08.2.58,1.57.52,2.43,1.32,3.88.54.56,1.5,1.82,2.01,2.4.81.93,1.98,1.8,2.94,2.55,5.71,4.45,11.74,8.09,22.25,9.99.49.08.98.18,1.46.3,9.78-.02,19.39-.32,29.14-.94.74-.05,1.41-.46,1.8-1.09.21-.34.4-.68.54-.95.43-.82.63-1.43,1.1-2.28.3-.54.58-1.25.95-1.76.41-.56.87-1.24,1.12-1.83.22-.51.23-.53.45-.96.17-.23.54-.94.6-1.13,1.02-1.36,2.05-2.91,2.94-4.12,1.75-2.37,2.69-3.96,4.17-6.53.79-1.42,1.32-3.07,1.57-4.74l.38-2.46c.03-.23.04-.48.07-.71.02-.81.1-1.63.2-2.44.14-1.11.26-2.06.23-3.04.05-.37.08-.71.15-1.08.06-.2-.02-.33.06-.52.1-.78.22-1.57.37-2.35.03-.36.09-.7.21-1.02.11-.5.23-1,.37-1.5.02-.09.06-.18.08-.28.11-1.07.01-2.14.15-3.2.26-2.08-.2-4.15-.59-6.19-.09-.46-.39-.91-.65-1.32-.88-1.37-1.69-2.77-2.18-4.33-.38-1.21-.71-2.43-1.16-3.6-.46-.69-.89-1.4-1.24-2.18-2.12-2.7-3.84-5.78-6.42-8.04-1.12-.98-2.41-1.74-3.77-2.41-.16-.06-.31-.13-.45-.21-1.14-.54-2.3-1.04-3.45-1.57-.27-.04-.57-.08-.79-.22-1.26-.81-2.67-.82-4.1-.89-.55-.03-1.11,0-1.67,0-3.7.43-7.39,1.06-10.92,2.21-1.15.37-2.15.89-3.11,1.49-.25.26-.56.46-.92.61-1.61,1.14-3.14,2.47-4.98,3.72-.83.56-1.58,1.23-2.29,1.93-.02.01-.03.03-.05.05-.45.61-.94,1.2-1.15,1.88-.29.96-1.03,1.61-1.32,2.55-.33,1.04-.82,1.31-1.96,1.21-1.34-.12-2.67-.32-3.99-.56-.07-.01-.14-.04-.21-.08-.58-.1-1.13-.28-1.58-.56l-.62-.23c-.28-.03-.56-.04-.83-.08-.1-.01-.19-.03-.28-.05-.8.06-1.59.13-2.36.01-2.57-.38-4.93.42-7.24,1.22-1.84.64-3.55,1.67-5.28,2.61-.55.3-1.12.78-1.4,1.32-.71,1.33-1.26,2.74-1.89,4.17l-.34.89c-.27,1.41-.5,2.85-.92,4.22-.3.97-.45,1.91-.41,2.91.04,1.09.02,2.18-.03,3.26-.05,1.08-.24,1.39-.28,3.01"/>
  <path class="cls-1" d="m35.85,76.2c.33-3.19.66-7.04,1.87-9.79.11-3.3.77-6.27.77-10.34-5.17.66-10.56,1.54-15.94,1.1-.88.11-2.31.77-3.08.33-2.2.44-4.95-.22-7.26,1.1-1.43-.22-4.4-.22-5.72-.11-.33-.22-.33-.11-.22-.44-.22-.11-.44.55-.55.11-1.54-1.54-.22-2.75-2.31-4.62.11-3.74-2.31-6.49-3.41-10.01,0-.88.66-1.21.55-2.2,2.42-2.97,5.72-6.6,6.82-10.23,1.32-2.09,2.2-3.85,2.97-6.38,1.32-1.32,1.76-3.41,2.86-4.84.11-.22-.11-.22-.11-.55,4.18-5.17,6.38-11.66,8.03-17.37.55-.22.88-.66,1.43-.99,2.31.33,4.62.44,7.59-.33.99.33,3.08,0,3.96-.66,1.1.44,1.76-.33,2.86.44,0,1.54.11,2.31.22,3.63-.44.77-.33,1.54-.55,2.31-.88.99-.99,2.31-1.21,3.63-.33,1.98-1.1,3.74-1.65,5.39-1.54,2.64-2.97,5.17-4.4,8.14.22.33-.11.44.11.66-1.1.99-1.76,3.08-1.98,4.62-.11.11-.66.11-.11.33-2.31,2.97-3.52,6.16-4.84,9.79-.33-.11-.33.11-.55.22,0,1.54-1.54,2.31-1.54,4.07-.44.11-.55.66-.77,1.1,1.54-.22,3.63-.33,4.62-.88.11.11.22.22.44.33,5.06-1.32,9.35-.77,14.29-1.54.22-2.31.44-6.71.22-8.69.44-.55.55-1.32.22-1.76.44-.77.55-2.31.33-3.41.33-.99,1.65-6.49,1.43-8.69.22,0,.33,0,.44-.11-.99-.11.33-2.09-.99-2.31,0-.33.44-.22.44-.44,0-1.76,1.21-2.75.77-4.18,1.21-.22,1.98-.22,3.3-.44,1.54.11,2.97,0,4.84.11,1.76.11,3.85,0,5.5,0,.77,0,1.76-.44,2.53-.22,1.65.44,1.21,2.31,2.42,3.41,0,1.32-1.1,2.31-1.43,3.63-.22.77,0,1.87-.22,2.75-.11.22-.44.44-.55.66-.22.88-.55,6.82-.55,7.26-.11,0,.22.33.22.33-.11.22-.33.33-.44.55-.11.33.22.88.22,1.21-.11.99-.66,2.2-.88,2.75-.22.33.11.77.11,1.1-.22,1.21-.88,2.31-.99,3.74,2.09.11,5.5-.66,7.59.44,0,.33.11.77-.11.99.11.22.44.22.55.44.11.44-.22.33-.33.55h.55c-.11.22-.44.11-.55.22,0,.22.22.11.33.11-.11,3.19-1.65,9.02-1.32,12.76-.44.11-.44.66-.88.77-2.53-.66-5.28.22-8.03-.11-.88,2.42-.88,4.73-.77,7.92.22,3.96.88,7.59,1.1,11.66-.22,0-.44,0-.44.11-.22.44,0,.11.44.22-.11.22-.33.22-.33.55-1.76.99-4.07.33-6.38.55-1.65.11-3.41.33-4.95.33-2.53,0-4.62.22-6.6-.77Z"/>
  <path class="cls-1" d="m197.96,76.2c.33-3.19.66-7.04,1.87-9.79.11-3.3.77-6.27.77-10.34-5.17.66-10.56,1.54-15.94,1.1-.88.11-2.31.77-3.08.33-2.2.44-4.95-.22-7.26,1.1-1.43-.22-4.4-.22-5.72-.11-.33-.22-.33-.11-.22-.44-.22-.11-.44.55-.55.11-1.54-1.54-.22-2.75-2.31-4.62.11-3.74-2.31-6.49-3.41-10.01,0-.88.66-1.21.55-2.2,2.42-2.97,5.72-6.6,6.82-10.23,1.32-2.09,2.2-3.85,2.97-6.38,1.32-1.32,1.76-3.41,2.86-4.84.11-.22-.11-.22-.11-.55,4.18-5.17,6.38-11.66,8.03-17.37.55-.22.88-.66,1.43-.99,2.31.33,4.62.44,7.59-.33C193.24.99,195.32.66,196.2,0c1.1.44,1.76-.33,2.86.44,0,1.54.11,2.31.22,3.63-.44.77-.33,1.54-.55,2.31-.88.99-.99,2.31-1.21,3.63-.33,1.98-1.1,3.74-1.65,5.39-1.54,2.64-2.97,5.17-4.4,8.14.22.33-.11.44.11.66-1.1.99-1.76,3.08-1.98,4.62-.11.11-.66.11-.11.33-2.31,2.97-3.52,6.16-4.84,9.79-.33-.11-.33.11-.55.22,0,1.54-1.54,2.31-1.54,4.07-.44.11-.55.66-.77,1.1,1.54-.22,3.63-.33,4.62-.88.11.11.22.22.44.33,5.06-1.32,9.35-.77,14.29-1.54.22-2.31.44-6.71.22-8.69.44-.55.55-1.32.22-1.76.44-.77.55-2.31.33-3.41.33-.99,1.65-6.49,1.43-8.69.22,0,.33,0,.44-.11-.99-.11.33-2.09-.99-2.31,0-.33.44-.22.44-.44,0-1.76,1.21-2.75.77-4.18,1.21-.22,1.98-.22,3.3-.44,1.54.11,2.97,0,4.84.11,1.76.11,3.85,0,5.5,0,.77,0,1.76-.44,2.53-.22,1.65.44,1.21,2.31,2.42,3.41,0,1.32-1.1,2.31-1.43,3.63-.22.77,0,1.87-.22,2.75-.11.22-.44.44-.55.66-.22.88-.55,6.82-.55,7.26-.11,0,.22.33.22.33-.11.22-.33.33-.44.55-.11.33.22.88.22,1.21-.11.99-.66,2.2-.88,2.75-.22.33.11.77.11,1.1-.22,1.21-.88,2.31-.99,3.74,2.09.11,5.5-.66,7.59.44,0,.33.11.77-.11.99.11.22.44.22.55.44.11.44-.22.33-.33.55h.55c-.11.22-.44.11-.55.22,0,.22.22.11.33.11-.11,3.19-1.65,9.02-1.32,12.76-.44.11-.44.66-.88.77-2.53-.66-5.28.22-8.03-.11-.88,2.42-.88,4.73-.77,7.92.22,3.96.88,7.59,1.1,11.66-.22,0-.44,0-.44.11-.22.44,0,.11.44.22-.11.22-.33.22-.33.55-1.76.99-4.07.33-6.38.55-1.65.11-3.41.33-4.95.33-2.53,0-4.62.22-6.6-.77Z"/>
</svg>