<svg width="166" height="111" viewBox="0 0 166 111" fill="none" xmlns="http://www.w3.org/2000/svg">
<g clip-path="url(#clip0_28_5104)">
<path d="M19.6335 0.0458722C18.2201 2.10915 18.5263 3.10829 18.7779 4.02936C19.366 6.21728 19.9248 8.44863 20.6787 10.4403C25.8682 24.1729 31.5233 37.2437 39.6873 46.9611C44.4814 52.6722 49.5075 57.9716 54.7658 62.911C60.3895 68.205 66.691 72.1972 73.2367 75.7434C79.1386 78.9389 85.4105 81.3232 92.0524 82.8961C96.8595 84.0335 101.668 85.1771 106.514 86.2242C112.452 87.5097 118.67 88.0843 125.237 87.6131C133.549 87.0164 141.993 86.0168 151.086 82.5743C151.562 82.3952 152.061 82.1066 152.717 81.3465C152.283 81.3332 151.869 81.2542 151.41 81.3268C146.127 82.152 140.75 83.2832 135.575 83.7695C129.654 84.3274 123.764 84.7398 118.304 83.8974C114.809 83.3581 111.135 83.2615 107.731 82.5071C101.407 81.1102 95.1273 79.5853 89.0063 77.7053C84.6628 76.3713 80.4586 74.6787 76.4627 72.5974C72.0314 70.289 67.7791 67.6008 63.6867 64.633C59.7123 61.7508 55.9247 58.4983 52.2655 55.0488C49.4349 52.3842 46.7946 49.3683 44.2997 46.1462C40.9879 41.863 37.675 37.5562 34.7892 32.6498C31.7466 27.4779 29.0883 21.7433 26.4921 15.958C24.6056 11.7519 23.1341 7.01501 21.3953 2.6154C20.9815 1.57011 20.2518 0.919234 19.6335 0.0458722Z" fill="#D34327"/>
<path d="M142.38 72.9986C144.327 73.1489 146.28 73.2788 148.223 73.4557C151.515 73.7538 154.841 73.9472 157.821 75.2509C160.49 76.4164 160.646 77.7175 158.103 80.5423C155.251 83.713 152.235 86.6495 149.298 89.6991C148.351 90.6812 147.428 91.7093 146.495 92.7152C146.573 92.9195 146.656 93.1207 146.734 93.3249C147.406 92.9816 148.123 92.7633 148.739 92.2775C152.911 88.9838 156.803 85.1864 160.353 80.8385C161.015 80.0299 161.564 78.9425 161.907 77.9279C162.564 75.9722 162.158 74.407 160.859 73.6253C159.925 73.0662 158.93 72.5578 157.867 72.3041C153.178 71.1895 148.223 71.3157 143.12 72.1758C142.918 72.2111 142.706 72.3734 142.502 72.4762C142.461 72.6466 142.424 72.8188 142.384 72.9892L142.38 72.9986Z" fill="#D34327"/>
</g>
<defs>
<clipPath id="clip0_28_5104">
<rect width="162.163" height="45" fill="white" transform="matrix(0.900827 0.434178 0.434178 -0.900827 0 40.5372)"/>
</clipPath>
</defs>
</svg>
