<?xml version="1.0" encoding="UTF-8"?>
<svg id="Layer_1" data-name="Layer 1" xmlns="http://www.w3.org/2000/svg" viewBox="0 0 429.6 86.82">
  <defs>
    <style>
      .cls-1 {
        fill: #d34327;
        stroke-width: 0px;
      }
    </style>
  </defs>
  <path class="cls-1" d="m.28,86.82c-1-4.77.88-6.25,2.54-7.64,3.92-3.31,7.82-6.72,11.91-9.55,28.18-19.52,56.71-37.5,87.37-47.55,18.01-5.91,36.1-10.91,54.33-15.09C175.94,2.5,195.57.84,215.27.16c17.76-.61,35.47.5,53.13,3.33,12.78,2.05,25.57,4.09,38.34,6.33,15.65,2.74,31.15,6.95,46.28,13.27,19.15,8,38.15,16.81,55.89,30.41.93.71,1.79,1.63,2.48,3.5-1.05-.34-2.13-.55-3.14-1.06-11.66-5.86-23.19-12.33-34.98-17.51-13.49-5.93-27.07-11.58-41.07-14.69-8.96-1.99-17.84-4.9-26.83-6.44-16.7-2.87-33.44-5.48-50.21-7.34-11.9-1.32-23.88-1.9-35.81-1.63-13.23.3-26.47,1.41-39.65,3.14-12.8,1.68-25.58,4.16-38.28,7.09-9.82,2.26-19.59,5.29-29.25,8.8-12.83,4.67-25.69,9.38-38.22,15.49-13.21,6.44-26.15,14.18-39,22.06-9.34,5.73-18.3,12.73-27.51,18.92-2.19,1.47-4.68,1.99-7.16,2.99Z"/>
  <path class="cls-1" d="m377.12,62.85c4.82,1.37,9.63,2.78,14.47,4.1,8.2,2.24,16.36,4.69,24.97,4.92,7.71.21,9.58-1.92,6.76-8.96-3.16-7.9-6.98-15.53-10.48-23.29-1.13-2.5-2.15-5.06-3.22-7.59.42-.29.85-.57,1.27-.86,1.21,1.16,2.67,2.14,3.58,3.5,6.17,9.22,11.09,19.08,14.56,29.61.65,1.96.71,4.31.36,6.36-.68,3.95-3.45,6.33-7.45,6.6-2.87.19-5.83.24-8.66-.21-12.47-1.99-24.15-6.36-35.34-12.13-.44-.23-.76-.69-1.13-1.04.1-.33.21-.66.31-.99Z"/>
</svg>