<svg width="148" height="75" viewBox="0 0 148 75" fill="none" xmlns="http://www.w3.org/2000/svg">
<g clip-path="url(#clip0_28_5107)">
<path d="M137.63 74.3433C138.5 72.2391 138.067 71.4099 137.695 70.6395C136.819 68.8078 135.962 66.9319 134.976 65.3063C128.188 54.0963 121.111 43.5634 112.439 36.491C107.345 32.3336 102.122 28.5865 96.7584 25.2037C91.0207 21.5759 84.9187 19.2345 78.6816 17.3363C73.0584 15.6265 67.2532 14.7085 61.2662 14.5822C56.9333 14.4918 52.5984 14.396 48.2469 14.3934C42.9146 14.3878 37.4612 15.0676 31.8836 16.7436C24.824 18.8652 17.7192 21.37 10.4672 26.17C10.0874 26.4203 9.7058 26.7724 9.26942 27.5733C9.64514 27.5021 10.0155 27.4929 10.398 27.3407C14.8103 25.5959 19.251 23.5613 23.6267 22.1384C28.6337 20.509 33.6372 19.015 38.4832 18.7182C41.5846 18.5284 44.7661 17.9109 47.8253 17.9296C53.5092 17.9602 59.176 18.1131 64.7661 18.6119C68.7329 18.9658 72.6401 19.6651 76.4335 20.7496C80.6402 21.9526 84.757 23.5274 88.7831 25.3813C92.6931 27.1817 96.5047 29.3469 100.239 31.7118C103.127 33.5378 105.91 35.7125 108.603 38.0982C112.179 41.2704 115.759 44.4634 119.073 48.2711C122.567 52.2846 125.824 56.8718 129.037 61.5159C131.372 64.8926 133.439 68.8203 135.679 72.3971C136.212 73.2468 136.95 73.6855 137.63 74.3433Z" fill="#D34327"/>
<path d="M19.5823 33.0126C17.8795 33.2519 16.1752 33.5103 14.4717 33.725C11.5853 34.0905 8.68742 34.5554 5.90078 33.9672C3.40497 33.4424 3.05059 32.3163 4.76473 29.319C6.68682 25.9553 8.78943 22.7684 10.8044 19.4961C11.4543 18.4421 12.0759 17.3518 12.7101 16.2792C12.6088 16.1126 12.5032 15.9497 12.4019 15.783C11.8805 16.2169 11.2997 16.5481 10.8515 17.0977C7.81255 20.8236 5.1007 24.9433 2.77659 29.4866C2.34267 30.3319 2.05301 31.4034 1.92932 32.3705C1.69277 34.2344 2.3069 35.5476 3.55814 35.9934C4.45633 36.3116 5.39949 36.5729 6.3585 36.5947C10.5851 36.6877 14.8323 35.6269 19.0835 33.8855C19.251 33.8156 19.4066 33.6307 19.5654 33.5002C19.5714 33.341 19.5741 33.181 19.58 33.0218L19.5823 33.0126Z" fill="#D34327"/>
</g>
<defs>
<clipPath id="clip0_28_5107">
<rect width="142" height="41" fill="white" transform="matrix(-0.969858 -0.243672 -0.243672 0.969858 147.71 34.6015)"/>
</clipPath>
</defs>
</svg>
