<svg width="199" height="79" viewBox="0 0 199 79" fill="none" xmlns="http://www.w3.org/2000/svg">
<g clip-path="url(#clip0_28_5101)">
<path d="M0.980346 40.9515C0.975759 38.6545 1.9397 38.1324 2.79845 37.6328C4.82887 36.4402 6.85961 35.1996 8.92107 34.2442C23.1264 27.6519 37.3451 21.8034 51.7776 19.8143C60.256 18.6428 68.6864 17.8999 77.1035 17.5491C86.1132 17.166 94.9169 18.1045 103.662 19.5032C111.546 20.7655 119.25 22.8203 126.775 25.6677C132.22 27.7292 137.671 29.7869 143.094 31.9355C149.742 34.5664 156.188 37.8652 162.279 42.1094C169.988 47.4817 177.557 53.2162 184.132 61.0603C184.477 61.4701 184.772 61.9712 184.905 62.8976C184.473 62.6487 184.016 62.4575 183.618 62.1333C179.015 58.4041 174.524 54.4035 169.802 50.978C164.398 47.0571 158.929 43.2582 153.043 40.5995C149.276 38.8981 145.628 36.7774 141.807 35.2819C134.708 32.4995 127.569 29.8341 120.347 27.5135C115.223 25.8668 109.996 24.556 104.713 23.6433C98.8546 22.6314 92.9175 21.994 86.9502 21.649C81.1549 21.3139 75.2953 21.3511 69.4299 21.6039C64.895 21.7967 60.3118 22.3506 55.7332 23.1365C49.6513 24.1841 43.5525 25.2476 37.4712 26.9884C31.06 28.823 24.6489 31.2833 18.2647 33.8164C13.6241 35.6586 9.03488 38.1223 4.40954 40.189C3.30988 40.6796 2.16485 40.7039 0.980346 40.9515Z" fill="#D34327"/>
<path d="M169.265 62.6266C171.265 63.6806 173.256 64.7523 175.268 65.7849C178.678 67.536 182.05 69.3809 185.824 70.2364C189.203 71.0044 190.222 70.1802 189.623 66.6733C188.952 62.7383 187.966 58.871 187.133 54.9713C186.864 53.7147 186.648 52.4399 186.408 51.1747C186.62 51.0769 186.835 50.9846 187.047 50.8867C187.474 51.5294 188.028 52.1105 188.304 52.8197C190.181 57.6281 191.448 62.6243 192.014 67.8047C192.121 68.7693 191.933 69.8633 191.591 70.7826C190.93 72.5535 189.492 73.4152 187.704 73.1924C186.422 73.0308 185.113 72.7964 183.906 72.3418C178.592 70.335 173.844 67.2944 169.439 63.6477C169.267 63.5029 169.168 63.2619 169.036 63.0676C169.111 62.9234 169.189 62.7801 169.264 62.6359L169.265 62.6266Z" fill="#D34327"/>
</g>
<defs>
<clipPath id="clip0_28_5101">
<rect width="193" height="41" fill="white" transform="translate(8.79565 0.70282) rotate(11.1646)"/>
</clipPath>
</defs>
</svg>
