<svg width="155" height="54" viewBox="0 0 155 54" fill="none" xmlns="http://www.w3.org/2000/svg">
<g clip-path="url(#clip0_28_5110)">
<path d="M152.359 0.388095C152.852 2.83677 152.229 3.63993 151.681 4.39215C150.389 6.18276 149.107 8.02473 147.741 9.5703C138.328 20.2303 128.747 30.1004 118.182 35.9088C111.976 39.3241 105.716 42.27 99.3821 44.7944C92.6041 47.5046 85.7016 48.7526 78.746 49.4948C72.4752 50.1624 66.1724 49.9389 59.8374 48.8243C55.253 48.0166 50.6652 47.2143 46.0788 46.3081C40.4582 45.2003 34.848 43.3287 29.3078 40.3579C22.2956 36.5973 15.313 32.4145 8.6378 25.728C8.28795 25.379 7.95681 24.9199 7.65833 23.9658C8.03995 24.121 8.42845 24.2083 8.80084 24.4522C13.0991 27.2537 17.369 30.3735 21.6935 32.8206C26.6418 35.6221 31.6137 38.2769 36.6609 39.609C39.891 40.4612 43.1195 41.7912 46.3473 42.4101C52.3435 43.5644 58.3463 44.5834 64.338 45.2137C68.5898 45.661 72.8484 45.7238 77.0647 45.3477C81.7405 44.9303 86.3963 44.0935 91.013 42.9371C95.4965 41.814 99.9498 40.2774 104.362 38.5095C107.773 37.1454 111.145 35.3837 114.464 33.3759C118.871 30.7049 123.288 28.0127 127.548 24.6025C132.039 21.008 136.396 16.7461 140.718 12.4136C143.859 9.2632 146.829 5.46314 149.911 2.0773C150.644 1.27317 151.51 0.954739 152.359 0.388095Z" fill="#D34327"/>
<path d="M19.6229 20.2595C17.8766 19.6461 16.1327 19.0117 14.3807 18.4245C11.4124 17.4278 8.4522 16.3216 5.39693 16.3731C2.66092 16.4172 2.06047 17.5566 3.26285 21.1439C4.61051 25.1696 6.18405 29.0424 7.64804 32.9889C8.12055 34.2603 8.55584 35.5649 9.00797 36.853C8.86766 37.0114 8.72351 37.1648 8.58319 37.3232C8.12117 36.7469 7.57584 36.2686 7.21425 35.5829C4.76258 30.9337 2.73499 25.9286 1.2014 20.5481C0.914484 19.5466 0.825178 18.3317 0.88974 17.2639C1.01612 15.2063 1.928 13.9197 3.33649 13.7007C4.34718 13.5455 5.39381 13.461 6.40888 13.6378C10.8818 14.4206 15.144 16.4506 19.2732 19.2149C19.4357 19.3252 19.5623 19.5569 19.7035 19.7307C19.6776 19.9035 19.6482 20.0764 19.6224 20.2492L19.6229 20.2595Z" fill="#D34327"/>
</g>
<defs>
<clipPath id="clip0_28_5110">
<rect width="152.349" height="45" fill="white" transform="translate(154.973 45.3124) rotate(176.797)"/>
</clipPath>
</defs>
</svg>
