<?xml version="1.0" encoding="UTF-8"?>
<svg id="Layer_1" data-name="Layer 1" xmlns="http://www.w3.org/2000/svg" viewBox="0 0 385.81 669.14">
  <defs>
    <style>
      .cls-1 {
        fill: #1d5c00;
        stroke-width: 0px;
      }
    </style>
  </defs>
  <path class="cls-1" d="m164.37.07c-.87.35-1.13.55-1.38.54-4.58-.17-7.74,2.48-10.75,5.4-4.74,4.59-9.32,9.36-14.22,13.77-6.18,5.56-13.41,9.67-20.37,14.15-7.14,4.6-14.76,8.32-22.15,12.44-6.01,3.35-11.89,6.94-17.78,10.5-6.32,3.82-12.53,7.82-18.88,11.58-5.99,3.55-11.15,8.15-16.27,12.76-3.87,3.48-7.67,7.11-11,11.1-3.96,4.75-7.59,9.82-10.95,15.01-2.77,4.28-4.99,8.93-7.36,13.46-2.58,4.94-3.6,10.39-5.06,15.72-2.43,8.89-3.21,18.03-3.94,27.13-.4,4.95.42,10,.74,15,.14,2.16.39,4.31.57,6.47.6,7.28,2.12,14.4,3.49,21.57,2.04,10.67,4.94,21.09,8.29,31.39,1.06,3.26,2.53,6.38,3.78,9.58.46,1.19.77,2.43,1.28,3.6,2.67,6.24,5.36,12.47,8.08,18.68,3.36,7.66,6.82,15.29,10.15,22.97,2.07,4.78,4.15,9.57,5.95,14.45,2.69,7.3,4.81,14.76,4.95,22.63.06,3.63.03,7.25.06,10.88,0,.56.09,1.12.17,2.15,1.79-1.97,2.32-4.1,2.99-6.04,1.95-5.67,3.22-11.51,3.9-17.48.24-2.15.61-4.28.97-6.41.18-1.09-.07-1.72-1.13-2.38-5.51-3.41-8.98-8.33-10.63-14.63-1.37-5.21-1.55-10.51-1.55-15.83,0-8.04-1.47-15.88-3.02-23.71-.18-.89-.28-1.8-.42-2.7.26-.07.51-.14.77-.21.58,1.49,1.34,2.94,1.71,4.48,1.57,6.51,3.58,12.93,4.01,19.68.24,3.84.53,7.67.78,11.51.46,6.84,3.21,12.73,7.45,18.01.49.61.91,1.28,1.36,1.92.27-.1.54-.2.8-.3.2-1.38.52-2.75.58-4.14.29-6.99.41-13.99.77-20.98.37-7.19.95-14.37,1.43-21.55.05-.78.23-1.61.05-2.34-1.24-5.05-2.64-10.06-3.83-15.12-1.73-7.34-5.36-13.95-8.11-20.89-3.68-9.27-4.29-18.72-2.98-28.43.22-1.66.54-3.3.91-4.93.18-.79.56-1.54.86-2.31l.7.15c-.18,1.99-.36,3.97-.52,5.96-.77,9.37.22,18.47,4.21,27.11,1.98,4.29,4.09,8.53,5.88,12.89,1.44,3.52,2.49,7.2,3.88,11.31.87-9.71,1.33-18.95,2.61-28.09,1.28-9.15,3.36-18.19,5.17-27.67-2.36-1.97-2.67-5.32-3.14-8.5-.71-4.85-1.59-9.77-1.48-14.63.1-4.25-.18-8.57.59-12.8.78-4.26,1.41-8.55,2.34-12.78.43-1.93,1.08-3.92,2.85-5.33-2.07,8.45-3,17-3.13,25.62-.13,8.58.74,17.07,3.21,25.51.26-.55.57-1.08.77-1.65,2.1-6.05,4.18-12.11,6.26-18.16.22-.65.46-1.31.56-1.98,1.02-6.62,2.08-13.24,2.99-19.88.77-5.65,1.42-11.33,1.98-17.01.3-3.03.21-6.11.44-9.15.28-3.72.54-7.45,1.14-11.12,1.09-6.71,4.6-12.3,8.72-17.55.39-.49.99-.82,1.79-.99-1.41,2.68-2.73,5.39-4.23,8.02-2.66,4.65-3.89,9.68-4.25,14.96-.59,8.76-.99,17.53-1.72,26.28-.33,4.01-1.25,7.97-1.88,11.96-.18,1.11-.26,2.24-.38,3.36.2.06.4.13.6.19.89-1.47,1.83-2.91,2.66-4.41,4.42-8.03,9.22-15.8,14.68-23.17,2.56-3.46,4.92-7.07,7.65-10.4,2.8-3.42,6.14-6.4,8.87-9.86,6.13-7.76,11.33-16.11,15-25.35.96-2.42,1.94-4.83,3.08-7.18.4,3.35-.71,6.4-1.82,9.4-3.81,10.28-9.49,19.43-16.63,27.75-3.33,3.88-6.26,8.11-9.16,12.32-4.23,6.15-8.28,12.43-12.39,18.66-.42.64-.75,1.33-.74,2.32.87-.95,1.84-1.83,2.58-2.87,3.63-5.07,8.5-8.73,13.58-12.17,5.71-3.87,11.5-7.64,17.07-11.71,2.6-1.9,4.8-4.37,7.12-6.65.77-.75,1.32-1.73,1.96-2.6.27.21.55.42.82.63-.42.76-.78,1.57-1.27,2.29-4.95,7.24-11.75,12.44-19.02,17.07-8.1,5.16-15.8,10.72-21.92,18.25-1.92,2.36-4.55,4.2-6.2,6.71-2.54,3.85-4.73,7.96-6.67,12.15-2.22,4.81-4.2,9.76-5.92,14.77-3.48,10.15-6.55,20.4-8.35,31.04-1.67,9.85-2.6,19.73-2.93,29.69-.16,4.72.11,9.46-.05,14.18-.16,4.82-.64,9.63-.93,14.44-.61,10.39-1.19,20.79-1.81,31.72,1.02-.65,1.61-.92,2.08-1.34,4.03-3.61,7.82-7.44,11.45-11.46,3.61-4.01,7.44-7.83,11.29-11.61,5.44-5.36,9.21-11.79,12.19-18.73,1.04-2.43,2.04-4.89,3.16-7.58.26.85.29,1.87.66,2.02,1.62.64,1.64,2,1.43,3.21-.6,3.47-1.13,6.99-2.21,10.31-1.16,3.56-3.11,6.81-5.61,9.66-.25.29-.57.54-.89.76-.14.09-.36.05-.95.1,2.99-6.62,6.77-12.8,6.87-20.26-.57,1.43-1.25,2.84-1.69,4.31-2.7,8.98-7.58,16.59-14.2,23.18-3.63,3.61-7.07,7.42-10.72,11.02-2.77,2.73-5.74,5.27-8.62,7.89-1.16,1.06-2.49,1.99-3.45,3.21-.74.94-1.32,2.21-1.47,3.39-1.01,8.23-2.37,16.39-4.85,24.31-.79,2.53-1.9,4.96-2.85,7.44-.23.6-.43,1.22-.86,2.47,2-1.65,3.55-2.77,4.91-4.08,5.88-5.66,12.95-9.65,19.79-13.91,4.42-2.75,9.15-5.02,13.7-7.57,1.62-.91,3.14-2.01,4.71-3.02,1.33-.85,2.57-1.91,4.01-2.5,4.26-1.76,7.64-4.84,11.48-7.22,3.24-2.01,6.04-4.4,8.39-7.38,1.9-2.4,3.13-4.89,2.52-8.14-1.21-6.43-1.14-12.98-.87-19.46.34-8.17,1.09-16.33,4.82-23.87,3.24-6.54,8-11.92,13.12-16.99,1.87-1.85,4.12-3.33,6.15-5.02.6-.5,1.17-1.08,1.58-1.74,5.37-8.61,10.81-17.17,14.54-26.68,1.89-4.82,2.69-9.85,3.47-14.89,1.18-7.64.88-15.27.18-22.96-1.08-11.87-1.62-23.81.62-35.62,1.03-5.39,2.58-10.69,4.07-15.98,2.47-8.81,5.12-17.58,6.92-26.56,1.26-6.29,2.62-12.56,3.57-18.9,1.09-7.3,2.05-14.65,1.31-22.05-.36-3.6-1.11-7.17-1.91-10.7-.67-2.97-1.61-5.88-2.51-8.79-2.25-7.28-5.6-13.85-12.36-18.34,2.07-.08,4.07.78,5.97,2.63,3.2,3.12,5.83,6.68,7.84,10.67,5.15,10.27,7.23,21.24,6.78,32.61-.3,7.55-1.12,15.07-3.07,22.46-1.48,5.61-2.19,11.42-3.66,17.02-2.18,8.27-4.71,16.46-7.13,24.67-1.7,5.77-3.17,11.58-3.59,17.61-.32,4.62-.75,9.22-.99,13.84-.1,2.06.05,4.15.29,6.2.82,7.04,1.61,14.08,2.64,21.09.53,3.56.31,7.06.16,10.6-.39,8.96-3.27,17.19-7.78,24.79-2.45,4.12-5.72,7.76-8.64,11.6-1.13,1.49-2.3,2.93-3.91,4.98,1.2-.42,1.75-.64,2.31-.8,4.82-1.39,9.58-3.1,14.48-4.06,6.38-1.25,12.88-1.76,19.42-1.58,6.28.17,12.56.45,18.86-.33,7.31-.9,14.66-1.49,22.01-1.9,6.46-.36,12.66-1.98,18.88-3.42,5.58-1.29,10.69-3.94,15.8-6.5,6.68-3.36,13.34-6.78,20.11-9.94,2.56-1.19,5.39-1.83,8.16-2.51,3.91-.96,7.83-2.11,11.81-2.49,9.36-.89,17.83,1.5,24.71,8.18,4.62,4.49,6.64,10.4,8.23,16.44,1.23,4.65,2.45,9.32,3.33,14.05.87,4.68.61,9.4-.59,14.05-2.35,9.11-6.08,17.67-10.28,26.07-2.92,5.85-6.57,11.22-10.24,16.59-3.28,4.8-6.86,9.41-9.96,14.32-1.71,2.71-2.87,5.8-4.02,8.82-1.22,3.22-2.32,6.51-3.12,9.85-.99,4.1-1.78,8.27-2.39,12.45-1.09,7.45-2.98,14.6-6.16,21.49-2.33,5.04-4.98,9.83-8.19,14.32-1.48,2.07-3.18,4.03-4.96,5.85-2.81,2.88-5.54,5.83-9.12,7.89-4.85,2.8-10.06,4.59-15.43,5.88-5.55,1.33-11.17,2.56-16.83,3.17-7.24.78-14.55,1.15-21.84,1.21-4.28.03-8.6-.59-12.9-.86-4.46-.29-8.85-1.63-13.27-2.52-5.88-1.19-11.77-2.39-17.65-3.58-5.49-1.11-10.96-2.41-16.49-3.28-6.11-.96-12.28-1.6-18.44-2.24-3.82-.4-7.66-.69-11.5-.77-4.62-.1-9.24-.08-13.85.15-5.71.28-11.43.65-17.1,1.31-6.84.79-13.5,2.54-19.84,5.19-2.87,1.2-5.45,3.1-8.08,4.83-5.05,3.31-9.56,7.29-13.52,11.83-2.78,3.19-5.42,6.52-7.93,9.93-.69.93-.96,2.39-.91,3.58.07,2.15.45,4.31.84,6.44,1.02,5.62,2.11,11.23,3.2,16.84.17.86.49,1.7.83,2.51,1.55,3.7,3.24,7.35,4.65,11.1.61,1.62.78,3.44.93,5.19.29,3.4,0,3.78-3,5.15-.35.16-.67.4-1.02.61-2.54-.75-3.51-3.02-4.32-4.99-1.68-4.07-2.64-8.44-4.38-12.49-1.35-3.14-1.74-6.42-2.5-9.65-1.9-8.06-2.86-16.23-3.48-24.5-.4-5.36-.03-10.63.29-15.92.24-3.91,1.05-7.79,1.65-11.68.64-4.18,1.27-8.36,2.03-12.52.33-1.83,1.09-3.59,1.45-5.42,1.31-6.66,2.81-13.31,3.67-20.03.55-4.32.13-8.78.12-13.17-.02-4.57-.93-9-2.41-13.28-1.25-3.61-2.84-7.1-4.31-10.63-2.38-5.72-4.76-11.45-7.19-17.15-1.61-3.79-3.32-7.55-4.96-11.33-2.03-4.68-4.11-9.35-6.05-14.07-2.28-5.55-4.53-11.12-6.63-16.74-3.41-9.11-6.43-18.34-8.39-27.89-1.54-7.51-3.29-15-4.5-22.57-1.03-6.41-1.46-12.92-2.06-19.39-.29-3.14-.67-6.32-.42-9.44.54-6.66,1.4-13.3,2.26-19.93.41-3.12,1.09-6.2,1.73-9.29,1.74-8.33,4.26-16.39,8.31-23.91,5.39-10.01,11.32-19.68,19.26-27.9,3.82-3.96,8.11-7.48,12.27-11.09,9.51-8.26,20.43-14.46,31.07-21.05,5.36-3.32,10.71-6.67,16.14-9.86,4.41-2.59,9.01-4.87,13.43-7.46,5.27-3.09,10.38-6.44,15.64-9.53,5.11-2.99,10.16-6.06,14.78-9.76,4.15-3.32,8.06-6.93,12.21-10.25,2.76-2.21,5.61-4.39,8.69-6.1,2.28-1.26,5-1.78,8.47-1.33l.03-.09Zm84.32,223.18l.03.03c.46-.13,1.07-.11,1.36-.41,3.03-3.1,6.03-6.22,8.97-9.4.67-.72,1.05-1.71,1.57-2.57-1.26-.1-2.09.13-2.89.43-2.3.86-4.53,1.99-6.89,2.56-3.57.86-6.85,2.24-10.07,4-4.18,2.29-8.85,3.29-13.5,4.18-2.03.38-4.09.75-6.14.81-1,.03-2.76.15-2.68-1.54.07-1.39,1.6-1.16,2.62-1.31,3.61-.55,7.22-1.05,10.83-1.62.45-.07.84-.49,1.26-.74-1.41-.3-2.65-.12-3.91-.02-14.26,1.06-28.53,1.81-42.84,1.21-8.86-.37-17.5,1.14-25.93,3.76-5.47,1.7-10.88,3.73-14.98,8.01-2.91,3.05-5.86,6.1-8.45,9.41-5.08,6.5-8.17,13.85-8.59,22.19-.22,4.33-.57,8.66-.64,12.99-.06,3.64.18,7.28.35,10.91.02.5.39.98.8,1.95.32-1.06.58-1.6.65-2.16.61-4.88,2.42-9.34,5.02-13.45,1.48-2.34,3.09-4.67,6.02-5.58-.52,1.28-1.17,2.47-1.96,3.55-2.66,3.64-4.33,7.72-5.39,12.05-.7,2.87-1.13,5.81-1.75,8.71-.25,1.15-.38,2.5-1.08,3.32-1.06,1.25-1.03,2.46-.81,3.85.29,1.84.53,3.7.82,5.54.82,5.22.97,10.49-.52,15.55-3.29,11.15-8.17,21.5-16.25,30.1-.37.4-.56.96-.84,1.45,6.15-2.21,11.87-4.81,17.59-7.42.35-.16.74-.35.97-.64,1.52-1.89,3.68-2.51,5.9-3.11,1.11-.3,2.39-.71,3.12-1.5,2.87-3.1,5.68-6.28,8.26-9.62,4.33-5.61,8.56-11.3,12.66-17.07,6.56-9.25,11.26-19.42,14.49-30.27,1.2-4.02,2.27-8.09,3.4-12.13.39.48.55.94.48,1.37-.45,2.81-.9,5.62-1.43,8.41-1.88,9.87-5.53,19.1-10.79,27.62-3.09,5.01-6.62,9.76-10.04,14.56-3.2,4.5-6.69,8.75-10.73,12.54-.67.63-1.58,1.23-1.94,2.69,1.27-.72,2.1-1.25,2.98-1.69,7.37-3.72,14.69-7.53,22.13-11.09,4.88-2.34,9.94-4.29,14.9-6.48,1.96-.87,4.17-1.56,5.7-2.95,4.22-3.83,8.3-7.85,12.14-12.06,4.18-4.58,7.95-9.51,11.28-14.78,3.8-6.03,6.83-12.44,9.59-18.98,2.96-7.01,5.37-14.16,5.04-21.94,0-.26.19-.54.4-1.1.3.62.49.87.54,1.14.87,4.13.47,8.14-.56,12.24-2.36,9.36-6.36,18.03-11.02,26.38-2.29,4.1-5.25,7.86-8.15,11.58-3.45,4.43-7.05,8.76-11.45,12.33-1.42,1.15-2.75,2.41-4.12,3.62,2.91-.51,5.68-1.23,8.19-2.47,10.15-5,20.4-9.79,30.12-15.65,7.04-4.25,13.74-8.91,19.93-14.29,5.72-4.98,11.32-10.11,16.87-15.29,4.03-3.76,7.93-7.69,10.93-12.37,1.04-1.62,2.04-3.25,3.06-4.88.1.57.02,1.05-.17,1.48-2.2,4.97-4.82,9.71-8.58,13.67-5.7,6.01-11.53,11.89-17.35,17.78-1.05,1.06-2.29,1.93-3.45,2.88,8.94-3.08,17.63-6.55,26.87-8.1,7.78-1.3,24.51-4.08,27.79-1.45-.68.32-1.25.76-1.87.85-6.04.93-12.1,1.75-18.13,2.72-4.95.8-9.93,1.5-14.78,2.71-5.92,1.48-11.84,3.14-17.54,5.3-4.85,1.85-9.67,4.1-14,6.94-5.77,3.79-11.65,7.31-17.73,10.53-2.61,1.38-5.26,2.69-7.86,4.09-.73.4-1.36,1-2.03,1.51,1.9.26,3.63-.02,5.35-.02,8.09.04,16.17.14,24.26.26,7.55.11,14.88,1.5,22.06,3.81,1,.32,2.08.46,2.68,1.96-.95-.13-1.6-.22-2.24-.31-8.59-1.28-17.17-2.62-25.9-2.47-2.45.04-4.91-.2-7.36-.21-4.93-.03-9.9-.38-14.78.1-8.88.88-17.44,3.23-25.58,6.98-6.79,3.13-13.62,6.18-20.42,9.3-2.87,1.32-5.7,2.71-8.54,4.1-.28.14-.45.48-1.01,1.1,7.46-1.44,14.46-2.33,21.55-2.22,2.71.04,5.24-.67,7.81-1.35,3.92-1.03,7.88-1.8,11.97-1.58.63.03,1.25.24,2.06.4-1.27,1.05-1.28,1-2.4,1.18-2.41.4-4.9.52-7.16,1.6.9.43,1.76.61,2.62.79,3.83.79,7.64,2.12,11.49,2.24,5.11.16,9.86,1.56,14.69,2.82.67.18,1.24.77,1.85,1.16l.07-.06c-.77.05-1.55.22-2.3.12-3.52-.46-7.01-1.11-10.54-1.48-6.08-.62-12.16-1.32-18.26-1.55-7.28-.27-14.6-.37-21.87.03-5.49.3-10.96,1.33-16.38,2.34-3.47.64-7.12,1.29-10.18,2.9-3.92,2.07-8,3.63-12.05,5.33-8.09,3.39-16.24,6.64-24.26,10.17-3.47,1.53-6.77,3.5-9.99,5.5-2.65,1.65-5.06,3.7-7.62,5.5-3.85,2.7-7.75,5.33-11.52,7.91,4.45-.7,8.98-1.44,13.51-2.13,1.65-.25,3.31-.44,4.98-.55,4.99-.35,9.98-.86,14.98-.91,5.81-.05,11.62.43,17.43.48,8.61.08,17.1,1.33,25.59,2.55,6.72.97,13.4,2.31,20.08,3.54,7.35,1.35,14.68,2.82,22.04,4.13,2.8.5,5.68.59,8.48,1.1,5.56,1.02,11.14,1.42,16.78,1.05,3.74-.24,7.47-.48,11.2-.81,8.45-.74,16.74-2.11,24.86-4.79,6.11-2.02,10.88-5.63,15.35-10.02,4.64-4.56,7.94-10.04,10.87-15.67,3.69-7.08,6.23-14.66,7.15-22.68.2-1.76.36-3.55.84-5.24,1.67-5.93,3.39-11.86,5.26-17.73,1.38-4.32,3.02-8.56,5.85-12.21,2.59-3.34,5.27-6.63,7.7-10.08,4.36-6.2,8.58-12.47,12.11-19.23,3.73-7.13,6.6-14.52,8.72-22.24,1.38-5.03,1.79-10.14.59-15.18-1.62-6.79-3.41-13.56-5.59-20.18-.96-2.92-2.75-5.73-4.72-8.13-3.86-4.69-9.33-6.7-15.12-7.91-4.17-.88-8.25,0-12.31.79-7.38,1.43-14.56,3.45-21.12,7.31-3.56,2.09-7.13,4.16-10.74,6.15-2.63,1.45-4.69,3.18-6.04,6.1-2.07,4.46-5.94,7.54-9.74,10.55-.79.63-1.85,1.34-2.9.21h0ZM45.24,402.59c.31.15.63.31.94.46.46-.64.89-1.3,1.4-1.91,2.27-2.71,4.48-5.47,6.86-8.07,1.59-1.74,3.32-3.37,5.18-4.82,2.8-2.17,5.74-4.14,8.65-6.17,1.66-1.16,2.93-2.53,3.62-4.52.95-2.75,2.64-5.08,4.9-6.93,4.07-3.32,8.6-5.89,13.42-7.97.52-.23,1.08-.39,1.56-.69,2.26-1.41,4.51-2.84,6.72-4.31,1.64-1.09,3.37-2.1,4.8-3.42,3.03-2.79,5.91-5.74,8.81-8.67,3.07-3.1,5.75-6.51,7.56-10.52,1.45-3.23,2.74-6.54,4.28-9.71,3-6.15,3.42-12.69,3.1-19.34-.1-1.99-.68-3.95-1.04-5.93-3.97,5.75-10.17,8.4-15.14,12.51-1.35,1.12-2.95,1.97-4.49,2.84-4.78,2.69-9.62,5.28-14.39,8.01-3.4,1.94-6.76,3.96-10.05,6.08-6.11,3.94-12.28,7.82-18.2,12.04-5.2,3.7-9.36,8.43-12,14.36-.32.71-.66,1.52-1.24,1.99-1.05.85-1.18,1.88-1.33,3.11-.56,4.59-1.27,9.17-1.92,13.75-.4,2.82-.89,5.63-1.14,8.46-.38,4.22-.63,8.46-.84,12.7-.11,2.21-.02,4.44-.02,6.66h0Z"/>
  <path class="cls-1" d="m85.36,499.73c3.11,3.05,5.96,5.62,8.55,8.42,3.13,3.4,6.16,6.9,9.02,10.53,4.39,5.58,8.05,11.68,11.21,18.02,3.25,6.51,6.09,13.22,9.09,19.85,1.86,4.11,3.86,8.16,5.52,12.35,2.04,5.15,5.08,9.75,7.59,14.64,2.14,4.18,4.15,8.44,6.49,12.5,2.34,4.07,4.73,8.09,7.43,11.97,3.66,5.26,7.65,10.18,12.07,14.76,2.45,2.54,5.27,4.75,8.05,6.95,3.16,2.5,6.33,5.02,9.73,7.18,4.31,2.74,8.82,5.18,13.3,7.66,6.39,3.54,13.3,5.93,20.19,8.21,8.22,2.72,16.6,5.08,25.05,6.98,6.22,1.4,12.65,1.94,19.01,2.63,4.88.53,9.81.91,14.71.94,6.41.04,12.83-.17,19.23-.58,6.08-.38,12.15-1.1,18.21-1.77,1.55-.17,3.07-.69,4.59-1.08,3.82-.98,7.68-1.85,11.43-3.03,2.32-.73,4.49-1.93,6.69-2.99,4.77-2.31,9.53-4.65,14.26-7.03,1.14-.57,2.17-1.35,3.25-2.04.91-.59,1.76-1.31,2.74-1.75,4.5-2.05,7.94-5.42,11.4-8.8.42-.41.75-.95,1.22-1.28,5.04-3.53,9.33-7.85,13.44-12.38.56-.62,1.27-1.09,1.93-1.64,1.48,1.27.69,2.42.36,3.46-.91,2.88-2.73,5.24-4.71,7.44-3.62,4.02-7.13,8.18-11.1,11.82-2.87,2.62-6.29,4.72-9.69,6.65-4.62,2.62-9.46,4.85-14.21,7.25-1.41.71-2.88,1.32-4.19,2.18-5.79,3.84-12.4,5.52-19.02,7.05-5.36,1.24-10.77,2.49-16.22,3.06-7.14.75-14.34.82-21.52,1.2-5.23.28-10.45-.23-15.66-.26-5.78-.03-11.35-1.3-17.02-1.79-10.11-.88-19.73-3.87-29.36-6.74-9.35-2.79-18.57-6.11-27.05-11.01-5.6-3.24-10.91-7.02-16.17-10.81-3.83-2.76-7.4-5.88-11.04-8.91-7.21-6.02-13.49-12.92-18.83-20.63-3.19-4.6-6.21-9.33-8.99-14.19-4.15-7.23-8.08-14.59-11.99-21.96-1.89-3.57-3.59-7.24-5.22-10.93-1.58-3.57-2.87-7.28-4.46-10.84-2.24-5.03-4.71-9.95-6.97-14.97-3.05-6.79-7.16-12.92-11.63-18.83-1.25-1.65-2.62-3.2-3.98-4.75-4.95-5.64-10.14-11.06-16.37-15.3-1.39-.94-3.3-1.46-5-1.54-5.59-.28-10.92-1.83-16.24-3.23-5.32-1.4-10.48-3.43-15.66-5.32-3.52-1.28-6.96-2.77-10.4-4.24-1.17-.5-2.25-1.21-3.35-1.85-4.49-2.65-8.99-5.29-13.46-7.97-.54-.32-.94-.85-1.47-1.34,1.25-1.46,2.54-.94,3.67-.48,3.64,1.47,7.32,2.91,10.84,4.63,6.22,3.04,12.66,5.45,19.22,7.59,2.25.74,4.45,1.61,6.7,2.35,2.7.88,5.34,1.66,8.32,1.6,2.47-.05,4.95,1.18,7.44,1.75,2.2.5,4.41,1.1,6.65,1.25,4.82.32,9.66.55,14.48.49,6.56-.08,13.11-.27,19.62-1.39,4.56-.78,9.05-1.89,13.57-2.73,7.59-1.4,14.89-3.75,22.36-5.52,3.54-.84,6.97-2.16,10.48-3.14,3.6-1.01,7.23-1.89,10.86-2.79,4.68-1.17,9.35-2.45,14.07-3.43,4.43-.92,8.93-1.57,13.41-2.25,4.18-.64,8.38-1.21,12.58-1.7,3.33-.39,6.68-.67,10.02-.88,5.21-.32,10.44-.86,15.64-.71,7.18.21,14.35.9,21.51,1.51,5.72.49,11.1,2.43,16.59,3.99,5.66,1.6,10.86,4.16,16.2,6.45,2.6,1.12,5.04,2.64,7.49,4.1,7.97,4.75,15.72,9.88,22.82,15.84,5.72,4.81,11.05,10.1,16.32,15.42,3.88,3.92,7.56,8.06,10.97,12.39,3.84,4.87,7.29,10.04,10.88,15.1,3.31,4.67,6.04,9.68,8.31,14.91,3.08,7.13,5.91,14.37,8.67,21.63.9,2.37,1.21,4.97,1.89,7.44,2.07,7.47,4.38,14.86,7.96,21.8,2.03,3.94,3.82,8,5.71,12.02.16.34.21.72.42,1.5-2.56-1.35-3.85-3.46-5.27-5.32-6.99-9.2-11-19.71-13.4-30.94-.76-3.55-1.78-7.09-3.07-10.48-2.31-6.07-4.76-12.09-7.43-18.01-3.04-6.75-7.07-12.94-11.33-19-5.92-8.41-12.63-16.12-19.82-23.44-5.46-5.56-11.36-10.64-17.65-15.21-6.61-4.79-13.45-9.23-20.69-13.08-10.18-5.42-20.92-9.17-32.14-11.62-1.82-.4-3.71-.56-5.57-.7-9.43-.75-18.86-1.11-28.33-.64-8.31.42-16.47,1.86-24.7,2.79-5.69.64-11.33,1.41-16.9,2.64-3.93.87-7.8,2-11.7,3.01-2.95.76-5.92,1.49-8.86,2.29-5.9,1.6-11.78,3.22-17.67,4.85-4.66,1.29-9.25,2.92-13.98,3.83-8.8,1.7-17.65,3.17-26.53,4.39-4.08.56-8.26.32-12.4.41-2.16.05-4.32,0-6.47,0l-.15.6c1.21.38,2.41.82,3.64,1.15,10.79,2.88,21.23,6.71,31.33,11.46,6.33,2.97,12.69,5.87,19.07,8.24,1.12-.3,2.31-1,3.36-.84,5.7.86,11.19-.23,16.69-1.46,4.14-.92,8.26-1.9,12.43-2.66,6.25-1.14,12.2-3.16,18.03-5.61,7.27-3.05,14.55-6.07,21.82-9.09,3.18-1.32,6.3-2.82,9.56-3.89,7.87-2.57,15.91-2.68,23.97-1,2.78.58,5.54,1.36,8.23,2.3,1.8.63,3.44,1.68,4.97,3.02-2.61-.72-5.21-1.5-7.84-2.15-7.38-1.82-14.82-2.29-22.26-.45-4.29,1.06-8.49,2.4-12.48,4.46-4.1,2.12-8.47,3.71-12.71,5.56-2.71,1.18-5.37,2.47-8.1,3.59-3.63,1.5-7.29,2.97-10.98,4.32-10.08,3.69-20.73,4.75-31.19,6.66-2.34.43-4.83.06-7.29.52,7,3.08,14,6.14,20.99,9.25,6.21,2.76,12.3,5.81,18.63,8.28,5.02,1.96,10.24,3.48,15.49,4.75,8.52,2.06,17.13,3.74,25.68,5.62,7.8,1.72,15.6,3.43,23.37,5.31,3.25.79,6.44,1.88,9.58,3.04,2.56.95,5.06.67,7.57.13,5.25-1.14,10.1-3.3,14.79-5.88,6.65-3.66,13.27-7.37,20.02-10.84,2.75-1.41,5.79-2.25,8.7-3.35.1.2.2.4.31.6-.23.19-.42.46-.69.57-6.23,2.59-11.77,6.38-17.47,9.9-5.28,3.27-10.53,6.6-16.34,8.88-2.01.79-4.14,1.3-6.2,1.97-.52.17-.99.45-1.95.88,24.62,8.9,46.86,21.08,66.88,37.19-10.85-7.17-21.78-14.2-33.7-19.72.41.44.78.94,1.25,1.32,5.49,4.36,9.24,9.87,11.41,16.54,1.53,4.69,3.41,9.28,6.33,13.31,1.43,1.97,3.13,3.75,4.37,6.08-.97-.7-1.95-1.39-2.92-2.09-5.06-3.63-8.48-8.42-10.38-14.35-1.57-4.89-3.17-9.81-6.54-13.81-1.89-2.25-4.13-4.21-6.28-6.22-2.24-2.08-4.44-4.23-6.9-6.02-1.88-1.37-4.06-2.37-6.21-3.3-10.8-4.64-21.91-8.5-33.24-11.53-8.75-2.34-17.77-3.66-26.68-5.42-.95-.19-1.93-.26-3.28-.44.6.78.93,1.33,1.38,1.76,2.43,2.32,4.98,4.51,7.3,6.93,2.87,2.98,5.74,5.99,8.28,9.25,2.9,3.72,5.53,7.66,8.07,11.63,1.21,1.88,2.1,4.01,2.87,6.13,3.01,8.34,6.28,16.58,8.44,25.22,1.87,7.49,4.73,14.62,9.59,20.78,1.15,1.45,2.35,2.86,3.68,4.49-1.38.58-2.1-.2-2.75-.76-4.23-3.63-7.86-7.77-10.25-12.85-2.11-4.47-3.46-9.2-4.96-13.9-2.7-8.42-5.22-16.95-10.39-24.37-1.38-1.98-2.15-4.39-3.21-6.59-.3-.62-.51-1.34-.97-1.81-2.49-2.54-3.58-6.03-5.97-8.62-2.4-2.6-4.82-5.18-7.21-7.79-2.46-2.69-4.92-5.39-7.34-8.11-1.63-1.83-3.49-2.94-6.03-3.32-6.53-.97-13.07-2.01-19.51-3.46-4.1-.92-8.05-2.57-12.03-3.99-2.5-.89-4.96-1.92-7.41-2.96-5.71-2.43-11.43-4.85-17.11-7.36-6.39-2.83-12.74-5.76-19.47-8.33.66.73,1.25,1.54,1.99,2.19,7.05,6.23,13.25,13.15,18.42,21.08,2.82,4.33,5.28,8.8,7.4,13.45,1.63,3.57,2.81,7.35,4.16,11.04.16.43.15.92-.31,1.59-.47-1.02-.97-2.02-1.4-3.06-5.37-12.87-12.56-24.64-22.22-34.69-4.76-4.96-10.28-9.21-15.63-13.56-2.43-1.97-5.3-3.39-7.96-5.08-.66-.42-1.72-.8-1.85-1.37-.46-2.13-2.26-2.6-3.77-3.38-4.2-2.16-8.39-4.35-12.67-6.34-4.11-1.91-8.33-3.59-12.52-5.35-.4-.17-.89-.15-1.85-.29h-.02Z"/>
  <path class="cls-1" d="m69.06,237.42c.3-.41.54-.98.97-1.31,2.35-1.78,4.83-3.42,7.12-5.27,4.12-3.32,8.26-6.64,12.18-10.18,5.04-4.55,8.46-10.45,12.52-15.81,4.34-5.72,8.64-11.47,12.97-17.2.46-.61.98-1.19,1.47-1.78l.53.38c-1.04,1.82-2.02,3.68-3.13,5.45-3.6,5.76-7.26,11.48-10.87,17.23-4.68,7.45-9.97,14.37-17.15,19.61-3.26,2.38-6.65,4.56-10.01,6.8-1.38.92-2.81,1.78-4.23,2.64-.87.52-1.68.54-2.37-.57h0Z"/>
  <path class="cls-1" d="m159.52,87.2c.71-1.53,1.1-2.5,1.6-3.41,4.25-7.89,6.55-16.4,7.87-25.2.73-4.89.75-9.8-.44-14.64-.3-1.22-1-2.34-1.34-3.55-.16-.56-.09-1.43.25-1.83.68-.79,1.44-.24,2.01.35,1.96,2.02,2.49,4.61,2.89,7.27,1.42,9.24-.38,18.04-3.81,26.56-1.43,3.55-3.22,6.95-4.95,10.37-.78,1.54-1.81,2.94-4.08,4.08Z"/>
  <path class="cls-1" d="m187.56,622.99c5.57,4.91,11.97,8.64,18.37,12.3,3.83,2.18,8.01,3.79,12.12,5.44,5.56,2.22,11.2,4.22,16.8,6.33.62.23,1.21.56,1.75,1.41-.97-.08-1.96-.07-2.92-.25-5.56-1.01-10.89-2.81-16.06-5.02-5.33-2.28-10.65-4.64-15.77-7.35-5.15-2.72-9.53-6.61-13.97-10.37-.98-.83-.92-1.63-.26-2.55l-.07.07h.01Z"/>
  <path class="cls-1" d="m190.43,634.45c14.26,11.06,30.51,17.19,47.91,22.4-4.45-.12-8.16-.91-11.75-2.01-6.96-2.13-13.78-4.7-20.25-8.08-2.36-1.23-4.74-2.45-6.98-3.87-2.23-1.41-4.34-3.01-6.41-4.64-1.12-.88-2.24-1.87-2.51-3.8h-.01Z"/>
  <path class="cls-1" d="m153.8,152.48c2.28.07,2.57,1.42,3.03,2.39,2.48,5.28,3.33,10.88,3.01,16.67-.38,6.8-2.44,13.13-5.48,19.17-.51,1.01-1.23,1.91-2.16,2.76,5.85-13.35,7.25-26.85,1.61-40.98h0Z"/>
  <path class="cls-1" d="m23.64,122.41c-3.15,4.35-7.3,8.12-9.63,13.08-2.29,4.87-4.15,9.94-6.28,15.1-.14-.92-.47-1.79-.36-2.59.51-3.7,1.21-7.31,2.87-10.76,1.92-3.99,3.8-7.97,6.55-11.46,1.09-1.38,2.34-2.65,3.61-3.87,1-.96,2.08-1,3.24.51h0Z"/>
  <path class="cls-1" d="m15.18,219.14c-.84-2.47-1.97-4.89-2.47-7.43-.86-4.44-1.56-8.94-1.91-13.45-.31-4.01-.06-8.06-.02-12.09,0-.99.14-2,1.64-2.16,1.3,1.92.93,4.17.91,6.21-.05,7.71.27,15.37,1.56,22.98.32,1.91.8,3.8,1.21,5.7l-.93.24h.01Z"/>
  <path class="cls-1" d="m221.46,522.99c-1.54.29-2.47.46-3.39.65-5.19,1.05-10.41,1.97-15.56,3.19-3.96.94-7.47,2.89-10.42,5.76-.26.25-.63.39-.96.59-.98-2.49-.22-4.37,2.33-5.8,3.63-2.04,7.5-3.42,11.63-4.08,4.96-.79,9.93-1.36,14.96-.8.26.03.51.18,1.4.5h0Z"/>
  <path class="cls-1" d="m230.53,628.16c-1.1.11-2.21.37-3.3.31-4.2-.26-8.07-1.65-11.74-3.63-5.37-2.89-10.81-5.68-15.25-9.97-.33-.32-.63-.68-.71-1.33,3.27,1.89,6.59,3.72,9.81,5.69,3.34,2.05,6.97,3.42,10.55,4.93,3.44,1.46,7.27,1.76,10.76,3.08-.04.31-.08.61-.11.92h0Z"/>
  <path class="cls-1" d="m285.95,656.81c-9.43,2.9-31.2,2-36.19-1.47,1.11-1.08,2.33-.62,3.52-.47,9.16,1.11,18.31,2.26,27.57,1.91,1.37-.05,2.74-.19,4.12-.27.18-.01.37.11.99.3h0Z"/>
  <path class="cls-1" d="m20.7,173.19c-.13-.52-.37-1.03-.36-1.54.21-7.09,1.43-14.06,2.89-20.98.2-.93.71-1.87,1.31-2.61.34-.41,1.26-.71,1.73-.54.37.14.73,1.17.58,1.64-1.07,3.43-2.27,6.83-3.42,10.24-.08.25-.11.54-.1.8.11,4.43-1.28,8.61-1.77,12.94l-.86.04h0Z"/>
  <path class="cls-1" d="m170.99,497.16c-4.23-.75-8.15-1.66-12.13-2.09-4.29-.47-8.64-.52-12.96-.69-1.16-.05-2.35.19-3-1.16,4.83-3.01,22.87-.49,28.09,3.94h0Z"/>
  <path class="cls-1" d="m15.76,170.5c-.26-1-.66-1.99-.76-3-.46-5-.46-10.01.06-15.01.1-.97.38-1.95.78-2.83.2-.44.95-1.01,1.26-.92.54.17,1.28.79,1.31,1.26.1,1.56-.04,3.14-.17,4.7-.37,4.4-.78,8.8-1.19,13.2-.08.85-.28,1.69-.42,2.53-.29.02-.58.05-.87.07Z"/>
  <path class="cls-1" d="m55.31,258.42c-5.42-8.62-10.84-16.85-10.58-27.25.2-.08.39-.16.59-.23.29.96.66,1.9.85,2.88,1.2,6.16,3.82,11.72,7.09,17.03.92,1.5,1.68,3.11,2.41,4.72.35.75.77,1.61-.37,2.85h.01Z"/>
  <path class="cls-1" d="m116.94,530.47c3.02,7.27,5.58,14.02,8.6,20.56,2.99,6.48,6.44,12.76,9.59,18.91-4.84-3.76-17.89-31.39-18.19-39.47h0Z"/>
  <path class="cls-1" d="m232.08,574.43c-6.95-1.39-19.74-16.1-21.16-21.45,1.09-.66,1.68.25,2.19.84,1.49,1.71,2.86,3.52,4.28,5.28,3.08,3.82,6.1,7.69,9.28,11.42.82.96,2.14,1.49,3.22,2.24.75.53,1.45,1.11,2.18,1.67h.01Z"/>
  <path class="cls-1" d="m73.03,165.59c-.26-.99-.66-1.96-.74-2.96-.41-5.04-.12-10.04,1.31-14.92.3-1.03.78-2.01,1.29-2.95.13-.24.76-.46,1.01-.35.38.17.74.59.9.98.13.32,0,.77-.06,1.16-.73,4.36-1.5,8.72-2.21,13.09-.31,1.93-.53,3.87-.79,5.8-.24.05-.47.11-.71.16h0Z"/>
  <path class="cls-1" d="m98.72,285.09c-1.06,7.32-13.2,19.43-19.04,19.22.52-.64.8-1.25,1.29-1.56,6.2-3.97,11.22-9.21,15.93-14.78.3-.36.4-.88.65-1.29.24-.4.55-.75,1.17-1.58h0Z"/>
  <path class="cls-1" d="m283.83,590.14c-1.69.68-3.14-.26-4.42-.94-5.16-2.73-10.52-4.91-16.06-6.68-.16-.05-.27-.25-.75-.71,2.11-.26,3.91-.14,5.65.26,4.82,1.1,9.43,2.82,13.68,5.39.92.56,2.28.98,1.9,2.68h0Z"/>
  <path class="cls-1" d="m50.35,84.93c-3.18,3.21-6.41,6.05-9.13,9.32-2.74,3.3-4.97,7.02-7.79,11.1.15-1.04.13-1.55.3-1.98,2.95-7.25,7.75-13.17,13.35-18.51,1.22-1.16,1.23-1.14,3.27.07Z"/>
  <path class="cls-1" d="m104.79,177.87c-.62.87-1.1,1.9-1.89,2.57-3.28,2.81-6.55,5.66-10.05,8.19-1.33.96-3.25,1.22-4.95,1.51-.52.09-1.58-.64-1.72-1.18-.26-.96.68-1.18,1.51-1.34,3.58-.69,6.53-2.66,9.38-4.78,2.43-1.8,4.86-3.6,7.29-5.4.14.14.29.28.43.42h0Z"/>
  <path class="cls-1" d="m188.98,492.3c-10.19-1.92-20.32-3.16-30.65-2.38l-.2-.63c.45-.36.86-.97,1.35-1.03,2.34-.29,4.73-.75,7.04-.55,7.38.65,14.67,1.89,21.75,4.13.26.08.47.31.71.46h0Z"/>
  <path class="cls-1" d="m232.17,475.75c4.3-1.66,33.65,4.62,38.64,8.19-2.6-.64-4.65-1.13-6.69-1.65-2.1-.54-4.19-1.13-6.3-1.65-2.2-.54-4.41-1.34-6.63-1.4-2.08-.06-3.68-1.5-5.9-1.29-2.06.19-4.22-.78-6.36-1.16-2.08-.37-4.18-.64-6.76-1.04Z"/>
  <path class="cls-1" d="m88.9,214.59c-1.52-6.03,6.65-17.54,13.51-19.78-2.7,3.24-5.25,6.2-7.69,9.24-2.4,2.98-4.15,6.39-5.82,10.54Z"/>
  <path class="cls-1" d="m258.38,660.83c2.08-1.93,3.98-1.69,5.63-1.41,6.16,1.03,12.31.81,18.49.36.24-.02.5.13.75.41-8.05,2.12-16.12,2.65-24.86.64h-.01Z"/>
  <path class="cls-1" d="m96.44,254.14c-.24.79-.41,1.61-.74,2.36-2.45,5.54-5.75,10.55-9.83,15.01-1.01,1.11-2.05,2.69-4.43,2.38,2.69-3.43,5.29-6.54,7.66-9.83,2.39-3.3,4.55-6.77,6.8-10.17l.52.24h.02Z"/>
  <path class="cls-1" d="m246.88,534.15c-4.39.99-8.57,1.88-12.72,2.91-1.09.27-2.03,1.12-3.11,1.49-.63.22-1.64.3-2.08-.05-.86-.7-.43-1.6.34-2.23.59-.48,1.2-1.01,1.9-1.28,4.36-1.69,8.84-2.58,13.53-1.75.48.09.96.21,1.42.38.25.09.44.31.73.52h0Z"/>
  <path class="cls-1" d="m151.81,177.14c2.57,4.58-.94,16.4-5.66,20.1,1.88-6.67,3.72-13.2,5.66-20.1Z"/>
  <path class="cls-1" d="m157.4,84.67c.6-2.95,1.27-5.88,1.77-8.84.47-2.8.79-5.62,1.13-8.44.13-1.05-.07-2.55,1.31-2.54,1.59,0,1.45,1.63,1.35,2.72-.4,4.5-1.2,8.93-3.03,13.11-.62,1.41-1.31,2.78-1.97,4.17-.19-.06-.38-.12-.57-.18h0Z"/>
  <path class="cls-1" d="m267.69,501.23c7.08-.51,21.28,4.49,24.86,8.87-8.4-3-16.59-5.92-24.86-8.87h0Z"/>
  <path class="cls-1" d="m129.79,123.95c.53,3.02-1.21,4.91-2.64,6.79-1.58,2.08-3.6,3.86-5.56,5.62-1.43,1.28-2.84,1.41-3.39.64-.58-.81,0-1.83,1.55-3.07,2.29-1.84,4.56-3.7,6.76-5.64.71-.63,1.15-1.56,1.73-2.34.5-.68,1.04-1.33,1.56-1.99h-.01Z"/>
  <path class="cls-1" d="m126.85,228.4c.6-2.15,8.77-11.53,13.39-15.56-.78,4.01-9.83,14.7-13.39,15.56Z"/>
  <path class="cls-1" d="m235.89,529.23c-7.04,2.24-13.78,4.39-20.79,6.63,1.96-3.48,13.25-6.98,20.79-6.63Z"/>
  <path class="cls-1" d="m31.8,121.57c2.11-5.07,4.02-10.26,7.65-14.51,1.63-1.91,3.4-3.73,6.68-4.41-.9,1-1.34,1.6-1.89,2.07-3.98,3.37-6.75,7.6-8.97,12.25-.59,1.23-1.16,2.49-1.91,3.62-.3.46-1.05.63-1.6.93l.05.06h0Z"/>
  <path class="cls-1" d="m351.18,598.87c2.33,0,3.95.99,4.46,2.31.56,1.45-.24,2.69-1.79,2.49-1.27-.17-2.38-.26-3.67.21-1.02.37-2.08-.51-2.43-1.66-.32-1.04-.01-2.02,1.01-2.5.96-.45,2.01-.7,2.42-.85h0Z"/>
  <path class="cls-1" d="m289.61,552.72c1.32.05,2.39,1.38,1.79,2.67-.64,1.36-1.61,2.69-2.74,3.67-1.28,1.11-2.94.26-3.27-1.43-.45-2.34,1.83-5,4.22-4.91h0Z"/>
  <path class="cls-1" d="m277.73,483.55c4.8.44,18.14,7.29,22.41,11.55-7.73-3.98-14.9-7.68-22.41-11.55Z"/>
  <path class="cls-1" d="m152.11,20.21c.65-2.33,1.51-2.87,3.07-2.26,2.49.96,4.95,5.44,4.58,8.67-2.47-2.35-3.95-5.62-7.65-6.41h0Z"/>
  <path class="cls-1" d="m83.36,99.3c2.42,3.56,2.3,10.91,0,14.38-.1-1.38-.19-2.4-.24-3.43-.14-2.75-.29-5.49-.36-8.24-.02-.69.29-1.38.6-2.71Z"/>
  <path class="cls-1" d="m26.03,237.06c-3.96-2.93-6.56-8.25-5.43-11.26,2.68,3.52,4.15,7.34,5.43,11.26Z"/>
  <path class="cls-1" d="m145.24,573.62c-4.56-5.33-8.35-11.15-11.01-17.83.41.09.62.08.74.18.22.18.44.41.58.66,3.24,5.66,6.47,11.33,9.7,17h-.01Z"/>
  <path class="cls-1" d="m195.29,510.2c-.42.6-.7,1.47-1.28,1.76-3.76,1.9-7.59,3.68-11.41,5.47-.22.11-.55-.01-1.32-.05,4.38-3.61,9.53-4.79,14.05-7.15l-.05-.04h.01Z"/>
  <path class="cls-1" d="m187.63,622.93c-1.33.55-2.31.24-3.38-.81-2.73-2.68-5.17-5.54-7.02-8.92,3.44,3.27,6.87,6.54,10.32,9.8l.08-.07Z"/>
  <path class="cls-1" d="m211.29,607.7c3,.62,6,1.25,9.2,1.91.42,1.34-.55,1.8-1.7,1.73-2.95-.19-5.52-1.36-7.8-3.11.1-.17.2-.35.3-.52h0Z"/>
  <path class="cls-1" d="m130.14,107.72c1.55-4.14,2.97-7.94,4.45-11.9.94,3.46-1.26,9.41-4.45,11.9Z"/>
  <path class="cls-1" d="m130.14,36.32c1.5-3.38,3.7-6.21,6.58-8.77.31.56.63.94.56,1.02-2.16,2.78-4.36,5.52-6.55,8.28-.2-.18-.39-.36-.59-.53Z"/>
  <path class="cls-1" d="m270.32,593.3c1.86.25,3.48.37,5.06.72.53.11.93.78,1.39,1.19-.52.47-.98,1.21-1.57,1.35-1.84.43-3.75-.9-4.88-3.26h0Z"/>
  <path class="cls-1" d="m154.61,600.48c-3.35-2.84-6.51-5.85-8.33-10.09,2.99,3.16,5.97,6.33,8.96,9.49-.21.2-.42.4-.63.6h0Z"/>
  <path class="cls-1" d="m166.67,521.45c-3.33.65-6.66,1.31-9.99,1.96,1.05-2.08,3.05-1.56,4.63-2.02,1.68-.49,3.52-.42,5.29-.59l.07.65Z"/>
  <path class="cls-1" d="m188.4,568.37c-1.77-2.64-3.84-5.16-3.36-9.3,1.44,3.35,2.66,6.2,3.89,9.06-.18.08-.35.16-.53.24Z"/>
  <path class="cls-1" d="m277.41,535.65c-1.9-.14-3.79-.27-5.69-.41,2.06-1.49,3.83-.07,5.69.41Z"/>
  <path class="cls-1" d="m370.93,621.28c-1.23,1.74-2.74,3.2-4.84,4.05,1.47-1.49,2.95-2.98,4.42-4.48.14.14.28.28.42.42h0Z"/>
  <path class="cls-1" d="m107.17,515.89c-2-1.87-3.5-3.27-5.21-4.86,2.25.22,3.06.97,5.21,4.86Z"/>
  <path class="cls-1" d="m298.78,504.73c1.57,1.16,3.15,2.32,4.72,3.47-.15.21-.31.42-.46.62-1.56-1.17-3.13-2.34-4.69-3.51.14-.2.29-.39.43-.59h0Z"/>
  <path class="cls-1" d="m304.73,498.12c-1.65-.87-2.87-1.52-4.08-2.16,2.18-.2,2.38-.09,4.08,2.16Z"/>
  <path class="cls-1" d="m168.79,520.43h4.28c.02.09.04.19.06.28-1.46.18-2.92.37-4.38.55,0-.28.03-.56.04-.83h0Z"/>
  <path class="cls-1" d="m202.97,639.01c-.77-.3-.99-.32-1.13-.44-.89-.81-1.76-1.64-2.51-2.61,1.44.47,2.76,1.07,3.64,3.05Z"/>
  <path class="cls-1" d="m203.84,639.06c.95.54,1.91,1.08,2.86,1.61-.06.13-.13.26-.19.38-.99-.48-1.97-.95-2.96-1.43.09-.19.19-.38.28-.57h.01Z"/>
  <path class="cls-1" d="m231.16,475.4h-1.31c-.02-.1-.03-.2-.05-.3.46-.1.91-.19,1.37-.29v.58h0Z"/>
  <path class="cls-1" d="m166.85,575.2c.08.43.17.85.25,1.28-.1.04-.21.08-.31.12-.2-.4-.4-.8-.6-1.2l.66-.19h0Z"/>
  <path class="cls-1" d="m147.93,576.04c.34.42.69.84,1.03,1.27-.08.1-.17.2-.25.29-.21-.18-.46-.33-.64-.54-.2-.24-.33-.52-.49-.79.12-.08.23-.16.35-.23h0Z"/>
  <path class="cls-1" d="m31.75,121.52v2.67c-.2-.01-.41-.03-.61-.04.22-.85.45-1.7.66-2.56l-.05-.07Z"/>
  <path class="cls-1" d="m195.34,510.24c.76-.22,1.53-.45,2.65-.78-.93,1.23-1.75,1.19-2.68.75,0-.01.03.02.03.02h0Z"/>
  <path class="cls-1" d="m243.36,377.22c6.72-4.1,12.93-8.67,17.47-15.28-.44,3.41-2.66,5.81-4.47,8.49,8.27-4.01,14.1-10.51,18.77-18.51,1.18,1.6.46,2.64.06,3.68-2.19,5.64-6.45,9.56-11.13,13.05-4.3,3.2-8.94,5.63-14.39,6.44-2.16.32-4.21,1.4-6.31,2.14h0Z"/>
  <path class="cls-1" d="m147.01,241.08c.86-1.44,1.55-3.02,2.61-4.31,5.96-7.23,13.23-12.51,22.51-14.67,1.31-.3,2.66-.71,3.99,1.03-5.91,1.35-11.1,3.7-15.85,7.03-4.66,3.27-8.79,7.09-12.48,11.43l-.78-.51Z"/>
  <path class="cls-1" d="m324.88,261.47c.13-3.41.45-6.82.36-10.23-.13-4.51-.57-9.01-.9-13.51-.03-.39-.31-.8-.22-1.14.11-.42.41-.89.77-1.12.22-.14.88.03,1.03.27.59.89,1.33,1.81,1.51,2.81.49,2.7.91,5.44,1.02,8.18.16,3.94-.23,7.86-1.63,11.6-.43,1.13-1.04,2.2-1.57,3.29-.12-.05-.24-.1-.35-.16h-.02Z"/>
  <path class="cls-1" d="m271.72,366.31c1.28-1.17,2.51-2.4,3.84-3.52,5.74-4.81,9.74-10.68,11.6-18.01.56-2.22,1.62-4.32,2.54-6.73,1.2,2.23.61,6.18-1.64,11.77-3.11,7.74-8.91,12.93-16.35,16.49h.01Z"/>
  <path class="cls-1" d="m315.3,272.68c.84-3.41,1.84-6.8,2.48-10.25.64-3.46,1.03-6.98,1.33-10.5.2-2.32.07-2.43,1.45-3.91,1.37.56,1.47,1.85,1.35,2.96-.44,4.1-.85,8.22-1.67,12.25-.5,2.47-1.65,4.82-2.64,7.16-.4.94-1.16,1.72-1.76,2.57-.18-.1-.36-.19-.53-.29h0Z"/>
  <path class="cls-1" d="m197.61,229.48c.77-.33,1.53-.71,2.32-.97,6.66-2.24,13.55-3.17,20.54-3.37,1.35-.04,2.72.32,4.07.59.26.05.43.52.97,1.21-5.05.37-9.69.59-14.3,1.07-4.51.47-8.93,1.68-13.59,1.47h-.01Z"/>
  <path class="cls-1" d="m233.58,273.83c.35,1.74-.47,3.08-1.35,4.34-2.37,3.37-4.94,6.6-8.18,9.2-1.21.97-2.6,1.75-4,2.42-.4.19-1.14-.33-1.72-.53.25-.48.38-1.16.77-1.39,3.52-2.05,6.53-4.72,9.25-7.71,1.84-2.02,3.49-4.21,5.23-6.33h0Z"/>
  <path class="cls-1" d="m177.65,301.05c1.7,4.21-2.82,14.07-8.29,17.1,1.52-2.76,3.24-5.42,4.5-8.29,1.27-2.9,2.08-5.99,3.1-9,.23.06.46.13.69.19h0Z"/>
  <path class="cls-1" d="m295.84,309.64c3.34-5.97,5.41-12.33,6.33-19.56,2.54,4.87-.86,15.08-6.33,19.56Z"/>
  <path class="cls-1" d="m186.68,286.59c.56-7.98,1.12-15.96,1.69-24.05,1.64,2.9.62,18.67-1.69,24.05Z"/>
  <path class="cls-1" d="m196.92,271.76c.86,3.24-2.7,13.2-6.44,17.54.17-.69.21-1.01.33-1.28,2.11-4.78,3.93-9.64,4.63-14.86.1-.77.37-1.59,1.48-1.4h0Z"/>
  <path class="cls-1" d="m276.83,297.84c-4.75.79-9.16.09-10.89-1.72,1.6-.52,7.49.42,10.89,1.72Z"/>
  <path class="cls-1" d="m261.82,303.54c-2.54.48-5.06.41-7.51-.52-.42-.16-.65-.81-.96-1.23.48-.23,1.03-.73,1.44-.64,2.39.5,4.75,1.13,7.12,1.72l-.09.66h0Z"/>
  <path class="cls-1" d="m234.73,255.62c-.58,1.95-1.13,3.91-1.77,5.85-.34,1.03-.82,2.01-1.24,3.01-.2-.06-.41-.11-.61-.17-.06-.44-.27-.92-.16-1.3.73-2.34,1.49-4.67,2.36-6.96.11-.28.93-.29,1.43-.42h0,0Z"/>
  <path class="cls-1" d="m234.74,255.63c-1.43-2.12-.11-3.87.91-5.67-.31,1.88-.63,3.76-.93,5.65h.02s0,.02,0,.02Z"/>
  <path class="cls-1" d="m248.69,223.25c.7,1.79-.58,2.15-2.01,2.39.69-.77,1.37-1.55,2.05-2.33,0-.02-.04-.05-.04-.05h0Z"/>
  <path class="cls-1" d="m227.52,338.26c.8.05,1.59.1,2.93.18-1.56,1.06-2.16.2-2.86-.25l-.07.06h0Z"/>
</svg>