<?xml version="1.0" encoding="UTF-8"?>
<svg id="Layer_1" data-name="Layer 1" xmlns="http://www.w3.org/2000/svg" viewBox="0 0 154.97 146.47">
  <defs>
    <style>
      .cls-1 {
        fill: #d44000;
        stroke-width: 0px;
      }
    </style>
  </defs>
  <path class="cls-1" d="m83.97,146.46c-7.19-.93-14.45-1.46-21.53-2.92-4.98-1.03-9.76-3.18-14.52-5.1-9.67-3.9-17.69-10.32-25.28-17.29-3.58-3.29-7.57-6.34-10.33-10.23-2.96-4.18-4.73-9.21-6.96-13.89-2.85-6-4.21-12.46-4.77-18.98-1.03-11.82-1.21-23.56,4.05-34.79,2.12-4.53,5-8.36,8.05-12.13,2.84-3.5,5.81-6.95,9.1-10.02,2.52-2.35,5.51-4.26,8.48-6.05,3.02-1.82,6.23-3.37,9.45-4.83,2.34-1.06,5.2-1.29,7.18-2.77,5.8-4.32,12.75-4.44,19.3-6.14,7.43-1.93,14.84-1.46,22.19-.36,5.84.88,11.72,2.23,17.24,4.29,4.57,1.7,8.89,4.38,12.88,7.24,7.39,5.3,13.63,11.95,18.75,19.39,5.06,7.35,9.59,15.12,13.82,22.99,2.02,3.76,3.16,7.96,3.62,12.48.49,4.83.33,9.48-.38,14.15-.76,4.99-1.66,10-3.09,14.83-1.94,6.54-4.42,13.03-8.65,18.44-4.62,5.91-8.68,12.43-15.42,16.42-3.52,2.08-6.78,4.67-10.45,6.38-4.54,2.11-9.31,3.83-14.13,5.17-5.27,1.46-10.71,2.31-16.09,3.36-.77.15-1.62-.06-2.43-.11-.02.16-.05.32-.07.48h-.01ZM5.96,72.2l-.91.06c.56,3.5,1.21,6.98,1.65,10.49.88,6.99,3.6,13.39,6.77,19.52,2.81,5.45,7.09,9.76,11.66,14,6.51,6.05,13.64,10.97,21.39,15.04,4.34,2.28,8.93,4.29,13.64,5.63,9.61,2.74,19.55,4.16,29.47,2.51,12.32-2.05,24.11-5.46,34.32-13.55,5.76-4.56,10.16-10.14,14.67-15.64,2.64-3.21,3.84-7.61,5.66-11.49,4.05-8.66,4.7-18.07,5.51-27.34.49-5.63-1.03-11.22-3.85-16.27-1.26-2.26-2.68-4.44-4.03-6.66-1.36-2.22-2.61-4.51-4.11-6.63-2.33-3.29-4.7-6.57-7.29-9.66-2.46-2.95-5-5.9-7.9-8.38-2.92-2.5-6.29-4.51-9.54-6.61-5.15-3.33-10.08-7.16-16.41-8.09-2.83-.42-5.79-.39-8.47-1.25-5.25-1.7-10.53-2.7-15.92-1.44-5.52,1.29-11.75-.32-16.5,4.52-1.48,1.5-4.49,1.44-6.76,2.24-3.83,1.35-7.91,2.33-11.37,4.35-6.11,3.56-11.67,8.01-16.63,13.09-2.25,2.3-4.36,4.78-6.2,7.41-1.9,2.71-3.62,5.6-5.02,8.6-1.51,3.22-3.24,6.57-3.66,10.01-.62,5.11-.16,10.35-.16,15.53h0Z"/>
  <path class="cls-1" d="m86.89,86.25c.24,1.71.53,3.41.71,5.12.34,3.34.69,6.69.9,10.05.18,2.94.24,5.9.2,8.85-.04,2.55-.26,5.11-.47,7.65-.25,3.17-2.47,4.66-5.6,4.69-4.28.04-8.56.73-12.84.86-2.02.06-4.14-.27-6.04-.93-.68-.24-1.21-1.95-1.2-2.99.03-6.29.39-12.59.34-18.88-.06-7.73-.42-15.46-.65-23.42-2.62-.25-4.93-.73-7.22-.64-5.67.21-9.38-3.18-9.05-8.87.17-2.85.6-5.76,1.48-8.46.37-1.12,2.12-2.27,3.41-2.5,2.54-.47,5.21-.45,7.81-.37,1.63.05,2.61-.06,2.52-2.07-.04-.85.59-1.72.91-2.57-.2-.61-.72-1.42-.67-2.2.4-5.76,1.73-11.31,4.04-16.63,1.43-3.29,4.37-4.62,7.34-4.94,4.99-.53,10.1-.56,15.1-.12,2.4.21,4.52,1.34,7.22.5,1.83-.57,4.33.04,6.2.87,2.84,1.26,2.38,4.26,2.23,6.71-.16,2.85.17,5.74-1.75,8.46-1.09,1.54-1.97,2.24-3.72,2.37-2.57.19-5.12.53-7.68.89-2.75.38-2.67,3.01-3.58,4.79-.34.66-.46,1.62-.25,2.31.23.77.9,1.92,1.47,1.98,3.07.34,6.17.43,9.26.53,1.25.04,2.52-.17,3.77-.12,3.05.13,4.62,2.06,4.3,5.11-.07.7.17,1.43.11,2.14-.26,3.6-.5,7.2-.95,10.78-.08.61-1.13,1.49-1.8,1.55-2.64.24-5.3.23-7.95.26-1.17.01-2.36-.25-3.52-.13-3.3.34-3.9,1.1-4.09,4.42-.1,1.7-.37,3.38-.57,5.08.09-.04.17-.09.26-.13h.02Z"/>
</svg>