<?xml version="1.0" encoding="UTF-8"?>
<svg id="Layer_1" data-name="Layer 1" xmlns="http://www.w3.org/2000/svg" viewBox="0 0 411.46 286.7">
  <defs>
    <style>
      .cls-1 {
        fill: #285d2e;
        stroke-width: 0px;
      }
    </style>
  </defs>
  <path class="cls-1" d="m68.63,145.04c1.03-.4,1.3.27,1.52.87.43,1.21.79,2.45,1.18,3.68,2.21,6.98,4.89,13.77,8.08,20.37,1.46,3.03,2.68,6.18,4.09,9.24,1.04,2.26,2.32,4.41,3.29,6.7,1.69,3.98,3.23,8.03,4.81,12.05,1.41,3.58,2.78,7.18,4.19,10.77,1.29,3.27,2.54,6.56,3.93,9.79.73,1.68,1.69,3.26,2.6,4.86,2.41,4.26,4.8,8.53,7.3,12.73.81,1.37,1.87,2.61,2.95,3.79,2.21,2.44,5.11,3.29,8.29,3.12,2.99-.16,5.04-2.24,5.36-5.23.6-5.62-.63-10.86-3.32-15.79-1.69-3.1-3.48-6.16-5-9.35-.67-1.41-.9-3.06-1.11-4.64-.7-5.33-1.2-10.68-1.95-16-.53-3.78-2.35-7.13-4.05-10.51-1.94-3.86-3.71-7.82-5.54-11.74-.27-.58-.38-1.24-.7-1.79-2.68-4.62-4.12-9.58-3.82-14.93.14-2.47.67-4.92,1.04-7.38.19-1.28.87-2.23,2.15-2.84.87,1.23.38,2.44-.1,3.58-2.15,5.05-1.56,10.12.21,15.02,1.5,4.14,3.54,8.09,5.34,12.12,2.26,5.06,4.67,10.05,6.72,15.19,1.53,3.83,1.95,7.98,1.95,12.08,0,5.29,1.64,10.08,3.91,14.72.88,1.8,1.89,3.54,2.82,5.32.46.89,1,1.55,2.09,1.8.83.18,1.64.66,2.33,1.18,2.79,2.1,8.12.62,8.3-3.79.14-3.37.43-6.76.25-10.11-.29-5.37-.95-10.71-1.38-16.08-.2-2.55-.08-5.13-.36-7.67-.35-3.18-.77-6.38-1.52-9.48-2.28-9.45-4.58-18.88-7.5-28.17-2.43-7.74-4.17-15.74-4.71-23.84-.33-4.94.35-9.95.64-14.92.25-4.33.73-8.65.86-12.98.07-2.22-.37-4.46-.6-6.69-.07-.66-.17-1.31,0-2.02,1.92,1.83,2.07,4.29,2.57,7.03.38-.52.53-.74.84-1.16v6.34c1.14-.75,1.56-1.34,2.21-3.39.43-1.35.79-2.71,1.4-4.01.22,3.49-.71,6.63-3,9.4,2.4,2.35,5.24,3.62,8.23,4.57,5.05,1.6,10.1,3.13,14.81,5.66,1.45.78,3.18,1.1,4.81,1.5,2.65.65,5.31,1.31,8,1.77,3.36.57,6.68.33,10.01-.64,3.63-1.06,7.22-2.2,10.59-3.92,1.06-.54,2.16-1.16,2.99-1.99,3.3-3.34,3.49-7.41-1.99-9.56-2.83-1.11-5.84-1.76-8.76-2.62-1.23-.36-2.57-.52-3.69-1.09-3.56-1.83-7.34-3.21-10.68-5.51-1.77-1.22-3.81-2.05-5.63-3.21-3.72-2.36-7.37-4.83-11.04-7.25-3.63-2.39-7.45-4.41-11.45-6.15-2.39-1.05-4.44-2.87-6.71-4.23-2.67-1.61-5.29-3.42-8.16-4.59-6.34-2.58-12.41-5.68-18.53-8.73-3.36-1.68-7.04-2.69-10.54-4.1-2.75-1.11-5.47-2.33-8.16-3.59-4.58-2.14-7.89-5.75-10.88-9.68-.77-1.01-1.45-2.09-1.17-3.55,1.14-.02,1.56.72,2.09,1.44,2.34,3.17,4.77,6.29,8.23,8.35,1.92,1.14,3.88,2.29,5.93,3.16,3.54,1.51,7.22,2.71,10.75,4.24,3.89,1.69,7.68,3.63,11.52,5.43,4.07,1.91,8.13,3.86,12.26,5.62,1.03.44,2.33.33,3.5.32,3.13-.02,6.26-.11,9.39-.21,5.62-.18,11.25-.39,16.87-.58,6.18-.2,12.35-.34,18.53-.6,5.21-.22,10.42-.62,15.63-.84,3.03-.13,6.08-.14,9.12-.05,1.5.04,2.99.58,4.49.64,2.13.08,4.21.02,6.35-.62,3.83-1.15,7.83-.66,11.72-.18,7.05.87,13.99,2.28,20.25,5.93,1.52.88,3.11,1.09,4.86.91,2.14-.21,4.31-.04,6.45-.23,4.23-.37,8.49-.66,12.67-1.36,6.33-1.06,12.64-2.25,18.88-3.74,5.84-1.39,11.51-3.34,17-5.87,4.45-2.05,8.43-4.56,11.92-7.98,1.45-1.42,2.95-2.8,3.53-4.75,1.12-3.77,3.31-6.92,5.42-10.14,3.05-4.67,4.94-9.9,7.21-14.96,1.22-2.71,2.54-5.37,3.69-8.11.49-1.16.8-2.44.95-3.69.26-2.18.69-4.27,1.78-6.2.57-1,1.22-1.68,2.76-1.13-.11.82-.15,1.67-.35,2.48-.62,2.57-1.28,5.13-1.94,7.69-.18.69-.38,1.4-.68,2.04-1.56,3.34-3.17,6.66-4.75,10-.72,1.52-1.37,3.08-2.1,4.6-1.03,2.16-2,4.36-3.18,6.43-1.43,2.51-3.07,4.89-4.58,7.36-.46.75-.86,1.56-1.12,2.39-1.04,3.31-2.95,5.96-5.51,8.3-3.99,3.64-8.67,6.07-13.51,8.29-1.83.84-3.67,1.64-5.46,2.54-5.54,2.77-11.39,4.22-17.57,4.67-3.28.24-6.55.83-9.76,1.52-5.36,1.16-10.75,1.86-16.23,1.98-4.49.1-8.98.43-13.48.5-2.56.04-5.12-.22-7.67-.35-.32-.02-.64-.06-.96-.04-4.82.25-9.31-1.42-13.91-2.41-1.79-.39-3.5-1.17-5.22-1.84-2.04-.81-4.13-1.35-6.31-1.4-1.81-.04-3.58.16-4.58,2-.22.41-.48.85-.52,1.3-.34,4.11.51,7.92,2.51,11.56,2.52,4.58,6.33,7.85,10.34,10.98,3.42,2.67,7.23,4.5,11.55,5.14,1.58.24,3.17.57,4.75.53,5.03-.13,9.89,1.12,14.82,1.76,2.85.37,5.66,1.1,8.48,1.73,1.09.24,2.2.52,3.19,1,.65.32,1.37.95,1.61,1.6.43,1.18.71,2.48.73,3.74.14,8.89-1.92,17.31-5.15,25.56-2.16,5.52-5.13,10.53-8.46,15.37-5.06,7.35-9.97,14.77-14.18,22.66-2.75,5.17-6.11,9.96-9.71,14.61-4.71,6.09-9.38,12.23-13.58,18.67-3.23,4.95-6.49,9.98-8.49,15.63-.56,1.58-.95,3.24-1.25,4.89-.37,2.04.32,3.78,1.96,5.09,3.83,3.07,8.63,4.03,13.7,1.69,4.18-1.93,7.04-5.07,9.51-8.63,5.38-7.76,11.51-14.87,17.94-21.75,4.24-4.54,7.94-9.48,10.9-14.97,1.53-2.83,3.18-5.58,4.69-8.42,2.86-5.36,4.5-11.12,5.32-17.13.23-1.7.52-3.4.81-5.27,1.51.65,1.56,1.82,1.49,2.75-.25,3.11-.55,6.23-1.06,9.3-1.13,6.78-4.93,12.47-7.83,18.53-1.98,4.15-4.88,7.7-7.62,11.37-4.23,5.67-9.32,10.59-13.86,15.97-2.85,3.37-5.34,7.03-8.17,10.42-2.46,2.95-5.03,5.84-7.81,8.49-3.57,3.41-6.88,7.04-9.25,11.34-1.28,2.32-2.21,4.97-1.56,7.87.68,2.99,2.66,5.03,5.72,5.37,4.28.48,8.53.56,12.45-1.64,1.18-.66,2.3-1.44,3.37-2.26,1.65-1.26,3.19-2.67,4.86-3.9,1.18-.86,2.08-1.79,2.88-3.08,1.25-2,2.94-3.79,4.7-5.4,4.74-4.34,9.62-8.54,13.49-13.72,2.31-3.09,4.46-6.29,6.77-9.38,1.06-1.41,2.22-2.78,3.51-3.97,2.86-2.64,4.38-6.1,6.06-9.48,1.51-3.02,3.35-5.79,5.58-8.39,2.13-2.47,3.66-5.46,5.4-8.25,2.89-4.65,5.92-9.18,9.69-13.18,1.04-1.11,1.9-2.39,2.86-3.58.56-.69,1.08-1.43,1.76-1.98.43-.35,1.27-.72,1.63-.53.83.44.49,1.25.04,1.86-1.34,1.81-2.61,3.69-4.11,5.36-4.38,4.87-7.81,10.39-11.25,15.92-1.69,2.72-3.47,5.39-5.34,8-2.54,3.53-4.65,7.3-6.76,11.09-1.66,2.99-3.86,5.7-5.96,8.43-2.39,3.11-5.02,6.04-7.38,9.17-3.05,4.06-6.4,7.81-10.08,11.31-3.6,3.42-7.2,6.84-9.73,11.24-2.74,4.76.29,11.27,5.72,11.94.55.07,1.19.16,1.66-.05,1.97-.89,4.03-1.69,5.8-2.9,2.84-1.94,5.54-4.1,8.18-6.31,4.85-4.08,9.67-8.2,14.4-12.42,3.3-2.94,6.49-6.02,9.61-9.14,3.86-3.86,7.76-7.69,11.37-11.78,4.3-4.87,8.14-10.07,10.78-16.14,2.33-5.37,5.44-10.33,9.11-14.96,2.27-2.86,4.91-5.3,7.49-7.82.74-.72,1.61-1.35,2.53-1.81,1.3-.65,2.27.08,2.03,1.53-.5,2.95-1.38,5.81-3.01,8.33-2.51,3.89-4.19,8.13-5.67,12.47-2.02,5.94-3.97,11.9-6.01,17.83-1.59,4.65-3.78,9.03-6.36,13.2-1.73,2.78-3.65,5.45-5.57,8.11-1.85,2.57-3.26,5.33-4.12,8.38-1.08,3.86.78,6.98,4.51,8.2,2.91.95,5.12-.23,7.38-1.64,5.45-3.39,9.38-8.26,12.84-13.52,3.17-4.82,6.13-9.79,9.19-14.68,3.24-5.18,6.55-10.31,9.71-15.55,2.07-3.44,4.02-6.96,5.81-10.54,2.04-4.06,4.99-7.45,7.65-11.07,2.57-3.48,5.01-7.06,7.49-10.6.96-1.37,1.87-2.79,2.85-4.15,3.17-4.42,6.53-8.72,9.5-13.28,3.15-4.84,6-9.88,8.87-14.89,1.63-2.85,3.08-5.82,4.52-8.77,1.47-3.02,2.88-6.08,4.21-9.17,2.04-4.74,3.04-9.79,4.16-14.79,1.58-7.03,2.92-14.15,6.04-20.72,1.2-2.53,2.62-4.97,3.97-7.43,1.72-3.14,3.79-6.14,5.12-9.43,1.76-4.37,3.17-8.93,4.34-13.5,1.17-4.58,1.86-9.29,2.77-13.94.08-.39.11-.85.35-1.13.28-.32.74-.61,1.14-.64.25-.02.7.44.77.76.16.69.26,1.45.15,2.14-.62,3.88-1.22,7.76-1.99,11.6-.55,2.74-1.11,5.51-2.07,8.12-1.48,4.06-3.15,8.08-5.02,11.97-2.65,5.48-5.7,10.77-8.32,16.26-2.12,4.44-2.66,9.39-3.89,14.11-1.58,6.06-3.07,12.15-4.98,18.1-1.15,3.57-2.9,6.98-4.62,10.33-3.04,5.92-6.12,11.84-9.46,17.6-3.1,5.35-6.56,10.5-9.86,15.74-.17.27-.47.51-.53.8-1.01,5.02-4.94,7.97-8.27,11.22-3.47,3.39-6.24,7.29-9.22,11.04-2.41,3.02-3.95,6.55-5.75,9.95-3.76,7.08-7.59,14.14-12.31,20.68-3.04,4.21-5.59,8.77-8.41,13.14-4.22,6.58-8.82,12.82-15.54,17.14-4.29,2.76-8.47,2.32-12.58-.33-8.13,5.12-16.54,9.56-25.84,12.18-4.55,1.29-8.96,3.09-13.5,4.44-6.16,1.83-12.35,3.5-18.88,3.5-1.36,0-3-.19-4.06,1.33-.21.3-1.54.24-1.93-.12-.86-.77-1.75-.61-2.7-.65-4.89-.18-9.77-.4-14.66-.63-4.01-.19-8.02-.35-12.03-.61-4.33-.29-8.64-.73-12.97-1.01-6.17-.4-12.35-.79-18.53-1.06-7.71-.34-15.42-.58-23.12-.83-4.66-.15-9.33-.15-13.98-.41-1.98-.11-3.98-.56-5.9-1.09-4.48-1.25-9.07-1.13-13.63-1.44-1.92-.13-3.84-.31-5.77-.44-2.32-.16-4.65-.51-6.95-.38-4.44.25-8.54-1-12.7-2.22-6.52-1.91-12.53-4.93-18.63-7.84-9.05-4.32-17.46-9.57-25.04-16.14-2.42-2.11-4.94-4.12-7.21-6.38-1.64-1.63-3.02-3.53-4.39-5.41-1.61-2.2-3.23-4.4-4.56-6.77-1.52-2.71-2.77-5.59-4.04-8.43-1.39-3.11-1.84-6.45-2.39-9.78-.59-3.57-1.48-7.09-2.18-10.64-1.31-6.62-2.72-13.23-3.81-19.89-.65-3.95-.8-7.99-1.11-11.99-.41-5.35-.79-10.71-1.11-16.07-.39-6.48.39-12.82,2.5-18.98,1.04-3.03,1.9-6.12,3.66-8.87.33-.51.23-1.4.1-2.08-.88-4.76-1.15-9.57-1.25-14.4-.09-4.59-.85-9.09-2.08-13.54-1.39-4.99-3.55-9.65-5.46-14.42-.4-1-.64-2.07-.95-3.1,1.31-.57,1.73.1,2.11.84,1.4,2.71,2.81,5.41,4.19,8.14,2.15,4.27,3.15,8.93,4.16,13.54.59,2.72.6,5.57.77,8.37.14,2.4.14,4.81.19,7.22.08,4.25,1.45,8.23,3,12.08,1.33,3.3,1.66,6.64,1.35,10.06-.54,5.98.87,11.49,3.68,16.7,1.18,2.2,2.56,4.29,3.67,6.52,2.32,4.67,4.88,9.28,6.65,14.16,1.69,4.66,2.69,9.59,3.65,14.47,1.11,5.67,1.8,11.41,2.76,17.11.78,4.63,2.22,9.04,4.57,13.13,1.88,3.26,4.66,5.5,8.14,6.83,2.47.95,4.92.06,6.15-2.28.89-1.69,1.65-3.47,2.21-5.29.78-2.56.44-5.09-.85-7.47-3.84-7.05-5.47-14.72-6.35-22.61-.38-3.43-.56-6.9-1.25-10.27-.74-3.58-1.87-7.08-3.04-10.55-.45-1.32-1.47-2.45-2.27-3.64-.91-1.34-2.12-2.54-2.13-4.31,1.08-.48,1.43.34,1.91.79,1.12,1.03,2.22,2.09,3.27,3.19.66.69,1.3,1.43,1.79,2.24,3.2,5.26,5.17,11.01,6.92,16.88,2.45,8.23,4.99,16.44,7.64,24.6,2.63,8.08,5.33,16.14,8.25,24.12,1.43,3.9,3.26,7.68,5.2,11.37,1.51,2.89,4.13,4.64,7.28,5.58,2.01.6,3.88.21,5.49-.98,3.42-2.53,5.25-5.88,5.43-10.25.21-4.92-1.6-9.19-4.02-13.19-3.49-5.78-5.34-12.01-6.11-18.63-.1-.88-.29-1.78-.2-2.64.6-5.61-1.91-10.39-4.27-15.09-2.98-5.95-6.48-11.65-8.99-17.83-2.57-6.32-4.78-12.77-5.78-19.57-.05-.36,0-.74,0-1.06Zm-37.37,33.74c-1.63.48,0,1.53-.63,2.21.96.44,1.71.79,2.51,1.16.33-1.25,0-2.01-.95-2.55-.38-.21-.67-.59-1.01-.89.47.13.94.26,1.59.43-.29-1.6-1.2-2.13-2.66-2.19.38.61.77,1.22,1.15,1.83Zm124.34,88.24l-.03-.04c.07,1.37.46,2.79-1.32,4.19,1.67.09,2.74.13,3.8.2,5.77.38,11.53.79,17.3,1.14,8.09.48,16.19.93,24.28,1.37,6.66.36,13.32.92,19.98.94,5.93.02,11.88-.43,17.79-.97,3.99-.36,7.83-1.54,11.64-2.92,5.51-1.99,11.19-3.5,16.79-5.24,3.77-1.17,7.41-2.62,10.84-4.62,1.87-1.09,3.88-1.94,5.75-3.02,1.17-.68,2.22-1.56,3.28-2.4.81-.64.93-1.53.4-2.38-.8-1.26-.65-2.59-.59-3.96.17-3.97,2.22-7.16,4.22-10.37,2.92-4.7,5.87-9.39,8.81-14.08,1.74-2.77,2.65-5.83,3.23-9.01.66-3.56,1.47-7.07,3.21-10.31.55-1.02.91-2.15,1.36-3.23-.62.01-.91.22-1.14.49-2.75,3.24-5.54,6.43-8.96,9.01-.95.72-2,1.49-2.23,3.15,1.4-1.01,2.5-1.97,3.75-2.67,1.15-.65,1.75-2.22,3.75-2.29-1.57,2.29-3.15,3.98-5.3,4.94-2.66,1.19-5.19,2.44-6.92,4.97-.9,1.3-2.16,2.36-3.27,3.51-2.61,2.72-5.27,5.4-7.83,8.16-3.45,3.71-7.03,7.26-10.98,10.46-4.55,3.68-8.94,7.57-13.42,11.35-4.1,3.46-8.21,6.9-13.21,9.11-2.46,1.09-4.9,1-7.28.33-1.65-.47-3.03-1.95-4.68-2.35-1.75-.43-3.7.07-5.52-.17-3.02-.41-5.99-1.14-9-1.64-1.01-.17-2.08-.2-3.09-.07-3.12.4-6.08.13-8.86-1.49-1.25-.73-2.62-1.16-4.15-1.03-.78.07-1.59-.19-2.38-.24-1.36-.08-2.75-.31-4.07-.13-4.41.62-8.8.63-13.21.1-5.82-.71-11.64-1.33-17.53-1.33-2.87,0-5.82-.34-8.59-1.08-4.3-1.16-8.77-1.05-13.07-2.08-.23-.05-.48,0-.72-.01-4.09-.06-8.18-.11-12.27-.21-.79-.02-1.59-.23-2.37-.43-3.95-1.02-7.89-2.11-11.85-3.07-1.47-.35-3.03-.6-4.53-.53-4.37.21-8.39-.95-12.36-2.74-2.81,2.5-6,3.03-9.6,1.75-2.87-1.02-4.88-2.96-6.68-5.29-.82-1.07-1.79-2.04-2.77-2.97-3.57-3.39-8.16-5.04-12.45-7.18-2.64-1.31-5.55-2.08-8.27-3.24-1-.42-2.1-1.08-2.66-1.96-.71-1.1-1.67-1.62-2.7-2.23-2.85-1.67-5.64-3.45-7.29-6.47-1.55-2.82-3.51-5.34-5.66-7.7-2.96-3.25-4.48-6.95-4.14-11.39.05-.67-.2-1.42-.49-2.05-2.53-5.42-3.29-11.22-3.63-17.08-.15-2.69.28-5.4.31-8.11.01-1.26-.55-2.55-.4-3.77.2-1.59-.32-2.8-1.09-4.06-2-3.29-4.05-6.55-5.86-9.94-1.24-2.32-2.13-4.82-3.15-7.26-.62-1.49-1.03-1.73-2.55-1.21-1.18.41-2.32.93-3.48,1.4-.05-.12-.1-.23-.15-.35,1.71-.76,3.42-1.52,5.11-2.27,0-2.27-.16-4.6.03-6.89.4-4.73-.96-8.99-3.13-13.45-.42.72-.77,1.14-.93,1.63-.69,2.13-1.38,4.25-1.95,6.41-.65,2.48-1.29,4.97-1.7,7.49-.7,4.31-.43,8.63.03,12.97.86,8.15,1.56,16.32,2.38,24.48.31,3.12.64,6.25,1.22,9.32.84,4.49,1.96,8.92,2.88,13.4.77,3.77.99,7.71,2.22,11.31,2.6,7.68,5.61,15.24,10.05,22.11.43.66,1,1.25,1.59,1.77,3.01,2.62,6.08,5.18,9.07,7.82,5.3,4.68,10.57,9.41,17.09,12.42,1.01.47,1.94,1.12,2.95,1.6,2.02.96,4.15,1.71,6.09,2.82,7.04,4.04,14.68,6.46,22.46,8.52,1.01.27,2.05.54,3.08.56,3.29.05,6.58.11,9.86-.07,3.93-.21,7.81-.4,11.68.69,3.16.89,6.41,1.47,9.65,2.03,2.29.4,4.62.63,6.95.76,3.52.2,7.06.26,10.59.36.3,0,.6-.14.9-.21-2.36-.84-4.65-1.14-7-.76-.47.08-.97.21-1.42.11-3.14-.66-6.27-1.36-9.39-2.08-.46-.11-.88-.39-1.29-.64-.65-.41-.84-.94-.24-1.63,1.61.39,3.31.59,4.84,1.2,5.37,2.17,11.1,2.49,16.71,3.39,1.62.26,3.31.12,4.96.21,1.24.07,2.52.05,3.71.37,2.03.55,2.25.52,3.01-1.43.33-.85.12-1.99,1.21-2.47Zm-28.32-40.07c.31,1.51.56,2.75.81,3.99.6,2.95.75,5.88-.23,8.81-1,2.96-2.93,4.76-6.03,5.15-3.59.45-7.04,0-10.17-2-.1-.06-.1-.26-.16-.42.41.09.8.18,1.42.31-.25-.41-.34-.62-.49-.78-3.19-3.5-6.28-7.04-8.31-11.41-1.45-3.12-3.16-6.14-4.92-9.11-3.26-5.5-5.55-11.38-7.3-17.5-.52-1.8-1.25-3.54-1.88-5.31-.42,5.02.98,9.63,2.86,14.04,1.54,3.61,3.47,7.05,5.35,10.51,2.5,4.59,2.59,9.39,1.28,14.25-.48,1.79-1.54,3.41-2.37,5.17,2.05,1.1,4.22,1.21,6.38,1.34,1.84.11,3.73-.07,5.53.26,3.78.7,7.64,1.3,11.25,2.57,5.07,1.79,10.26,1.98,15.45,1.91,3.65-.05,7.2.41,10.76.93,3.25.48,6.46,1.34,9.72,1.67,7.18.73,14.39,1.27,21.59,1.81,3.28.24,6.59.52,9.87.34,3.22-.17,6.39-.6,9.56.3.36.1.76.05,1.37.08-3.51-8.33,1.16-14.08,6.33-20.17-3.79.98-6.93.63-10.06-.37-5.25-1.68-8.03-6.37-6.6-11.69.68-2.54,1.63-5.05,2.77-7.43,4.02-8.44,8.87-16.41,14.27-24.03,1.53-2.16,3.17-4.27,4.99-6.18,3.8-3.99,6.83-8.54,9.68-13.2,2.22-3.63,4.14-7.46,6.43-11.04,3.33-5.21,6.94-10.24,10.31-15.42,2.1-3.22,4.32-6.44,5.88-9.93,2.95-6.61,5.05-13.53,6.17-20.72.5-3.18.19-3.96-2.72-5.65-.9-.53-1.86-.98-2.7-1.59-2.2-1.58-4.45-3.12-6.48-4.9-.69-.61-1.26-1.15-2.16-1.25-2.31-.24-4.63-.51-6.95-.69-3.2-.24-6.44-.2-9.61-.66-2.51-.36-5.16-.9-7.37-2.06-4.25-2.23-8.22-5.02-11.48-8.62-.76-.84-1.55-1.08-2.57-1.41-2.55-.82-5.04-.72-7.61-.42-1.43.17-2.89.12-4.33.03-3.37-.21-6.7-.41-10.05.43-2.5.63-5.07.53-7.65-.02-2.53-.54-5.12-.77-8.29-.73,2.14,1.41,3.77,2.51,5.44,3.57,4.43,2.8,9.04,5.17,14.26,6.21,2.27.45,4.54,1.07,6.69,1.91,2.25.88,4.42,2.09,5.28,4.6.97,2.82-.11,6.31-2.56,8.17-1.34,1.01-2.73,2.01-4.25,2.7-2.55,1.16-5.26,1.97-7.83,3.08-7.1,3.09-14.21,2.14-21.2-.1-6.86-2.2-13.6-4.79-20.37-7.25-1.19-.43-2.35-1.02-3.45-1.67-1.69-1-3.31-2.12-5.04-3.24-.1.33-.21.55-.21.77-.09,6.66-.25,13.33-.21,19.99.02,3.37.19,6.77.74,10.09.62,3.72,1.68,7.36,2.65,11.01,1.24,4.65,2.65,9.26,3.87,13.92,1.36,5.21,2.67,10.43,3.83,15.68.76,3.44,1.41,6.93,1.73,10.43.46,5.12.58,10.27.85,15.41.31,5.85.76,11.7.89,17.56.11,5.02-3.86,8.56-8.86,8.27-1.17-.07-2.34-.17-3.77-.28Zm65.22-162.71c-11.44.38-22.47.72-33.5,1.12-11.07.4-22.13.85-33.7.48,3.31,2.84,6.42,4.91,10.05,6.12,2.62.88,4.98,2.15,7.21,3.8,3.48,2.57,7.09,4.97,10.7,7.37.63.42,1.47.63,2.24.69,3.19.27,6.41.25,9.58.7,4.02.57,7.98.87,11.99.04,1.09-.23,2.22-.33,3.34-.33,5.08-.03,10.16-.02,15.35-.02-.16-.31-.32-.58-.45-.86-1.25-2.58-2.85-5.07-3.67-7.78-1.09-3.61-1.34-7.39.88-11.33ZM55.9,178.73c-.19.02-.37.03-.56.05,0,.62-.05,1.24,0,1.86.4,3.83.77,7.67,1.25,11.49.45,3.62,1.65,7.01,3.27,10.28,1.45,2.94,2.88,5.88,3.03,9.3.14,3.41-1.19,6.27-2.79,9.07-1.09,1.91-2.92,2.91-4.97,3.55-.16.05-.25.33-.56.74,2.66.86,5.17,1.64,7.66,2.51,1.36.47,2.71,1.01,3.99,1.65,2.67,1.34,5.29,2.78,8.45,4.45-.33-.95-.43-1.31-.57-1.65-3.16-7.65-5.56-15.55-7.91-23.48-.64-2.16-.96-4.55-2.15-6.36-1.82-2.76-2.74-5.77-3.66-8.83-.6-1.99-.98-4.04-1.6-6.02-.9-2.89-1.92-5.74-2.89-8.61ZM205.65,63.57c8.72,3.79,17.77,5.43,27.2,4.79-8.76-3.43-17.77-5.41-27.2-4.79Zm22.01,194.61c-.6-2.34-1.16-4.54-1.76-6.87-2.28,1.83-4.43,3.56-6.66,5.35,2.72,1.18,5.3,2.16,8.42,1.52Zm79.31-60.34c1.44-2.16,2.66-3.99,3.98-5.96-.76-.18-1.25-.29-2.24-.52q2.28.04,2.82-1.06c-1.03-.16-2.03-.32-3.14-.49-1,1.38-1.96,2.71-2.97,4.11.58.27.9.41,1.29.59-2.14.31-2.2.37-2.79,2.99,1.11.12,2.21.25,3.05.34Zm-.56.56c-1.7,0-3.49-.56-4.22,1.5-.43,1.21-1.22,2.15-1.8,3.23-.4.75-.72,1.55-1.07,2.32.99-.3,1.71-.77,2.27-1.4.84-.94,1.94-1.88,2.26-3.01.42-1.46,2.35-.89,2.55-2.65Zm7.35-12.02c-1.05.11-1.98-.05-2.52.34-.78.56-1.28,1.52-1.96,2.38,3.17.64,3.31.57,4.48-2.72Zm2.3-5.43c-1.42,1.68-2.6,3.08-3.94,4.66,2.45.11,3.5-1.16,3.94-4.66Zm-279.33,20.17c-.24-1.51-.29-2.6-.62-3.6-.14-.42-.87-.64-1.59-1.12v3.08c.59.43,1.22.9,2.21,1.63Zm-5.45-17.29c-.08.14-.16.28-.25.42q1.47,1.26,3.64,1.08c-1.3-.57-2.34-1.04-3.39-1.5Zm326.42-7.05c-.74.73-1.7,1.3-1.93,2.76,1.45-.68,2.11-1.45,1.93-2.76Zm-114.98-73.23c1.44.63,1.62.51,2.36-1.65-.75.52-1.49,1.04-2.36,1.65ZM37.22,204.09c.13-.1.27-.2.4-.3-.36-.73-.72-1.45-1.1-2.23-.37.46-.66.83-1.01,1.27.59.43,1.15.85,1.71,1.26Zm210.52-101.47c-1.64.25-2.11,1.19-3.07,2.28,1.63-.26,2.14-1.15,3.07-2.28ZM33.38,187.52l.26-.43q-.93-1.1-2.65-.86c.98.53,1.68.91,2.39,1.29Zm214.3-81.14c1.05,1.12,1.43.56,1.66-.23.07-.23-.14-.53-.28-1-.55.49-.94.84-1.38,1.24ZM33.98,192.47l.43-.49c-.28-.82-.72-1.39-2.3-.99.83.66,1.35,1.07,1.87,1.48Zm93.32,32.64c-.14,1.22.29,1.42,1.34.84-.57-.36-.96-.6-1.34-.84Zm114.69-123.48c-.96-.14-1.45-.22-2.3-.35.68.91,1.07,1.42,2.3.35Z"/>
  <path class="cls-1" d="m391.2,87.86c-3.22-4.03-6.85-7.61-11.79-10.22,3.42-.07,9.49,5.23,11.79,10.22Z"/>
  <path class="cls-1" d="m6.51,61.85c-.53,1.27-1.07,2.55-1.6,3.82.13.07.26.14.39.21,1.27-1.59,2.53-3.18,3.8-4.77.11.08.23.16.34.24-1.25,1.98-2.46,4-3.78,5.93-.3.44-1.01.59-1.92,1.09.22-2.75.94-4.85,2.83-6.47l-.06-.05Z"/>
  <path class="cls-1" d="m1.22,68.54c.73-4.52,3.37-8.08,6.52-11.35-2.17,3.78-4.35,7.57-6.52,11.35Z"/>
  <path class="cls-1" d="m390.08,72.71c2.71-.16,2.88-.05,5.48,3.89-.97-.88-1.93-1.75-2.9-2.63-.08.07-.16.14-.24.21,1.14,1.75,2.28,3.5,3.41,5.25-.08.06-.16.11-.24.17-1.84-2.3-3.67-4.59-5.51-6.9Z"/>
  <path class="cls-1" d="m7.53,197.72c.36,2.7-.58,4.94-.87,7.25-1.09-2.66-.78-5.65.87-7.25Z"/>
  <path class="cls-1" d="m203.69,285.85c2.22-.21,4.44-.43,7.01-.68-1.47,1.76-3.89,2.01-7.01.68Z"/>
  <path class="cls-1" d="m392.26,82.81c-2.38-2.69-4.76-5.39-7.13-8.08,3.5,1.68,5.24,4.9,7.13,8.08Z"/>
  <path class="cls-1" d="m246.99,197.74c2.63,2,5.25,4.01,7.88,6.01-2.96-1.57-5.89-3.16-7.88-6.01Z"/>
  <path class="cls-1" d="m259.88,283.9c1.4-.97,2.79-1.93,4.47-3.09-.55,1.96-1.36,2.52-4.47,3.09Z"/>
  <path class="cls-1" d="m247.62,71.81c.11-.08.42-.3.94-.68,1.47,1.92,3.24,3.58,3.94,6.43-1.79-2.11-3.31-3.89-4.89-5.74Z"/>
  <path class="cls-1" d="m244.17,75.62c-1.76-1.22-3.51-2.44-5.42-3.76,2.06-.38,3.23.42,5.42,3.76Z"/>
  <path class="cls-1" d="m120.49,283.79c-1.34.79-2.52.81-3.79,0,1.14-1.2,1.41-1.2,3.79,0Z"/>
  <path class="cls-1" d="m32.7,251.34c.64,1,1.27,1.99,1.91,2.99-1.39-.48-2.41-1.23-2.65-2.57l.75-.42Z"/>
  <path class="cls-1" d="m245.11,203.11c1.58,1.48,3.16,2.96,5.07,4.75-2.71-.85-4.13-2.54-5.56-4.2.16-.18.32-.36.48-.54Z"/>
  <path class="cls-1" d="m225.84,180.64c.84.39,1.69.78,2.63,1.22-.28.15-.52.27-.93.48.41.62.81,1.23,1.21,1.84-.08.07-.16.14-.24.21-1.02-1.11-2.05-2.21-3.07-3.32.13-.14.27-.29.4-.43Z"/>
  <path class="cls-1" d="m143.31,82.67c1.29,2.74,1.49,4.34,1.14,8.38-.38-2.8-.73-5.34-1.14-8.38Z"/>
  <path class="cls-1" d="m15.54,232.56c1.84.74,1.85,2.19,1.54,3.76l-1.54-3.76Z"/>
  <path class="cls-1" d="m22.98,232.15c.43,1.09.86,2.18,1.29,3.27-.2.09-.39.17-.59.26-.5-1.06-1.01-2.11-1.51-3.17l.81-.37Z"/>
  <path class="cls-1" d="m1.63,62.25c.43-2.27,2.27-3.54,3.54-5.22-.29,1.34-2.19,3.98-3.59,5.18l.05.05Z"/>
  <path class="cls-1" d="m278.29,209.77c-1.43-.9-2.85-1.8-4.28-2.71,2.03-.04,3.23,1.21,4.28,2.71Z"/>
  <path class="cls-1" d="m43.09,259.12q1.18,0,1.96.8-1.15.05-1.96-.8Z"/>
  <path class="cls-1" d="m253.05,281.98c1.25-1.46,2.47-.98,3.59-.89-1.02.25-2.05.51-3.59.89Z"/>
  <path class="cls-1" d="m42.25,172.12c-1.15.44-2.29.88-3.63,1.38q1.22-1.59,3.63-1.38Z"/>
  <path class="cls-1" d="m0,159.47v-2.49q1.04.84,0,2.49Z"/>
  <path class="cls-1" d="m42.12,250.61c.68.62,1.36,1.24,2.05,1.86-1.3.11-2.02-.47-2.44-1.4.13-.15.26-.3.39-.46Z"/>
  <path class="cls-1" d="m97.21,278.79l2.5,1.02c-.03.12-.07.24-.1.36-.9-.21-1.79-.43-2.69-.64.09-.25.19-.49.28-.74Z"/>
  <path class="cls-1" d="m141.22,82.22c-.18,1.41-.36,2.82-.54,4.23-.08,0-.15-.02-.23-.03.16-1.4.32-2.8.49-4.21.1,0,.19,0,.29,0Z"/>
  <path class="cls-1" d="m13.98,209.25c.35.67.69,1.35,1.04,2.02l-.5.26c-.37-.66-.74-1.32-1.11-1.98.19-.1.38-.2.56-.3Z"/>
  <path class="cls-1" d="m112.01,276.65c.53.26,1.07.51,1.61.77-.44.85-1.08.63-1.61-.77Z"/>
  <path class="cls-1" d="m9.14,213.42c.4.5.79,1,1.46,1.84-1.37-.19-1.79-.7-1.46-1.84Z"/>
  <path class="cls-1" d="m280.41,271.15c.19-.23.34-.54.58-.66.33-.16.72-.18,1.3.15-.5.33-1,.65-1.51.98-.13-.16-.25-.31-.38-.47Z"/>
  <path class="cls-1" d="m268.9,276c.25-.92.4-1.46.63-2.3q.4,1.2-.63,2.3Z"/>
  <path class="cls-1" d="m95.86,272.8c-.43-.35-.85-.69-1.56-1.26,1.33-.3,1.56.39,1.93.87-.12.13-.25.26-.37.39Z"/>
  <path class="cls-1" d="m284.12,275.8c-.36.46-.72.92-1.08,1.38-.11-.07-.21-.14-.32-.21.33-.51.65-1.03.98-1.55l.42.38Z"/>
  <path class="cls-1" d="m249.27,205l-2.15-2.04c.08-.08.17-.17.25-.25.73.63,1.47,1.27,2.2,1.9-.1.13-.21.26-.31.39Z"/>
  <path class="cls-1" d="m284.92,267.3c-.2.25-.35.57-.46.56-.24-.03-.45-.24-.68-.37.16-.16.3-.4.49-.46.16-.04.37.14.65.27Z"/>
  <path class="cls-1" d="m69.5,187.88c.76-.34,1.51-.68,2.27-1.02.07.15.13.3.2.44-.76.34-1.51.67-2.27,1.01-.07-.15-.13-.29-.2-.44Z"/>
  <path class="cls-1" d="m99.11,191.19c-.52.16-1.04.32-1.55.48-.05-.09-.1-.18-.16-.27.26-.15.5-.35.78-.43.29-.09.61-.06.91-.09,0,.1,0,.21.01.31Z"/>
  <path class="cls-1" d="m137.71,80.38c.05.65.1,1.31.15,1.96-.1,0-.19.02-.29.03-.08-.65-.16-1.3-.23-1.96.12-.01.25-.02.37-.04Z"/>
  <path class="cls-1" d="m214.98,281.35c-.33-.04-.65-.08-.98-.13.19-.14.36-.32.57-.41.1-.04.27.09.41.15,0,.13,0,.26,0,.39Z"/>
  <path class="cls-1" d="m41.69,174.71l-1.97.58c-.03-.09-.05-.18-.08-.27.65-.2,1.31-.41,1.96-.61.03.1.06.2.09.3Z"/>
  <path class="cls-1" d="m137.97,84.5c.06.38.12.76.17,1.13-.13.02-.26.03-.39.05-.04-.38-.08-.76-.12-1.14.11-.02.22-.03.33-.05Z"/>
  <path class="cls-1" d="m227.78,180.62c-.48-.35-.96-.69-1.66-1.2.43-.11.67-.24.75-.18.43.33.82.7,1.23,1.06-.11.11-.21.21-.32.32Z"/>
  <path class="cls-1" d="m1.58,62.21l-.34,1.87c-.62-.86-.29-1.41.39-1.82,0,0-.05-.05-.05-.05Z"/>
  <path class="cls-1" d="m280.14,266.94c-.08-.1-.15-.2-.23-.3.11-.06.23-.19.32-.18.09.02.15.18.23.28-.11.06-.22.13-.33.19Z"/>
  <path class="cls-1" d="m6.57,61.91c.25-.53.51-1.07.76-1.6.12.08.24.17.36.25-.39.43-.79.86-1.18,1.3,0,0,.06.06.06.06Z"/>
  <path class="cls-1" d="m137.85,87.77c-.04.42-.07.84-.11,1.25-.03,0-.07,0-.1,0v-1.26c.07,0,.14,0,.21.01Z"/>
  <path class="cls-1" d="m162.38,239.11c-4.2-1.37-8.7-1.1-12.8-2.95,8.57,1.09,17.15,2.17,25.72,3.26-9.17.12-18.37.81-27.4-1.7,4.83.47,9.66.93,14.49,1.4Z"/>
  <path class="cls-1" d="m176.07,90.18c1.2-.2,2.35-.39,3.51-.58.03.14.06.29.09.43-1.14.19-2.27.37-3.41.54-.03,0-.1-.2-.18-.39Z"/>
  <path class="cls-1" d="m188.49,92.66c-.66.09-1.31.19-1.97.28-.01-.12-.03-.24-.04-.36.66-.04,1.33-.08,1.99-.13,0,.07.01.14.02.21Z"/>
  <path class="cls-1" d="m181.87,89.41c.67-.1,1.33-.21,2-.31l.05.37c-.67.07-1.34.14-2.01.21-.01-.09-.03-.18-.04-.27Z"/>
  <path class="cls-1" d="m14.48,161.89c.6-.14,1.12-.26,1.64-.38-1.38,1.22-.44,2.56-.31,3.82.5,4.86,1.07,9.72,1.5,14.59.49,5.46,1.59,10.78,3.02,16.06.9,3.32,1.65,6.68,2.44,10.03.08.34-.04.73-.08,1.29-1.13-.43-1.43-1.28-1.63-2.07-1.65-6.52-3.44-13.01-4.79-19.59-.86-4.21-1.13-8.56-1.49-12.86-.22-2.63-.1-5.29-.15-7.93-.02-.87-.08-1.75-.14-2.95Z"/>
  <path class="cls-1" d="m30.75,227.79c-.28.19-.66.44-1.44.96.37-.81.67-1.25.76-1.73.08-.43-.22-.96-.07-1.34.17-.45.64-.79,1.15-1.37,1.11,1.76,2.18,3.24,3.04,4.84,1.5,2.8,3.69,5.02,5.86,7.24,3.14,3.21,6.46,6.24,9.69,9.36.32.31.52.73.65,1.23-2.98-1.13-5.05-3.49-7.38-5.44-2.33-1.95-4.57-4.06-6.58-6.33-2.04-2.3-3.76-4.88-5.68-7.43Z"/>
  <path class="cls-1" d="m279.39,253.52c-.17.96-.1,1.54-.36,1.85-2.23,2.7-4.98,4.81-8.21,6.08-3.2,1.26-6.55,2.13-9.84,3.15-.29.09-.63.01-.96.01,2.61-1.37,5.19-2.72,7.75-4.1.08-.04-.02-.42-.06-.81-2.81.4-5.1,2.97-8.52,1.71,2.71-1.37,5.93-1.14,7.63-3.77,1.65-.21,1.28,1.57,2.18,2.28,3.75-1.19,6.53-3.99,10.38-6.39Z"/>
  <path class="cls-1" d="m155.6,267.02c0-.86-.05-1.73.02-2.59.07-.94.25-1.88.39-2.85-1.33-.81-3.27-.19-3.87-2.02.58-.45,1.16-.91,1.89-1.47.04,1.4.96,1.58,2.21,1.51.09-1.24.18-2.41.29-3.9,1.35,1.34.32,2.78.85,4.19,5.95,1.49,12.23,1.94,18.39,3.08-6.34.82-12.55-.26-18.87-1.31-.48,1.89-.91,3.59-1.33,5.3,0,.01.04.05.04.05Z"/>
  <path class="cls-1" d="m203.13,268.74c5.29,2.36,10.81,1.6,16.29,1.4,3.19-.11,6.38-.26,9.66-.11-1.34.31-2.67.82-4.02.89-5.2.27-10.41.46-15.62.54-2.08.03-4.16-.36-5.93-1.63-.23-.17-.43-.39-.64-.58.09-.17.18-.34.27-.5Z"/>
  <path class="cls-1" d="m165.51,257.62c1.58,0,2.7-.18,3.74.03,4.74.98,9.49,1.69,14.34.92.11-.02.24.11.68.33-2.48,1.04-4.62,1.93-7.28,1.38-2.81-.58-5.72-.62-8.58-.97-.95-.12-2.07-.1-2.91-1.68Z"/>
  <path class="cls-1" d="m63.71,253.37c.36-.12.56-.26.65-.2,4,2.54,8,5.09,11.89,7.59-4.35-.03-11.3-4.04-12.54-7.38Z"/>
  <path class="cls-1" d="m41.81,233.91c.18.15,12.09,9.72,12.24,9.84-1.84.13-3.32-.53-4.47-1.59-2.72-2.51-6.52-4.04-7.77-8.25Z"/>
  <path class="cls-1" d="m144.67,268.27c-4.86.53-9.17.13-13.22-2.17,4.2.37,8.4.73,12.59,1.13.13.01.24.37.63,1.03Z"/>
  <path class="cls-1" d="m20.98,177.96c.3,3.68.59,7.37.91,11.34-1.23-.57-1.39-1.43-1.52-2.24-.49-3.04-.9-6.08-.25-9.11.29,0,.57,0,.86,0Z"/>
  <path class="cls-1" d="m215.03,272.33c5.71.85,11.28-.33,16.86-1.2-5.5,2.1-11.13,2.47-16.86,1.2Z"/>
  <path class="cls-1" d="m73.91,256.64c2.54,1,5.09,2,7.63,3.01-2.85-.23-5.61-.71-7.89-2.54.08-.15.17-.31.25-.46Z"/>
  <path class="cls-1" d="m223.09,265.39h7.04v.31h-7.03v-.31Z"/>
  <path class="cls-1" d="m224.59,268.71c2.02-.84,4.17-.42,6.29-.23-2.08.25-4.16.5-6.24.75l-.06-.51Z"/>
  <path class="cls-1" d="m149.64,266.22c.31-2.12.63-4.23.97-6.53.4,2.07.16,3.91-.97,6.53Z"/>
  <path class="cls-1" d="m204.16,264.73c-1.68-.27-3.35-.55-5.03-.82.04-.2.07-.39.11-.59,1.69.33,3.39.66,5.08.98-.05.14-.1.29-.15.43Z"/>
  <path class="cls-1" d="m281.79,255.65c-.59-1.51-1.01-2.57-1.56-3.98,1.62,1.05,1.53,2.28,1.56,3.98Z"/>
  <path class="cls-1" d="m284.01,242.84c.25.8.51,1.6.76,2.4-.12.04-.24.09-.36.13-.3-.79-.61-1.57-.91-2.36l.51-.18Z"/>
  <path class="cls-1" d="m156.85,269.73c.22-.35.44-.69.66-1.04.16.08.31.16.47.24-.18.39-.37.78-.55,1.17l-.58-.37Z"/>
  <path class="cls-1" d="m153.32,263.21c-.19.59-.38,1.19-.58,1.78-.08-.02-.17-.04-.25-.06.16-.66.33-1.31.49-1.97.11.08.22.17.34.25Z"/>
  <path class="cls-1" d="m149.35,259.2v1.63s-.08,0-.12,0v-1.63s.08,0,.12,0Z"/>
  <path class="cls-1" d="m15.71,155.27l-.21,1.24s-.09-.01-.13-.02v-1.2c.11,0,.23-.01.34-.02Z"/>
  <path class="cls-1" d="m147.59,70.48c.72-.38,1.41-.95,2.17-1.1,1.88-.36,3.79-.75,5.69-.73,4.4.04,8.79.3,13.19.53.76.04,1.5.33,2.27.52-.44,1.21-1.36,1.13-2.24,1.13-5.13,0-10.25-.02-15.38-.02-1.83,0-3.65,0-5.48,0-.07-.11-.15-.21-.22-.32Z"/>
  <path class="cls-1" d="m156.42,72.48c.48-.19.95-.52,1.43-.54,4.31-.11,8.61.04,12.79,1.53-4.72-.2-9.43-.39-14.15-.59-.02-.14-.05-.27-.07-.41Z"/>
  <path class="cls-1" d="m170.79,75.29h-9.04c0-.12,0-.24,0-.36,3.03-.13,6.06-.27,9.08-.4,0,.25-.02.51-.03.76Z"/>
  <path class="cls-1" d="m188.45,75.62c-.36-1.78-.63-3.07-.94-4.59.84,1.4.9,1.7.94,4.59Z"/>
  <path class="cls-1" d="m190.43,72.04v4.14c-.08,0-.16,0-.25,0v-4.17l.25.04Z"/>
  <path class="cls-1" d="m175.89,75.18h-2.76c0-.08,0-.17.01-.25.92.05,1.83.11,2.75.16,0,.03,0,.06,0,.09Z"/>
</svg>