<?xml version="1.0" encoding="UTF-8"?>
<svg id="Layer_1" data-name="Layer 1" xmlns="http://www.w3.org/2000/svg" viewBox="0 0 154.96 146.46">
  <defs>
    <style>
      .cls-1 {
        fill: #fff;
        stroke-width: 0px;
      }
    </style>
  </defs>
  <path class="cls-1" d="m83.92,146.46c-7.19-.93-14.45-1.47-21.53-2.94-4.98-1.04-9.75-3.21-14.51-5.12-9.68-3.89-17.69-10.33-25.27-17.31-3.7-3.41-7.69-6.68-10.6-10.71-2.84-3.93-4.52-8.71-6.61-13.17-2.89-6.18-4.35-12.8-4.88-19.51-.93-11.64-1.14-23.21,4.02-34.27,2.23-4.77,5.25-8.84,8.52-12.79,2.82-3.4,5.73-6.78,8.97-9.76,2.53-2.33,5.54-4.22,8.51-6,2.95-1.77,6.07-3.28,9.21-4.7,2.26-1.02,5.01-1.25,6.95-2.65,5.89-4.28,12.89-4.56,19.55-6.24,7.44-1.87,14.84-1.42,22.19-.32,5.84.88,11.71,2.24,17.24,4.27,4.49,1.65,8.73,4.29,12.65,7.1,7.47,5.35,13.78,12.05,18.96,19.57,5.06,7.35,9.59,15.12,13.81,22.99,2.02,3.76,3.18,7.95,3.6,12.49.45,4.82.34,9.48-.39,14.15-.77,4.9-1.64,9.82-3.04,14.56-1.95,6.64-4.45,13.21-8.73,18.7-4.61,5.91-8.69,12.43-15.44,16.39-4.22,2.47-8.23,5.36-12.62,7.48-3.69,1.79-7.72,2.98-11.71,4-5.39,1.37-10.89,2.34-16.36,3.42-.77.15-1.62-.07-2.43-.12-.02.17-.05.33-.07.5Zm65.79-74.32c.02-7.92-1.56-13.09-4.3-17.93-1.1-1.94-2.32-3.81-3.49-5.72-1.36-2.22-2.61-4.51-4.11-6.63-2.33-3.29-4.7-6.57-7.29-9.66-2.46-2.95-5-5.9-7.9-8.38-2.92-2.5-6.29-4.51-9.55-6.61-5.15-3.33-10.08-7.16-16.41-8.09-2.83-.42-5.79-.39-8.47-1.25-5.25-1.7-10.53-2.7-15.92-1.44-5.52,1.29-11.75-.32-16.5,4.52-1.48,1.5-4.5,1.43-6.76,2.24-3.9,1.4-8.04,2.47-11.57,4.53-4.36,2.54-8.28,5.87-12.25,9.04-2.11,1.69-4.12,3.59-5.81,5.69-3.48,4.31-6.78,8.7-9.49,13.64-2.61,4.74-3.98,9.69-4.13,14.79-.21,7.27-.78,14.56.83,21.89,1.51,6.85,3.73,13.36,6.9,19.49,2.81,5.45,7.09,9.76,11.66,14,6.51,6.05,13.64,10.97,21.39,15.04,4.34,2.28,8.93,4.29,13.64,5.63,9.61,2.74,19.55,4.16,29.47,2.51,12.32-2.05,24.11-5.46,34.32-13.55,5.76-4.56,10.18-10.13,14.67-15.64,2.69-3.29,3.98-7.75,5.78-11.73,4.12-9.12,4.45-18.98,5.3-26.38Z"/>
  <path class="cls-1" d="m109.92,112.93c-7.33.76-13.61,1.54-19.93,2.04-6.93.55-13.95,1.65-20.81,1.05-8.94-.79-17.82-2.7-26.57-4.78-4.02-.96-6.46-4.48-8.3-8.36-2.42-5.09-1.89-10.07-1.58-15.48.53-9.33-.57-18.74-.72-28.13-.04-2.3.83-4.65,1.51-6.9.72-2.38,1.44-4.85,2.69-6.96,1.37-2.3,3.01-4.75,5.15-6.24,5.85-4.09,12.04-7.08,19.72-6.39,6.44.58,13-.11,19.5-.1,8.4,0,16.81.15,25.21.24,1.28.01,2.7-.29,3.82.15,6.61,2.57,10.54,7.68,12.6,14.26.39,1.25-.34,2.81-.29,4.22.24,7.35.88,14.71.77,22.06-.1,6.75-1.34,13.48-1.39,20.23-.03,4.15-.78,7.98-2.13,11.79-1.07,3.03-6.54,7.65-9.26,7.3ZM57.74,39.13c-4.52-1.44-6.5.32-8.53,2.13-3.52,3.15-7.5,5.91-8.46,11.03-.36,1.92-.93,3.79-1.23,5.72-.47,2.98-.95,5.97-1.12,8.98-.09,1.61.67,3.25.7,4.88.17,8.05.41,16.1.26,24.15-.08,4.41,2.25,6.59,5.65,8.71,5.24,3.25,10.95,3.85,16.81,3.99,5.07.12,10.14.16,15.21.02,3.42-.09,6.83-.65,10.25-.84,5.75-.31,11.5-.47,17.25-.74,3.1-.15,8.58-3.76,9.12-6.39.74-3.59,1.25-7.27,1.45-10.93.26-4.79.08-9.6.14-14.4.06-4.53.2-9.06.27-13.59.04-2.5-.05-4.99,0-7.49.03-2.01.54-4.09.21-6.02-1.04-6.01-5.98-8.27-10.95-9-6.19-.91-12.57-.54-18.87-.57-4.38-.02-8.77.29-13.15.34-5.49.06-10.98.02-14.98.02Z"/>
  <path class="cls-1" d="m77.26,99.69c-4.3.93-9.39-.31-12.94-3.55-3.73-3.42-6.67-8.02-7.75-13.33-1.43-7,.5-13.46,5.13-18.36,3.58-3.79,8.86-5.93,14.31-6.44,3-.28,6.1-.05,9.1.35,1.4.18,2.91,1.05,3.97,2.04,2.81,2.65,5.83,5.24,7.99,8.38,4.01,5.83,4.08,12.46,1.16,18.67-3.91,8.31-11.1,11.94-20.97,12.24Zm-14.76-21.94c-.05.15-.24.43-.25.71-.13,5.25,4.53,13.89,8.66,14.8,6.19,1.36,12.5,1.25,17.99-2.52,2.1-1.44,4.45-3.42,5.27-5.67,1.82-5.03,1.47-9.85-3.08-13.99-4.8-4.37-9.75-7.43-16.51-7.47-7.39-.05-12.01,5-12.07,14.14Z"/>
  <path class="cls-1" d="m98.86,59.36c-2.42-.03-4.44-2.27-4.36-4.82.11-3.33,3-6.36,6.04-6.32,3.01.03,5.51,2.28,5.54,4.98.04,3.58-3.05,6.21-7.22,6.17Z"/>
</svg>