<svg width="862" height="578" viewBox="0 0 862 578" fill="none" xmlns="http://www.w3.org/2000/svg">
<path d="M584.578 0C594.22 2.50379 603.27 4.79893 612.32 7.2133C618.681 8.9123 625.018 10.6113 631.31 12.668C636.507 14.367 641.591 16.6025 646.765 18.4505C652.556 20.537 658.414 22.3254 664.205 24.4119C667.1 25.4552 669.926 26.8561 672.776 28.1378C681.324 31.9829 689.987 35.5001 698.422 39.7625C712.213 46.7374 725.891 54.0997 739.5 61.6111C742.76 63.3995 745.541 66.6187 748.71 68.8244C750.99 70.4042 753.657 71.0897 755.959 72.6695C766.787 80.1808 777.866 87.1855 788.261 95.6507C797.152 102.894 805.336 111.627 813.588 120.152C817.896 124.593 821.84 129.78 825.601 135.026C829.158 140.004 832.486 145.339 835.563 150.853C839.963 158.782 844.613 166.621 848.124 175.235C851.931 184.595 854.78 194.699 857.584 204.685C859.066 209.931 859.955 215.594 860.434 221.138C861.277 231.213 862.303 241.407 861.916 251.452C861.46 262.48 859.659 273.449 856.376 283.822C854.005 291.274 852.273 299.203 849.287 306.207C846.209 313.451 844.385 321.886 838.778 327.102C837.729 328.056 837.706 330.709 836.84 332.229C833.762 337.535 830.525 342.661 827.334 347.848C825.259 351.246 823.345 354.882 821.065 358.042C818.17 362.006 814.933 365.553 811.901 369.368C808.892 373.184 806.088 377.327 802.965 380.993C796.924 388.117 790.814 395.151 784.523 401.918C777.752 409.191 770.777 416.136 763.869 423.17C761.293 425.793 758.9 429.072 755.982 430.711C747.433 435.51 741.005 444.542 732.798 449.996C726.826 453.961 721.309 459.088 715.473 463.41C711.096 466.659 706.537 469.46 702.046 472.441C697.396 475.541 692.723 478.581 688.095 481.741C684.858 483.947 681.758 486.48 678.498 488.567C675.42 490.534 672.183 492.143 669.014 493.842C659.759 498.761 650.504 503.768 641.203 508.478C636.917 510.654 632.427 512.144 628.095 514.231C624.881 515.78 621.895 518.076 618.658 519.536C612.913 522.129 607.055 524.424 601.242 526.72C592.305 530.267 583.346 533.784 574.388 537.212C567.07 540.014 559.707 542.756 552.366 545.468C547.328 547.316 542.291 549.194 537.207 550.714C533.126 551.936 528.955 552.532 524.852 553.606C516.462 555.841 508.119 558.315 499.73 560.461C495.353 561.594 490.885 562.19 486.463 563.144C481.288 564.247 476.136 565.707 470.939 566.631C461.706 568.3 452.451 569.85 443.173 571.221C436.083 572.265 428.925 572.92 421.836 573.904C417.299 574.53 412.786 575.812 408.249 576.169C402.801 576.617 397.307 576.318 391.836 576.497C384.04 576.736 376.243 577.123 368.447 577.362C358.804 577.66 349.184 578.077 339.541 577.988C331.677 577.898 323.835 577.093 315.993 576.706C309.656 576.378 303.273 576.557 296.981 575.812C287.885 574.739 278.812 573.04 269.74 571.579C265.112 570.834 260.507 570.119 255.88 569.314C249.314 568.181 242.749 567.049 236.206 565.797C229.55 564.515 222.848 563.412 216.26 561.683C209.375 559.865 202.582 557.331 195.743 555.156C192.073 553.993 188.38 553.069 184.733 551.847C180.607 550.446 176.503 548.866 172.4 547.346C168.707 545.975 164.991 544.723 161.344 543.233C156.807 541.385 152.294 539.417 147.803 537.361C143.768 535.513 139.801 533.486 135.812 531.489C130.045 528.627 124.186 526.034 118.555 522.785C109.756 517.688 100.888 512.651 92.431 506.63C83.3809 500.162 74.5132 493.068 66.0558 485.318C57.7124 477.657 49.6426 469.282 42.0742 460.339C35.1214 452.142 28.6017 443.26 23.4954 432.798C20.4407 426.538 16.7021 420.845 13.7614 414.526C11.5046 409.638 9.97723 404.183 8.24473 398.907C7.97117 398.102 8.44989 396.88 7.94837 396.344C6.94534 393.78 5.50918 391.366 4.98487 388.624C3.13838 379.056 1.13232 369.488 0.129289 359.741C-0.417819 354.435 0.927155 348.802 1.2691 343.287C1.33749 342.125 0.129289 340.515 0.425639 339.71C2.56848 333.988 -0.486207 326.595 3.86786 321.707C3.06999 313.778 7.1961 308.085 9.33894 301.557C11.3222 295.507 13.8298 289.724 16.3602 284.031C18.6398 278.904 20.9878 273.748 23.7917 269.127C28.4193 261.556 33.3433 254.284 38.3129 247.07C41.9375 241.794 45.8356 236.846 49.6198 231.779C50.3037 230.855 51.0559 230.021 51.8082 229.216C57.5528 222.956 63.2063 216.578 69.0877 210.557C74.2396 205.281 79.5739 200.333 84.931 195.474C91.2228 189.811 97.4689 184.028 104.034 178.991C115.387 170.258 126.967 162.001 138.502 153.625C143.631 149.899 148.783 146.203 154.072 142.865C156.123 141.583 158.585 141.375 160.865 140.659C161.161 140.57 161.595 140.659 161.731 140.451C166.359 133.208 173.471 131.985 179.467 128.17C185.827 124.116 192.597 121.076 199.277 117.887C210.47 112.551 221.662 107.186 232.969 102.327C242.042 98.4526 251.366 95.4718 260.507 91.8652C267.209 89.2124 273.775 85.9336 280.499 83.4596C285.081 81.7904 289.891 81.1645 294.542 79.7934C298.44 78.6607 302.224 76.9021 306.122 75.7694C309.587 74.7858 313.143 74.4281 316.608 73.5637C318.797 73.0272 320.871 71.7753 323.06 71.3282C330.719 69.7782 338.402 68.5263 346.038 66.9465C353.994 65.3072 361.927 63.2505 369.883 61.7601C376.996 60.4188 384.176 59.614 391.312 58.5708C397.216 57.7064 403.097 56.8122 409.001 55.9776C414.108 55.2324 419.237 54.5766 424.343 53.8613C429.723 53.1161 435.08 52.1623 440.46 51.6555C444.563 51.2681 448.689 51.5661 452.793 51.3575C462.071 50.8806 471.326 50.1652 480.581 49.7777C488.697 49.42 496.835 48.9729 504.928 49.2412C515.847 49.5989 526.766 50.4633 537.663 51.3575C541.356 51.6555 545.254 54.0401 548.651 53.0565C551.819 52.1325 554.532 52.8478 557.427 53.3247C560.71 53.8911 563.947 54.8747 567.23 55.5901C570.649 56.3651 574.137 56.7823 577.533 57.7958C582.389 59.2563 587.176 61.1044 591.986 62.8034C591.963 63.4591 591.918 64.1149 591.895 64.7706C591.166 65.0389 590.391 65.635 589.684 65.5456C583.962 64.6812 578.263 63.5784 572.541 62.7139C566.546 61.8197 560.527 60.9851 554.509 60.4486C546.759 59.7929 539.008 59.5544 531.257 58.9285C528.864 58.7496 526.516 57.5573 524.122 57.4083C522.162 57.2891 520.155 58.3621 518.195 58.3025C515.505 58.2131 512.815 57.2593 510.125 57.2295C508.074 57.2295 506.045 58.3621 503.97 58.4515C498.066 58.69 491.957 57.4083 486.326 59.0775C481.904 60.389 477.686 58.6602 473.401 60.0909C470.437 61.0746 467.177 60.4486 464.054 60.6871C456.714 61.2236 449.351 61.6707 442.01 62.4159C433.872 63.2505 425.757 64.2341 417.664 65.3966C412.489 66.1418 407.36 67.5725 402.185 68.2879C397.968 68.8542 393.705 68.7648 389.465 69.0628C387.345 69.2119 385.248 69.6292 383.15 70.0167C376.882 71.2089 370.613 72.3714 364.366 73.6531C359.26 74.6964 354.154 75.9483 349.047 77.0511C344.078 78.1242 339.086 78.9588 334.162 80.151C329.876 81.1943 325.659 82.625 321.396 83.8173C309.04 87.2451 296.616 90.3748 284.329 94.1901C276.51 96.6343 268.896 100.181 261.145 103.073C257.202 104.533 253.144 105.457 249.223 107.007C245.051 108.676 241.016 110.971 236.867 112.73C229.117 116.009 221.275 118.87 213.57 122.358C205.91 125.815 198.342 129.66 190.842 133.684C179.125 139.974 167.43 146.293 155.896 153.089C149.695 156.725 143.859 161.435 137.841 165.578C131.868 169.661 125.713 173.358 119.878 177.769C113.814 182.359 108.024 187.546 102.119 192.523C96.3975 197.352 90.6301 202.121 84.9766 207.099C81.466 210.199 78.0238 213.448 74.7867 216.965C67.8339 224.566 60.9267 232.226 54.179 240.125C49.8021 245.252 45.904 251.064 41.5499 256.281C31.1549 268.71 23.4954 283.942 16.9301 299.858C11.0942 314.017 7.53804 329.487 6.71738 345.91C6.28425 354.465 6.48942 362.841 8.06236 371.067C9.43013 378.281 11.4134 385.315 13.2143 392.379C13.5334 393.631 14.2857 394.675 14.924 395.956C14.4225 396.731 13.8298 397.655 13.8298 397.685C15.6763 401.411 17.4772 404.6 18.8905 408.028C21.968 415.48 25.2963 422.723 29.5819 429.132C33.3661 434.765 36.8995 440.667 40.8432 446.121C44.4222 451.069 48.1608 455.868 52.2185 460.131C57.986 466.182 64.0269 471.756 70.0679 477.3C75.2199 482.039 80.3946 486.868 85.8657 490.921C91.7243 495.243 97.9476 498.731 104.057 502.457C110.463 506.361 116.823 510.445 123.388 513.873C129.315 516.943 135.47 519.208 141.534 521.891C143.266 522.636 145.045 523.322 146.663 524.365C154.573 529.343 163.167 531.519 171.488 534.768C178.373 537.42 185.189 540.341 192.119 542.726C196.997 544.395 202.035 545.319 207.027 546.571C218.357 549.433 229.664 552.592 241.039 555.036C249.383 556.825 257.863 557.6 266.297 558.881C274.048 560.044 281.753 561.475 289.527 562.369C295.978 563.114 302.498 563.144 308.972 563.68C314.238 564.127 319.504 565.171 324.77 565.349C331.927 565.588 339.108 565.29 346.289 565.2C349.093 565.171 351.897 565.111 354.701 565.081C364.138 564.992 373.553 565.111 382.991 564.753C388.713 564.515 394.435 563.472 400.156 562.905C408.363 562.101 416.615 561.534 424.822 560.58C429.86 560.014 434.875 559.001 439.89 558.106C450.764 556.139 461.638 554.112 472.534 552.145C478.735 551.012 484.935 550.058 491.113 548.807C492.982 548.419 494.738 547.108 496.607 546.601C504.95 544.306 513.294 542.1 521.66 539.984C526.128 538.851 530.847 538.821 535.087 536.854C537.754 535.632 540.33 534.708 543.066 533.933C549.54 532.085 555.923 529.73 562.306 527.435C569.236 524.961 576.143 522.457 583.005 519.715C590.14 516.883 597.252 513.903 604.319 510.773C614.828 506.063 625.36 501.354 635.755 496.257C641.112 493.634 646.218 490.117 651.461 487.106C658.027 483.321 664.683 479.803 671.18 475.779C677.791 471.696 684.242 467.135 690.739 462.754C693.634 460.787 696.484 458.7 699.379 456.673C704.189 453.275 709.136 450.116 713.786 446.39C720.967 440.637 728.649 435.51 734.873 428.297C741.917 420.16 751.012 416.165 757.532 407.223C759.424 404.63 762.251 403.289 764.439 401.023C769.067 396.165 773.558 391.068 778.094 386.031C778.596 385.464 778.96 384.63 779.53 384.272C784.477 381.202 788.284 376.135 792.319 371.544C797.904 365.225 803.102 358.31 808.892 352.319C819.241 341.559 827.083 327.788 834.788 314.255C842.151 301.349 848.147 287.071 850.837 270.588C852.432 260.811 853.937 251.124 853.823 241.228C853.732 233.627 852.797 225.907 851.543 218.456C849.378 205.549 845.343 193.418 840.624 181.793C839.097 178.067 836.84 174.848 835.016 171.301C834.332 169.96 834.15 168.201 833.443 166.919C832.212 164.624 830.753 162.567 829.408 160.362C825.807 154.4 822.25 148.499 817.577 143.729C814.021 140.093 811.559 134.698 808.094 130.912C801.027 123.222 793.641 116.009 786.301 108.736C781.833 104.325 777.319 99.9131 772.578 96.0084C767.357 91.7162 761.863 87.9903 756.483 84.0558C751.514 80.4491 746.613 76.6338 741.529 73.4147C736.901 70.4638 731.955 68.4667 727.35 65.486C723.93 63.2803 720.876 60.0611 717.548 57.5871C716.75 56.991 715.336 58.0044 714.402 57.5275C708.019 54.2488 701.704 50.6719 695.321 47.3633C687.434 43.2798 679.569 39.1366 671.59 35.4405C661.515 30.7906 651.37 26.4388 641.158 22.2956C634.205 19.464 627.092 17.3477 620.071 14.7545C614.053 12.5189 608.08 9.95554 602.039 7.77963C598.096 6.34889 594.083 5.12681 590.026 4.32202C588.498 4.02395 587.29 1.22209 585.489 3.18935C585.261 2.47398 585.056 1.75861 584.555 0.119228L584.578 0Z" fill="#D34327"/>
</svg>
