<?xml version="1.0" encoding="UTF-8"?>
<svg id="Layer_1" data-name="Layer 1" xmlns="http://www.w3.org/2000/svg" viewBox="0 0 203.66 192.76">
  <defs>
    <style>
      .cls-1 {
        fill: #c34327;
        stroke-width: 0px;
      }
    </style>
  </defs>
  <path class="cls-1" d="m14.7,97.13c1.23,6.15,2.47,12.3,3.69,18.46,3.75,18.78,12.33,34.92,26.12,48.28,8.64,8.36,19.04,13.51,30.42,16.68,13.86,3.86,27.96,3.78,41.83.27,13.41-3.39,25.55-9.65,36.8-17.84,13.02-9.48,22.83-21.78,30.34-35.63,5.84-10.77,9.38-22.66,10.72-35.13,1.95-18.17-2.77-34.46-13.01-49.2-4.97-7.15-11.57-12.95-18.64-18.02-9.79-7.03-20.4-12.55-32.42-14.53-8.88-1.47-17.71-2.61-26.93-1.03-29.22,5-54.36,18.15-77.18,36.57-9.81,7.92-17.82,17.46-26.46,26.84.18-.84.18-1.79.58-2.5,8.38-14.75,19.76-26.81,33.15-37.09,17-13.04,35.66-23.01,56.12-29.23,16.96-5.15,34.06-5.47,51.37-.38,18.62,5.48,33.74,15.91,45.83,30.69,5.35,6.54,9.15,14.21,11.99,22.38,2.58,7.44,4.64,14.89,4.61,22.73-.03,6.87.1,13.87-1.17,20.56-1.55,8.16-3.79,16.34-6.96,24-5.83,14.12-14.18,26.56-25.31,37.39-9.42,9.17-20.14,16.04-31.75,21.52-13.32,6.3-27.55,9.63-42.42,9.81-12.74.16-24.61-3.09-36.23-8.09-6.62-2.85-12-7.24-17.26-11.84-10.42-9.13-17.68-20.64-22.48-33.46-2.7-7.22-4.15-15-5.4-22.65-1.04-6.38-.94-12.94-1.35-19.41.45-.05.91-.1,1.36-.15Z"/>
</svg>