<?xml version="1.0" encoding="UTF-8"?>
<svg id="Layer_1" data-name="Layer 1" xmlns="http://www.w3.org/2000/svg" viewBox="0 0 163.59 66.9">
  <defs>
    <style>
      .cls-1 {
        fill: #231f20;
      }

      .cls-1, .cls-2 {
        stroke-width: 0px;
      }

      .cls-2 {
        fill: #d34327;
      }
    </style>
  </defs>
  <g>
    <path class="cls-1" d="m30.17,29.2c-.27-1.99-.6-4.07-1.85-5.49-.08-.09-.15-.18-.22-.28-1.05-.91-1.94-2-3.47-2.53.3-.27.62-.42,1-.65.16-.16.25-.41.42-.52.37-.6.41-.7.53-1.07.1-.3.16-.51.3-.79.05-.27.14-.51.23-.79.64-1.67.93-3.34,1.06-5.19-.34-1.25-.63-2.68-1.19-3.93-.32-.19-.6-.43-.84-.73.01.01.02.03.03.04-.37-.46-.79-.88-1.2-1.31-.24-.13-.46-.28-.67-.46-.01,0-.03-.02-.04-.02-.81-.33-1.64-.6-2.42-1.06-.51-.17-1.13-.41-1.82-.64-.53-.11-1.06-.2-1.57-.28-.99-.16-1.99-.36-3-.55-.12.02-.24.03-.36.03-1.6,0-3.2-.12-4.78-.41-1.67.19-3.61-.05-5.51,0-.1.02-.2.04-.29.05-.65.08-1.31.06-1.96.06-.11,0-.79.07-.74.03-.05.01-.11.02-.16.04,0,0-.01,0-.02.01-.19.11-.38.19-.57.25-.02.1-.04.2-.06.29-.06.27-.13.53-.2.79-.04.16-.21,1.1-.11.29-.03.25-.07.48-.13.69,0,.09,0,.17.01.26.06.16.1.32.14.5.66,3.61,0,7.37-.14,11.07,0,0,0,.04,0,.09-.03.94-.04,1.87.03,2.8.03.42-.02.79-.13,1.12l-.35,5.73c.13.33.19.72.17,1.15-.08,2.03.2,4.05.05,6.08-.12,1.75-.54,3.61-.21,5.36.22,1.18.9,2.02,1.76,2.7.3,0,.62-.01.97,0,.59.03.94-.1,1.68-.01.33.04.7-.12,1.05-.08.88-.03,1.74.03,2.57.1.48,0,.95,0,1.39.02.64.03,1.28.04,1.92.05.1-.01.15,0,.29,0,.03.02.07,0,.11.01.86,0,1.73-.02,2.59-.04,1.35-.17,2.58,0,3.9-.16,1.32-.16,2.48-.38,3.67-.97.71-.36,1.82-.78,2.08-.93.31-.18.75-.52,1.2-.82.29-.18.34-.26.59-.46.08-.08.2-.13.26-.19.49-.4.97-.65,1.42-1.08.31-.29.51-.72.75-1.09.14-.21.29-.43.45-.65.29-.67.58-1.32.9-1.91.15-.35.28-.68.33-1,.04-.25.07-.45.1-.66.05-.33.07-1.49.08-2.45,0-.15,0-.29-.03-.44ZM10.45,12.04c.01-.16.04-.31.07-.47-.08-.88.65-2.3.33-3.22,1,.18,1.57-.09,2.26.03.16-.02.44.07.62.07.4,0,.77-.06,1.09.06.3-.04.71.04,1.09.14,1.12.11,2.19.58,2.95,1.43.83.92,1.37,2.13,1.31,3.38,0,.03,0,.07,0,.1.09.26.15.57.13.99-.03.74-.24,1.65-.38,2.39-.08.45-.54.67-.73,1-.23.05-.46.15-.64.32-2.6.53-5.08,1-7.82.96.02-.46.03-.69-.01-1.2-.67-1.86-.31-3.79-.32-5.16.01-.32-.08-.61.06-.82Zm11.2,20.48c-.47.85-1.15,1.45-1.93,2-.32.23-.67.35-1.04.4-.2.09-.4.17-.6.24-.32.09-.64.11-.95.09-1.17.26-2.52.28-3.86.27-.24.06-.5-.02-.78-.02-.29,0-.55.08-.8.01-.65,0-1.27.02-1.84.08-.14-.86-.22-1.67-.25-2.41l-.02-1.1c-.37-1.74-.12-4.08-.06-5.83,1.03.14,2.59.13,3.88.16.49,0,.98,0,1.48.01.28,0,.57,0,.81.03.53.03,1.06.09,1.57.18,1.64.07,3.38.56,4.31,2.01.75,1.16.73,2.67.07,3.87Z"/>
    <path class="cls-1" d="m36.28,41.64c.89-.04,1.69-.14,2.48-.18,1.26-2.05,1.43-4.56,2.91-6.54.07-.1.15-.19.23-.28.48-.94.87-1.99,1.23-2.89,3.49-.54,6.47.01,9.95-.24.23-.23.57,0,1.09-.07.39.82.67,1.93.85,2.91.09.22.16.44.24.66.08.12.11.25.13.41.48,1.63.72,3.35,1.35,4.92.33.37.55.81.73,1.28.01,0,.03-.01.04-.02.35.57.75.22,1.26.16.74-.06,2.97-.25,3.89-.26.69,0,1.37.28,1.77-.07.63.05,1.83.16,2.29-.02,0,0,0,0,0,0,.14-.05.29-.1.44-.13.05-.04.1-.07.15-.11-.05-.22-.13-.42-.21-.62-.07-.1-.13-.21-.19-.32-.01,0-.02-.02-.03-.02,0,0,.01,0,.02,0-.05-.1-.09-.2-.13-.3-.15-.27-.33-.56-.52-.91-.73-1.35-1.36-2.82-1.74-4.32-.43-1.26-.96-2.81-1.27-4.13-1.18-2.27-1.63-4.93-2.42-7.34-.91-2.77-1.78-5.31-3.24-7.85-.16-.28-.26-.55-.33-.82-1.58-2.15-2.52-4.57-3.29-7.17-.56-1.89-1.06-3.9-2.43-5.25-.4.04-.71.22-1.27.04h-.13c-1.71-.36-3.97-.12-5.7-.17-.1.19-.23.38-.39.55-1.15,2.48-2,5.09-2.95,7.68,0,.06-.02.09-.02.18-1.16,3.56-1.9,7.62-3.1,11.47-.01.07-.03.14-.04.2.07.31-.02.58-.17.76-.04.15-.08.3-.13.45-.02.42-.11.96-.34,1.07-.03.1-.07.2-.1.3-.04.12-.07.25-.1.37-.02.09-.04.18-.06.27-.08.41-.14.83-.25,1.24-.11.41-.29.81-.45,1.2,0,.04,0,.08-.02.13h-.03c-.05.12-.09.23-.13.35-.1.3-.25.57-.42.82-.96,2.99-2.15,5.91-3.04,8.53,0,.51-.14,1.01-.26,1.5-.06.27-.13.53-.18.8.01.04-.04.68-.04.77,0,.15-.02.29-.04.43.12.15.22.3.3.47,1.11.15,2.32.18,3.49.13m14.62-16.48c-.41.23-.9.37-1.49.36-.03,0-.06,0-.1,0-.69.09-1.39.27-1.88.14-.75.08-.85.27-2.28.52-.33.2-.64.25-1.09.31.5-2.12,1.57-3.12,2.24-5.15.74-2.02,1.13-4.08,1.91-6.38l.38-.63c.19-.43.58-.8.69-1.26.52,1.37,1.05,2.8,1.57,4.28.12.46.24,1.18.36,1.64.63,1.24,1.4,3.79,2.1,5.67-.9.22-1.65.41-2.42.52Z"/>
    <path class="cls-1" d="m96,31.34c-.34.14-.73.22-1.17.22-.85.59-1.73,1.15-2.68,1.47-.01.02-.02.04-.03.07-1.84.93-3.44,1.4-5.35,1.65-.3.1-.64.16-1.01.16-.4,0-.75-.07-1.07-.18-.49-.05-.9-.2-1.24-.43-1.06-.31-1.97-.82-2.81-1.28-1.35-.77-2.83-1.34-3.63-2.45-.58-.37-.95-.93-1.13-1.56-.11-.21-.19-.43-.28-.65-.12-.2-.22-.41-.29-.64-.19-.25-.33-.52-.43-.81-.39-.55-.58-1.24-.54-1.92-.07-.37-.08-.75-.01-1.13,0-.2.02-.4.03-.6-.11-.49-.11-1,.01-1.48-.06-.45-.03-.91.1-1.34.04-.26.11-.51.21-.75.11-.47.32-.9.64-1.26.03-.06.06-.12.1-.18.1-.26.24-.5.41-.72.08-.25.18-.49.35-.72.6-.83.59-1.58.91-2.21.18-.79.67-1.49,1.45-1.87.09-.12.2-.23.32-.34.17-.25.39-.46.65-.64.4-.41.95-.7,1.65-.78,1-.41,2.76-.76,3.78-.42,2.09-.19,4.38.6,6.15,1.55,1.09.59,1.94,1.48,2.92,2.21.39.29.81.46,1.24.59.37-.18.76-.39,1.29-.64.41-.16.54-.38,1.01-.49,0-.06.17-.16.29-.16.65-.27,1.12-.54,1.54-.81.12-.11.35-.16.47-.27.48-.33.66-.78,1.02-1.05.37-.31,1-.44,1.29-.78-.19-.22-.34-.47-.45-.74-.03,0-.06,0-.1.02-.46-1.02-1.07-2.37-2.03-3.13-.18-.11-.34-.24-.48-.38-.02-.02-.04-.03-.05-.05-.23-.23-.48-.44-.73-.65-.03-.02-.05-.04-.08-.06-.4-.32-.83-.6-1.27-.86-.64-.21-1.26-.49-1.79-.83-.43-.08-.79-.25-1.09-.47-.21-.06-.4-.15-.58-.25-.25-.06-.47-.15-.68-.27-.1-.03-.19-.07-.29-.1-.17-.03-.32-.07-.47-.12-1.54-.15-3.3-.85-4.59-.72-2.11.23-4.64.18-7.04.57-1.52.19-2.85.93-3.91,1.19-.77.49-1.52.53-2.18,1.18-.05.06-.1.12-.16.17-.15.19-.32.46-.46.67-.32.22-.6.46-.85.72-.03.03-.06.07-.09.1-.48.53-.92,1.1-1.37,1.66-.14.4-.35.78-.6,1.14-.13.19-.28.36-.44.52-.94,1.46-2.22,2.67-2.54,4.54l-.25,1c-.05.28-.18.6-.17.88.01-.09.02-.19.03-.28-.02.16-.04.33-.05.49-.05.5-.19.95-.41,1.35-.11,1.59-.38,3.17-.43,4.78-.07,1.96.54,3.88.94,5.78.02.08.03.15.04.23.12.47.25.95.41,1.39.08.1.15.21.21.32.07.03.14.07.17.1.05.12.07.25.09.37.16.34.21.52.31.72.15.15.32.27.43.46.14.22.26.49.37.73.26.36.5.73.68,1.13.41.56.72,1.24,1.14,1.83.02.02.04.04.06.06.18.18.35.38.5.59.01.01.02.03.04.04h0c.04.06.08.11.11.16.1.16.18.34.25.53,1.23,1.2,2.36,2.16,3.67,3.13.75.32,1.39.72,2.34.89.2.03.62.08.79.17,1.44.31,2.88.47,4.34.53.46.02,1.02-.03,1.48-.03,1.7,0,3.14-.25,4.83-.42,0,0,.02-.01.03-.02.03,0,.06,0,.09,0,.27-.03.54-.05.81-.09.17-.02.34-.02.5,0,.66-.13,1.31-.34,1.86-.42.06-.03.12-.05.17-.07.39-.15.79-.26,1.2-.36.4-.16.83-.29,1.31-.37.02-.01.05-.03.09-.05,1.25-1.02,2.87-1.71,4.17-2.74l.24-.28c.61-.83,1.39-1.83,1.48-2.96-.45-.46-1.44-.72-1.84-1.01l-3.87-1.79Z"/>
    <path class="cls-1" d="m117.36,5.77c.16-.57.34-1.13.53-1.69,0-.02.01-.04.02-.06-.03-.09-.05-.17-.07-.26-.04-.03-.07-.06-.11-.09-.12-.02-.22-.04-.32-.07-.3-.03-.57-.11-.81-.21-.27-.04-.52-.12-.75-.23-1.54-.11-3.32.02-4.73-.35-.26,0-.49-.04-.71-.1h-.03c-.16,0-.31-.02-.46-.05-.68.07-1.34-.35-2.11-.44-.34.24-.39.57-.39.95s-.09.76-.22,1.12c-.06.18-.06.4-.03.63.03.24.05.43.07.61,0,.14.02.28,0,.45-.06,1.05.16.69.06,2.31-.1,1.06-.21,1.84-.28,2.56-.1.92-.12,1.74.08,2.91-.01.03-.02.06-.03.09.01,0,.02,0,.03,0-.1.78-.2,1.6-.3,2.44-.01.06-.02.12-.03.19-.18,1.43-.34,2.9-.46,4.31,0,.06.01.11.01.17.04,1.99.45,3.95.55,5.94.09,1.92-.72,3.93-.33,5.82.09.45.08.87,0,1.25-.14,1.7-.49,2.45-.74,4.11l-.37,2.48c.04.17.06.34.07.51.06.08.12.17.17.25.13.03.26.06.39.08.24-.02.5-.04.78-.08.55.19,1.17.24,1.84.25.07,0,.15-.01.22-.01.1,0,.2,0,.3.01.05,0,.1,0,.15,0,0,0,0,.01,0,.02.13.02.26.04.38.07.57.03,1.13.07,1.66.15.48.07,1.32.24,1.96.33.24,0,.5-.01.77-.02.08-.08.24-.2.41-.32.06-.85.04-1.64-.17-2.73.01-.03.02-.06.03-.09-.01,0-.02,0-.03,0,.08-.78.16-1.61.24-2.45.01-.06.01-.12.02-.19.14-1.4.26-2.85.35-4.23-.06-.31-.12-.62-.17-.94,0-.02,0-.04,0-.06-.52-2.32-.57-4.63-.44-7,.05-1.02-.03-2.04.04-3.06.08-1.16.46-2.28.54-3.43.04-.5.18-.92.39-1.28.1-.41.21-.85.31-1.39l.44-2.47c-.08-.36-.08-.74-.03-1.1l.54-2.79c.06-.89.36-1.74.71-2.5.03-.1.05-.2.08-.3"/>
    <path class="cls-2" d="m119.65,23.26c.03.15.05.3.07.46.05.34.08.64.1.94.03.17.06.32.09.49,0,.05.02.11.03.15,0,.04.03.09.03.13.04.22.04.46.09.68.03.14.09.27.09.41.14.42.26.84.36,1.26.09.39.16.69.28,1.1,0,.03.06.21.07.23.03.11.04.13.05.25v.03c.25.5.46.98.63,1.47,0,.01.03.06.03.08.02.05.03.07.04.11.32.86.28,1.33.72,2.12.3.31.82.99,1.1,1.32.44.51,1.08.98,1.61,1.4,3.12,2.44,6.42,4.43,12.17,5.47.27.05.54.1.8.17,5.35-.01,10.61-.17,15.94-.51.41-.03.77-.25.98-.6.11-.19.22-.37.29-.52.23-.45.34-.78.6-1.25.17-.3.32-.68.52-.96.22-.31.48-.68.61-1,.12-.28.13-.29.25-.52.1-.13.3-.52.33-.62.56-.74,1.12-1.59,1.61-2.25.96-1.3,1.47-2.17,2.28-3.57.43-.78.72-1.68.86-2.59l.21-1.35c.02-.12.02-.26.04-.39,0-.45.05-.89.11-1.33.08-.61.14-1.13.12-1.66.03-.2.04-.39.08-.59.03-.11-.01-.18.03-.28.06-.43.12-.86.2-1.28.02-.19.05-.38.11-.56.06-.27.13-.55.2-.82.01-.05.03-.1.05-.15.06-.58,0-1.17.08-1.75.14-1.14-.11-2.27-.32-3.39-.05-.25-.21-.5-.36-.72-.48-.75-.93-1.51-1.19-2.37-.21-.66-.39-1.33-.64-1.97-.25-.38-.49-.76-.68-1.19-1.16-1.47-2.1-3.16-3.51-4.4-.61-.54-1.32-.95-2.06-1.32-.09-.03-.17-.07-.25-.12-.62-.3-1.26-.57-1.89-.86-.15-.02-.31-.04-.43-.12-.69-.44-1.46-.45-2.24-.49-.3-.01-.61,0-.91,0-2.02.24-4.04.58-5.98,1.21-.63.2-1.18.49-1.7.82-.14.14-.31.25-.5.34-.88.62-1.72,1.35-2.72,2.04-.45.31-.86.67-1.26,1.05,0,0-.02.02-.03.03-.24.33-.51.66-.63,1.03-.16.52-.56.88-.72,1.39-.18.57-.45.72-1.07.66-.73-.07-1.46-.17-2.18-.31-.04,0-.08-.02-.11-.04-.32-.05-.62-.15-.86-.31l-.34-.12c-.15-.02-.3-.02-.46-.04-.05,0-.1-.02-.16-.03-.44.03-.87.07-1.29,0-1.41-.21-2.69.23-3.96.67-1.01.35-1.94.92-2.89,1.43-.3.16-.61.42-.77.72-.39.73-.69,1.5-1.04,2.28l-.19.49c-.15.77-.28,1.56-.51,2.31-.16.53-.25,1.04-.23,1.59.02.59,0,1.19-.02,1.78-.03.59-.13.76-.15,1.65"/>
  </g>
  <g>
    <path class="cls-1" d="m49.41,59.16c0-1.67,3.63-4.09,6.19-4.09.39,0,.73,0,.98.09.89.57.41,1.55-.3,1.94,0,0-.3-.02-.73-.02-1.46,0-3.26,1.07-3.95,1.83,2.9,0,5.62-2.42,6.78-2.42s1.07,1.6,2.05,2.86c.69.89,1.23.96,1.23,1.14,0,.12-.16.21-.37.21-.53,0-2.08-.36-3.06-2.35-1.26,1.03-4.8,2.53-6.62,2.53-.98,0-2.19-.3-2.19-1.73Z"/>
    <path class="cls-1" d="m62.65,58.79c0-1.99.62-2.69.64-2.7.71-.57,1.51-.69,1.69.75l-.18.53c.8-.66,2.08-2.08,3.01-2.08,1.12,0,1.71.96,1.62,2.19,1.12-1.3,2.51-2.63,4.25-2.63,2.33,0,2.94,2.15,2.94,3.26,0,1.42-.48,2.94-1.01,4-.78,1.58-1.33,2.05-1.49,2.05-.27,0,.09-1.07.23-1.53.25-.82.64-2.08.64-3.91,0-1.25-.66-1.94-1.25-1.94-2.05,0-3.75,4.06-5.5,4.06-1.46,0-.93-2.44-.8-3.24-1.03.66-2.28,2.58-3.61,2.58-.62,0-1.17-.73-1.17-1.37Z"/>
    <path class="cls-1" d="m78.67,57.72c.04-1.21,3.29-2.76,5.84-2.7,1.23.02,3.49.55,3.49,2.47,0,2.3-3.04,3.33-5.61,3.33-1.87,0-4.34-.59-4.34-2.31,0-.55.28-.77.62-.78Zm.75.37c.23.44,1.26.82,2.7.82,1.53,0,3.99-.73,3.99-1.32,0-.55-1.26-.69-2.26-.69-1.07,0-2.26.09-3.33.37-.25.07-1.03.43-1.46.59.11.05.23.14.36.23Z"/>
    <path class="cls-1" d="m90.7,58.25c.05-1.25.3-2.42.96-3.13.82-.12,1.41.37,1.49,1.17-.16.3-.41.68-.43,1.28,1.48-2.44,3.79-3.74,5.62-3.74.46,0,.62.12.62.25,0,.39-3.61,2.12-5.82,6.25-.2.39-.53.6-.96.6-1.09,0-1.55-1.28-1.49-2.69Z"/>
    <path class="cls-1" d="m100.02,57.56c.87-2.22,3.77-3.36,6.28-3.31.78.02,2.3.18,2.3,1.41,0,2.1-4.89,3.35-6.67,3.45.89.89,4.84.53,4.84.82,0,.25-1.37.94-3.4.94-1,0-2.74-.23-3.35-1.65h-.23c-.55-.32-.78-1.19,0-1.65h.23Zm6.28-1.55c-1.9,0-3.79.71-4.2,1.44,1.58-.23,3.08-.73,4.2-1.44Z"/>
    <path class="cls-1" d="m117.91,59.14c0-.12.28-.18.69-.18.23,0,.8.04,1.42.05.43-1.01.98-1.96,1.53-2.62-.14-.37-.07-.8.16-1.19.28-.07.78-.18,2.4-.18,1,0,5.04.46,5.04,3.01,0,2.37-4.4,2.7-5.77,2.7-.77,0-1.51,0-2.03-.12-1.23,2.74-1.85,6.28-2.37,6.28-.77,0-.55-3.99.5-6.78-1.16-.52-1.58-.8-1.58-.98Zm9.31-1.12c0-.57-2.37-1.01-3.75-.93-.46.57-.96,1.05-1.39,1.89,1.32-.04,5.14-.25,5.14-.96Z"/>
    <path class="cls-1" d="m142.72,54.23c.11,0,.2.05.16.16-.91,3.17-4.79,6.46-7.79,6.46-2.49,0-3.74-2.12-3.72-4.75.57-.57,1.35-.45,1.99,0,.02.75,0,2.78,1.57,2.78,3.47,0,6.76-4.64,7.79-4.64Z"/>
    <path class="cls-1" d="m145.19,58.25c.05-1.25.3-2.42.96-3.13.82-.12,1.41.37,1.49,1.17-.16.3-.41.68-.43,1.28,1.48-2.44,3.79-3.74,5.62-3.74.46,0,.62.12.62.25,0,.39-3.61,2.12-5.82,6.25-.2.39-.53.6-.96.6-1.09,0-1.55-1.28-1.5-2.69Z"/>
    <path class="cls-1" d="m154.27,57.72c.04-1.21,3.29-2.76,5.84-2.7,1.23.02,3.49.55,3.49,2.47,0,2.3-3.04,3.33-5.61,3.33-1.87,0-4.34-.59-4.34-2.31,0-.55.28-.77.62-.78Zm.75.37c.23.44,1.26.82,2.7.82,1.53,0,3.99-.73,3.99-1.32,0-.55-1.26-.69-2.26-.69-1.07,0-2.26.09-3.33.37-.25.07-1.03.43-1.46.59.11.05.23.14.36.23Z"/>
  </g>
</svg>