<?xml version="1.0" encoding="UTF-8"?>
<svg id="Layer_1" data-name="Layer 1" xmlns="http://www.w3.org/2000/svg" viewBox="0 0 29.38 29.31">
  <defs>
    <style>
      .cls-1 {
        stroke-width: 0px;
      }
    </style>
  </defs>
  <path class="cls-1" d="m25.81,6.79c-3.53,3.08-6.81,5.97-10.14,8.82-1.35,1.15-2.92,2.07-4.16,3.33-2.44,2.49-4.72,5.14-7.08,7.71-.69.74-1.4,1.48-2.18,2.11-.52.43-1.21.88-1.88.23-.61-.59-.38-1.33-.06-1.95.5-.95.99-1.95,1.69-2.76,2.45-2.81,4.75-5.77,7.7-8.1,1.19-.94,2.41-1.85,3.69-2.65,2.24-1.4,4.13-3.12,5.63-5.3.78-1.14,1.64-2.24,2.49-3.33.69-.89,1.25-1.91,2.44-2.32.35-.12.54-.68.86-.98.5-.46,1-.93,1.57-1.27.86-.51,1.76-.41,2.45.3.71.71.62,1.6.27,2.49-.7,1.74-2.13,2.79-3.3,3.68Z"/>
  <path class="cls-1" d="m1.92.32c.12.03.28.03.36.11,2.19,1.89,4.41,3.74,6.54,5.69,2.05,1.88,4.13,3.75,5.96,5.83,2.91,3.32,6.76,5.5,9.86,8.56,1.12,1.11,2.17,2.3,3.21,3.49.28.32.46.77.54,1.19.22,1.16-.83,2.02-1.88,1.48-.83-.42-1.59-1.02-2.32-1.62-1.52-1.25-3-2.53-4.48-3.83-1.33-1.17-2.64-2.35-3.92-3.57-2.01-1.92-3.92-3.96-6.01-5.78-1.5-1.31-3.14-2.53-4.89-3.49C2.69,7.19,1.65,5.24.91,3.06c-.41-1.21-.07-1.85,1.01-2.74Z"/>
</svg>