<?xml version="1.0" encoding="UTF-8"?>
<svg id="Layer_1" data-name="Layer 1" xmlns="http://www.w3.org/2000/svg" viewBox="0 0 537.73 361.44">
  <defs>
    <style>
      .cls-1 {
        fill: #1d5c00;
        stroke-width: 0px;
      }
    </style>
  </defs>
  <path class="cls-1" d="m301.5,80.54c1.1-5.02-1.21-8.55-4.89-11.61-3.93-3.27-8.58-5.17-13.17-7.17-2.36-1.03-4.9-1.66-7.26-2.69-3.62-1.58-7.23-3.21-10.71-5.07-3.04-1.62-5.97-3.48-8.79-5.45-3.24-2.25-6.26-4.82-9.47-7.11-2.44-1.73-5.15-3.09-7.53-4.89-3.35-2.54-7.35-3.69-11.05-5.45-3.89-1.85-7.94-3.34-11.96-4.88-1.42-.55-2.96-.79-4.44-1.18-.42-.11-.9-.1-1.25-.31-2.26-1.34-3.93-1.29-5.9.34-1.17.96-2.23,2.05-3.39,3.02-2.95,2.46-4.52,5.84-6.12,9.18-1.5,3.13-2.81,6.35-4.2,9.53-1.25,2.86-2.43,5.75-3.79,8.56-2.04,4.2-3.71,8.57-6.2,12.57-1.75,2.8-3.11,5.85-4.65,8.78-1.35,2.58-2.63,5.21-4.08,7.74-1.16,2.03-2.52,3.94-3.78,5.9-1.76,2.72-3.5,5.44-5.27,8.15-1.23,1.88-2.4,3.8-3.76,5.58-.97,1.27-2.48,2.17-3.26,3.51-1.28,2.2-3.31,3.44-5.2,4.9-.32.25-.79.31-1.35.51-.3,1.77-9.25,6.54-11.42,5.75,2.84-1.99,5.78-3.78,8.41-5.95,3.13-2.6,5.97-5.53,8.04-9.11,1.42-2.46,2.86-4.91,4.33-7.33,1.76-2.89,3.72-5.67,5.29-8.66,1.36-2.59,2.39-5.36,3.36-8.12,1.05-2.96,3.29-5.22,4.52-8.03,1.21-2.76,3.39-5.01,4.08-8.05.2-.87.89-1.63,1.32-2.46,2.46-4.71,4.96-9.4,7.36-14.13,1.43-2.8,2.69-5.69,4.08-8.5.32-.64.86-1.16,1.19-1.77.78-1.46,1.47-2.97,2.35-4.36,1.74-2.77,3.09-5.86,5.93-7.79,1.68-1.14,3.33-2.4,5.14-3.28,2.3-1.12,4.96-.85,7.02.21,4.22,2.16,8.86,2.68,13.23,4.18,3.48,1.19,6.88,2.62,10.31,3.97,1.61.63,3.26,1.2,4.79,2,2.09,1.09,4.14,2.28,6.11,3.56,2.62,1.71,5.16,3.54,7.72,5.34,2.36,1.66,4.71,3.33,7.09,5.02.54-2.92,2.69-4.73,4.84-6.29,3.97-2.89,8.14-5.53,12.31-8.13,3.21-2,6.56-3.77,9.83-5.68,3.92-2.29,7.78-4.69,11.76-6.89,4.94-2.73,9.99-5.22,15.47-6.82,4.06-1.18,7.94-2.97,11.98-4.24,4.46-1.4,9.01-2.53,13.52-3.76,2.75-.75,5.52-1.44,8.28-2.16.36-.09.73-.15,1.1-.2,2.67-.34,5.34-.73,8.02-.99,1.4-.13,2.82.02,4.22-.03.71-.02,1.43-.34,2.13-.29,2.57.19,5.13.47,7.7.72,2.33.23,4.65.51,6.98.68,3.89.3,7.7.85,11.4,2.22,1.87.69,3.97.76,5.97,1.14,1.58.3,3.17.59,4.74.97,2.57.63,5.12,1.33,7.69,1.99,2.96.77,5.94,1.49,8.89,2.29,3.56.97,7.14,1.88,10.64,3.04,4.69,1.56,9.32,3.22,13.65,5.74,4.24,2.47,8.73,4.55,13.21,6.58,4.9,2.22,9.94,4.13,14.86,6.3,1.96.86,3.8,2.03,5.65,3.12,3.82,2.25,7.73,4.38,11.4,6.86,3.37,2.28,6.47,4.95,9.67,7.47.77.61,1.5,1.28,2.17,1.99,3.3,3.46,6.68,6.84,9.83,10.43,4.41,5.03,8.46,10.35,11.65,16.28.81,1.5,2.05,2.77,2.88,4.27,1.31,2.38,2.45,4.85,3.62,7.3,1.47,3.09,2.94,6.18,4.32,9.3.27.61.16,1.38.25,2.25.14.2.54.59.72,1.05,1.16,2.92,2.28,5.81,2.66,9,.39,3.3,1.5,6.51,1.98,9.81.53,3.63.71,7.32,1.01,10.98.19,2.32.47,4.64.45,6.96-.02,2.93-.22,5.86-.48,8.78-.43,4.86-.93,9.71-1.5,14.55-.27,2.33-.67,4.66-1.19,6.95-.94,4.09-1.92,8.18-3.05,12.22-.87,3.11-1.96,6.16-3.03,9.2-.94,2.67-1.92,5.34-3.01,7.95-.87,2.09-1.95,4.1-2.91,6.16-.45.96-.73,2.02-1.26,2.92-1.43,2.41-3.15,4.66-4.42,7.14-1.87,3.67-4.55,6.67-7.33,9.6-3,3.17-6.09,6.27-9.27,9.25-2.7,2.53-5.5,4.99-8.46,7.21-2.77,2.09-5.79,3.87-8.73,5.73-1.72,1.09-3.47,2.16-5.28,3.09-2.77,1.4-5.5,2.98-8.43,3.91-4.81,1.52-9.76,2.56-14.65,3.85-1.27.33-2.57.68-3.7,1.3-.58.32-.81,1.25-1.11,1.75.4.58.93,1.1,1.18,1.73.89,2.27,1.62,4.59,2.52,6.85.97,2.45,2.24,4.79,3.07,7.27,1.42,4.26,2.13,8.65,1.57,13.18-.26,2.06-.42,4.13-.63,6.29-.62-.12-.96-.19-1.16-.23.13.61.52,1.31.32,1.72-1.22,2.55-2.29,5.25-3.94,7.51-2.57,3.49-5.37,6.88-8.46,9.92-2.82,2.77-6.28,4.86-10.17,5.9-4.66,1.26-9.36,2.41-14.1,3.35-3.51.69-7.09,1.04-10.66,1.41-4.71.49-9.43.83-14.14,1.28-3.51.34-7.04.62-10.52,1.19-2.69.44-5.29,1.37-7.97,1.9-2.54.51-5.13.84-7.71,1.15-3.25.4-6.51.95-9.77,1-4.25.07-8.51-.2-12.75-.47-3.51-.23-7.03-.55-10.51-1.07-4.84-.72-9.74-1.15-14.42-2.82-3.67-1.31-6.98-3.24-10.07-5.55-1.42-1.06-2.89-2.21-3.9-3.62-.89-1.25-1.45-2.88-1.67-4.42-.28-1.96-.06-3.99-.07-6,0-.39-.05-.78-.44-1.27-1.56,2.27-3.02,4.61-4.69,6.78-1.67,2.16-3.46,4.23-5.36,6.19-2.49,2.57-5.06,5.09-7.73,7.47-3.64,3.25-7.4,6.36-11.12,9.52-2.01,1.71-4.02,3.43-6.07,5.09-4.54,3.69-9.28,7.15-14.61,9.58-3.16,1.44-6.59,2.31-9.94,3.31-3.03.91-6.08,1.76-9.17,2.46-4.71,1.06-9.43,2.13-14.19,2.91-4.51.74-9.06,1.32-13.62,1.57-3.54.19-7.13-.17-10.68-.41-3.66-.25-7.35-.44-10.96-1.04-4.45-.74-8.86-1.77-13.24-2.87-3.15-.79-6.29-1.73-9.32-2.92-2.63-1.03-5.1-2.47-7.62-3.77-2.62-1.35-5.32-2.61-7.81-4.17-4.22-2.64-8.32-5.48-12.44-8.27-4.31-2.91-8.6-5.85-12.89-8.79-3.26-2.24-6.47-4.55-9.74-6.78-3.91-2.67-7.88-5.26-11.79-7.92-1.27-.87-2.39-1.96-3.68-2.79-4.03-2.63-8.17-5.09-12.12-7.82-1.9-1.31-4.03-2.07-5.98-3.23-2.17-1.29-4.37-2.52-6.53-3.83-3.45-2.1-6.91-4.18-10.28-6.39-4.28-2.81-8.55-5.63-12.68-8.64-3.48-2.54-6.87-5.24-10.07-8.11-2.55-2.28-4.88-4.84-7.08-7.46-1.94-2.32-3.65-4.84-5.31-7.38-2.62-4-5.23-8.01-7.63-12.14-2.1-3.61-4.07-7.32-5.82-11.11-2.21-4.79-4.18-9.69-6.15-14.59-1.03-2.57-1.83-5.22-2.69-7.86-.22-.67-.13-1.46-.38-2.11-1.05-2.68-2.32-5.28-3.25-8-.66-1.94-.97-4.01-1.33-6.04-.55-3.13-1.18-6.27-1.45-9.43-.22-2.6-.02-5.23.09-7.85.1-2.43.25-4.87.52-7.29.37-3.32.81-6.64,1.34-9.95.42-2.61.9-5.22,1.56-7.78.7-2.72,1.52-5.43,2.54-8.05.84-2.16,2.1-4.16,3.08-6.27,1.07-2.3,1.98-4.68,3.06-6.97.6-1.27,1.42-2.44,2.16-3.64.94-1.52,1.83-3.07,2.87-4.51,1.32-1.83,2.22-3.87,4.13-5.4,1.89-1.51,3.05-3.92,4.59-5.89.45-.57,1.09-.99,1.66-1.47,2.68-2.26,5.26-4.66,8.09-6.72,2.14-1.56,4.59-2.7,6.93-3.97,2.55-1.39,5.06-2.87,7.73-4.01,2.42-1.03,5.02-1.66,7.53-2.47,2.2-.71,4.38-1.48,6.6-2.12,1.72-.49,3.46-.97,5.23-1.2,3.33-.44,6.69-1.05,10.02-.96,6.91.19,13.47,1.88,19.97,4.48,4.76,1.9,8.37,5.07,12.38,7.88,3.28,2.29,6.76,4.3,10.12,6.47,2.5,1.61,5.1,2.92,8.13,3.05,1.36.06,2.73.01,4.1.01.09.14.19.28.28.43-.5.51-.9,1.29-1.5,1.49-2.43.83-4.88,1.13-7.36-.09-1.81-.89-3.74-1.54-5.62-2.29-.19-.08-.46-.06-.6-.19-3.31-3.1-7.76-4.48-11.03-7.81-2.76-2.81-6.07-5.41-9.97-6.66-4.25-1.35-8.57-2.82-12.96-3.3-4.28-.47-8.7.11-13.04.45-3.35.26-6.63.96-9.74,2.37-1.06.48-2.33.49-3.42.92-1.58.63-3.15,1.09-4.34,2.69-1.08,1.45-3.05,2.22-4.55,3.4-2.07,1.62-4.15,3.25-6.08,5.04-2.92,2.7-5.77,5.47-8.53,8.32-1.37,1.41-2.45,3.1-3.7,4.63-1.11,1.37-2.32,2.67-3.4,4.06-.59.76-.98,1.67-1.49,2.49-2.81,4.55-5.73,9.04-8.42,13.67-1.44,2.48-3.01,5.08-3.56,7.82-.45,2.26-2.06,3.68-2.65,5.68-.66,2.21-1.18,4.46-1.83,6.68-1.08,3.7-2.38,7.33-3.27,11.07-.76,3.21-.87,6.58-1.62,9.8-1.13,4.78-.01,9.45.3,14.16.11,1.63.75,3.22,1.13,4.83.4,1.71.71,3.44,1.17,5.13.23.85.72,1.64,1.09,2.45-.33.18-.65.36-1.32.73.74.14,1.1.21,1.21.22,1.15,3.38,2.23,6.67,3.39,9.94.71,2.02,1.39,4.06,2.33,5.98,1.52,3.11,3.24,6.13,4.89,9.18,1.73,3.19,3.36,6.45,5.27,9.54,2.06,3.33,4.39,6.5,6.59,9.75.6.89,1.03,1.89,1.69,2.72,2.39,3,4.72,6.07,7.3,8.89,2.96,3.23,6.06,6.35,9.31,9.28,1.68,1.51,3.83,2.5,5.76,3.75,1.7,1.1,3.37,2.25,5.07,3.35,2.24,1.46,4.49,2.9,6.75,4.33,3.08,1.94,6.17,3.87,9.26,5.79,2.31,1.43,4.65,2.82,6.96,4.25,3.52,2.18,7.19,4.09,10.43,6.72,1.84,1.5,4.06,2.53,6,3.92,2.7,1.93,5.27,4.04,7.94,6.01,2.07,1.52,4.23,2.91,6.31,4.41,3.41,2.48,6.78,5.01,10.17,7.52,3.37,2.49,6.65,5.11,10.14,7.42,3.81,2.53,7.77,4.86,11.75,7.12,3.29,1.87,6.68,3.57,10.07,5.27,3.67,1.85,7.29,3.82,11.09,5.36,3.11,1.26,6.53,1.76,9.68,2.94,5.26,1.97,10.87,1.96,16.26,3.18.6.14,1.29-.12,1.91,0,.7.13,1.36.47,2.26.81.52-.08,1.44-.43,2.31-.33,7.02.8,13.95-.09,20.89-.93,2.59-.31,5.26-.32,7.77-.95,4.02-1.01,8.16-1.42,12.13-2.87,1.71-.62,3.49-1.33,5.3-1.81,2.01-.53,4.05-1.15,5.85-2.15,4.09-2.26,8.26-4.48,11.98-7.28,3.79-2.85,7.26-6.19,10.52-9.65,3.85-4.09,7.41-8.46,10.93-12.85,3.5-4.37,6.94-8.81,10.11-13.43,1.75-2.55,2.83-5.55,4.34-8.27,1.41-2.55,3.01-4.99,4.5-7.49.41-.68.76-1.39,1.12-2.08,1.82-3.47,3.74-6.89,5.43-10.41,1.42-2.97,2.35-6.19,3.94-9.06,1.45-2.61,1.07-5.49,1.91-8.15.46-1.45,1.02-2.89,1.29-4.37.53-2.9.94-5.82,1.28-8.74.21-1.8.46-3.67.2-5.44-.38-2.55-1.28-5.02-1.82-7.56-.28-1.33-.09-2.76-.43-4.07-.3-1.17-.93-2.29-1.57-3.35-2.77-4.6-6.02-8.85-10.15-12.29-2.53-2.11-5.29-3.96-8.06-5.77-1.88-1.23-3.92-2.23-5.94-3.23-.8-.4-1.74-.52-2.6-.82-2.64-.92-5.33-1.75-7.91-2.84-5.8-2.46-11.81-4.55-16.78-8.62-.75-.61-1.44-1.28-2.48-2.22.25,2.85,1.44,5,2.48,7.19,1.03,2.17,2.11,4.33,2.87,6.68-1.35-1.05-2.98-1.53-3.55-3.51-.4-1.39-1.97-2.41-2.66-3.77-3.03-5.94-5.63-12.02-5.66-18.89,0-1.67-.34-3.34-.52-5.01-.16-.06-.32-.12-.47-.18-.95,1.56-1.88,3.13-2.84,4.68-1.89,3.07-3.74,6.16-5.71,9.18-.94,1.44-2.1,2.73-3.17,4.09-.17-.08-.34-.17-.52-.25.42-.98.79-1.98,1.28-2.92,2.1-4,4.15-8.04,6.41-11.95.98-1.7,2.42-3.12,3.58-4.72.44-.6.8-1.3.99-2.01.83-3.11,1.47-6.27,2.4-9.34.86-2.84,1.86-5.64,3.04-8.36,2.17-5.01,4.48-9.95,6.79-14.89,1.75-3.73,3.5-7.47,5.4-11.12,2.73-5.23,5.67-10.35,9.1-15.18,2.41-3.38,4.62-6.9,6.99-10.31,1.9-2.73,4.04-5.31,5.81-8.12,1.46-2.32,2.47-4.92,3.82-7.32.98-1.74,2.18-3.34,3.28-5.01-.83,2.83-1.71,5.66-2.49,8.51-.36,1.34-.18,2.94-.86,4.05-1.44,2.36-3.22,4.54-5,6.67-.83.99-1.07,1.96-.67,3.08,1.41,3.93,2.89,7.84,4.29,11.78.17.49.02,1.1.02,1.65l-.69.17c-2.07-4.28-4.15-8.56-6.38-13.17-4.44,6.21-7.36,13.04-10.23,19.62.84.63,1.53,1.28,1.97,2.07.74,1.34,1.32,2.76,1.96,4.15.55,1.2,1.09,2.4,1.69,3.71-2.46-.16-5.71-4.93-6.21-8.78-.61,1.15-1.27,2.24-1.79,3.38-.88,1.93-1.58,3.93-2.52,5.83-1.63,3.29-3.42,6.51-5.06,9.79-1.24,2.47-2.33,5.02-3.54,7.51-2.48,5.11-5.01,10.2-7.47,15.31-.42.87-.94,1.87-.86,2.77.15,1.77.78,3.49,1.03,5.26.29,2.12.23,4.3.6,6.4.42,2.38,1.13,4.71,1.75,7.05.39,1.46.82,2.84,2.48,3.5,4.04,1.6,8.01,3.36,12.05,4.95,2.88,1.13,5.83,2.11,8.76,3.11,1.93.66,3.92,1.15,5.81,1.9,2.59,1.03,5.12,2.19,7.63,3.39.6.29,1.03.95,1.78,1.69.06,0,.67-.02,1.1.25,4.05,2.57,7.77,5.6,10.53,9.51,3.11,4.4,5.99,8.98,8.61,13.69,2.95,5.31,3.61,11.38,4.74,17.23.71,3.64.41,7.4.14,11.14-.41,5.77-1.99,11.29-3.46,16.82-.9,3.4-2.44,6.64-3.68,9.96-.12.33-.14.7-.21,1.04,1.44-1.22,2.68-2.43,3.74-3.79,2.55-3.26,5.65-5.92,9.09-8.13,3.16-2.03,6.51-3.76,9.77-5.64,1.94-1.12,3.8-2.42,5.84-3.33,1.91-.85,3.98-1.35,6.01-1.9,2.47-.66,4.96-1.24,7.45-1.79,2.06-.45,4.13-1.01,6.21-1.11,1.22-.06,2.82-.94,3.96.74-3.51.86-6.95,1.49-10.25,2.55-4.8,1.55-9.57,3.27-13.86,6-3.57,2.28-7.03,4.73-10.52,7.12-3.33,2.28-6.83,4.36-9.92,6.92-3.06,2.53-5.69,5.58-8.55,8.36-.55.53-1.31.85-1.97,1.26-.89.8-1.53,1.92-2.2,3.03-1.16,1.91-2.44,3.75-3.48,5.72-.45.85-.62,1.98-.53,2.95.15,1.71.87,3.4.86,5.1-.02,3.37,1.24,6.06,3.74,8.13,3.28,2.72,6.92,5,10.99,6.19,3.62,1.05,7.44,1.4,11.18,2.03,1.96.33,3.93.61,5.89.91,1.56.24,3.11.58,4.68.7,2.2.17,4.49-.18,6.59.34,2.91.73,5.78.64,8.67.42,3.1-.24,6.19-.68,9.27-1.13,3.02-.44,6.04-.89,9.02-1.53,2.39-.51,4.68-1.53,7.09-1.95,2.85-.49,5.76-.57,8.65-.85,5.27-.52,10.55-1.06,15.82-1.6,2.84-.29,5.68-.6,8.51-.88.62-.06,1.29.06,1.88-.12,2.7-.79,5.34-1.83,8.07-2.45,4.92-1.11,9.22-3.55,13.2-6.39,4.25-3.03,7.45-7.21,10.46-11.45,2.32-3.27,3.12-7.04,3.7-10.99.63-4.27-.42-8.06-1.92-11.87-.43-1.09-.91-2.16-1.37-3.23-.22.52-.04.95-.05,1.38-.02.63-.19,1.25-.29,1.87-.48-.46-.96-.92-1.43-1.4-.07-.07-.05-.21-.09-.31-1.76-4.52-5.14-7.42-9.47-9.29-2.2-.95-4.48-1.76-6.78-2.46-2.06-.63-4.18-1.12-6.3-1.48-2.05-.35-4.16-.41-6.22-.71-2.25-.33-4.48-.84-6.73-1.19-1.39-.22-2.81-.26-4.21-.4-2.72-.28-5.43-.65-8.15-.85-2.53-.19-5.08-.18-7.62-.3-1.56-.08-3.11-.34-4.67-.34-1.45,0-2.89.29-4.35.34-1.95.08-3.91.07-5.86.06-1.17,0-2.34-.07-3.51-.11-.02-.24-.04-.48-.06-.73,1.07-.37,2.12-.84,3.22-1.07,1.39-.3,2.84-.35,4.24-.61,2.78-.51,5.53-1.19,8.32-1.6,1.85-.27,3.76-.17,5.64-.28,1.58-.1,3.16-.45,4.72-.37,4.29.24,8.58.65,12.86,1,.53.04,1.08.04,1.6.17,3.84.97,7.7,1.87,11.49,3,3.03.9,5.94,2.2,8.96,3.12,3.74,1.13,7.06,3,10.24,5.2.3.21.86.03,1.45.03-.64-.8-1.05-1.19-1.29-1.66-.26-.52-.28-1.16-.53-1.68-1.92-3.88-3.64-7.86-6.08-11.49-.86-1.28-1.31-2.85-1.9-4.3-.44-1.09-.77-2.23-1.17-3.34-.54-1.47-1.3-2.89-1.62-4.41-.48-2.24-.62-4.55-.98-6.82-.29-1.88-1.01-3.75-.98-5.61.08-5.04,1.68-9.74,3.76-14.31.5-1.1,1.81-2.23.74-3.69-1.46-1.99-2.9-4.01-4.46-5.92-1.59-1.94-3.46-3.66-4.98-5.65-2.32-3.02-4.65-5.94-7.65-8.4-3.26-2.67-7.13-3.98-10.8-5.66-2.73-1.25-5.82-1.72-8.78-2.43-2.62-.63-5.27-1.2-7.93-1.64-2.63-.44-5.29-.68-7.94-1.02-3.46-.44-6.92-.95-10.39-1.29-4-.39-8.01-.62-12.02-.93-.54-.04-1.07-.14-1.6-.21.02-.16.03-.32.05-.48,5.15-1.94,10.56-1.54,15.92-1.67,5.36-.13,10.71-.07,16.26.62.05-.02.44-.33.79-.29,1.61.16,3.21.41,4.8.66,2.25.35,4.58.48,6.74,1.15,4.63,1.45,9.19,3.16,13.44,5.56,1.58.89,3.46,1.5,4.69,2.75,2.25,2.28,4.28,4.84,6.13,7.47,2.62,3.74,4.95,7.68,7.47,11.49,1.54,2.34,3.24,4.57,4.78,6.91.61.93.79,2-.34,3.03-.71-.57-1.38-1.1-2.34-1.87-.57,3.02-1.2,5.73-1.58,8.47-.61,4.38-.03,8.73,1.13,12.95.96,3.51,2.3,6.91,3.45,10.37.79,2.38,1.5,4.79,2.32,7.16.52,1.49,1.2,2.92,1.81,4.38.27.66.53,1.32.81,2.03.44-.15.72-.19.93-.33,3.85-2.41,8.04-4.02,12.39-5.23,3.3-.92,6.13-2.48,8.35-5.17.95-1.15,2.18-2.08,3.36-3.03,3.56-2.85,7.3-5.48,10.68-8.52,2.74-2.47,5.1-5.36,7.54-8.15,2.92-3.34,5.65-6.83,8.64-10.09.89-.97,1.51-2.81,3.3-2.17.09-.85-.05-1.7.29-2.24,1-1.55,2.22-2.94,3.31-4.44,1.99-2.72,3.99-5.44,5.9-8.23,1.14-1.67,2.09-3.46,3.15-5.18.66-1.08,1.49-2.07,2.03-3.2.72-1.49,1.15-3.12,1.87-4.61,1.55-3.21,3.31-6.33,4.78-9.58,1.18-2.6,2.16-5.29,3.07-8,.85-2.53,1.56-5.11,2.19-7.7.48-1.99.76-4.04,1.11-6.06.53-3.05,1.23-6.09,1.5-9.17.2-2.27-.13-4.59-.28-6.89-.16-2.53-.44-5.06-.57-7.59-.12-2.22.09-4.46-.21-6.65-.44-3.26-1.16-6.49-1.82-9.72-.64-3.14-1.16-6.32-2.08-9.38-1.01-3.38-2.4-6.65-3.64-9.96s-2.19-6.78-3.85-9.86c-2.64-4.9-5.5-9.73-8.76-14.23-3.42-4.74-6.78-9.54-10.66-13.96-3.31-3.77-7.14-6.93-11.08-9.94-2.5-1.92-5.35-3.39-8.03-5.07-.71-.45-1.35-1.01-2.08-1.41-.78-.42-1.68-.6-2.43-1.05-2.31-1.37-4.48-3.01-6.88-4.18-3.49-1.7-7.12-3.11-10.71-4.61-3.13-1.3-6.29-2.5-9.41-3.82-3.74-1.59-7.46-3.24-11.17-4.92-2.25-1.01-4.38-2.31-6.69-3.15-4.21-1.52-8.5-2.8-12.77-4.16-2.54-.81-5.07-1.68-7.65-2.37-3.56-.95-7.19-1.65-10.74-2.65-3.51-.99-6.94-2.13-10.66-2.2-3.6-.06-7.2-.61-10.8-.69-5.37-.13-10.76-.22-16.12.02-4.6.21-9.2.79-13.77,1.43-4.3.6-8.58,1.4-12.83,2.31-4.7,1-9.35,2.24-14.03,3.34-.6.14-1.26.02-1.99.02v.52c-2.98,1.23-5.8,2.39-8.63,3.55-3.83,1.57-7.74,2.98-11.48,4.74-5.13,2.42-10.29,4.85-15.16,7.75-5.7,3.39-10.68,7.75-15.05,12.81-1.86,2.16-3.71,4.71-7.09,4.8-.09,0-.18.22-.27.33.09.12.13.23.21.28,2.75,1.66,5.46,3.4,8.28,4.94,1,.55,2.22,1.57,3.2.41,1.06.96,2.03,1.99,3.15,2.79.61.43,1.55.36,2.24.71,2.22,1.15,4.42,2.36,6.59,3.6,2.62,1.5,5.19,3.09,7.82,4.57,3.35,1.87,6.01,4.41,7.98,7.7.78,1.31,1.07,2.59-.02,3.83-.89,1.02-1.87,1.97-2.81,2.95l.1.03Z"/>
  <path class="cls-1" d="m82.59,128.08c-1.16,1.25-1.48,2.78-1.3,4.4.38,3.56-.87,7.04-.51,10.6.29,2.88.52,5.76.82,8.64.18,1.76.29,3.54.67,5.26.85,3.91,1.61,7.87,2.83,11.67.96,2.97,2.5,5.77,3.92,8.58.7,1.38,1.72,2.59,2.57,3.9.17.26.22.59.32.88-.15.14-.3.28-.45.43-.9-.65-1.96-1.16-2.67-1.98-1.18-1.37-2.08-3.01-3.08-4.48-4.57-6.7-3.73-8.07-5.96-14.98-1.47-4.56-1.82-9.28-2.29-13.97-.27-2.72-.18-5.5.02-8.23.32-4.4.63-8.82,1.38-13.15,1.34-7.72,4.72-14.5,10.24-20.16,2.32-2.38,6.4-3.55,9.02-2.51,2.34.92,3.6,2.94,3.63,5.48.02,1.38.38,2.76.44,4.14.05,1.28-.09,2.56-.15,3.89,3.42,1.44,6.15,4.03,8.98,6.51,3.08,2.69,4.28,6.39,4.84,10.09.45,2.95-.16,6.11-.62,9.13-.43,2.88-1.48,5.67-1.88,8.56-.44,3.17,1.18,5.66,3,8.23,1.29,1.82,3.51,3.54,3.22,6.5.57-.98,1.26-1.9,1.68-2.93,1.78-4.39,3.47-8.82,5.19-13.23.32-.83.76-1.78,1.74-1.45.41.14.79,1.35.66,1.97-.74,3.47-1.48,6.96-2.53,10.35-1.04,3.39-2.13,6.84-3.77,9.97-1.79,3.41-4.04,6.64-6.46,9.65-2.46,3.06-5.21,5.93-8.13,8.56-2.05,1.85-4.56,3.21-6.94,4.65-1.7,1.03-3.5,1.95-5.35,2.69-.89.36-1.99.18-2.99.25-.06-.19-.11-.37-.17-.56,3.87-3.11,7.92-6.03,11.57-9.37,3.63-3.33,6.86-7.09,10.25-10.64-1.82-.87-3.44-1.31-4.62-2.29-1.32-1.1-2.69-2.52-3.23-4.09-.9-2.62-2.35-4.84-3.83-7.08-1.44-2.17-2.09-4.58-2.33-7.08-.23-2.46-.41-4.99-.11-7.42.36-2.9.93-5.83,2.51-8.41.7-1.16,1.43-1.19,2.44-.23.52.49,1.55.44,2.07.93,1.6,1.51,3.07,3.17,4.58,4.75.13-.84.43-1.97.46-3.11.11-3.65-.16-7.22-1.54-10.71-1.3-3.29-3.37-5.92-5.95-8.23-.47-.42-.86-.94-1.27-1.42-.48-.56-.94-1.13-1.41-1.7-.23.07-.45.14-.68.21-.47,2.05-.93,4.1-1.4,6.15-.09.42-.07.9-.27,1.26-.21.37-.63.62-.96.92-.32-.38-.94-.76-.93-1.13.05-2.52.3-5.04.34-7.56.06-3.36.11-6.74-.1-10.09-.1-1.58-1.67-2.51-3.28-2.01-3.12.97-5.79,2.63-7.36,5.69-.75,1.45-1.83,2.76-2.42,4.27-1.04,2.67-1.8,5.44-2.7,8.17-.15.45-.4.87-.54,1.33-.23.77-.4,1.55.79,1.65l-.05-.06.05-.05Z"/>
  <path class="cls-1" d="m212.33,277.92c-2.05-2.14-3.83-4.49-4.61-7.4-.43-1.58-1.22-3.03-1.56-4.59-.44-2.03-.67-4.15-.63-6.22.06-3.57.22-7.16.67-10.7.33-2.58,1.05-5.14,1.89-7.61,1.16-3.39,2.32-6.82,3.98-9.98,2.11-4.01,4.7-7.77,7.12-11.62,1.13-1.79,2.28-3.57,3.52-5.28.36-.49,1.07-.73,1.62-1.09.19.13.39.25.58.38-.81,1.97-1.54,3.97-2.46,5.89-1.64,3.42-3.39,6.78-5.11,10.16-.51.99-1.12,1.93-1.59,2.94-.27.58-.37,1.25-.44,2.13,1.65-1.2,2.97-.76,4.52.09,1.68.93,3.45-.1,5.12-.67,2.7-.93,5.35-2.25,8.12-2.65,1.79-.26,3.94.53,5.65,1.39,3.25,1.65,6.35,2.89,10.13,1.8,2.88-.83,5.89-.45,8.89-.07,2.03.25,4.17,0,6.21-.33.81-.13,1.56-1.02,2.22-1.68.58-.58,1.01-1.32,1.57-2.08,2.04,3.83.57,7.43-3,9.09-1.91.89-3.39,2.68-5.14,3.97-1.99,1.48-3.72,3.47-6.48,3.6-.25,0-.52.15-.74.29-1.19.77-2.34,1.8-3.62.05-.21-.29-1.01-.48-1.33-.31-2.39,1.19-5.11,1.02-7.56,2.29-3.22,1.66-6.83,2.31-10.58,2.29-2.83,0-5.62-.22-8.43-.4-.24-.02-.54.96-.86,1.56-.68-1.12-1.2-2.82-3.2-1.65-.38-.69-.65-1.46-1.16-2.02-.35-.38-1.03-.61-1.57-.62-.89,0-1.79.16-2.65.36-.32.07-.79.44-.81.7-.33,3.53-.67,7.07-.86,10.61-.2,3.89.04,7.76,1.16,11.51.48,1.62,1.24,3.15,1.84,4.74.12.31.07.67.1,1.01l-.51.09v.03Z"/>
  <path class="cls-1" d="m275.45,251.18c1.3-1.39,3.09-2.4,3.42-4.52.04-.26.21-.57.12-.76-1.55-3.28-.84-6.96-1.88-10.34-.15-.5.2-1.14.21-1.71,0-.59-.12-1.19-.21-1.94-1.11.35-1.96.7-2.84.86-.45.08-1.17-.06-1.37-.37-.2-.3-.06-1.05.2-1.4,1.24-1.7,2.54-3.36,3.87-4.99,1.43-1.75,2.27-3.69,2.48-5.96.1-1,.42-2.01.83-2.93.49-1.1,1.35-1.62,2.57-.93-.16,1.1-.33,2.2-.48,3.3-.24,1.77-.47,3.54-.71,5.31-.13.99-.49,1.84,0,3.01.53,1.25.21,2.87.26,4.32l.06-.05c-.29-.36-.9-.87-.82-1.05.59-1.23-.74-2.25-.17-3.48-1.15,1.3-2.9,2.12-2.87,4.03.01,1.05.51,2.09.6,3.16.29,3.44.49,6.89.73,10.34.02.32.14.63.27,1.16,1.46-2.13,2.92-3.91,4-5.89,1.21-2.24,2.23-4.62,3.05-7.04,1.58-4.65,3.02-9.36,1.47-14.37-.45-1.45-1.3-2.07-2.8-2.12-.88-.03-1.75-.4-2.63-.62,2.04-1.66,4.77-1.33,6.56.42,1.56,1.52,1.81,3.44,2.47,5.3,1.39,3.9.52,7.8,0,11.59-.45,3.27-1.74,6.49-3.12,9.53-.95,2.1-2.55,3.96-4.09,5.73-2.86,3.29-5.82,6.52-8.88,9.62-1.13,1.14-2.8,1.72-4.01,2.79-3.62,3.19-7.96,5.24-12.28,7.03-4.21,1.74-8.82,2.8-13.36,3.4-4.08.54-8.34.38-12.44-.12-3.02-.37-5.91-1.78-8.85-2.74-.56-.18-1.08-.46-1.62-.69.23-.3.45-.61.68-.91,1.81.31,3.61.7,5.44.92,3.97.46,7.91.85,11.95.77,4.69-.09,9.06-1.31,13.37-2.74,2.79-.92,5.38-2.57,7.89-4.17,2.69-1.72,5.19-3.73,7.74-5.67,1.38-1.05,3.13-1.66,3.96-3.38.31-.64.87-1.17,1.31-1.75l-.11.05h.03Z"/>
  <path class="cls-1" d="m216.96,86.59c-.95,3.51-2.26,6.86-4.49,9.81-.26.34-.48.71-.7,1.08-2.42,4.11-4.8,8.24-7.25,12.32-2.6,4.33-5.21,8.65-7.94,12.89-1.61,2.51-3.51,4.83-5.17,7.32-1.15,1.71-2.09,3.56-3.14,5.34-3.22,5.42-6.49,10.81-9.67,16.24-1.79,3.06-3.44,6.2-5.19,9.28-2.69,4.73-5.41,9.43-8.11,14.15-.6,1.05-1.11,2.15-1.73,3.18-.15.24-.58.42-.88.42-.19,0-.5-.37-.55-.61-.21-1.1-.65-2.06.65-3.11.95-.77,1.1-2.45,1.75-3.65,1.63-3,3.39-5.92,5-8.93,1.99-3.75,3.84-7.57,5.83-11.32.95-1.8,2.12-3.48,3.12-5.25.98-1.75,1.85-3.56,2.82-5.31,1.81-3.28,3.67-6.53,5.5-9.8.34-.61.63-1.26,1-1.85,3.18-5.15,6.39-10.29,9.56-15.44,1.61-2.61,3.14-5.27,4.76-7.88,1.65-2.64,3.33-5.26,5.08-7.83,1.77-2.6,3.56-5.19,5.48-7.68,1.08-1.4,2.45-2.58,3.68-3.86.2.17.39.34.59.51v-.02Z"/>
  <path class="cls-1" d="m121.26,316.23c2,1.16,3.57,1.94,4.99,2.92,4.59,3.17,9.05,6.54,13.71,9.6,4.78,3.14,9.74,5.99,14.59,9.02.79.49,1.45,1.21,2.16,1.83.1.09.12.32.23.37,2.89,1.28,5.78,2.58,8.69,3.82,3.56,1.52,7.12,3.06,10.73,4.45,2.42.93,4.9,1.73,7.41,2.38,3.33.86,6.71,1.49,10.06,2.25.69.16,1.36.45,2.03.69-.03.15-.06.31-.09.46-2.88-.27-5.82-.25-8.62-.86-5.16-1.12-10.3-2.29-15.31-4.17-7.3-2.75-14.01-6.49-20.63-10.5-3.59-2.17-7.23-4.29-10.68-6.68-4.72-3.27-9.28-6.75-13.89-10.18-1.33-.99-2.6-2.08-3.81-3.21-.54-.5-.89-1.21-1.56-2.17v-.02Z"/>
  <path class="cls-1" d="m233.45,140c.86-1.71,1.67-3.44,2.58-5.13,1.27-2.34,2.64-4.62,3.9-6.97,1.39-2.58,2.65-5.24,4.09-7.8,1.42-2.51,3.04-4.92,4.51-7.4,1.54-2.61,3-5.27,4.51-7.89,1.57-2.71,3.19-5.4,4.72-8.13,1.16-2.06,2.16-4.21,3.31-6.27,2.03-3.64,4.12-7.26,6.21-10.87.11-.19.5-.21.77-.31-.03.27.02.57-.1.8-.4.8-.94,1.49-1.29,2.36-.83,2.09-2.01,4.05-3.01,6.08-1.46,2.98-2.83,6-4.33,8.96-1.75,3.45-3.59,6.86-5.4,10.28-.3.57-.64,1.11-.96,1.67-.94,1.65-1.84,3.32-2.81,4.94-1.49,2.48-3.04,4.93-4.55,7.41-2.45,4.02-4.88,8.06-7.33,12.08-1.19,1.95-2.37,3.9-3.6,5.82-.19.3-.62.45-.93.67-.11-.1-.21-.21-.32-.31h.03Z"/>
  <path class="cls-1" d="m72.99,151.72c-2.79-7.56-2.18-15.31-1.07-22.95.92-6.37,4.07-12.03,7.68-17.34.39-.57,1.05-.97,1.58-1.44.18.11.35.21.53.32-.74,1.59-1.39,3.23-2.22,4.77-2.48,4.57-4.2,9.4-4.99,14.52-.67,4.28-1.14,8.6-1.46,12.92-.22,3.05-.04,6.14-.04,9.21h-.01Z"/>
  <path class="cls-1" d="m228.74,169.9c.07.38.32.84.19,1.12-2.34,5.01-4.71,10-7.09,15-1.75,3.66-3.4,7.37-5.3,10.96-1.57,2.96-3.43,5.77-5.16,8.66-.3.51-.49,1.09-.84,1.55-.29.38-.75.62-1.14.93-.14-.12-.28-.23-.43-.35.23-.68.39-1.4.71-2.03,1.42-2.85,2.93-5.64,4.31-8.51,1.67-3.49,3.16-7.07,4.88-10.54,1.41-2.85,3.06-5.59,4.58-8.38,1.33-2.46,2.61-4.95,3.98-7.4.24-.44.82-.69,1.23-1.03l.08.03h0Z"/>
  <path class="cls-1" d="m16.48,175.72c-.17-1.24-.52-2.49-.48-3.72.24-6.59.99-13.16,3.52-19.27,1.46-3.52,3.77-6.7,5.84-9.94,1.31-2.06,2.88-3.95,4.77-5.9-.05.59.09,1.29-.18,1.76-1.52,2.67-3.2,5.25-4.7,7.93-1.36,2.43-2.84,4.85-3.75,7.46-1.41,4-2.44,8.15-3.5,12.26-.37,1.45-.1,3.09-.6,4.46-.6,1.64-.44,3.28-.91,4.96h-.01Z"/>
  <path class="cls-1" d="m208.82,347.4c-5.39,1.36-10.89.78-16.32.28-5.47-.5-10.83-1.78-15.88-4.22,1.22-1.31,2.42-.05,3.55.16,1.95.36,3.8,1.25,5.75,1.53,3.03.42,6.1.5,9.16.75,3.77.31,7.53.68,11.29.97.78.06,1.58-.08,2.37-.13.03.22.05.45.08.67h0Z"/>
  <path class="cls-1" d="m125.99,201.71c-1.85,1.12-3.63,2.38-5.57,3.32-2,.98-4.08,1.89-6.23,2.4-4.08.96-8.26,1.49-12.46.82-.53-.08-.97-.7-1.45-1.07.45-.21.89-.56,1.36-.61,2.8-.29,5.61-.63,8.42-.74,5.45-.22,10.3-2.3,15.11-4.59.14-.06.3-.06.46-.09.12.19.24.37.36.56Z"/>
  <path class="cls-1" d="m273.72,105.06c2.96-7.55,7.49-13.47,13.78-18.03.15,2.08-11.75,17.7-13.78,18.03Z"/>
  <path class="cls-1" d="m79.24,283.25c-.64-.12-1.38-.09-1.91-.4-2.1-1.22-4.14-2.53-6.19-3.84-4.84-3.08-9.2-6.79-13.41-10.67-.93-.86-1.59-2.01-2.38-3.03.1-.14.2-.29.31-.43,1.18.82,2.78,1.39,3.44,2.51.73,1.25,1.98,1.67,2.8,2.7,1,1.26,2.28,2.35,3.61,3.28,3,2.1,6.1,4.04,9.15,6.05,1.59,1.05,3.16,2.11,4.74,3.16-.05.22-.11.43-.16.65v.02Z"/>
  <path class="cls-1" d="m203.47,333.17c-2.29.07-4.6.4-6.85.14-3.72-.43-7.4-1.19-11.08-1.94-1.02-.21-1.99-.81-2.92-1.33-.38-.21-.59-.71-.88-1.08.57-.2,1.17-.63,1.7-.56,1.15.17,2.25.68,3.39.89,4.14.77,8.29,1.49,12.44,2.22,1.42.25,2.85.48,4.27.72-.03.32-.05.63-.08.95h.01Z"/>
  <path class="cls-1" d="m186.24,150.63c-.79,3-2.85,5.44-4.09,8.35-1.29-.6-1.72-.26-1.22,1.15.16.45.16,1.09-.05,1.5-1.26,2.36-2.54,4.71-3.95,6.98-1.21,1.96-2.61,3.79-3.88,5.72-.43.65-.71,1.4-1.06,2.11-.18,0-.35.03-.53.04-.04-.49-.29-1.09-.09-1.46,2.15-4,4.34-7.98,6.59-11.93,2.14-3.76,4.36-7.48,6.57-11.19.31-.52.8-.94,1.21-1.4.17.05.33.09.5.14h0Z"/>
  <path class="cls-1" d="m31.17,217.85c-1.7-2.92-3.69-5.72-5.02-8.8-1.25-2.89-1.88-6.06-2.59-9.16-.16-.71.49-1.6,1.15-2.38,2.23,6.72,3.94,13.45,7.3,19.58.07.12-.19.42-.3.64-.18.04-.35.07-.53.11h0Z"/>
  <path class="cls-1" d="m301.75,251.48c.29,9.63-6.04,15.84-11.93,22.35.23-.64.34-1.35.69-1.91,2.46-3.86,5.03-7.66,7.44-11.55.66-1.06.99-2.35,1.37-3.57.33-1.06.43-2.2.78-3.25.27-.81.79-1.53,1.19-2.29.15.07.3.15.45.22h0Z"/>
  <path class="cls-1" d="m82.87,293.69c3.06.79,5.34,3.01,7.92,4.66,2.55,1.63,4.87,3.61,7.42,5.24,2.59,1.65,5.38,2.98,7.79,4.87l-.46.6c-.33-.35-.67-.7-1-1.05-.1-.11-.23-.31-.32-.3-2.13.26-3.65-1.23-5.04-2.27-2.61-1.95-5.65-3.07-8.28-4.91-2.4-1.68-4.87-3.27-7.27-4.96-.49-.34-.77-.98-1.15-1.48.13-.14.26-.27.38-.41h.01Z"/>
  <path class="cls-1" d="m290.92,284.85c.22-.58.28-1.29.67-1.71,2.77-2.98,4.8-6.37,6.23-10.18.52-1.39,1.41-2.65,2.2-3.93.15-.24.73-.51.88-.41.29.2.65.71.57.97-.58,1.9-.97,3.96-1.99,5.62-1.73,2.81-3.84,5.4-5.87,8.01-.56.72-1.41,1.22-2.12,1.82-.19-.06-.38-.13-.57-.19h0Z"/>
  <path class="cls-1" d="m264.15,314.28c-1.38,1.6-3.25,2.21-5.04,2.96-.18-.21-.37-.41-.55-.62.41-.2.8-.54,1.22-.58,1.77-.17,2.82-1.52,4.1-2.46,2.59-1.91,5.13-3.89,7.61-5.94,1.28-1.06,2.41-2.31,3.6-3.47.08-.08.14-.18.23-.23.59-.31,1.19-.62,1.78-.92-.25.69-.31,1.62-.79,2.05-2.63,2.3-5.36,4.48-8.07,6.7-.72.59-1.43,1.21-2.21,1.71-.57.36-1.25.54-1.89.81h.01Z"/>
  <path class="cls-1" d="m99.25,299.26c-1.69-.82-3.59-1.38-5.01-2.54-1.08-.88-2.47-.87-3.47-1.88-1.23-1.23-2.82-2.09-4.18-3.2-.25-.2-.16-.82-.23-1.25.72-.08,1.68-.5,2.12-.19,2.83,2.03,5.53,4.23,8.29,6.35.93.72,1.9,1.39,2.85,2.09-.12.2-.25.41-.37.61h0Z"/>
  <path class="cls-1" d="m211.28,334.31c3.59-.68,6.94-.77,10.32-.47.05.17.11.33.16.5-.36.23-.69.61-1.07.67-2.24.31-4.49.6-6.75.79-2.24.19-4.5.25-6.75.41-.95.07-1.55-.39-1.46-1.25.04-.36.84-.88,1.33-.91,1.47-.11,3.03-.69,4.23.26h0Z"/>
  <path class="cls-1" d="m112.83,305.04c.63.45,2.33-.49,1.81,1.12.57.1,1.13.04,1.52.28,5.15,3.25,10.27,6.55,15.4,9.82.79.51,1.62.96,2.63,1.55-2.08.2-20.82-11.18-21.36-12.77Z"/>
  <path class="cls-1" d="m192.33,136.88c2.14-5.44,5.28-9.97,8.66-14.35-.03,2.56-1.31,4.53-2.76,6.46-.61.82-.98,1.81-1.52,2.69-.95,1.53-1.9,3.07-2.96,4.53-.27.37-.94.46-1.42.68h0Z"/>
  <path class="cls-1" d="m232,132.74c-2.6,5.22-5.19,10.44-7.79,15.66-.26-.03-.51-.07-.77-.1-.06-.51-.35-1.13-.16-1.5,1.94-3.65,3.96-7.25,5.95-10.87.47-.86.87-1.76,1.43-2.55.25-.35.82-.48,1.25-.71l.09.08h0Z"/>
  <path class="cls-1" d="m41.57,125.94c1.1.59.82,1.35.22,2.11-1.71,2.17-3.51,4.28-5.12,6.52-1.13,1.56-2.02,3.3-3.26,5.35-.21-.75-.51-1.22-.38-1.43,2.11-3.52,4.24-7.02,6.45-10.48.5-.78,1.34-1.35,2.08-2.07h0Z"/>
  <path class="cls-1" d="m214.78,207.74c2.39-5.44,4.65-10.47,8.25-14.88-.07.45-.04.95-.23,1.35-1.21,2.45-2.51,4.86-3.69,7.32-.62,1.28-1.1,2.63-1.56,3.98-.39,1.15-1.02,1.94-2.77,2.23Z"/>
  <path class="cls-1" d="m275.45,251.18l.11-.05c-.33-.71-.8-1.39-.97-2.14-.94-4.06-1.43-8.17-1.23-12.79.62.52,1.2.76,1.28,1.12.39,1.85.8,3.71.94,5.59.18,2.55.13,5.12.15,7.69,0,.19-.18.38-.28.58h0Z"/>
  <path class="cls-1" d="m200.98,291.36c-2.66,1.04-10.83-3.5-11.75-6.43,1.71.24,11.32,5.43,11.75,6.43Z"/>
  <path class="cls-1" d="m190.35,259.71c.44,1.01.91,2.01,1.33,3.02.66,1.61,1.39,3.21,1.89,4.87.17.55-.29,1.29-.46,1.94-.46-.17-1.15-.2-1.34-.52-1.44-2.46-2.08-5.18-2.3-8-.03-.35.16-.71.24-1.07.21-.08.43-.16.64-.24Z"/>
  <path class="cls-1" d="m203.99,229.66c1.13-2.63,2.21-5.27,3.44-7.85.21-.44,1.13-.94,1.51-.81.87.3,1.15,1.12.63,2.01-1.14,1.94-2.24,3.9-3.47,5.78-.36.54-1.11.83-1.69,1.23-.14-.12-.28-.24-.41-.36h0Z"/>
  <path class="cls-1" d="m253.03,203.79c-1.83-1.47-1.87-2.81-1.59-4.39.14-.77-.54-1.64-.59-2.48-.05-.95.08-1.94.34-2.86.11-.39.72-.83,1.14-.88.25-.03.86.64.86.99,0,3.06-.09,6.12-.17,9.62h0Z"/>
  <path class="cls-1" d="m79.26,274.65c-4.74-1.36-8.53-3.65-11.78-7.3,1.58-.13,10.98,5.68,11.78,7.3Z"/>
  <path class="cls-1" d="m87.47,100.07c-.25.48-.4,1.24-.78,1.4-2.72,1.1-5.48,2.09-8.24,3.07-.31.11-.73-.05-1.09-.09.15-.28.23-.69.47-.83,1.67-1,3.33-2.06,5.09-2.89,1.27-.6,2.68-.88,4.03-1.31.17.22.34.44.52.65Z"/>
  <path class="cls-1" d="m60.69,206.21c2.19,4.12,4.38,8.24,6.57,12.36l-.47.27c-3.81-3.18-5.16-7.77-6.78-12.2.22-.14.45-.28.67-.42h0Z"/>
  <path class="cls-1" d="m145.18,101.81c-4.75-.53-9.05.88-13.41,2.27.48-1.95,6.94-4.08,10.99-3.76,1.54.12,2.35.62,2.42,1.49Z"/>
  <path class="cls-1" d="m236.36,338.65c.79-.68,1.48-1.52,2.38-2.01,2.49-1.36,5.04-2.6,7.59-3.84.55-.27,1.18-.37,1.89-.27-3.43,2.95-7.29,5.05-11.37,6.76-.16-.21-.32-.43-.48-.64h-.01Z"/>
  <path class="cls-1" d="m146.35,127.79c0-.45-.16-.99.03-1.35.97-1.93,1.96-3.86,3.11-5.68.32-.51,1.36-1.03,1.85-.87,1.22.39.5,1.46.14,2.01-1.4,2.08-2.95,4.07-4.44,6.09-.23-.07-.45-.13-.68-.2h-.01Z"/>
  <path class="cls-1" d="m98.08,158.39c-2.55.24-5.13.8-7.65.62-1.8-.13-3.91,1.22-5.76-.92,4.62-.7,8.97-.96,13.34-.34.02.22.04.43.07.65h0Z"/>
  <path class="cls-1" d="m252.5,158.9c.87-2.27,1.66-4.57,2.62-6.8.76-1.77,1.62-3.52,2.62-5.17.76-1.26,1.25-1.21,2.09-.44-1.27,2.14-2.56,4.17-3.69,6.29-1.12,2.08-2.07,4.23-3.1,6.36-.18-.08-.35-.16-.53-.23h0Z"/>
  <path class="cls-1" d="m252.55,116.48c-1.39,3.49-3.21,6.72-5.72,9.51-.18-.05-.36-.1-.53-.16.04-.58-.12-1.29.15-1.73,1.59-2.52,3.26-4.99,4.94-7.45.17-.25.57-.34.86-.51.1.11.2.22.3.33h0Z"/>
  <path class="cls-1" d="m141.53,106.02c.21,1.15-.13,1.72-1.43,1.9-1.94.27-3.82.87-5.75,1.23-.44.08-.95-.24-1.72-.45,3.21-2.47,5.46-3.09,8.89-2.67h0Z"/>
  <path class="cls-1" d="m270.63,300.03c2.62-1.73,5.23-3.46,7.85-5.19l.47.48c-.47.62-.83,1.59-1.44,1.78-2.42.77-3.54,4.23-6.67,3.44l-.2-.52h0Z"/>
  <path class="cls-1" d="m65.81,145.91c-1.03-7.77-.9-9.68.83-10.88.03,3.76.22,7.36-.83,10.88Z"/>
  <path class="cls-1" d="m230.09,253.98c1.28,3.16,1.41,6.27.85,9.44-1.11-.05-1.41-.21-.88-1.51.38-.91-.38-2.24-.38-3.38,0-1.49.26-2.99.41-4.56h0Z"/>
  <path class="cls-1" d="m82.59,128.08s.05.07.05.06c1.18-.11,2.29-1.12,3.53-.23,1.1-1.36,2.65-.54,3.98-.77.98-.16,2.03.11,3.02.47-3.54.49-7.01,1.87-10.58.46h0Z"/>
  <path class="cls-1" d="m180.93,82.11c-.6-.92-.41-1.63.39-2.4.89-.87,1.59-1.93,2.44-2.85.41-.44.96-.74,1.45-1.11.11.14.23.29.34.43-.19.16-.38.31-.57.47.87,1-.14,1.55-.58,2.15-.75,1.02-1.61,1.97-2.49,2.89-.23.24-.68.26-1.03.38l.05.05h0Z"/>
  <path class="cls-1" d="m220.63,254.14c-.15,2.99-.28,5.71-.44,8.74-1.67-1.55-1.32-7.88.44-8.74h0Z"/>
  <path class="cls-1" d="m245.79,201.43c.15-1.98.27-3.95.48-5.92.02-.24.56-.67.69-.62.44.19.94.48,1.15.88.17.31,0,.85-.13,1.25-.51,1.5-1.06,2.99-1.59,4.48-.2-.02-.4-.05-.6-.07h0Z"/>
  <path class="cls-1" d="m83.82,137.98c3.07-.14,6.13-.28,9.2-.42l.06.46c-1.63.24-3.25.58-4.89.69-1.51.1-3.14.64-4.53-.2.05-.18.11-.35.16-.53h0Z"/>
  <path class="cls-1" d="m216.72,253.05c.15.27.44.53.44.8,0,1.98-.02,3.97-.11,5.95-.02.35-.41.69-.84,1.35v-8.06c.17,0,.35-.03.52-.04h-.01Z"/>
  <path class="cls-1" d="m228.77,219.46c.33-2.51,2.04-3.76,3.85-5.08.22,2.1-2.18,5.26-3.85,5.08Z"/>
  <path class="cls-1" d="m177.4,85.82c.82-1.31,1.62-2.64,2.5-3.91.08-.11.67.13,1.03.2l-.05-.05c-.11.48-.08,1.07-.35,1.43-.73.97-1.6,1.85-2.41,2.76-.24-.14-.48-.29-.72-.43h0Z"/>
  <path class="cls-1" d="m177.4,85.82c.24.14.48.29.72.43,0,.2.12.48.03.59-1.01,1.25-2.03,2.48-3.09,3.68-.19.22-.61.25-.92.36-.13-.13-.26-.26-.39-.39,1.22-1.56,2.44-3.11,3.66-4.67h-.01Z"/>
  <path class="cls-1" d="m232,132.74l-.09-.08c-.38-.45-.78-.77-.24-1.51.96-1.3,1.71-2.76,2.59-4.13.14-.23.44-.35.67-.52.13.09.26.18.4.27-1.11,1.99-2.22,3.98-3.33,5.97h0Z"/>
  <path class="cls-1" d="m108.2,244.07c-1.69,1.72-1.98,1.8-3.03,1.55-1.46.18-2.93.36-4.39.54-.02-.14-.05-.29-.07-.43,2.37-.53,4.74-1.05,7.49-1.67h0Z"/>
  <path class="cls-1" d="m227.32,254.3v8.49c-.25,0-.51-.02-.76-.03.19-2.84.38-5.68.57-8.52l.2.05h-.01Z"/>
  <path class="cls-1" d="m84.5,217.5c-1.17.98-3.88.68-4.59-.48-.13-.22-.15-.66-.01-.84.16-.2.61-.36.83-.27,1.23.47,2.44,1.02,3.77,1.59Z"/>
  <path class="cls-1" d="m62.78,184.69c-1.52-.93-1.49-2.76-2.16-4.19.18-.1.36-.21.55-.31.77,1.37,1.55,2.73,2.32,4.1-.24.14-.47.28-.71.41h0Z"/>
  <path class="cls-1" d="m67.07,180.19c-2.06-.58-2.46-2.29-1.25-4.03.41,1.3.78,2.52,1.25,4.03Z"/>
  <path class="cls-1" d="m250.1,250.66c.62,1.17,1.43,2.07.4,2.84.2.95.37,1.75.53,2.55-.27.06-.54.13-.81.19-.15-.84-.4-1.68-.42-2.53-.03-.9.16-1.81.29-3.06h.01Z"/>
  <path class="cls-1" d="m89.83,112.08c.08-1.44.46-1.5,4.49-.5-1.47.16-2.95.33-4.49.5Z"/>
  <path class="cls-1" d="m268.85,86.02c.87,1.71-1.15,2.53-1.27,3.95,0,.08-.68.11-1.05.17-.11-.14-.21-.28-.32-.42.9-1.22,1.79-2.43,2.69-3.65l-.06-.05h0Z"/>
  <path class="cls-1" d="m292.02,76.98c.27-.16.54-.33.82-.5.79,1.8.74,3.15-.24,4.18-.2-1.31-.38-2.51-.56-3.72l-.02.04h0Z"/>
  <path class="cls-1" d="m228.74,169.9l-.08-.03c-.39-1.42.16-2.22,2.23-2.68-.86,1.07-.54,2.52-2.15,2.71h0Z"/>
  <path class="cls-1" d="m292.05,76.94c-.89-.49-1.79-.98-2.68-1.47.09-.24.17-.48.26-.71.87.22,1.76.37,2.57.71.13.06-.1.98-.17,1.5l.02-.03Z"/>
  <path class="cls-1" d="m268.85,86.02l.06.05c.53-1.02,1.07-2.03,1.74-3.31.87,1.79.57,2.19-1.8,3.26Z"/>
  <path class="cls-1" d="m93.61,125.03c-1.43.16-2.86.32-4.3.48-.01-.23-.02-.46-.04-.69h4.4c-.02.07-.05.14-.07.21h.01Z"/>
  <path class="cls-1" d="m241.05,178.33c-.36,1.22-.68,2.31-1.01,3.45-.62-.79-.14-2.43,1.01-3.45Z"/>
  <path class="cls-1" d="m406.43,47.89c.91-.78.96-2.4.06-3.55-1.21,1.19.22,2.38-.02,3.53v4.83h.42c0-1.59,0-3.18-.02-4.76,0,0-.3-.02-.44-.04h0Zm38.98,46.37c-.79.07-1.33.89-1.61,2.44.13.06.26.12.4.19.39-.89.77-1.79,1.16-2.68,1.19.06,2.08-1.7,1.39-3.34-.5,1.28-.92,2.34-1.33,3.4h-.01Zm-81.51,47.19c.21-.03.59-.05.6-.09.03-1.12.03-2.25.03-3.37-.16-.06-.32-.13-.48-.19-.35.3-1.03.67-.99.88.2.93-.6,2.21.83,2.76-1.67,1.16.23,1.97.18,2.97,1.14-1.1-.08-1.98-.17-2.96h0Zm15.3-85.16c-.07,1.24-.18,2.49-.18,3.73,0,.23.44.51.72.67.07.04.54-.36.5-.47-.38-1.33.62-3.05-1.11-3.98.26-.23.76-.49.74-.7-.1-.92-.34-1.82-.54-2.72-.25.06-.5.12-.74.18.2,1.1.4,2.19.6,3.29h0Zm124.43,28.27c-1.35-.5-1.84-.23-1.98,1.63.71-.53,1.42-1.06,2.13-1.6.34-.31.64-.71,1.04-.92.7-.38,1.51-.58,2.19-1,.25-.16.27-.7.39-1.06-.36,0-.81-.12-1.07.04-.85.53-1.66,1.13-2.4,1.8-.24.21-.2.73-.29,1.11h-.01Zm12.86,30.98c-.24-.13-.54-.41-.72-.35-.79.27-1.55.63-2.31.96,1.42.99,2.43.78,3.02-.66.17.12.41.39.5.35,1.95-.93,3.89-1.89,6.19-3.02-1.85-.76-5.47,1-6.68,2.73h0Zm-117.1-96.08c.2-1.24.41-2.49.66-4.03-1.56.87-1.63,2.78-.62,4-1.3.95-2.42.61-3.36-.44-.7.55-1.34,1.07-2.43,1.93,1.92.27,3.42.4,4.88.72,1.66.37,3.29.92,4.93,1.37.14.04.31-.05.47-.07.51-.08,1.03-.28,1.52-.22,2.14.28,4.28.54,6.39.99,1.07.23,2.06.85,3.1,1.29.48-.07,1.17-.36,1.78-.23,1.36.28,2.68.76,4.01,1.18.9.28,2.08.36,2.6.98.43.52.09,1.69.09,2.62.49-.83.96-1.62,1.5-2.54,1.02.3,2.15.42,3.01.97.6.39.82.79,1.71.49.76-.26,1.79.11,1.49,1.41-.11.47-.28.93-.37,1.4-.28,1.46-.53,2.93-.79,4.39.19.06.38.12.57.18.26-.37.62-.7.75-1.11.37-1.12.68-2.27.95-3.42.46-1.97.72-2.18,2.62-1.44,1.32.52,2.54,1.27,3.84,1.83.88.38,1.86.53,2.76.9,1.9.78,3.77,1.64,5.65,2.47.13-.15.25-.3.38-.45-.83-.79-1.56-1.74-2.51-2.31-.89-.54-2.03-.64-3.03-1-2.38-.87-3.42-2.57-3.18-5.08-.44-.3-.88-.61-1.37-.95-.1,1.01-.2,1.97-.32,3.25-1.11-.46-2.37-.65-3.11-1.37-.68-.66-.81-1.89-1.15-2.81-.65.76-1.02,1.61-1.48,1.66-1.02.11-1.61-.59-1.72-1.68-.04-.42-.29-.82-.54-1.47-.59.79-.99,1.32-1.29,1.72-2.02.18-2.95-.65-2.73-2.61.02-.21.04-.49-.08-.63-.25-.3-.59-.54-.89-.8-.21.39-.56.76-.6,1.16-.05.48.16,1,.31,1.76-.77-.16-1.28-.26-1.78-.37-1.09-.24-2.17-.58-3.27-.69-1.71-.17-1.94-.4-2.14-2.13-.07-.59-.56-1.14-.85-1.71-.27.57-.58,1.13-.79,1.73-.08.24.07.57.18,1.32-1.88-.38-3.51-.71-4.89-.99-.12-1.1-.2-1.77-.27-2.44-.15.01-.31.03-.46.04-.11.64-.21,1.29-.35,2.14-1.45-.1-2.87-.02-4.17-.39-.4-.11-.45-1.45-.7-2.36-.32.34-.65.57-.79.88-.56,1.21-1.8,1.85-2.92,1.43-.39-.14-.77-.31-1.16-.47h-.04Zm37.42,136.65c-.52-.7-.84-1.27-1.29-1.7-1.86-1.75-3.73-3.48-5.65-5.17-2.17-1.91-4.36-3.82-7.37-4.37-.38-.07-.73-.42-1.05-.7-.77-.65-1.41-1.52-2.28-1.97-2.7-1.39-5.43-2.72-8.23-3.88-2.82-1.16-5.72-2.15-8.62-3.11-2.13-.7-4.3-1.28-6.47-1.83-1.23-.31-2.5-.54-3.76-.62-2.31-.14-4.63-.17-6.94-.21-2.35-.04-4.7-.07-7.05-.03-1.94.03-3.87.22-5.8.26-2.2.04-4.43-.2-6.61.04-2.46.28-4.88.92-7.31,1.48-.94.22-1.84.63-2.76.96.01.21.03.41.04.62.49.12.99.35,1.48.33.91-.04,1.8-.28,2.71-.34,2.93-.18,5.86-.35,8.79-.44,2.17-.07,4.42-.38,6.51.05,4.21.87,8.55.4,12.75,1.74,2.59.82,5.55.53,8.28,1.32,3.02.88,6.08,1.64,9.12,2.45.35.09.71.16,1.07.25,2.9.77,6.03.59,8.71,2.38,1.33.89,3.1,1.11,4.52,1.9,2.62,1.48,5.06,3.3,7.71,4.71,3.81,2.03,6.67,5.15,9.75,8.02,3.31,3.08,5.24,7.06,6.61,11.31,1.47,4.55,2.28,9.24,2.83,13.99.08.72.6,1.4.92,2.1.53-1.09.79-2,.81-2.93.07-4.89-1.61-9.46-2.7-14.14-.05-.2-.23-.37-.33-.56-.9-1.73-2.12-3.37-2.64-5.21-.92-3.3-3.82-4.88-5.63-7.66-.07.52-.09.73-.12.93v.03Zm9.6,135.54c.12-.59.28-1.17.37-1.76.15-1,.39-2.01.33-3-.03-.58-.55-1.14-.85-1.71-.38.47-.89.88-1.11,1.41-.86,2.05-1.47,4.23-2.48,6.21-2.21,4.35-6.17,6.67-10.45,8.56-2.45,1.09-4.87,2.25-7.31,3.38.08.26.15.52.23.78,4.34.5,8.12-1.82,12.17-3.01,0,.27.06.51,0,.56-2.73,1.77-5.31,3.87-8.25,5.18-3.88,1.73-8,2.95-12.09,4.17-4.16,1.23-8.41,2.16-12.6,3.28-1.38.37-2.72.9-4.08,1.35.05.24.1.47.15.71,1,0,2.02.13,2.99-.02,4.39-.68,8.78-1.41,13.15-2.19,6.65-1.19,12.98-3.4,18.7-6.95,3.01-1.87,5.55-4.51,8.21-6.91,2.75-2.48,4.47-5.66,5.51-9.17.42-1.42.44-2.97.66-4.6-2.43.52-2.03,2.66-3.26,3.75v-.02Zm-143.93-86.11c.12.11.24.23.37.34.44-.23.99-.37,1.32-.72,1.27-1.38,2.32-3,3.72-4.22,2.61-2.25,5.35-4.35,8.15-6.36,1.5-1.08,3.41-1.64,4.81-2.82,1.66-1.41,3.46-2.49,5.39-3.4,3.44-1.62,6.86-3.28,10.35-4.82,2.74-1.2,5.52-2.34,8.34-3.32,3.28-1.15,6.63-2.1,9.95-3.13.03-.15.07-.29.1-.44-.75-.29-1.49-.79-2.25-.81-1.12-.03-2.26.24-3.37.45-1.73.31-3.46.63-5.17,1.04-2.01.48-4,1.04-5.98,1.62-1.7.5-3.41,1-5.06,1.65-3.95,1.55-7.95,3.01-11.75,4.87-2.42,1.19-4.53,3.02-6.76,4.58-.83.58-1.67,1.15-2.4,1.83-1.62,1.49-3.41,2.87-4.72,4.61-1.7,2.26-3.02,4.81-4.45,7.26-.31.53-.39,1.19-.58,1.78h-.01Zm21.92,113.15c.19-.22.39-.44.58-.66-.75-1.15-1.57-2.26-2.24-3.46-.95-1.68-2.43-3.38-2.55-5.14-.22-3.4.52-6.71,2.27-9.9,1.45-2.64,3.3-4.91,5.23-7.06,2.35-2.61,5.14-4.92,8.04-6.93,3.4-2.37,7.09-4.32,10.71-6.37,1.07-.61,1.22-1.18.42-2.23-1.42.44-2.86.83-4.25,1.35-1.7.64-3.43,1.26-5.03,2.12-3.59,1.93-7.51,3.31-10.47,6.31-1.99,2.01-4.31,3.72-6.07,5.9-1.52,1.87-2.64,4.13-3.65,6.34-3.21,7.08-2.23,11.99,2.86,16.79,1.22,1.15,2.76,1.96,4.16,2.92v.02Zm-24.49-160.39c.38-.15.81-.19,1.06-.42,3.37-3.15,7.26-5.55,11.23-7.8,3.33-1.89,6.76-3.68,10.3-5.11,3.92-1.58,8-2.81,12.08-3.94,1.2-.33,2.15-1.43,3.7-1.02.69.18,1.67-.76,2.51-1.19l-.28-.85c-3.62.36-7.25.61-10.84,1.14-1.79.26-3.53.96-5.26,1.57-2.86,1.01-5.72,2.02-8.51,3.19-1.82.76-3.55,1.77-5.27,2.74-3.72,2.1-7.3,4.44-9.87,7.94-.69.94-2.09,2-.85,3.74h0Zm59.4,111.45l.39.75c.95-.35,1.89-.77,2.86-1.04,2.14-.6,4.31-1.12,6.46-1.68,2.33-.61,4.64-1.28,6.98-1.84,1.6-.39,3.22-.71,4.85-.93,3.5-.49,7.01-1.07,10.53-1.29,2.22-.14,4.48.39,6.73.45.51.01,1.16-.6,1.5-1.1.12-.18-.4-1.06-.8-1.26-.66-.32-1.49-.26-2.2-.51-3.82-1.36-7.74-.8-11.61-.52-4.15.29-8.15,1.4-12.03,2.93-2.74,1.08-5.58,1.9-8.28,3.06-1.88.8-3.6,1.98-5.39,2.99h0Zm11.74,49.85c-4.8.66-9.69,1.23-14.54,2.03-4.84.8-9.52-.28-14.23-.89-2.48-.32-4.93-.86-7.39-1.27-.32-.05-.67.06-1,.09.11.38.09.94.34,1.12,1.07.78,2.14,1.73,3.37,2.09,2.48.73,5.04,1.31,7.61,1.61,3.02.36,6.12.75,9.1.4,4.03-.46,8.01-1.52,11.96-2.49,1.82-.45,3.99-.5,4.78-2.7h0Zm6-32.06c-.59.09-1.29,0-1.68.3-1.72,1.31-3.43,2.65-5,4.13-2.69,2.54-3.17,6.99.36,9.6,2.11,1.56,4.46,2.52,7.19,1.44-1.6-.83-3.14-1.49-4.55-2.38-1.68-1.07-2-4.39-.62-5.8,3.27-3.32,6.93-6.04,11.46-7.45,1.21-.38,2.32-1.05,3.48-1.58-.03-.24-.07-.49-.1-.73-.73-.15-1.47-.48-2.19-.42-1.02.07-2.03.39-3.04.65-1.5.39-3.01.78-4.47,1.27-.37.12-.6.66-.85.96h.01Zm99.44-62.58c-.5.19-.74.22-.9.35-3.21,2.7-6.42,5.4-9.59,8.15-.6.52-.94,1.36-1.56,1.84-.79.62-1.79.98-2.62,1.56-2.85,1.99-5.64,4.07-8.53,6-.68.45-1.63.8-1.23,1.59.27.52,1.39.92,2.09.87,2.71-.2,4.46-2.34,6.51-3.73,2.31-1.56,4.22-3.74,6.23-5.72,3.19-3.14,6.34-6.34,9.46-9.55.21-.22.09-.75.15-1.35h-.01Zm-57.5,39.02c5.16,1.69,9.92,3.25,14.68,4.81,5.02,1.65,9.03,4.83,12.82,8.52-.09-1.12-.14-2.36-.79-2.99-2.21-2.17-4.47-4.36-7.01-6.1-3.26-2.23-7.11-3.26-10.94-4.17-2.75-.65-5.52-.98-8.77-.08h.01Zm44.1-19.92c.65.19.8.28.94.27,3.42-.27,6.28-2.09,9.07-3.75,3.61-2.15,6.92-4.82,10.28-7.37,4.96-3.77,9.35-8.12,13.42-13.17-.74.15-1.37.09-1.73.37-.96.76-1.8,1.67-2.71,2.51-2.93,2.68-5.78,5.44-8.82,7.99-2.37,1.99-4.88,3.87-7.49,5.54-3,1.92-6.19,3.56-9.29,5.34-1.14.66-2.24,1.38-3.67,2.27Zm-93.58-155.54c-.18-6.11-.38-12.07-.52-18.02-.13-5.97-.19-11.94-.28-17.92l-.53-.04c-.14.21-.37.41-.4.63-.41,2.91-1.08,5.81-1.12,8.73-.08,5.84.14,11.68.35,17.51.04,1.15-.06,2.6,1.43,3.21-1.19,1.88-.71,4.92,1.08,5.9h-.01Zm79.19,20.43c3.02-3.61,6.23-7.04,8.95-10.82,2.71-3.77,5.61-7.55,6.05-12.7-.37.31-.7.48-.88.74-1.47,2.21-2.82,4.5-4.38,6.64-1.59,2.19-3.38,4.22-5.07,6.34-1.81,2.26-3.63,4.51-5.37,6.83-.62.83-1.06,1.86.7,2.96h0Zm-6.52,122.13c.45-.13.62-.13.74-.22,3.43-2.67,4.52-6.65,5.79-10.51.17-.5.04-1.15-.09-1.7-.31-1.32-.66-2.63-1.07-3.92-.32-1.02-.87-1.6-2.04-.89-1.25.76-1.65,1.82-1.61,3.24.07,2.23.18,4.49-.11,6.68-.23,1.7-1.12,3.3-1.59,4.98-.19.69-.03,1.47-.03,2.33h0Zm-35.57,70.33c1.11-1.1,1.95-1.87,2.72-2.71,1.06-1.18,1.02-2.54.75-4.05-.82-4.54-3.4-7.62-7.03-8.35-.57-.11-1.24.26-1.86.4.24.64.32,1.42.74,1.9,2.15,2.48,4.35,4.89,4.48,8.44.05,1.3.13,2.6.21,4.37h-.01Zm77.23-75.05c5.89.48,22.04-19.57,21.02-25.62-3.34,4.59-5.66,9.71-9.27,14.09-3.46,4.21-7.61,7.63-11.75,11.53Zm-.21-87.38c-.03-.21-.06-.41-.09-.62-.66.04-1.34,0-1.97.14-4.75,1.14-9.49,2.31-14.23,3.51-.28.07-.63.47-.67.74-.09.76.03,1.55-.03,2.31-.09,1.01.31,1.6,1.33,1.59,2,0,4.04.13,6-.16,1.84-.27,3.63-1,5.1-2.5-3.69.07-7.14,1.42-10.71.37,5.33-1.19,10.42-2.96,15.26-5.39h.01Zm42.77,15.28c-.25-.08-.51-.16-.76-.24-.36.4-.88.74-1.05,1.21-.32.85-.47,1.77-.62,2.67-.42,2.48-.65,5-1.25,7.43-.66,2.64-1.58,5.22-2.53,7.77-.6,1.6-1.46,3.1-2.19,4.65-.03.07.03.19.06.4.41-.11.8-.22,1.19-.33-.1-.13-.2-.27-.3-.4.47-.54,1.09-1,1.38-1.63,2.24-4.75,5.07-9.28,5.65-14.66.25-2.28.28-4.59.42-6.88h0Zm-151.71-100.12c-1.25,10.92-2.32,21.87-1.83,32.92,1.1-3.59,1.05-7.34,1.4-11.02.36-3.74.9-7.5.84-11.24-.06-3.54.77-7.11-.42-10.66h.01Zm108.44-3.77l-.62.8c1.7,1.56,3.37,3.16,5.12,4.67.75.65,1.72,1.05,2.47,1.7.73.64,1.23,1.54,1.95,2.21,3.47,3.21,6.56,6.73,9.29,10.59.16.23.57.28.86.41.13-.31.4-.63.37-.92-.04-.34-.32-.67-.53-.98-2.66-3.75-5.38-7.44-8.82-10.53-2.02-1.81-4.06-3.61-6.13-5.36-.61-.51-1.4-.82-2.07-1.26-.64-.42-1.25-.88-1.87-1.33h-.02Zm-198.72,146.33c.15-.87.42-1.62.39-2.35-.17-5,1.09-9.69,2.97-14.27.28-.67.28-1.46.41-2.2-.66.44-1.52.73-1.96,1.34-3.54,4.89-4.56,10.39-3.63,16.29.15.95.58,1.68,1.82,1.19h0Zm95.08-135.8c-.17.11-.35.22-.52.33.25,8.79.49,17.58.74,26.37.13.04.26.08.39.11.43-1.02,1.2-2.03,1.22-3.05.06-3.9-.11-7.81-.24-11.71-.05-1.46-.26-2.91-.34-4.37-.12-2.14-.13-4.28-.31-6.41-.04-.44-.61-.84-.93-1.26h-.01Zm132.88,26.31c-.1.7-.35,1.27-.2,1.71.35,1.03.86,2.02,1.35,2.99,1.03,2.04.86,2.52-.63,4.19-.64.72-1.9,1.43-1.26,3.08,1.22-1.04,2.21-1.89,3.39-2.89,1.2,2.94,2.39,5.87,3.69,9.06,1.3-2.67-3.3-15.54-6.35-18.14h.01Zm-97.01,181.39c.37.19.54.35.72.37,5.4.7,10.8,1.38,15.75,3.94.3.15.83-.13,1.32-.23-3.27-4.74-13.92-6.34-17.8-4.08h0Zm-118.36-135.97c-.04.43-.12.69-.08.94.69,4.82,2.97,8.86,6.25,12.35.44.47,1.36.63,2.07.67.83.04,1.1-1.02.4-1.84-.97-1.12-2.23-2.01-3.05-3.22-1.93-2.84-3.66-5.81-5.59-8.91h0Zm73.26,22.1c-.23,0-.46,0-.69-.02-.11.69-.45,1.45-.28,2.06.38,1.34-.22,2.64-.46,3.74-.57,2.64-1.91,5.11-3.02,7.62-.44.99-.25,1.7.76,1.89.42.08,1.1-.41,1.42-.82,1.92-2.5,2.17-5.57,2.5-8.53.22-1.95-.15-3.96-.25-5.94h.02Zm73.27,51.93c.2-.62.43-1.15.55-1.71.96-4.27,1.93-8.54,2.82-12.83.12-.58-.18-1.25-.29-1.95-.78,1.69-1.33,3.2-2.13,4.56-1.02,1.73-1.98,3.44-2.06,5.51-.04,1.14-.24,2.28-.18,3.41.05,1.04-.33,2.31,1.29,3.02h0Zm-35.97-128.92c-.24-.08-.48-.16-.71-.24-.49,1.31-1.06,2.6-1.45,3.94-.74,2.5-1.37,5.03-2.07,7.55-.48,1.76-1.06,3.49-1.45,5.27-.09.42.4.98.62,1.47.43-.3,1.05-.51,1.24-.92.39-.85.61-1.8.81-2.73,1.02-4.78,2.01-9.56,3.02-14.34h0Zm42.14.6c.08.1.16.2.24.3.44-.4,1.07-.72,1.29-1.21.47-1.04.86-2.16,1.03-3.29.56-3.69,1.02-7.39,1.46-11.09.03-.27-.34-.83-.5-.82-.37.02-.87.22-1.05.51-.23.37-.22.91-.27,1.38-.16,1.62-.19,3.25-.46,4.85-.52,3.14-1.16,6.25-1.74,9.38h0Zm2.2,15.45c-.15-.18-.3-.37-.46-.55-.53.4-1.16.71-1.56,1.21-1.12,1.43-2.16,2.92-3.2,4.4-1.3,1.84-2.6,3.66-3.82,5.55-.26.41-.18,1.05-.25,1.58.55-.13,1.12-.2,1.63-.43.31-.14.55-.49.75-.78.99-1.44,2.01-2.87,2.93-4.36,1.36-2.18,2.66-4.41,3.98-6.62Zm23.78,44.41c-.02.15-.05.3-.07.45.72-.05,1.56.13,2.15-.18,2.51-1.3,5-2.68,7.41-4.17,1.87-1.16,3.64-2.5,5.39-3.84.5-.39.78-1.07,1.16-1.62-.13-.07-.27-.14-.4-.21-5.21,3.19-10.42,6.39-15.64,9.58h0ZM333.95,31.27c-.2,0-.39.01-.59.02-.22,1.85-.49,3.7-.66,5.56-.26,2.82-.5,5.65-.63,8.47-.02.48.53.98.81,1.47.33-.42.91-.81.95-1.25.29-2.97.57-5.95.64-8.92.04-1.78-.32-3.56-.51-5.34h-.01Zm50.73,126.87l-.58-.07c-.58,1.51-.96,3.14-1.79,4.49-1.26,2.05-2.89,3.87-4.23,5.88-.33.5-.16,1.34-.21,2.03.66-.19,1.61-.17,1.94-.61,2.4-3.16,4.26-6.61,4.96-10.58.06-.36-.05-.75-.08-1.13h-.01Zm58.36,102.76c-3.21-6.59-6.23-12.79-9.26-19,.67,2.66,1.39,5.32,2.34,7.9.79,2.14,1.76,4.23,2.81,6.26.78,1.51,1.79,2.9,2.76,4.31.17.24.65.27,1.34.53h.01Zm-62.26-238.11c.11.04.22.08.34.12.24-.69.67-1.37.7-2.07.11-2.18.12-4.37.06-6.56-.03-1.17-.16-2.38-.53-3.48-.14-.42-1.06-.67-1.67-.79-.14-.03-.69.8-.64,1.18.53,3.87,1.15,7.73,1.75,11.59h0Zm-25.77,54.26c.15-.25.44-.51.43-.76-.02-.66-.22-1.31-.26-1.97-.2-3.57-.34-7.13-.57-10.7-.05-.77-.36-1.52-.59-2.42-1.49,1.59-1.13,8.38.99,15.86h0Zm5.17,92.55c2.14-4.35,3.15-8.75,2.49-13.52-1.29,4.19-2.59,8.37-3.9,12.63.2.13.66.42,1.41.9h0Zm-24.58-142.1l-.78.08c.89,5.34-.08,10.83,1.61,16.19.53-.51.87-1.08.83-1.62-.24-2.74-.56-5.47-.88-8.21-.25-2.15-.52-4.29-.78-6.44h0Zm10.94,42.32c-.15-.02-.29-.04-.44-.07-.25.44-.7.89-.7,1.33,0,1.43.05,2.88.33,4.28.55,2.66,1.29,5.27,1.93,7.91.25,1.04.72,1,1.17.55-.78-4.78-1.53-9.39-2.29-14h0Zm121.36,135.85c.15.73.05,1.77.52,2.27,1.49,1.57,3.22,2.92,5.54,2.93.57,0,1.14-.4,1.71-.61-.35-.42-.63-.94-1.06-1.25-1.17-.84-2.65-1.38-3.53-2.44-.89-1.07-1.62-1.52-3.18-.89h0Zm-147.27-23.47c-.17-.69-.16-1.22-.41-1.54-1.71-2.16-3.43-4.3-5.24-6.37-.39-.45-1.16-.57-1.76-.85-.04.63-.37,1.5-.08,1.85,2.1,2.52,3.81,5.49,7.49,6.91h0Zm188.47-24.68c-.19.15-.74.59-1.29,1.04.62.45,1.23.92,1.87,1.34.21.14.49.22.75.25,2.03.26,4.07.52,5.9-.76.22-.16.33-.47.48-.71-.23-.15-.45-.4-.69-.43-2.11-.24-4.23-.44-7.01-.72h0Zm-205.74,19.96c-.14,3.8,5.85,8.76,8.45,7.68-2.81-2.55-5.63-5.12-8.45-7.68Zm18.15,29.07c.11-.08.22-.16.33-.25-.08-.3-.09-.64-.24-.9-1-1.67-1.96-3.37-3.08-4.95-.75-1.05-1.69-1.99-2.66-2.84-.26-.23-.95.02-1.44.05.1.53.03,1.21.34,1.55,1.22,1.36,2.58,2.58,3.83,3.92,1.02,1.09,1.95,2.27,2.92,3.41h0Zm-30.7-62.56c-.13.11-.26.21-.39.32.54,1.16.91,2.44,1.64,3.46,1.32,1.86,2.9,3.54,4.27,5.38.53.71,1.06,1.32,1.8.67.24-.21-.04-1.41-.43-1.86-1.34-1.55-2.84-2.96-4.27-4.43-.56-.57-1.16-1.11-1.63-1.74-.41-.54-.66-1.19-.98-1.8h0Zm109.04,104.65c.41-3.44.77-6.49,1.16-9.79-3.07,1.64-3.98,7.74-1.16,9.79Zm104.53-176.06c-.77-2.21-.89-2.23-2.69-.46-.42.41-.92.74-1.4,1.1-1.76,1.34-3.53,2.67-5.59,4.23,1.67.73,2.52-.2,3.42-.77,2.05-1.31,4.07-2.66,6.26-4.1h0Zm-204.11,127.79c-3.23-1.01-4.57-4.89-8.39-4.71.04.43-.06.88.11,1.03,1.29,1.18,2.58,2.39,3.99,3.43,1.95,1.44,2.96,1.48,4.29.25h0Zm107.59-26.51c3.75-1.37,6.03-4.19,7.66-7.65-1.22.75-2.36,1.6-3.45,2.5-1.32,1.1-2.5,2.41-3.94,3.31-.98.62-.93,1.04-.27,1.84Zm-101.83-42.75c-.1.07-.2.13-.31.2.34.78.62,1.6,1.04,2.33,1.39,2.4,2.81,4.78,4.32,7.1.14.21,1.01-.06,1.55-.11-.06-.41-.01-.88-.21-1.2-.43-.71-.99-1.34-1.5-2-1.63-2.1-3.26-4.21-4.89-6.31h0Zm140.65,14.02c-.18-.18-.36-.36-.54-.54-.36.16-.77.26-1.07.49-1.35,1.09-2.67,2.22-4.01,3.33-.42.35-1.02.56-1.3.99-.29.45-.3,1.09-.43,1.64.55,0,1.24.18,1.63-.08,1.15-.76,2.26-1.62,3.22-2.6.94-.97,1.68-2.15,2.5-3.23h0Zm-44.25-69.21c-1.29,1.63-1.54,3.57-2.16,5.38-.66,1.96-.93,4.07-1.24,6.13-.11.7.19,1.46.3,2.2.23,0,.46-.02.7-.03.8-4.56,1.6-9.12,2.4-13.68Zm48.9,71.27c-.14-.08-.29-.16-.43-.25-.28.21-.63.37-.83.64-1.55,2.14-3.03,4.34-4.63,6.44-.39.52-1.35.83-.57,1.51.24.21,1.4-.27,1.84-.73,1.02-1.06,1.99-2.23,2.74-3.49.77-1.29,1.26-2.75,1.88-4.13h0Zm-88.28-28.81c-1.75,1.82-1.78,2.06-.24,3.27h-1.36v5.36c.7-.32.98-.53,1.28-.56.36-.03.74.1,1.11.15.05-.45.2-.91.14-1.34-.21-1.5-.51-2.99-.74-4.49-.11-.74-.13-1.48-.2-2.39h0Zm-22-102.96c-3.42-.92-6.64.16-9.81,1.52-.24.1-.24.77-.36,1.17.46.04.97.23,1.38.1,2.92-.89,5.82-1.84,8.79-2.79h0Zm45.37,284.4c4.01-.94,6.74-3.03,9.06-5.77-2.84,1.28-5.59,2.73-8.29,4.25-.32.18-.41.79-.77,1.52Zm-73.14-87.53c.15-.06.3-.11.45-.17.02-.36.19-.83.03-1.05-1.24-1.66-2.52-3.3-3.86-4.88-.27-.32-.86-.37-1.3-.54,0,.52-.24,1.23.02,1.53,1.49,1.76,3.1,3.42,4.67,5.11h-.01Zm203.37-77.81l.35.61c.87-.44,1.73-1.23,2.61-1.25,1.78-.04,3-1.17,4.47-1.8,1.11-.47,1.32-1.45.58-2.31-2.73,1.62-5.37,3.18-8,4.75h0Zm-59.2-47.5c1.16-2.27,2.26-4.4,3.35-6.53.14-.27.23-.56.34-.84-.34.14-.79.19-1.01.44-1.16,1.32-2.25,2.68-3.38,4.03-.96,1.15-.87,1.9.69,2.9h.01Zm-28.42,113.37c-.29-.06-.58-.11-.88-.17-.73,2.59-1.45,5.18-2.19,7.82,1.54.35,2.41.22,2.36-1.41-.02-.64.3-1.29.37-1.94.15-1.43.23-2.87.34-4.3h0Zm24.29,11.94c-1.74-1.41-3.34-2.72-4.98-3.98-.21-.16-.88-.13-.99.05-.24.35-.45.96-.29,1.27.31.6.82,1.15,1.37,1.56,1.39,1.02,2.96,1.48,4.9,1.1h0Zm-152.44-26.43c.16,2.28,4.11,5.12,7.78,5.65,0-.27.1-.69-.02-.76-2.55-1.64-5.13-3.24-7.77-4.89h0Zm216.31-60.13c.82-.41,1.6-.7,2.26-1.16,1.31-.92,2.57-1.9,3.79-2.94.23-.2.19-.76.2-1.15,0-.05-.45-.11-.7-.17.07,1.28-1.2.73-1.76,1.24-1.27,1.16-2.82,2.02-4.23,3.03-.13.09-.25.43-.18.54.12.22.38.37.64.6h-.02Zm-166.15.25c1.45-1.5.81-5.18-.98-5.76.36,1,.65,1.78.94,2.59-.92.64-.15,3.31,1.37,4.33-1.67,1.06.06,1.8.13,2.68,1.87-.49,1.13-1.5.64-2.49-.28-.55-.48-1.13-.7-1.66-.35.08-.69.16-1.4.32h0Zm49.88,40.08c-.12-.1-.23-.2-.35-.29-1.63,1.77-3.28,3.52-4.86,5.33-.14.16.01.79.23.99.18.17.74.17.98,0,2.24-1.43,3.21-3.68,3.99-6.04h0Zm113.46-13.67v-1.01c-2.14-.09-4.29-.2-6.43-.22-.24,0-.73.67-.68.73.28.41.7,1.06,1.05,1.04,2.03-.09,4.05-.34,6.07-.54h-.01Zm-57.78,85.22c-1.6-1.96-3.23-3.95-4.94-6.05-.68,3.12,2.35,6.58,4.94,6.05Zm-.06-76.69c-1.97,1.27-3.63,2.32-5.24,3.43-.2.14-.24.71-.14,1,.08.22.51.42.79.43,1.31.04,4.33-2.84,4.58-4.86h.01Zm-153.92-24.2c.19,2.85,3.84,6.92,5.66,6.56-1.95-2.26-3.8-4.41-5.66-6.56Zm154.33,59.97c-2.02-.87-3.51-1.56-5.04-2.11-.33-.12-.83.25-1.25.39.23.51.34,1.31.71,1.47,1.26.52,2.6.88,3.95,1.13.38.07.86-.45,1.63-.88Zm-94.59-113.3c.52-3.15.35-6.05-.58-8.88-.29.23-.47.46-.47.69.03,2.08.02,4.16.18,6.22.05.67.57,1.31.87,1.97Zm106.32,9.3c-.14-.08-.28-.16-.42-.24-.37.54-.65,1.41-1.14,1.55-1.88.55-2.82,1.83-2.47,3.98,2.46-1.02,3.28-3.12,4.02-5.29h.01Zm-57.99,115.03l.63.21c1.84-2.49,2.25-5.45,3.03-8.29-.26-.09-.51-.17-.77-.26-.96,2.78-1.92,5.56-2.89,8.34h0Zm-120.36-56.22c.22-.14.1-.11.06-.03-.72,1.31.56,1.9,1.15,2.55.52.58,1.55.82,2.39.92.28.03.8-.78.94-1.28.06-.2-.52-.75-.91-.9-1.11-.45-2.27-.79-3.63-1.25h0Zm-3.49,2.06c-.48,1.33.97,4.21,2.5,4.97.48.24,1.19.04,1.8.04.01-.15.03-.3.04-.45-1.41-1.48-2.82-2.97-4.33-4.56h-.01Zm147.23-9.07c1.39,1.57,4.25.15,5.68-2.98-2.5.24-3.83,2.11-5.68,2.98Zm85.78-6c-2.17,1.64-4.22,3.18-6.27,4.73,5.88-1.95,6.76-2.64,6.27-4.73Zm-112.04,53.65c-2.44,2.82-2.67,4.74-.95,5.6.78-1.81,1.07-3.68.95-5.6Zm-138.57-30.06c.17-.18.33-.36.5-.54-.35-.35-.67-.76-1.07-1.05-.87-.64-1.79-1.22-2.68-1.84-.3-.21-.54-.59-.86-.66-.33-.07-.73.13-1.09.21.09.34.06.85.28.98,1.62,1.01,3.28,1.94,4.93,2.9h-.01Zm7.77-114.28c-.36.3-1.08.73-1.03.9.43,1.35.95,2.68,1.57,3.95.14.28.76.32,1.16.48,0-.39.11-.82-.01-1.17-.47-1.29-1.02-2.54-1.69-4.17h0Zm178.66-5.08c1.95-4.69,1.88-6.79,0-6.85v6.85Zm18.85,8.37c.97-.35,2.86-3.91,2.42-4.94-.15-.35-.6-.57-.91-.85-.25.34-.65.65-.72,1.02-.32,1.6-.54,3.23-.79,4.76h0Zm-70,116.1c-.17-.17-.34-.34-.51-.51-1.35,1.22-2.7,2.44-4.02,3.65.52.95,1.16,1.37,1.84.57.98-1.17,1.8-2.46,2.69-3.7h0Zm-89.22,40.96c-2.24-5.22-2.94-5.97-4.37-5.01,1.47,1.68,2.92,3.35,4.37,5.01Zm157.74-3.17c.09-.13.17-.25.26-.38-1.33-1.14-2.65-2.28-4.02-3.37-.05-.04-.85.56-.81.8.06.45.38,1.03.76,1.24,1.23.65,2.54,1.15,3.82,1.71h-.01Zm-175.25-60.72c-.13.11-.26.22-.4.33.56,1.23,1.04,2.5,1.72,3.66.5.85,1.27,1.39,2.42.11-1.24-1.36-2.49-2.73-3.74-4.11h0Zm151.83,13.84c.14.26.28.52.42.79,1.72-.92,3.45-1.81,5.13-2.8.16-.09-.05-.81-.1-1.34-2.06,1.27-3.75,2.31-5.44,3.35h-.01Zm16.12,61.96c-.14-.09-.29-.18-.43-.26-1.35,1.19-3.35-.96-4.65.85,1.68,1.4,2.85,1.54,4.45.51.31-.2.42-.72.63-1.1h0Zm-128.93,37.59c-.22.03-.43.06-.65.09.11,1.56.17,3.13.36,4.68.04.32.54.59.83.88.19-.42.61-.87.54-1.24-.28-1.48-.71-2.94-1.08-4.41Zm73.08-54.96c.61-1.87,1.13-3.45,1.78-5.44-.92.49-1.71.64-1.96,1.1-.51.94-.85,2.02-1,3.08-.05.34.72.8,1.18,1.26Zm61.53-54.23c-.64,1.76.83,1.8,1.55,1.68,1.06-.17,2.61.58,3.45-1.28-1.85-.15-3.37-.27-5-.4Zm-40.46,63.42c.62-.07,1.12-.13,1.48-.18.14-1.49.27-2.83.4-4.17-.21-.06-.41-.11-.62-.17-1.53,1.03-.9,2.88-1.25,4.51h-.01ZM347.7,20.93c.14-.35.31-.55.27-.69-.47-1.64-.92-3.28-1.5-4.88-.12-.34-.73-.5-1.12-.75-.04.42-.24.91-.09,1.25.72,1.62,1.53,3.2,2.43,5.06h.01Zm30.45,137.44c-.39-.05-.77-.09-1.14-.14,0,.33,0,.65-.02.98,0,.15.02.32-.04.44-.6,1.06-1.23,2.11-1.92,3.3,1.58.03,2.28-1.09,3.12-4.57h0Zm-4.9,7.32l-.57-.24c-.6.92-1.23,1.83-1.78,2.78-.19.32-.31.78-.24,1.13.04.23.53.6.7.54.36-.11.81-.41.92-.73.39-1.14.65-2.31.96-3.48h0ZM450.12,27.84c-.37,1.15.33,1.92,3.01,3.38.31.17.83-.02,1.25-.05.01-.18.02-.36.03-.54-1.42-.92-2.83-1.85-4.29-2.8h0Zm20.46,186.47c-1-1.15-1.79-2.1-2.64-2.98-.15-.16-.74-.18-.83-.05-.18.25-.33.8-.19.97.86,1.01,1.64,2.22,3.65,2.07h.01Zm-142.56,58.48c1.67-.59,1.54-1.8,1.32-2.96-.07-.35-.56-.62-.85-.93-.27.36-.77.71-.78,1.07-.03.87.17,1.74.31,2.82h0ZM466.38,44.9c1.31-.23,1.48-1.4,1.81-2.38.14-.41.16-.88.12-1.32,0-.07-.66-.26-.79-.14-.36.32-.75.74-.86,1.18-.2.83-.2,1.71-.29,2.66h.01Zm-201.72,121.12c-.95-1.13-1.9-2.27-2.87-3.43-1.14,1.39.2,3.18,2.87,3.43Zm250.86-58.92c-1.03.19-1.9.29-2.72.54-.27.08-.54.53-.6.85-.04.22.23.63.46.74.85.41,2.55-.73,2.85-2.13h0Zm-65.01,96.56c-1.89-1.21-2.28-1.18-3.07.16,1.71,1.42,2.25,1.41,3.07-.16Zm-119.36,60.35c-.74,2.1-.37,3.78.86,4.36.58-1.59.19-2.93-.86-4.36Zm48.73-120.58c.81-1.48.74-3.37-.17-5.03-.46.31-.4,1.98.17,5.03Zm32.23-84.7c.16-1.55.3-2.86.4-4.17.02-.24-.16-.49-.25-.74-.14.07-.32.12-.42.23-.86,1.02-.79,3.36.27,4.69h0Zm65.02,140.12c-1.49-.57-3.02-1.46-4.6-.79,0,.26-.01.53-.02.79h4.62ZM281.13,48.48l.28-.16c-.42-1.46-.84-2.93-1.38-4.79-.39.75-.85,1.27-.74,1.52.53,1.18,1.21,2.29,1.84,3.43Zm130.96,145.15c-.99,1.05-1.58,2.07-.53,3.3-.07-1.13,2.03-1.92.53-3.3Zm-138.83-14.16c-.13.21-.25.42-.38.63.75.55,1.47,1.14,2.26,1.63.19.12.62-.02.86-.17.09-.06.06-.62-.06-.69-.87-.5-1.79-.94-2.69-1.4h.01Zm66.63,77.14c-.21.07-.42.14-.62.21.06.78.08,1.57.22,2.34.05.26.4.47.62.7.18-.29.55-.61.5-.85-.16-.82-.46-1.6-.71-2.4h-.01Zm168.34-167.42c.82,1.16,1.45,1.25,1.99.41.26-.4.27-.96.4-1.44-.75.33-1.51.65-2.39,1.03h0Zm-100.89,6.96c-.17-.06-.33-.12-.5-.19-.3.65-.52,1.35-.91,1.93-.82,1.22-.86,1.19-.11,1.83.52-1.23,1.02-2.4,1.52-3.57Zm48.81,72.54c-1.24-.88-3.1-.48-3.44.92,1.17-.32,2.25-.6,3.44-.92Zm-87.39-28.39c-.9,1.24-.78,1.87.59,2.42-.16-1.19-.3-2.28-.5-3.78-.46.53-.65.76-.85.99.22.11.44.21.76.37Zm26.12-124.37c.24,1.01.42,1.79.61,2.58.22-.02.44-.04.65-.06,0-.79.04-1.59-.05-2.38-.01-.09-.75-.09-1.21-.14Zm90.16,48.66l.79.28c.25-.7.51-1.4.76-2.1-.29-.04-.79-.19-.83-.12-.29.62-.5,1.29-.73,1.94h0Zm-188.1,42.56c.13,0,.25-.02.38-.03-.06-.7-.04-1.42-.2-2.09-.07-.28-.53-.46-.81-.69-.09.34-.32.72-.23,1,.2.63.57,1.21.87,1.81h0Zm108.3,78.35c-.16-.03-.33-.06-.49-.09-.5,1.09-1,2.18-1.5,3.28l.57.24c.47-1.14.95-2.29,1.42-3.43h0Zm37.37-87.33c-.21-.17-.42-.34-.63-.51l-1.58,2.16c.16.13.32.26.48.39.58-.68,1.15-1.36,1.73-2.04h0Z"/>
  <path class="cls-1" d="m436.82,156.1c.03-.2.05-.4.12-.93,1.82,2.78,4.71,4.37,5.63,7.66.51,1.84,1.73,3.48,2.64,5.21.1.19.28.36.33.56,1.09,4.68,2.77,9.25,2.7,14.14-.01.92-.28,1.84-.81,2.93-.32-.7-.84-1.37-.92-2.1-.55-4.75-1.35-9.43-2.83-13.99-1.38-4.25-3.3-8.23-6.61-11.31-3.08-2.86-5.95-5.99-9.75-8.02-2.65-1.42-5.09-3.24-7.71-4.71-1.42-.8-3.19-1.01-4.52-1.9-2.68-1.79-5.81-1.61-8.71-2.38-.35-.09-.71-.16-1.07-.25-3.04-.81-6.1-1.58-9.12-2.45-2.73-.79-5.69-.5-8.28-1.32-4.2-1.34-8.54-.87-12.75-1.74-2.08-.43-4.33-.12-6.51-.05-2.93.1-5.86.27-8.79.44-.91.06-1.8.3-2.71.34-.49.02-.98-.21-1.48-.33-.01-.21-.03-.41-.04-.62.92-.33,1.81-.74,2.76-.96,2.42-.56,4.85-1.2,7.31-1.48,2.18-.24,4.41,0,6.61-.04,1.94-.04,3.87-.23,5.8-.26,2.35-.04,4.7,0,7.05.03,2.31.04,4.63.06,6.94.21,1.26.08,2.53.31,3.76.62,2.17.55,4.34,1.13,6.47,1.83,2.9.96,5.8,1.94,8.62,3.11,2.8,1.16,5.53,2.49,8.23,3.88.87.45,1.51,1.32,2.28,1.97.32.27.67.63,1.05.7,3,.55,5.19,2.45,7.37,4.37,1.92,1.69,3.79,3.42,5.65,5.17.45.43.77,1,1.29,1.7v-.03Z"/>
  <path class="cls-1" d="m446.42,291.64c1.24-1.09.83-3.24,3.26-3.75-.22,1.63-.24,3.18-.66,4.6-1.04,3.51-2.76,6.69-5.51,9.17-2.66,2.4-5.2,5.04-8.21,6.91-5.72,3.55-12.05,5.76-18.7,6.95-4.37.78-8.76,1.51-13.15,2.19-.98.15-1.99.02-2.99.02-.05-.24-.1-.47-.15-.71,1.36-.46,2.7-.99,4.08-1.35,4.2-1.11,8.44-2.04,12.6-3.28,4.09-1.21,8.21-2.44,12.09-4.17,2.94-1.31,5.52-3.41,8.25-5.18.07-.04,0-.29,0-.56-4.05,1.19-7.84,3.51-12.17,3.01-.08-.26-.15-.52-.23-.78,2.43-1.13,4.85-2.29,7.31-3.38,4.28-1.89,8.24-4.21,10.45-8.56,1-1.98,1.61-4.15,2.48-6.21.22-.53.73-.95,1.11-1.41.3.57.82,1.13.85,1.71.05.99-.18,2.01-.33,3-.09.59-.24,1.18-.37,1.76v.02Z"/>
  <path class="cls-1" d="m302.48,205.54c.19-.6.27-1.26.58-1.78,1.43-2.45,2.75-5,4.45-7.26,1.31-1.74,3.1-3.12,4.72-4.61.74-.68,1.58-1.25,2.4-1.83,2.23-1.56,4.34-3.4,6.76-4.58,3.8-1.86,7.8-3.32,11.75-4.87,1.65-.65,3.36-1.15,5.06-1.65,1.98-.58,3.98-1.14,5.98-1.62,1.71-.41,3.44-.72,5.17-1.04,1.12-.2,2.25-.48,3.37-.45.76.02,1.5.52,2.25.81-.03.15-.07.29-.1.44-3.32,1.04-6.67,1.99-9.95,3.13-2.82.99-5.61,2.12-8.34,3.32-3.48,1.53-6.9,3.2-10.35,4.82-1.94.91-3.73,2-5.39,3.4-1.4,1.18-3.31,1.74-4.81,2.82-2.8,2.01-5.54,4.11-8.15,6.36-1.41,1.21-2.45,2.84-3.72,4.22-.32.35-.87.49-1.32.72-.12-.11-.24-.23-.37-.34h.01Z"/>
  <path class="cls-1" d="m324.4,318.69c-1.39-.96-2.94-1.77-4.16-2.92-5.09-4.8-6.06-9.72-2.86-16.79,1.01-2.22,2.13-4.47,3.65-6.34,1.77-2.17,4.09-3.89,6.07-5.9,2.96-3,6.88-4.38,10.47-6.31,1.6-.86,3.33-1.48,5.03-2.12,1.39-.52,2.83-.9,4.25-1.35.8,1.04.65,1.62-.42,2.23-3.61,2.05-7.31,4-10.71,6.37-2.9,2.02-5.69,4.32-8.04,6.93-1.93,2.14-3.78,4.42-5.23,7.06-1.75,3.18-2.49,6.49-2.27,9.9.12,1.76,1.6,3.46,2.55,5.14.67,1.19,1.49,2.31,2.24,3.46-.19.22-.39.44-.58.66v-.02Z"/>
  <path class="cls-1" d="m399.4,19.45c.39.16.77.33,1.16.47,1.13.42,2.37-.22,2.92-1.43.14-.31.47-.53.79-.88.25.92.3,2.25.7,2.36,1.3.37,2.72.29,4.17.39.14-.85.25-1.5.35-2.14.15-.01.31-.03.46-.04.07.67.15,1.34.27,2.44,1.38.28,3,.61,4.89.99-.11-.75-.26-1.08-.18-1.32.21-.6.52-1.15.79-1.73.3.57.78,1.11.85,1.71.2,1.73.43,1.96,2.14,2.13,1.1.11,2.18.45,3.27.69.51.11,1.01.21,1.78.37-.15-.76-.36-1.28-.31-1.76.04-.4.39-.78.6-1.16.3.26.64.5.89.8.11.14.1.42.08.63-.22,1.96.71,2.79,2.73,2.61.3-.4.7-.93,1.29-1.72.25.65.5,1.05.54,1.47.11,1.09.7,1.79,1.72,1.68.46-.05.83-.89,1.48-1.66.35.92.47,2.15,1.15,2.81.74.72,2,.92,3.11,1.37.13-1.27.22-2.23.32-3.25.49.34.93.64,1.37.95-.24,2.51.81,4.21,3.18,5.08,1,.37,2.15.47,3.03,1,.96.58,1.69,1.53,2.51,2.31-.13.15-.25.3-.38.45-1.88-.83-3.75-1.69-5.65-2.47-.89-.37-1.87-.52-2.76-.9-1.3-.56-2.52-1.31-3.84-1.83-1.9-.74-2.16-.54-2.62,1.44-.27,1.15-.58,2.3-.95,3.42-.13.41-.5.74-.75,1.11-.19-.06-.38-.12-.57-.18.26-1.46.52-2.93.79-4.39.09-.47.27-.93.37-1.4.3-1.31-.73-1.68-1.49-1.41-.89.3-1.11-.1-1.71-.49-.85-.55-1.99-.67-3.01-.97-.54.92-1.01,1.71-1.5,2.54,0-.93.34-2.1-.09-2.62-.52-.62-1.7-.69-2.6-.98-1.33-.42-2.65-.9-4.01-1.18-.61-.13-1.3.16-1.78.23-1.04-.45-2.03-1.07-3.1-1.29-2.1-.45-4.25-.71-6.39-.99-.49-.06-1.01.14-1.52.22-.16.02-.33.11-.47.07-1.65-.45-3.27-1-4.93-1.37-1.46-.32-2.96-.44-4.88-.72,1.09-.86,1.73-1.38,2.43-1.93.94,1.04,2.07,1.39,3.36.44l-.05.04h.05Z"/>
  <path class="cls-1" d="m299.91,158.29c-1.25-1.74.15-2.8.85-3.74,2.57-3.5,6.15-5.83,9.87-7.94,1.72-.97,3.45-1.98,5.27-2.74,2.79-1.17,5.66-2.18,8.51-3.19,1.73-.61,3.47-1.31,5.26-1.57,3.59-.52,7.22-.77,10.84-1.14l.28.85c-.85.43-1.83,1.37-2.51,1.19-1.55-.41-2.5.69-3.7,1.02-4.08,1.13-8.16,2.36-12.08,3.94-3.55,1.43-6.97,3.22-10.3,5.11-3.97,2.25-7.86,4.65-11.23,7.8-.25.23-.68.28-1.06.42h0Z"/>
  <path class="cls-1" d="m359.31,269.75c1.79-1.01,3.51-2.18,5.39-2.99,2.7-1.16,5.54-1.98,8.28-3.06,3.88-1.53,7.88-2.64,12.03-2.93,3.87-.27,7.79-.83,11.61.52.71.25,1.54.19,2.2.51.4.2.92,1.08.8,1.26-.33.5-.99,1.11-1.5,1.1-2.25-.06-4.51-.59-6.73-.45-3.52.22-7.03.8-10.53,1.29-1.63.23-3.25.55-4.85.93-2.34.56-4.65,1.23-6.98,1.84-2.15.56-4.32,1.08-6.46,1.68-.98.27-1.91.69-2.86,1.04l-.39-.75h0Z"/>
  <path class="cls-1" d="m371.05,319.6c-.79,2.2-2.97,2.25-4.78,2.7-3.96.97-7.93,2.03-11.96,2.49-2.98.34-6.09-.05-9.1-.4-2.57-.3-5.13-.88-7.61-1.61-1.23-.36-2.29-1.32-3.37-2.09-.25-.18-.24-.74-.34-1.12.34-.04.68-.15,1-.09,2.47.41,4.91.95,7.39,1.27,4.72.61,9.4,1.69,14.23.89,4.85-.8,9.74-1.37,14.54-2.03h0Z"/>
  <path class="cls-1" d="m377.05,287.53c.26-.3.49-.84.85-.96,1.47-.5,2.97-.88,4.47-1.27,1-.26,2.01-.58,3.04-.65.72-.05,1.46.27,2.19.42.03.24.07.49.1.73-1.16.54-2.27,1.21-3.48,1.58-4.53,1.41-8.19,4.13-11.46,7.45-1.39,1.41-1.06,4.73.62,5.8,1.4.89,2.95,1.56,4.55,2.38-2.74,1.08-5.08.12-7.19-1.44-3.53-2.61-3.05-7.07-.36-9.6,1.57-1.48,3.28-2.82,5-4.13.39-.3,1.09-.21,1.68-.3h-.01Z"/>
  <path class="cls-1" d="m476.5,224.96c-.06.6.06,1.14-.15,1.35-3.13,3.21-6.27,6.4-9.46,9.55-2.01,1.98-3.92,4.15-6.23,5.72-2.05,1.39-3.8,3.53-6.51,3.73-.7.05-1.82-.34-2.09-.87-.4-.79.55-1.14,1.23-1.59,2.89-1.92,5.68-4.01,8.53-6,.83-.58,1.83-.93,2.62-1.56.62-.49.96-1.32,1.56-1.84,3.17-2.75,6.39-5.44,9.59-8.15.16-.13.4-.16.9-.35h.01Z"/>
  <path class="cls-1" d="m419,263.98c3.24-.9,6.01-.57,8.77.08,3.83.91,7.68,1.94,10.94,4.17,2.54,1.74,4.8,3.93,7.01,6.1.64.63.69,1.87.79,2.99-3.79-3.69-7.8-6.87-12.82-8.52-4.76-1.56-9.52-3.12-14.68-4.81h-.01Z"/>
  <path class="cls-1" d="m463.11,244.05c1.43-.89,2.53-1.61,3.67-2.27,3.1-1.78,6.29-3.42,9.29-5.34,2.61-1.67,5.11-3.54,7.49-5.54,3.03-2.55,5.89-5.31,8.82-7.99.91-.83,1.74-1.75,2.71-2.51.36-.28.99-.23,1.73-.37-4.07,5.04-8.46,9.4-13.42,13.17-3.36,2.55-6.67,5.22-10.28,7.37-2.79,1.66-5.65,3.48-9.07,3.75-.14,0-.28-.08-.94-.27Z"/>
  <path class="cls-1" d="m369.52,88.52c-1.78-.98-2.26-4.02-1.08-5.9-1.49-.61-1.39-2.06-1.43-3.21-.22-5.84-.44-11.68-.35-17.51.04-2.91.71-5.82,1.12-8.73.03-.23.26-.42.4-.63l.53.04c.09,5.97.15,11.95.28,17.92.13,5.96.34,11.91.52,18.02h.01Z"/>
  <path class="cls-1" d="m448.72,108.95c-1.75-1.11-1.32-2.13-.7-2.96,1.73-2.32,3.56-4.57,5.37-6.83,1.69-2.12,3.48-4.15,5.07-6.34,1.56-2.14,2.91-4.43,4.38-6.64.18-.27.51-.44.88-.74-.43,5.14-3.34,8.93-6.05,12.7-2.72,3.78-5.93,7.21-8.95,10.82h0Z"/>
  <path class="cls-1" d="m442.2,231.08c0-.85-.16-1.64.03-2.33.47-1.68,1.36-3.28,1.59-4.98.3-2.19.18-4.45.11-6.68-.04-1.43.36-2.48,1.61-3.24,1.17-.71,1.72-.13,2.04.89.41,1.29.76,2.6,1.07,3.92.13.55.26,1.2.09,1.7-1.28,3.86-2.37,7.83-5.79,10.51-.11.09-.29.09-.74.22h0Z"/>
  <path class="cls-1" d="m406.63,301.41c-.09-1.77-.17-3.07-.21-4.37-.12-3.55-2.33-5.96-4.48-8.44-.42-.49-.51-1.26-.74-1.9.62-.15,1.29-.52,1.86-.4,3.63.73,6.21,3.81,7.03,8.35.27,1.51.32,2.87-.75,4.05-.76.85-1.61,1.62-2.72,2.71h.01Z"/>
  <path class="cls-1" d="m483.87,226.36c4.14-3.89,8.29-7.32,11.75-11.53,3.61-4.38,5.93-9.51,9.27-14.09,1.03,6.05-15.13,26.1-21.02,25.62Z"/>
  <path class="cls-1" d="m483.66,138.98c-4.84,2.43-9.93,4.21-15.26,5.39,3.57,1.06,7.02-.3,10.71-.37-1.47,1.5-3.26,2.22-5.1,2.5-1.97.29-4,.15-6,.16-1.02,0-1.41-.58-1.33-1.59.07-.77-.05-1.55.03-2.31.03-.28.39-.67.67-.74,4.73-1.2,9.48-2.37,14.23-3.51.63-.15,1.31-.1,1.97-.14.03.21.06.41.09.62h-.01Z"/>
  <path class="cls-1" d="m526.42,154.25c-.13,2.29-.17,4.6-.42,6.88-.58,5.37-3.42,9.91-5.65,14.66-.29.62-.91,1.09-1.38,1.63.1.13.2.27.3.4-.39.11-.79.21-1.19.33-.04-.21-.1-.32-.06-.4.73-1.55,1.59-3.05,2.19-4.65.95-2.55,1.87-5.13,2.53-7.77.61-2.43.83-4.95,1.25-7.43.15-.9.31-1.82.62-2.67.17-.47.69-.81,1.05-1.21.25.08.51.16.76.24h0Z"/>
  <path class="cls-1" d="m374.72,54.14c1.18,3.55.36,7.12.42,10.66.06,3.74-.48,7.5-.84,11.24-.36,3.68-.3,7.43-1.4,11.02-.5-11.05.58-22,1.83-32.92h-.01Z"/>
  <path class="cls-1" d="m483.15,50.37c.62.45,1.23.91,1.87,1.33.68.44,1.46.74,2.07,1.26,2.08,1.75,4.11,3.55,6.13,5.36,3.44,3.09,6.17,6.78,8.82,10.53.22.31.49.63.53.98.03.29-.23.61-.37.92-.29-.13-.7-.19-.86-.41-2.73-3.85-5.82-7.38-9.29-10.59-.72-.66-1.22-1.56-1.95-2.21-.74-.66-1.72-1.05-2.47-1.7-1.74-1.51-3.41-3.11-5.12-4.67l.62-.8h.02Z"/>
  <path class="cls-1" d="m284.43,196.7c-1.24.49-1.67-.24-1.82-1.19-.93-5.9.09-11.4,3.63-16.29.44-.6,1.3-.9,1.96-1.34-.13.73-.13,1.52-.41,2.2-1.88,4.57-3.13,9.26-2.97,14.27.02.74-.24,1.48-.39,2.35h0Z"/>
  <path class="cls-1" d="m379.52,60.9c.32.42.89.82.93,1.26.18,2.13.2,4.28.31,6.41.08,1.46.29,2.91.34,4.37.13,3.9.3,7.81.24,11.71-.01,1.02-.79,2.04-1.22,3.05-.13-.04-.26-.08-.39-.11-.25-8.79-.49-17.58-.74-26.37.17-.11.35-.22.52-.33h.01Z"/>
  <path class="cls-1" d="m512.39,87.2c3.05,2.6,7.65,15.47,6.35,18.14-1.3-3.19-2.49-6.12-3.69-9.06-1.18,1-2.17,1.85-3.39,2.89-.64-1.64.62-2.36,1.26-3.08,1.49-1.67,1.65-2.15.63-4.19-.49-.98-1-1.96-1.35-2.99-.15-.44.11-1.01.2-1.71h-.01Z"/>
  <path class="cls-1" d="m415.39,268.59c3.88-2.26,14.53-.65,17.8,4.08-.5.1-1.03.38-1.32.23-4.94-2.56-10.34-3.24-15.75-3.94-.19-.02-.36-.18-.72-.37h0Z"/>
  <path class="cls-1" d="m297.02,132.62c1.93,3.1,3.66,6.07,5.59,8.91.82,1.21,2.08,2.1,3.05,3.22.71.82.44,1.88-.4,1.84-.71-.04-1.63-.2-2.07-.67-3.28-3.5-5.57-7.53-6.25-12.35-.04-.25.04-.51.08-.94h0Z"/>
  <path class="cls-1" d="m370.28,154.71c.1,1.98.47,4,.25,5.94-.33,2.96-.58,6.02-2.5,8.53-.32.42-1,.9-1.42.82-1.01-.18-1.2-.9-.76-1.89,1.1-2.51,2.45-4.99,3.02-7.62.24-1.11.84-2.4.46-3.74-.17-.61.17-1.37.28-2.06.23,0,.46,0,.69.02h-.02Z"/>
  <path class="cls-1" d="m443.56,206.64c-1.62-.7-1.24-1.98-1.29-3.02-.06-1.13.14-2.27.18-3.41.08-2.07,1.04-3.78,2.06-5.51.8-1.36,1.36-2.87,2.13-4.56.12.7.41,1.37.29,1.95-.89,4.29-1.86,8.56-2.82,12.83-.13.56-.35,1.09-.55,1.71h0Z"/>
  <path class="cls-1" d="m407.59,77.72c-1,4.78-1.99,9.56-3.02,14.34-.2.93-.41,1.88-.81,2.73-.19.41-.82.62-1.24.92-.22-.49-.71-1.04-.62-1.47.39-1.78.96-3.51,1.45-5.27.69-2.52,1.33-5.05,2.07-7.55.4-1.34.96-2.63,1.45-3.94.24.08.48.16.71.24h0Z"/>
  <path class="cls-1" d="m449.73,78.32c.59-3.12,1.23-6.24,1.74-9.38.26-1.6.3-3.23.46-4.85.05-.47.04-1,.27-1.38.18-.29.68-.49,1.05-.51.16,0,.54.55.5.82-.45,3.7-.91,7.4-1.46,11.09-.17,1.13-.57,2.24-1.03,3.29-.22.5-.85.81-1.29,1.21-.08-.1-.16-.2-.24-.3h0Z"/>
  <path class="cls-1" d="m451.93,93.77c-1.32,2.21-2.62,4.43-3.98,6.62-.93,1.49-1.94,2.92-2.93,4.36-.21.3-.44.65-.75.78-.51.22-1.08.29-1.63.43.07-.53-.01-1.17.25-1.58,1.22-1.89,2.53-3.71,3.82-5.55,1.05-1.48,2.08-2.98,3.2-4.4.39-.5,1.03-.81,1.56-1.21.15.18.3.37.46.55Z"/>
  <path class="cls-1" d="m475.71,138.18c5.21-3.19,10.42-6.39,15.64-9.58.13.07.27.14.4.21-.38.55-.66,1.23-1.16,1.62-1.75,1.34-3.52,2.68-5.39,3.84-2.41,1.49-4.89,2.86-7.41,4.17-.59.31-1.43.13-2.15.18.02-.15.05-.3.07-.45h0Z"/>
  <path class="cls-1" d="m333.95,31.27c.18,1.78.54,3.56.51,5.34-.06,2.98-.35,5.96-.64,8.92-.04.44-.62.84-.95,1.25-.28-.49-.83-.99-.81-1.47.14-2.83.37-5.65.63-8.47.17-1.86.44-3.7.66-5.56.2,0,.39-.01.59-.02h.01Z"/>
  <path class="cls-1" d="m384.68,158.15c.03.38.14.77.08,1.13-.7,3.97-2.56,7.42-4.96,10.58-.33.44-1.28.42-1.94.61.06-.68-.12-1.53.21-2.03,1.34-2.01,2.97-3.83,4.23-5.88.83-1.35,1.21-2.98,1.79-4.49l.58.07h.01Z"/>
  <path class="cls-1" d="m443.03,260.9c-.69-.26-1.17-.28-1.34-.53-.97-1.4-1.98-2.8-2.76-4.31-1.05-2.03-2.03-4.12-2.81-6.26-.95-2.58-1.67-5.25-2.34-7.9,3.02,6.2,6.05,12.41,9.26,19h-.01Z"/>
  <path class="cls-1" d="m380.77,22.79c-.59-3.86-1.21-7.72-1.75-11.59-.05-.38.5-1.21.64-1.18.61.12,1.52.37,1.67.79.37,1.1.5,2.31.53,3.48.06,2.18.05,4.37-.06,6.56-.03.7-.46,1.38-.7,2.07-.11-.04-.22-.08-.34-.12h0Z"/>
  <path class="cls-1" d="m355,77.05c-2.13-7.48-2.48-14.26-.99-15.86.23.9.54,1.65.59,2.42.23,3.56.37,7.13.57,10.7.04.66.24,1.31.26,1.97,0,.25-.28.51-.43.76h0Z"/>
  <path class="cls-1" d="m360.17,169.61c-.74-.48-1.21-.77-1.41-.9,1.31-4.25,2.61-8.44,3.9-12.63.65,4.77-.35,9.17-2.49,13.52h0Z"/>
  <path class="cls-1" d="m335.59,27.51c.26,2.15.53,4.29.78,6.44.31,2.73.64,5.47.88,8.21.05.54-.3,1.11-.83,1.62-1.69-5.35-.72-10.84-1.61-16.19l.78-.08h0Z"/>
  <path class="cls-1" d="m346.53,69.83c.75,4.61,1.51,9.22,2.29,14-.45.45-.91.49-1.17-.55-.64-2.64-1.38-5.26-1.93-7.91-.29-1.39-.32-2.85-.33-4.28,0-.44.45-.89.7-1.33.15.02.29.04.44.07h0Z"/>
  <path class="cls-1" d="m467.89,205.68c1.56-.63,2.29-.18,3.18.89.88,1.06,2.36,1.6,3.53,2.44.43.31.71.83,1.06,1.25-.57.22-1.14.62-1.71.61-2.32,0-4.05-1.36-5.54-2.93-.47-.5-.37-1.54-.52-2.27h0Z"/>
  <path class="cls-1" d="m320.63,182.21c-3.68-1.42-5.39-4.39-7.49-6.91-.29-.35.04-1.22.08-1.85.6.27,1.36.4,1.76.85,1.81,2.07,3.54,4.21,5.24,6.37.25.32.24.85.41,1.54h0Z"/>
  <path class="cls-1" d="m509.09,157.53c2.79.28,4.9.48,7.01.72.24.03.46.28.69.43-.16.24-.26.56-.48.71-1.82,1.29-3.87,1.03-5.9.76-.26-.03-.53-.11-.75-.25-.64-.43-1.25-.89-1.87-1.34.55-.45,1.11-.89,1.29-1.04h0Z"/>
  <path class="cls-1" d="m303.35,177.49c2.82,2.56,5.64,5.13,8.45,7.68-2.6,1.08-8.58-3.88-8.45-7.68Z"/>
  <path class="cls-1" d="m321.51,206.57c-.97-1.14-1.9-2.32-2.92-3.41-1.25-1.33-2.61-2.56-3.83-3.92-.31-.34-.24-1.02-.34-1.55.49-.03,1.18-.29,1.44-.05.97.86,1.91,1.79,2.66,2.84,1.12,1.58,2.08,3.28,3.08,4.95.15.25.16.6.24.9-.11.08-.22.16-.33.25h0Z"/>
  <path class="cls-1" d="m290.81,144c.32.6.58,1.26.98,1.8.48.63,1.08,1.17,1.63,1.74,1.43,1.47,2.93,2.88,4.27,4.43.39.45.67,1.66.43,1.86-.74.65-1.27.04-1.8-.67-1.37-1.84-2.95-3.51-4.27-5.38-.73-1.03-1.11-2.3-1.64-3.46.13-.11.26-.21.39-.32h0Z"/>
  <path class="cls-1" d="m399.84,248.65c-2.82-2.04-1.91-8.15,1.16-9.79-.39,3.29-.75,6.34-1.16,9.79Z"/>
  <path class="cls-1" d="m504.37,72.59c-2.19,1.44-4.21,2.79-6.26,4.1-.9.57-1.75,1.5-3.42.77,2.06-1.56,3.83-2.89,5.59-4.23.47-.36.98-.69,1.4-1.1,1.8-1.78,1.92-1.76,2.69.46h0Z"/>
  <path class="cls-1" d="m300.26,200.38c-1.33,1.23-2.34,1.2-4.29-.25-1.41-1.04-2.69-2.24-3.99-3.43-.17-.16-.08-.61-.11-1.03,3.82-.19,5.17,3.7,8.39,4.71h0Z"/>
  <path class="cls-1" d="m407.84,173.88c-.66-.8-.71-1.23.27-1.84,1.44-.9,2.62-2.22,3.94-3.31,1.09-.9,2.23-1.74,3.45-2.5-1.63,3.47-3.91,6.28-7.66,7.65Z"/>
  <path class="cls-1" d="m306.01,131.12c1.63,2.1,3.26,4.2,4.89,6.31.51.66,1.07,1.3,1.5,2,.2.32.15.8.21,1.2-.53.05-1.41.32-1.55.11-1.51-2.32-2.93-4.7-4.32-7.1-.42-.73-.7-1.55-1.04-2.33.1-.07.2-.13.31-.2h0Z"/>
  <path class="cls-1" d="m446.66,145.15c-.83,1.09-1.56,2.26-2.5,3.23-.96.98-2.07,1.84-3.22,2.6-.39.26-1.08.06-1.63.08.13-.56.14-1.19.43-1.64.28-.43.88-.64,1.3-.99,1.34-1.1,2.66-2.24,4.01-3.33.3-.24.71-.33,1.07-.49.18.18.36.36.54.54h0Z"/>
  <path class="cls-1" d="m402.4,75.94c-.8,4.56-1.6,9.12-2.4,13.68-.23,0-.46.02-.7.03-.11-.73-.4-1.5-.3-2.2.31-2.06.58-4.17,1.24-6.13.61-1.81.87-3.75,2.16-5.38Z"/>
  <path class="cls-1" d="m451.31,147.21c-.61,1.38-1.11,2.84-1.88,4.13-.76,1.26-1.72,2.43-2.74,3.49-.44.45-1.6.93-1.84.73-.78-.68.18-1,.57-1.51,1.6-2.1,3.08-4.3,4.63-6.44.2-.27.55-.43.83-.64.14.08.29.16.43.25h0Z"/>
  <path class="cls-1" d="m363.02,118.4c.07.91.09,1.66.2,2.39.22,1.5.53,2.99.74,4.49.06.43-.09.89-.14,1.34-.37-.06-.75-.19-1.11-.15-.3.03-.58.24-1.28.56v-5.36h1.36c-1.54-1.21-1.51-1.45.24-3.27h0Z"/>
  <path class="cls-1" d="m341.03,15.44c-2.97.95-5.87,1.91-8.79,2.79-.41.13-.92-.06-1.38-.1.11-.4.12-1.07.36-1.17,3.16-1.35,6.39-2.44,9.81-1.52h0Z"/>
  <path class="cls-1" d="m386.39,299.84c.36-.74.44-1.34.77-1.52,2.7-1.52,5.45-2.96,8.29-4.25-2.32,2.74-5.05,4.83-9.06,5.77Z"/>
  <path class="cls-1" d="m313.26,212.32c-1.57-1.69-3.18-3.35-4.67-5.11-.25-.3-.02-1.01-.02-1.53.44.17,1.03.22,1.3.54,1.34,1.58,2.62,3.22,3.86,4.88.16.22-.01.69-.03,1.05-.15.06-.3.11-.45.17h.01Z"/>
  <path class="cls-1" d="m516.63,134.51c2.64-1.56,5.27-3.13,8-4.75.74.87.53,1.84-.58,2.31-1.46.63-2.69,1.77-4.47,1.8-.88.02-1.74.81-2.61,1.25l-.35-.61h0Z"/>
  <path class="cls-1" d="m457.43,87.01c-1.56-1-1.65-1.75-.69-2.9,1.12-1.35,2.22-2.72,3.38-4.03.22-.25.67-.3,1.01-.44-.11.28-.2.57-.34.84-1.09,2.14-2.19,4.27-3.35,6.53h-.01Z"/>
  <path class="cls-1" d="m429.02,200.38c-.11,1.44-.19,2.87-.34,4.3-.07.65-.39,1.3-.37,1.94.05,1.63-.82,1.76-2.36,1.41.74-2.64,1.47-5.23,2.19-7.82.29.06.58.11.88.17h0Z"/>
  <path class="cls-1" d="m453.3,212.32c-1.94.37-3.51-.08-4.9-1.1-.55-.4-1.06-.96-1.37-1.56-.16-.31.06-.92.29-1.27.12-.17.78-.21.99-.05,1.64,1.25,3.24,2.57,4.98,3.98h0Z"/>
  <path class="cls-1" d="m300.87,185.89c2.64,1.65,5.21,3.25,7.77,4.89.12.08.02.49.02.76-3.67-.54-7.63-3.37-7.78-5.65h0Z"/>
  <path class="cls-1" d="m517.18,125.76c-.26-.23-.52-.38-.64-.6-.06-.12.05-.45.18-.54,1.42-1.01,2.96-1.87,4.23-3.03.56-.51,1.83.04,1.76-1.24.24.06.7.12.7.17,0,.39.04.95-.2,1.15-1.22,1.04-2.48,2.02-3.79,2.94-.66.46-1.43.75-2.26,1.16h.02Z"/>
  <path class="cls-1" d="m351.03,126.01c.71-.16,1.05-.24,1.4-.32.22.53.43,1.12.7,1.66.5.99,1.23,2-.64,2.49-.08-.88-1.81-1.62-.13-2.68-1.52-1.03-2.29-3.69-1.37-4.33-.29-.8-.58-1.59-.94-2.59,1.79.59,2.43,4.26.98,5.76h0Z"/>
  <path class="cls-1" d="m400.91,166.09c-.78,2.36-1.75,4.62-3.99,6.04-.24.16-.8.16-.98,0-.22-.2-.37-.83-.23-.99,1.58-1.81,3.23-3.56,4.86-5.33.12.1.23.2.35.29h0Z"/>
  <path class="cls-1" d="m514.37,152.41c-2.02.2-4.04.45-6.07.54-.35.02-.77-.63-1.05-1.04-.05-.07.44-.74.68-.73,2.14.02,4.29.14,6.43.22v1.01h.01Z"/>
  <path class="cls-1" d="m456.59,237.64c-2.58.53-5.61-2.93-4.94-6.05,1.71,2.1,3.34,4.09,4.94,6.05Z"/>
  <path class="cls-1" d="m456.53,160.95c-.25,2.02-3.27,4.9-4.58,4.86-.28,0-.71-.21-.79-.43-.11-.29-.06-.86.14-1,1.61-1.12,3.27-2.16,5.24-3.43h-.01Z"/>
  <path class="cls-1" d="m302.6,136.75c1.85,2.15,3.71,4.3,5.66,6.56-1.81.36-5.47-3.71-5.66-6.56Z"/>
  <path class="cls-1" d="m456.93,196.72c-.77.44-1.25.95-1.63.88-1.34-.25-2.68-.61-3.95-1.13-.38-.15-.48-.96-.71-1.47.42-.14.92-.51,1.25-.39,1.53.56,3.02,1.25,5.04,2.11Z"/>
  <path class="cls-1" d="m362.34,83.42c-.3-.66-.82-1.29-.87-1.97-.16-2.07-.15-4.15-.18-6.22,0-.23.18-.46.47-.69.93,2.83,1.11,5.73.58,8.88Z"/>
  <path class="cls-1" d="m468.66,92.72c-.74,2.16-1.56,4.27-4.02,5.29-.35-2.14.59-3.43,2.47-3.98.49-.14.77-1.01,1.14-1.55.14.08.28.16.42.24h-.01Z"/>
  <path class="cls-1" d="m410.67,207.75c.96-2.78,1.92-5.56,2.89-8.34.26.09.51.17.77.26-.78,2.84-1.18,5.8-3.03,8.29l-.63-.21h0Z"/>
  <path class="cls-1" d="m290.31,151.53c1.36.46,2.52.79,3.63,1.25.39.16.97.7.91.9-.15.5-.66,1.32-.94,1.28-.84-.1-1.87-.34-2.39-.92-.58-.65-1.86-1.23-1.15-2.55.04-.07.16-.11-.06.03h0Z"/>
  <path class="cls-1" d="m286.82,153.58c1.52,1.6,2.92,3.08,4.33,4.56-.01.15-.03.3-.04.45-.61,0-1.32.2-1.8-.04-1.52-.76-2.97-3.64-2.5-4.97h.01Z"/>
  <path class="cls-1" d="m434.05,144.51c1.86-.87,3.19-2.73,5.68-2.98-1.43,3.13-4.3,4.55-5.68,2.98Z"/>
  <path class="cls-1" d="m519.83,138.51c.5,2.09-.39,2.78-6.27,4.73,2.05-1.55,4.1-3.09,6.27-4.73Z"/>
  <path class="cls-1" d="m407.79,192.16c.12,1.92-.16,3.79-.95,5.6-1.72-.86-1.49-2.78.95-5.6Z"/>
  <path class="cls-1" d="m269.22,162.1c-1.65-.96-3.31-1.89-4.93-2.9-.21-.13-.19-.65-.28-.98.37-.08.76-.28,1.09-.21.32.07.56.45.86.66.89.62,1.81,1.2,2.68,1.84.4.29.72.7,1.07,1.05-.17.18-.33.36-.5.54h.01Z"/>
  <path class="cls-1" d="m276.99,47.82c.67,1.62,1.22,2.88,1.69,4.17.13.34.02.78.01,1.17-.4-.15-1.03-.2-1.16-.48-.62-1.28-1.14-2.6-1.57-3.95-.06-.18.67-.6,1.03-.9h0Z"/>
  <path class="cls-1" d="m455.65,42.74v-6.85c1.88.05,1.95,2.16,0,6.85Z"/>
  <path class="cls-1" d="m474.5,51.11c.25-1.54.47-3.16.79-4.76.07-.37.47-.68.72-1.02.31.28.76.5.91.85.44,1.03-1.45,4.59-2.42,4.94h0Z"/>
  <path class="cls-1" d="m404.5,167.2c-.89,1.24-1.71,2.54-2.69,3.7-.68.81-1.31.39-1.84-.57,1.32-1.2,2.67-2.42,4.02-3.65.17.17.34.34.51.51h0Z"/>
  <path class="cls-1" d="m516.5,115.54c1.21-1.72,4.83-3.48,6.68-2.73-2.3,1.13-4.24,2.1-6.19,3.02-.09.04-.33-.22-.5-.35v.05s.01.01.01.01Z"/>
  <path class="cls-1" d="m315.28,208.16c-1.45-1.66-2.9-3.33-4.37-5.01,1.43-.96,2.13-.21,4.37,5.01Z"/>
  <path class="cls-1" d="m473.02,204.99c-1.28-.56-2.59-1.06-3.82-1.71-.38-.2-.69-.79-.76-1.24-.03-.24.77-.84.81-.8,1.37,1.09,2.69,2.23,4.02,3.37-.09.13-.17.25-.26.38h.01Z"/>
  <path class="cls-1" d="m297.78,144.27c1.25,1.37,2.5,2.75,3.74,4.11-1.15,1.28-1.93.74-2.42-.11-.67-1.16-1.15-2.43-1.72-3.66.13-.11.26-.22.4-.33h0Z"/>
  <path class="cls-1" d="m449.61,158.11c1.69-1.04,3.38-2.08,5.44-3.35.05.53.26,1.24.1,1.34-1.68.99-3.41,1.88-5.13,2.8-.14-.26-.28-.52-.42-.79h.01Z"/>
  <path class="cls-1" d="m465.73,220.07c-.2.37-.31.89-.63,1.1-1.6,1.04-2.78.89-4.45-.51,1.3-1.81,3.31.33,4.65-.85.14.09.29.18.43.26h0Z"/>
  <path class="cls-1" d="m336.8,257.66c.37,1.47.8,2.92,1.08,4.41.07.37-.35.83-.54,1.24-.29-.29-.79-.56-.83-.88-.19-1.55-.25-3.12-.36-4.68.22-.03.43-.06.65-.09Z"/>
  <path class="cls-1" d="m409.89,202.69c-.45-.46-1.22-.92-1.18-1.26.15-1.06.49-2.14,1-3.08.25-.46,1.04-.61,1.96-1.1-.65,1.99-1.17,3.57-1.78,5.44Z"/>
  <path class="cls-1" d="m471.42,148.46c1.63.13,3.15.25,5,.4-.84,1.85-2.39,1.11-3.45,1.28-.72.12-2.19.08-1.55-1.68Z"/>
  <path class="cls-1" d="m430.96,211.88c.35-1.63-.28-3.48,1.25-4.51.21.06.41.11.62.17-.13,1.34-.25,2.68-.4,4.17-.35.04-.86.1-1.48.18h.01Z"/>
  <path class="cls-1" d="m347.7,20.93c-.91-1.86-1.72-3.44-2.43-5.06-.15-.34.05-.83.09-1.25.39.24,1,.41,1.12.75.58,1.6,1.03,3.24,1.5,4.88.04.14-.13.34-.27.69h-.01Z"/>
  <path class="cls-1" d="m378.15,158.37c-.84,3.48-1.54,4.6-3.12,4.57.69-1.18,1.31-2.23,1.92-3.3.07-.12.04-.29.04-.44,0-.33.01-.65.02-.98.37.05.75.09,1.14.14h0Z"/>
  <path class="cls-1" d="m373.25,165.69c-.31,1.16-.57,2.34-.96,3.48-.11.32-.56.62-.92.73-.18.05-.66-.31-.7-.54-.06-.36.05-.81.24-1.13.55-.95,1.18-1.86,1.78-2.78l.57.24h0Z"/>
  <path class="cls-1" d="m450.12,27.84c1.46.95,2.88,1.88,4.29,2.8-.01.18-.02.36-.03.54-.42.02-.94.22-1.25.05-2.68-1.46-3.38-2.23-3.01-3.38h0Z"/>
  <path class="cls-1" d="m470.58,214.3c-2.01.15-2.79-1.05-3.65-2.07-.14-.17,0-.71.19-.97.09-.13.68-.1.83.05.85.88,1.64,1.83,2.64,2.98h-.01Z"/>
  <path class="cls-1" d="m328.02,272.79c-.13-1.08-.34-1.95-.31-2.82.01-.37.5-.71.78-1.07.3.31.79.58.85.93.22,1.16.35,2.37-1.32,2.96h0Z"/>
  <path class="cls-1" d="m503.64,84.56c.09-.38.05-.9.29-1.11.74-.67,1.56-1.27,2.4-1.8.26-.17.71-.04,1.07-.04-.12.37-.14.91-.39,1.06-.68.42-1.48.62-2.19,1-.4.21-.7.61-1.04.92l-.15-.03h.01Z"/>
  <path class="cls-1" d="m466.38,44.9c.09-.95.09-1.83.29-2.66.1-.44.5-.86.86-1.18.13-.12.79.07.79.14.03.44.02.91-.12,1.32-.34.99-.5,2.16-1.81,2.38h-.01Z"/>
  <path class="cls-1" d="m264.66,166.02c-2.67-.25-4.01-2.04-2.87-3.43.97,1.16,1.92,2.3,2.87,3.43Z"/>
  <path class="cls-1" d="m379.15,56.23c1.74.94.73,2.66,1.11,3.99.03.11-.44.51-.5.47-.29-.16-.72-.44-.72-.67,0-1.24.11-2.49.18-3.73l-.06-.05h0Z"/>
  <path class="cls-1" d="m515.52,107.1c-.31,1.4-2,2.55-2.85,2.13-.23-.11-.5-.52-.46-.74.06-.32.32-.77.6-.85.82-.25,1.69-.35,2.72-.54h0Z"/>
  <path class="cls-1" d="m450.51,203.66c-.82,1.57-1.36,1.59-3.07.16.78-1.34,1.17-1.38,3.07-.16Z"/>
  <path class="cls-1" d="m363.9,141.43c-1.44-.54-.63-1.83-.83-2.76-.05-.21.64-.59.99-.88.16.06.32.13.48.19,0,1.12,0,2.25-.03,3.37,0,.03-.39.06-.6.09h-.01Z"/>
  <path class="cls-1" d="m331.15,264c1.05,1.43,1.44,2.77.86,4.36-1.23-.58-1.59-2.26-.86-4.36Z"/>
  <path class="cls-1" d="m379.88,143.42c-.57-3.05-.63-4.72-.17-5.03.91,1.66.98,3.55.17,5.03Z"/>
  <path class="cls-1" d="m412.11,58.72c-1.06-1.33-1.12-3.67-.27-4.69.1-.11.28-.15.42-.23.09.25.27.5.25.74-.1,1.32-.25,2.63-.4,4.17h0Z"/>
  <path class="cls-1" d="m477.13,198.85h-4.61c0-.26.01-.53.02-.79,1.58-.67,3.11.22,4.6.79h-.01Z"/>
  <path class="cls-1" d="m281.13,48.48c-.63-1.14-1.31-2.25-1.84-3.43-.11-.25.36-.77.74-1.52.54,1.87.96,3.33,1.38,4.79l-.28.16Z"/>
  <path class="cls-1" d="m399.44,19.42c-1.02-1.21-.95-3.13.62-4-.25,1.55-.46,2.79-.66,4.03l.05-.04h0Z"/>
  <path class="cls-1" d="m412.08,193.62c1.5,1.38-.6,2.17-.53,3.3-1.05-1.23-.46-2.26.53-3.3Z"/>
  <path class="cls-1" d="m273.26,179.47c.9.46,1.81.89,2.69,1.4.12.07.16.63.06.69-.24.15-.67.29-.86.17-.79-.49-1.51-1.08-2.26-1.63.13-.21.25-.42.38-.63h-.01Z"/>
  <path class="cls-1" d="m339.89,256.61c.25.8.56,1.59.71,2.4.05.24-.32.56-.5.85-.21-.23-.57-.44-.62-.7-.14-.77-.16-1.56-.22-2.34.21-.07.42-.14.62-.21h.01Z"/>
  <path class="cls-1" d="m508.22,89.19c.88-.38,1.64-.71,2.39-1.03-.13.49-.14,1.04-.4,1.44-.54.84-1.18.75-1.99-.41h0Z"/>
  <path class="cls-1" d="m379.21,56.29c-.2-1.1-.4-2.19-.6-3.29.25-.06.5-.12.74-.18.19.91.44,1.81.54,2.72.02.2-.48.46-.74.7l.06.05Z"/>
  <path class="cls-1" d="m407.34,96.15c-.5,1.17-1,2.34-1.52,3.57-.75-.64-.72-.61.11-1.83.39-.58.61-1.28.91-1.93.17.06.33.12.5.19Z"/>
  <path class="cls-1" d="m516.5,115.54s0-.05-.01-.05c-.59,1.44-1.59,1.66-3.02.66.76-.33,1.52-.7,2.31-.96.18-.06.48.22.72.35h0Z"/>
  <path class="cls-1" d="m456.14,168.69c-1.19.32-2.26.61-3.44.92.33-1.4,2.2-1.81,3.44-.92Z"/>
  <path class="cls-1" d="m445.42,94.25c.41-1.06.83-2.12,1.33-3.4.69,1.64-.2,3.4-1.39,3.34l.06.06h0Z"/>
  <path class="cls-1" d="m406.42,47.89c.16,0,.45.02.45.04.02,1.59.02,3.18.02,4.76h-.42v-4.83l-.05.02h0Z"/>
  <path class="cls-1" d="m406.47,47.87c.24-1.16-1.19-2.34.02-3.53.9,1.15.85,2.76-.07,3.55l.05-.02h0Z"/>
  <path class="cls-1" d="m368.75,140.3c-.32-.16-.54-.26-.76-.37.2-.23.39-.46.85-.99.2,1.5.34,2.59.5,3.78-1.37-.55-1.49-1.17-.59-2.42Z"/>
  <path class="cls-1" d="m445.42,94.25l-.06-.06c-.39.89-.77,1.79-1.16,2.68-.13-.06-.26-.12-.4-.19.28-1.55.82-2.37,1.61-2.44h.01Z"/>
  <path class="cls-1" d="m363.9,141.43h.01c.09.99,1.3,1.87.17,2.97.05-1-1.85-1.81-.18-2.97h0Z"/>
  <path class="cls-1" d="m503.64,84.56l.15.03c-.71.53-1.42,1.06-2.13,1.6.14-1.86.63-2.12,1.98-1.63Z"/>
  <path class="cls-1" d="m394.87,15.93c.46.05,1.2.05,1.21.14.09.78.05,1.58.05,2.38-.22.02-.44.04-.65.06-.18-.78-.37-1.56-.61-2.58Z"/>
  <path class="cls-1" d="m485.03,64.59c.23-.65.44-1.31.73-1.94.03-.07.54.07.83.12-.25.7-.51,1.4-.76,2.1l-.79-.28h0Z"/>
  <path class="cls-1" d="m296.93,107.16c-.3-.6-.66-1.18-.87-1.81-.09-.28.14-.66.23-1,.28.23.75.41.81.69.17.67.15,1.39.2,2.09-.13,0-.25.02-.38.03h0Z"/>
  <path class="cls-1" d="m405.22,185.51c-.47,1.14-.95,2.29-1.42,3.43l-.57-.24c.5-1.09,1-2.18,1.5-3.28.16.03.33.06.49.09h0Z"/>
  <path class="cls-1" d="m442.59,98.18c-.58.68-1.15,1.36-1.73,2.04-.16-.13-.32-.26-.48-.39l1.58-2.16c.21.17.42.34.63.51h0Z"/>
  <path class="cls-1" d="m281.94,232.14c.28.84.71,1.66.79,2.51.13,1.41.04,2.84-.19,4.3-.44-1.69-.98-3.36-1.27-5.08-.09-.54.47-1.18.74-1.78l-.06.05h-.01Z"/>
</svg>