<?xml version="1.0" encoding="UTF-8"?>
<svg id="Layer_1" data-name="Layer 1" xmlns="http://www.w3.org/2000/svg" viewBox="0 0 583.4 547.53">
  <defs>
    <style>
      .cls-1 {
        fill: #d34327;
        stroke-width: 0px;
      }
    </style>
  </defs>
  <path class="cls-1" d="m449.19,536.02c.69,1.78,1.38,3.56,2.1,5.4-2.02,1.64-4.16,1.74-6.18,1.47-3.6-.49-7.14-1.5-10.75-1.94-4.43-.54-8.91-1.07-13.36-.97-9.1.21-18.19.81-27.29,1.31-7.4.4-14.8.85-22.19,1.34-3.19.21-6.4.45-9.56.92-11.35,1.7-22.55,4.07-34.18,3.96-13.93-.12-27.67-1.2-41.31-3.98-9.94-2.03-20.06-1.95-30.14-2.13-10.8-.19-21.59-.32-32.39-.42-3.92-.04-7.85,0-11.77.17-12.14.51-23.05-3.68-33.85-8.51-5.56-2.49-10.5-5.85-15.33-9.48-1.56-1.17-3.36-2.05-5.12-2.92-5.66-2.77-11.4-5.41-17.03-8.24-1.97-.99-3.83-2.27-5.58-3.63-5.32-4.12-10.5-8.43-15.86-12.5-1.99-1.51-4.25-2.72-6.51-3.82-7.56-3.66-15.14-7.28-22.78-10.76-4-1.82-7.47-4.3-10.9-7.04-6.25-4.99-11.95-10.55-17.83-15.93-7.01-6.41-12.65-13.91-16.6-22.54-3.49-7.63-6.6-15.43-9.89-23.15-1.26-2.96-2.31-6.05-3.84-8.86-7.91-14.49-13.57-29.79-17.16-45.9-.94-4.22-2.49-8.32-3.94-12.42-1.88-5.3-3.53-10.6-4.09-16.28-.38-3.87-1.38-7.74-2.57-11.46-1.57-4.91-1.7-9.93-1.94-14.97-.22-4.49-.22-8.98-.41-13.47-.15-3.5-.42-7-.67-10.5-.72-10.14.2-20.15,1.93-30.15,1.05-6.06,1.46-12.23,2.17-18.34.92-7.94,1.93-15.88,2.75-23.83.37-3.6.34-7.25.55-10.87.69-11.64,3.49-22.72,8.98-33.06.46-.86.91-1.74,1.48-2.52,3.39-4.64,6.55-9.5,10.33-13.8,2.83-3.22,6.48-5.72,9.8-8.5.75-.62,1.67-1.03,2.45-1.62,5.11-3.92,10-8.16,15.35-11.72,4.86-3.24,9.98-6.33,15.4-8.41,7.3-2.8,14.88-5.08,22.54-6.66,11.23-2.32,22.6-3.9,34.16-4.04,11.04-.13,21.75,1.9,32.52,3.73,6.35,1.08,12.62,2.15,19.15,1.89,5.57-.22,11.19.65,16.79.96,2.8.16,5.61.1,8.42.22,2.23.1,3.78-.84,4.73-2.82,1.93-4.03,4.01-8.01,5.72-12.13,1.09-2.64,2.85-4.5,5.19-5.83,3.83-2.18,6.79-5.16,9.71-8.47,4.25-4.82,9.33-8.89,13.98-13.37,10.07-9.7,22.4-16.25,33.73-24.19,2.03-1.42,4.47-2.26,6.78-3.24,4.28-1.82,8.4-3.91,11.65-7.31,3.56-3.73,7.88-6.23,12.45-8.46,7.56-3.68,14.95-7.75,22.63-11.14,9.59-4.24,19.08-9.12,29.55-10.68,10.92-1.62,21.77-3.9,32.9-4.21,6.87-.19,13.71-.6,20.52.48,1.92.3,3.79.93,5.66,1.5,2.8.85,5.55,1.9,8.37,2.66,10.55,2.84,20.97,5.86,30.36,11.84,7.43,4.73,15.36,8.7,22.9,13.26,6.85,4.14,13.18,8.99,18.41,15.16,9.24,10.9,18.66,21.65,27.67,32.74,3.31,4.08,5.85,8.84,8.42,13.47,5.05,9.14,9.72,18.5,14.87,27.59,2.33,4.12,5.35,7.86,8.19,11.68,4.17,5.6,6.27,12.18,8.83,18.51,4.32,10.69,5.78,22.11,7.92,33.36.57,3.02,1.65,5.94,2.18,8.96,1.31,7.45,2.38,14.95,3.65,22.41,2.54,14.95,1.18,29.91-.28,44.79-.61,6.27-1.53,12.49-1.7,18.81-.1,3.47-1.08,6.9-1.56,10.36-.4,2.9-.63,5.83-.94,8.74-.39,3.61-.72,7.23-1.2,10.84-.43,3.24-1.66,6.16-3.46,8.95-1.97,3.06-3.54,6.37-5.25,9.59-.31.59-.68,1.3-.62,1.91.3,3.21.45,6.47,1.15,9.6,1.55,6.89.23,13.34-2.28,19.71-.55,1.41-.88,2.91-1.28,4.38-.99,3.64-1.74,7.37-3,10.91-2.33,6.61-4.99,13.1-7.45,19.67-2.33,6.22-5.81,11.81-9.15,17.5-1.7,2.89-3,6.03-4.29,9.13-3.48,8.39-9.11,14.94-16.31,20.42-6.25,4.76-11.94,10.15-15.7,17.3-1.56,2.97-3.37,5.87-5.41,8.54-6.95,9.11-11.96,19.26-16.32,29.78-1.45,3.5-3,6.96-4.31,10.51-2,5.41-5.77,9.57-9.4,13.84-2.9,3.41-5.81,6.83-8.87,10.1-2.96,3.17-6.05,6.23-9.23,9.17-.65.6-2.07.83-2.94.57-.49-.15-.6-1.64-.82-2.54-.06-.24.03-.58.16-.81,3.34-5.56-.12-10.24-2.04-15.06-1.75-4.39-5.71-6.27-9.99-8.28-.32,3.6-.61,6.87-.9,10.14-.21,0-.42,0-.62.01-.2-2.81-.48-5.61-.58-8.43-.14-4.31-.09-4.31-5.09-5.86-.53,3.45-1.19,6.85-1.47,10.27-.07.87,1.07,1.83,1.66,2.75.32-.1.64-.21.96-.31v-10.09c1.89,2.06,1.49,4.4,1.08,6.56-.55,2.9.13,5.01,2.22,7.14,3.99,4.06,7.18,8.94,12.47,11.58l-.06-.07Zm105.06-224.29c-.49-2.01,1.32-4.15-.36-6.47-.58.97-1.04,1.64-1.39,2.36-.54,1.12-1.03,2.27-1.5,3.42-.79,1.92.25,2.69,2.02,3.29.5-1.03.91-1.88,1.32-2.73q-.06,3.67,3.49,5.1c.96-2.84,1.91-5.66,2.97-8.82-1.67-.45-3.04-.81-4.38-1.17-.86,2-1.52,3.51-2.17,5.04Zm-209.79,54.24v-.03c1.88,7.94,5.56,15.19,9.17,22.39,4.52,9.03,10.42,17.22,16.45,25.35,4.56,6.15,8.33,12.92,12.14,19.6,3.62,6.33,6.79,12.93,12.39,17.86,7.75,6.84,14.04,14.78,18.78,24.01,1.65,3.2,3.66,6.35,6.11,8.96,3.09,3.3,5.77,6.77,7.95,10.71,1.51,2.74,3.27,5.33,5.22,8.46.73-1.81,1.24-3.09,1.75-4.36,2.94-7.47,6.17-14.88,12.39-20.19,7.27-6.21,10.16-14.55,12.47-23.26.96-3.63.9-7.63,2.31-11.04,2.01-4.87,4.81-9.44,7.54-13.98,1.72-2.87,3.99-5.41,5.89-8.18,6.44-9.37,13.67-18.09,21.32-26.5,2.22-2.44,3.79-5.49,5.61-8.29,1.14-1.76,2.17-3.59,3.27-5.37,2.64-4.29,5.46-8.49,7.9-12.89,4.2-7.57,8.24-15.24,12.21-22.94,3.21-6.24,5.68-12.78,7.48-19.57.66-2.5,1.42-4.98,2.19-7.69-1.84-1.44-3.84-3.27-6.87-4.08-8.57-2.29-17.14-2.3-25.84-1.42-2.68.27-5.4.21-8.29.3.25,1.44.32,2.42.59,3.35.96,3.4-.12,6.34-1.93,9.14-2.58,4-5.33,7.67-9.43,10.5-6.63,4.57-13.57,7.12-21.64,6.24-2.23-.24-4.47-.4-6.68-.77-5.46-.9-10.63-2.61-14.88-6.31-5.59-4.86-7.58-11.15-6.95-18.41.23-2.63.46-5.27.7-8.06-1.36-.38-2.54-.78-3.76-1.04-11.94-2.51-23.87-5.06-35.82-7.47-7.7-1.56-15.44-2.65-23.35-2.39-4.89.16-9.81.03-14.68-.4-6.27-.56-12.5-1.6-18.75-2.34-5.26-.63-10.56-.53-15.7-2.43-2.92-1.08-6.22-1.72-9.4-.63-.84,2.07-.07,3.66,1.02,5.22,1.2,1.72,2.51,3.39,3.5,5.23,4.31,8.05,7.16,16.65,9.54,25.44.55,2.03,1.11,4.1,2.03,5.97,4.36,8.95,8.82,17.85,13.29,26.73.8,1.59,1.85,3.05,2.78,4.58Zm-17.83-19.7c1.7-1.87,1.12-4.05.48-5.99-2.86-8.65-5.83-17.26-8.87-25.85-.58-1.63-2.19-3.04-2.35-4.64-.43-4.3-3.56-7.04-5.41-10.51-.58-1.1-1.61-1.95-2.3-3.01-1.97-3.03-1.18-5.25,2.22-6.36,3.12-1.02,6.21-1.51,9.47-.39,2.5.86,5.09,1.72,7.7,2,8.84.94,17.72,1.62,26.93,2.43-.15-1.76-.26-3.09-.4-4.8-3.62,0-6.95-.09-10.28.02-5.9.2-11.76.44-17.35-2.14-1.31-.6-3.03-.56-4.52-.42-5.28.5-10.55,1.19-15.82,1.76-3.15.34-3.7.82-3.53,3.84.07,1.38.29,2.82.77,4.11,1.66,4.44,3.29,8.92,5.26,13.23,2.8,6.11,6.09,11.99,8.8,18.13,2.65,6.02,4.52,12.41,9.09,17.43.21.24.1.77.14,1.17.44.26,1.15.42,1.29.79,3.01,8.13,5.99,16.25,7.43,24.87.64,3.86,1.75,7.66,3,11.37.55,1.62,1.67,3.36,3.04,4.34,3.01,2.16,4.86,5.06,6.24,8.29,1.37,3.22,2.39,6.59,3.49,9.92.22.68.12,1.46.17,2.19-.29.11-.57.22-.86.33-1.68-3-3.28-6.04-5.06-8.98-1.73-2.85-3.29-5.92-5.55-8.29-2.61-2.74-4.6-5.75-5.58-9.27-2.16-7.81-3.88-15.75-6.03-23.57-1.4-5.08-2.18-10.46-6.29-14.45-1.27-1.24-2.18-2.95-2.95-4.58-5.33-11.29-10.75-22.54-15.76-33.97-1.66-3.79-2.69-8.02-3.16-12.14-.64-5.71.5-6.86,5.99-8.26,1.9-.48,3.84-1.12,5.77-1.15,5.02-.06,10.24-.63,15.02.53,5.24,1.28,10.4,1.98,15.72,2.15,4.34.14,8.73.1,13.01.74,9.43,1.4,18.77,3.42,28.21,4.72,6.79.94,13.67,1.16,20.52,1.63,2.37.16,4.79-.08,7.14.23,9.86,1.33,19.68,2.85,29.54,4.2,8.06,1.11,16.11,2.41,24.21,3.01,8.17.61,16.32,2.59,24.58.91.36-.07.78.26,1.18.31,2.74.38,5.47,1.03,8.21,1.04,5.74.01,11.47-.32,17.21-.51,6.25-.21,12.43.32,18.65-1.92,4.13-1.49,9.15-1.63,13.56-.98,5.17.77,10.16,2.92,15.14,4.72,3.3,1.19,5.72,3.69,8.04,7.46.44-2.74.85-4.5,1-6.29.37-4.47.53-8.97.96-13.43.76-7.81,1.63-15.61,2.51-23.41,1.08-9.58,3.23-19.03,3.04-28.78-.15-7.71.62-15.44-1.29-23.06-.44-1.75-.42-3.62-.72-5.42-1.01-6.22-1.95-12.45-3.15-18.63-1.12-5.78-2.64-11.47-3.8-17.24-1.35-6.69-2.26-13.46-4.3-20.03-3.58-11.52-8.93-22.06-16.19-31.67-1.85-2.44-3.53-5.05-4.98-7.75-3.98-7.4-7.61-14.99-11.73-22.3-3.24-5.73-6.58-11.49-10.64-16.63-7.56-9.57-15.8-18.59-23.51-28.04-4.3-5.27-9.02-9.92-14.86-13.43-8.86-5.33-17.89-10.37-26.9-15.45-7.07-3.98-14.44-6.78-21.98-9.39-4.5-1.56-9.44-2.03-13.69-4.04-4.78-2.27-9.69-2.72-14.68-2.9-15.18-.57-30.22,1.17-44.9,4.76-9.07,2.22-17.85,5.81-26.51,9.4-8.92,3.7-17.48,8.27-26.31,12.22-3.93,1.76-7.29,4.07-10.24,7.18-3.21,3.39-7.06,5.91-11.38,7.76-2.31.99-4.6,2.12-6.69,3.5-7.13,4.7-14.17,9.54-21.24,14.34-2.09,1.42-4.31,2.7-6.2,4.35-5.68,4.99-11.22,10.12-16.8,15.21-.61.56-1.14,1.21-1.67,1.85-3.3,4.01-6.63,7.91-11.39,10.41-1.71.9-3.01,2.86-4.11,4.59-2.32,3.65-4.48,7.42-6.51,11.24-1.58,2.99-4.13,4.08-7.23,4.2-2.8.1-5.6,0-8.4-.06-7.28-.14-14.57-.31-21.85-.47-2.38-.05-4.8.13-7.14-.24-8.86-1.4-17.68-3.05-26.54-4.46-3.17-.51-6.42-.96-9.6-.84-9.1.35-18.18.76-27.24,2.14-5.67.87-11.34,1.48-16.83,3.23-13.06,4.16-26.44,7.47-37.13,16.97-5.32,4.72-11.53,8.46-16.71,13.32-4.03,3.78-7.17,8.53-10.54,12.98-9.33,12.36-12.76,26.65-13.51,41.8-.21,4.2-.26,8.42-.66,12.61-.89,9.36-2.24,18.69-2.87,28.06-.48,7.14-.92,14.19-2.84,21.17-1.02,3.71-1.41,7.88-.9,11.69,1.32,9.9,1.63,19.85,2.28,29.79.24,3.63.64,7.28,1.4,10.82,1.03,4.78,3.1,9.41,3.6,14.22.76,7.26,3.11,13.91,5.68,20.59,1.21,3.13,2.21,6.38,2.91,9.65,2.34,10.89,6.01,21.32,10.5,31.47,1.75,3.96,3.92,7.74,5.93,11.58.43.82.97,1.57,2.05,3.27.38-2.12,1.09-3.48.7-4.37-1.31-3-1.99-6.48-5.11-8.26,0-1.41.3-2.84-.07-4.09-.62-2.14-1.74-4.12-2.5-6.23-1.99-5.54-3.95-11.09-5.8-16.67-.43-1.29-.4-2.73-.63-4.4.74.32.94.35.98.44,2.34,5.86,4.67,11.72,6.99,17.58,1.24,3.13,2.46,6.27,3.69,9.4.6,1.53,1.53,2.25,3.16,1.46-1.24-5.02-2.79-9.85-3.56-14.8-.74-4.76-1.97-9.64-.28-14.51,1.58,5.85,2.51,11.79,4,17.59,1.52,5.93,3.59,11.71,5.4,17.5,2.91-.27,5.22-.48,7.53-.69.06.25.12.51.18.76-2.02.72-4.04,1.43-5.98,2.12-.58,3.94,4.14,2.63,4.7,5.41-.67.21-1.39.44-2.26.72,1.81,5.93,6.58,10.04,9.12,15.52-1.18-.53-2.2-1.22-3.17-1.96-2.45-1.85-2.65-1.86-6.21.33,1.58,3.51,3.19,7.08,4.8,10.65-.29.14-.59.27-.88.41-4.12-7.89-8.24-15.79-12.37-23.69-1.97.85-1.48,2.1-.92,3.49,2.12,5.19,4.38,10.34,6.22,15.63,4.46,12.83,11.64,23.9,21.37,33.27,5.45,5.25,11.23,10.17,17.06,15.01,2.46,2.04,5.32,3.66,8.18,5.11,5.25,2.66,10.55,5.24,15.98,7.49,9.16,3.79,17.37,8.99,24.83,15.48,3.47,3.01,6.69,6.34,10.99,8.34,6.21,2.88,12.31,6.01,18.43,9.08,1.74.87,3.53,1.74,5.08,2.9,8.74,6.56,18.47,11.14,28.83,14.41,3.6,1.14,7.35,2.22,11.08,2.42,11.39.61,22.82.76,34.23.36,10.51-.36,21.02-.88,31.52-.13,4.6.33,9.18,1.08,13.76,1.7,7.78,1.05,15.53,2.58,23.34,3.09,8.35.55,16.78.31,25.16.11,4.46-.11,8.93-.68,13.33-1.41,7.47-1.23,14.86-2.95,22.49-2.94,2.66,0,5.31-.25,7.97-.36,9.91-.43,19.82-.84,29.73-1.27,3.08-.13,6.18-.16,9.25-.49,6.47-.69,12.86-.76,19.22.92,1.92.51,4.01.4,6.51.62-2.01-2.49-3.44-4.53-5.16-6.3-2.14-2.21-4.28-4.55-6.85-6.17-3.65-2.31-5.85-5.35-7.38-9.33-1.13-2.95-2.76-5.93-4.9-8.21-2.45-2.61-5.65-4.54-8.64-6.6-2.66-1.84-5.47-3.27-8.89-3.48-6.73-.41-13.41.05-20.1.67-8.51.8-17.02,1.56-25.61,1.12-6.3-.32-12.66-.83-18.91-.27-9.27.83-18.47.36-27.71.04-5.17-.18-10.35-.18-15.53-.11-9.24.14-18.46.92-27.71-.38-10.72-1.5-21.17-4.01-31.49-7.22-7.35-2.29-14.76-4.4-22.15-6.58-5.91-1.74-11.95-3.11-17.7-5.28-6.65-2.51-12.99-5.85-19.58-8.55-2.67-1.1-5.61-1.92-8.47-2.09-9.97-.58-19.82-1.84-29.5-4.24-3.51-.87-7.04-2.07-10.22-3.76-4.3-2.28-8.38-5.04-12.36-7.85-4.34-3.07-8.48-6.4-12.66-9.69-3.56-2.8-6.78-5.89-8.42-10.29-.34-.91-.92-1.74-1.47-2.55-3.72-5.43-7.56-10.77-11.15-16.28-2.13-3.28-4.08-6.73-5.73-10.28-2.29-4.95-4.28-10.04-6.29-15.12-1.04-2.6-1.78-5.32-2.79-7.94-2.35-6.15-4.93-12.21-7.12-18.42-1.63-4.62-2.53-9.5-4.25-14.08-2.24-5.96-3.97-11.98-4.26-18.34-.41-8.97-.6-17.95-4.23-26.4-.06-.13-.08-.27-.12-.41-2.05-8.28-3.6-16.69-6.97-24.6-.65-1.52-1.03-3.24-1.17-4.9-.55-6.43-.92-12.87-1.42-19.3-.35-4.59-.8-9.17-1.24-14.14-1,.07-2.13.14-3.16.21v24.25c-.9-4.27-1.25-8.56-1.44-12.86-.12-2.53-.46-2.98-3.96-3.76-.98,7.2.21,14.29,1.31,21.97-4.51-5.92-5.6-18.61-3.25-34.2.27-1.81.38-3.88,3.15-5.11-.17,3.02-.32,5.53-.46,7.94,2.99.27,5.62.51,8.55.77.29-2.85.41-5.51.87-8.1.93-5.23,2.42-10.38,2.99-15.64.55-5.06,2.31-9.63,4.87-13.78,2.73-4.42,6.26-8.23,11.67-9.76,1.66-.47,3.24-1.7,4.52-2.93,3.43-3.31,6.76-6.73,9.97-10.24,6.26-6.83,12.62-13.58,20.43-18.65,3.5-2.27,7.28-4.14,11.05-5.95,2.76-1.33,5.75-2.19,8.57-3.41.82-.36,1.42-1.24,2.31-2.06,1.31,1.51,2.98,1.47,4.92.27,1.41-.87,3.06-1.4,4.67-1.88,3.41-1.02,6.86-1.9,10.33-2.85q-1.21-2.77-.2-5c2.57,2.85,4.96,6.56,9.34,3.35-.23-1.23-.42-2.32-.62-3.41.3-.14.59-.27.89-.41.94,1.11,1.89,2.22,3.06,3.6,1.39-.19,2.98-.42,4.02-.56,1.48-2.15-2.03-3.7.63-5.53.78.71,1.69,1.34,2.34,2.18.65.85,1.05,1.9,1.81,3.36,1.87-.64,3.63-1.25,5.29-1.82,1.56.57,3.33,1.21,5.02,1.82-1.01.18-2.15.38-3.67.64.27,1.66.51,3.08.81,4.93,2.91-.91,5.36-1.69,7.69-2.42v-8.87c.32-.02.63-.05.95-.07.32,2.54.63,5.08,1.03,8.25,6.51-2.59,12.73-.66,19.08.29,9.28,1.39,17.75-.04,24.46-7.78,2.57-2.96,6.27-5.28,9.89-6.93,6.96-3.17,12.45-8.03,17.54-13.5,4.1-4.42,8.15-8.9,12.17-13.39,2.79-3.12,5.64-6.21,8.22-9.5,4.47-5.73,9.59-10.49,16.41-13.39,5.92-2.51,11.81-5.1,17.03-9.02,6.61-4.96,13.4-9.67,20.14-14.47,1.82-1.29,3.56-2.89,5.6-3.64,5.63-2.09,11.31-4.19,17.13-5.61,12.12-2.95,24.3-5.63,35.98-10.14,1.54-.6,3.26-1.05,4.9-1.06,6.57-.05,13.18-.37,19.69.3,6.9.71,14.09.75,20.29,4.76.78.5,1.87.5,2.82.75,3.91,1.02,7.9,1.82,11.7,3.15,2.89,1.01,5.57,2.63,8.3,4.07,3.2,1.68,7.06,2.29,9.48,5.21,2.77,3.33,5.51,6.73,7.78,10.41,2.71,4.4,6.03,7.82,10.53,10.52,5.13,3.08,10.05,6.7,14.5,10.7,3.27,2.94,5.67,6.88,8.42,10.39,2.16,2.76,4.05,5.77,6.47,8.27,3.66,3.77,7.68,7.19,11.53,10.76.16.15.35.36.37.56.68,5.73,2.91,10.94,5.39,16.07.3.61.35,1.35.48,2.04.79,4.31,1.87,8.47,5.15,11.72.86.85,1.54,2.07,1.85,3.24,1.39,5.26,2.49,10.61,3.93,15.86,2.98,10.85,3.48,21.78,1.87,32.9-.24,1.68.22,3.71,1,5.24,2.87,5.57,4.67,11.4,5.25,17.62.45,4.86,1.54,9.6,1.53,14.57,0,4.09,1.72,8.16,2.55,12.27,1.1,5.49,1.83,11.06,3.17,16.48.74,3.02,1.48,5.85,1,9.04-1.16,7.6-3.3,15.09-2.84,22.9.07,1.23-.35,2.53-2.11,2.84-2.04-1.53-2.86-3.73-2.62-6.21.48-5.01,1.24-9.99,1.73-14.99.3-3.05.78-6.2.32-9.17-.96-6.23-2.47-12.37-3.78-18.54-.9-4.24-2.02-8.43-2.76-12.7-.52-3.03-.53-6.15-.81-9.22-.71-7.84-1.65-15.58-5.56-22.68-1.7-3.09-1.77-6.53-1.44-10.2.58-6.51.79-13.16.19-19.65-.58-6.23-2.41-12.34-3.65-18.52-.76-3.76-2.08-7.19-4.71-10.12-1.09-1.21-1.93-2.84-2.35-4.42-1.66-6.34-4.73-12.21-6.07-18.66-.38-1.85-1.33-3.77-2.55-5.21-2.99-3.52-6.29-6.78-9.46-10.16-.76-.81-1.58-1.58-2.25-2.47-3.19-4.26-6.32-8.56-9.51-12.82-.92-1.22-1.92-2.41-3-3.49-4.21-4.19-9.23-7.28-14.32-10.23-4.58-2.66-8.32-6.11-11.14-10.64-2.14-3.44-4.45-6.78-6.85-10.04-.8-1.09-1.98-2.11-3.21-2.63-7.95-3.37-15.05-8.83-24.03-9.75-1.77-.18-3.55-.92-5.17-1.73-4.38-2.19-9.14-2.6-13.85-3.3-2.49-.37-5-.73-7.52-.85-7.16-.35-14.3-.33-21.25,1.8-6.17,1.89-12.29,3.94-18.5,5.66-8.51,2.36-17.13,4.3-25.6,6.8-3.44,1.02-6.85,2.64-9.82,4.65-5.92,4-11.69,8.25-17.23,12.77-5.84,4.76-12.17,8.58-19.14,11.31-6.5,2.55-12.35,5.98-16.96,11.34-2.73,3.18-5.52,6.31-8.33,9.41-4.51,4.96-9.11,9.85-13.6,14.83-4.84,5.36-10.19,9.94-17.15,12.43-2.03.73-4.04,1.91-5.66,3.33-3.16,2.77-5.97,5.94-9.06,8.8-2.6,2.41-5.57,4.19-9.2,4.77-5.45.87-10.86.78-16.33,0-3.72-.53-7.65-1.41-11.23-.74-5.71,1.06-11.2,3.28-16.79,5.02.23,1.69.27,2.95.59,4.14,1.63,6.07,4.01,11.77,9.49,15.41,7.01,4.65,14.82,6.01,22.96,4.35,5.11-1.04,10.04-3.21,13.24-7.59,2.86-3.92,4.1-8.57,4.04-13.51-.03-1.96-.04-3.94.22-5.88.13-.92.93-1.75,1.41-2.6,2.57,1.25,2.89,3.18,3.09,5.17.54,5.49-1.21,10.53-3.25,15.45-.95,2.29-1.92,4.54-3.94,6.35-7.32,6.57-15.68,9.68-25.51,8.4-13.99-1.82-24.64-10.84-24.5-26.46,0-.65-.17-1.3-.19-1.42-7.14.15-13.99.47-20.83.37-4.61-.06-9.2-.72-13.81-1.09-.94-.08-1.94-.22-2.84-.02-2.44.54-4.84,1.25-7.26,1.89-2.02.53-4.14.83-6.05,1.63-5.15,2.17-10.21,4.53-14.52,8.23-3.62,3.1-7.5,5.91-10.9,9.23-5.31,5.19-10.28,10.73-15.45,16.07-2.66,2.75-5.73,4.86-9.46,6.05-1.53.49-2.92,1.56-4.22,2.56-4.1,3.18-6.26,7.67-7.11,12.56-1.71,9.78-4.74,19.37-4.69,29.44.01,2.38-.47,4.76-.35,7.13.36,6.86.99,13.71,1.36,20.58.19,3.53.81,6.86,1.98,10.24,2.2,6.34,3.88,12.86,5.78,19.3.99,3.36,2.07,6.69,3,10.07.74,2.68,1.59,5.38,1.87,8.13.48,4.6.3,9.27.85,13.85.48,4.01,1.35,8,2.46,11.88,1.15,4.02,2.93,7.86,4.2,11.85,1.31,4.13,2.1,8.44,3.56,12.5,2.04,5.65,4.71,11.07,6.72,16.72,2.94,8.31,6.42,16.32,11.09,23.84,5.09,8.21,9.89,16.61,14.96,24.84,1.15,1.87,2.65,3.72,4.41,4.99,7.83,5.62,15.44,11.54,23.39,17.02,8.34,5.74,17.8,6.52,27,8.51,5.56,1.2,11.42,1.04,17.14,1.51.83.07,1.72.12,2.47.44,5.03,2.14,10.04,4.32,15.03,6.55,3.59,1.6,7.02,3.66,10.73,4.86,5.98,1.93,12.17,3.17,18.2,4.96,10.48,3.11,20.82,6.74,31.38,9.56,10.14,2.71,20.43,4.83,31.1,4.35,9.38-.42,18.78-.58,28.18-.57,8.12.01,16.23.48,24.35.65,7.15.15,14.34-.28,21.44.38,7.37.68,14.56-.21,21.78-1.07,10.84-1.29,21.64-3.46,32.58-.81.17.04.41-.26.71-.46-.15-.35-.22-.8-.48-1.07-4.32-4.52-7.49-10.25-13.66-12.82-.87-.36-1.62-1.14-2.27-1.86-4.92-5.43-11.56-8.34-17.67-11.96-2.89-1.71-5.27-3.7-7.13-6.35-4.02-5.72-5.98-12.36-7.86-18.94-.85-2.97-.61-6.24-.86-9.38.33-.09.67-.19,1-.28.48,1.21,1.16,2.38,1.4,3.64,1.7,9.03,6.1,16.79,11.2,24.23.7,1.02,1.6,2.02,2.64,2.65,3.7,2.27,7.52,4.34,11.25,6.55,3,1.78,5.99,3.55,8.04,6.58.74,1.09,2.16,1.73,3.27,2.56,2.35,1.77,4.91,3.31,7,5.34,4.3,4.17,8.37,8.57,12.48,12.92,2.97,3.14,6.22,6.01,7.87,10.25.65,1.67,2.28,2.96,3.66,4.66,2.29-3.74-.12-6.14-1.29-8.61-1.3-2.76-3.02-5.32-4.6-7.95-.72-1.2-1.48-2.37-2.33-3.48-.13-.17-.8.05-1.21.14-.09.02-.12.26-.22.34-.05.03-.21-.09-.32-.15-.94-1.59-.08-4.55-3.35-4.38-.16,0-.37-.4-.5-.64-1.36-2.44-2.77-4.85-4.05-7.33-4.78-9.31-11.16-17.37-18.69-24.61-5.06-4.87-8.73-10.8-11.8-17.1-1.3-2.68-2.25-5.61-5.24-8.19-.99,7.88-.26,15.2-.9,22.8-.37-.63-.63-.86-.63-1.09.04-7.43.11-14.86.15-22.29,0-1.08.22-2.38-.28-3.21-1.7-2.79-3.67-5.41-5.54-8.09-.29.11-.58.21-.87.32-.42,4.28-.85,8.56-1.27,12.85-.15-3.46-.81-7.07,0-10.32,1.38-5.6-2.31-8.72-5.28-12.55v8.21c-.78-2.92-.66-5.82-.83-8.7-.09-1.46-.36-3.16-1.18-4.29-2.47-3.38-4.09-7.17-5.89-10.89-1.15-2.39-1.86-5.09-3.98-7.08-.5.8-.8,1.29-.86,1.38-1.67-5.25-3.03-10.7-5.17-15.83-1.19-2.87-3.32-5.38-4.4-8.41-1.69-4.72-5.21-8.57-6.45-13.55-.27-1.07-1.32-1.94-2.17-3.12-.89.99-1.44,1.6-1.98,2.21Zm211.41-28.12c-1.49,12.93-5.27,24.7-11.62,35.66-3.57,6.16-6.85,12.49-10.42,18.66-2.03,3.51-4.44,6.79-6.54,10.26-2.39,3.93-4.29,8.19-7,11.88-5.13,6.99-10.74,13.62-16.03,20.5-4.18,5.43-8.27,10.93-12.23,16.52-2.66,3.76-5.07,7.7-7.48,11.64-.63,1.03-1.09,2.31-1.19,3.51-.6,7.18-2.09,14.06-5.69,20.42-2.28,4.03-4.21,8.38-7.88,11.32-8.61,6.89-12.27,16.75-16.61,26.23,4.12,2.64,7.96,5.21,11.91,7.6,2.78,1.69,4.49,4.1,5.68,7.05,1.41,3.47,2.98,6.87,4.7,10.82,1.52-1.79,2.76-3.25,4-4.72,2.62-3.1,5.23-6.2,7.84-9.3.81-.96,1.62-1.93,2.46-2.87,5.45-6.11,8.15-13.75,11.16-21.1,4.39-10.73,9.83-20.77,16.7-30.1,3.16-4.29,5.79-8.96,8.9-13.28,4.16-5.76,10.06-9.74,15.27-14.43,4.89-4.41,9.51-9.08,12.27-15.27,1.82-4.08,3.82-8.1,5.94-12.03,2.19-4.06,5.02-7.82,6.87-12.02,3.32-7.55,6.17-15.31,8.52-23.24,1.03-3.49,2.17-6.95,3.36-10.39.96-2.76,2.12-5.45,3.09-8.2.63-1.79,1.12-3.63,1.62-5.45.98-3.54-.51-6.78-1.02-10.18-.74-4.9-1.07-9.67-5.44-12.92-.9-4.12-4.57-5.57-7.61-7.34-1.77-1.04-4.29-1.23-6.42-1.08-2.32.16-4.58,1.16-7.12,1.86Zm-102.18-8.31c.22,3.88.28,7.48.66,11.04.67,6.26,3.64,11.06,9.35,14.04,4.18,2.18,8.71,2.65,13.28,3.45,9.39,1.64,17.3-1.09,24.04-7.2,4.79-4.35,8.17-9.81,8.61-17.18-9.41-.5-18.6-.83-27.77-1.51-9.33-.7-18.63-1.74-28.16-2.65Zm21.6-5.31c-2.43-3.69-6.2-1.97-9.76-2.73-.23,2.35-.43,4.37-.66,6.68,10,.5,19.64.98,29.52,1.47.12-2,.21-3.48.31-5.28-2.4-.34-4.5-.44-6.47-.98-2.43-.66-3.67.25-4.3,2.89-.3-1.16-.5-1.95-.73-2.87-2.62.58-5.52-2.85-7.91.81Zm81.9,2.09c-.26-1.31-1.19-2.19-2.17-.35-1.14,2.14-1.67,4.61-2.49,7,2.91,1.93,5.85,2.05,8.07.26,2.48-1.99,3.64-5.03,2.85-9.1-2.25.79-4.18,1.46-6.25,2.19Zm-165.78-11.85c5.93.7,11.47,1.27,16.99,2.03,5.59.77,10.95,2.83,16.75,3.48v-3.86c-6.49-.44-12.74-.73-18.97-1.32-3.61-.34-7.17-1.21-10.78-1.68-1.19-.16-2.74-1.11-3.99,1.35Zm188.27,19.27c-.26-.09-.52-.18-.78-.28-.64,1.32-1.29,2.64-1.77,3.64,1.66,2.57,3.08,4.76,4.44,6.85,3.53-1.79,3.29-5.02,3.83-7.82.54-2.75-.51-4.13-3.78-5.51-1.07,2.26.15,5.1-1.94,8.09v-4.97Zm-188.73-19.87c-.58-.56-1.16-1.59-1.75-1.6-4.03-.1-8.01-3.68-12.05-.13-.75-1.14-.66-3.12-3.04-2.28-.21,1.16-.44,2.46-.72,4.1,5.83.97,11.39,1.23,17.57-.09Zm66.49,6.85c-.34,1.84-.72,3.72-1.02,5.61-.06.37.17.78.36,1.61,2.32.16,4.7.33,7.04.5,1.05-7.33-.75-8.32-6.39-7.72ZM51.1,413.77c-2.07-3.52-4.03-6.88-6.04-10.21-.65-1.08-1.57-1.55-3.09-.42,1.12,4.21,3.21,8.05,5.3,12.1,1.45-.55,2.58-.99,3.82-1.46Zm364.84-116.83v5.53c2.08.69,4.24,1.39,7,2.3-.25-2.8-.43-4.92-.62-7.1-2.33-.27-4.22-.48-6.37-.73Zm16.99,3.61c-.96,7.34-.82,7.54,4.92,6.85v-6.85h-4.92Zm79.66,5.47h-8.98c-.34,1.43-.65,2.7-1.11,4.62,3.47-.23,6.32-.41,9.26-.61.27-1.32.5-2.39.83-4.01Zm1.49,3.52c2.36.24,4.71.48,7.28.75.11-2.04.18-3.49.26-4.94-1.6,0-2.82-.04-4.04,0-2.87.12-3.02.3-3.49,4.18ZM151.41,143.73c-1.99.41-3.5.72-4.98,1.02.91,5.82,1.28,6.05,7.38,4.72-.76-1.81-1.49-3.54-2.41-5.74Zm-12.14,6.7c2.29-.16,4.19-.3,6.61-.47-.75-1.86-1.34-3.32-1.98-4.9-2.06.31-3.77.57-5.75.88.4,1.6.7,2.78,1.13,4.49Zm391.21,155.61c-.36,1.85-.72,3.68-1.12,5.73,1.55.39,2.7.68,4.18,1.06.59-2.38,1.11-4.47,1.63-6.57-.73-.29-1.11-.57-1.48-.56-.95.03-1.9.2-3.21.35Zm15.02,6.25c3.62.03,4.36-.95,6.03-7.41-3.29-.7-3.45-.68-4.37,1.87-.61,1.68-1.04,3.43-1.66,5.54Zm-22.43-1.94c1.47.31,2.99.63,4.77,1.01.37-2.15.67-3.86.96-5.54-4.56-1.64-5.1-1.24-5.74,4.53Zm-29.09.74c2.56-.27,4.31-.46,6.03-.64.36-1.5.65-2.68,1.02-4.23-2.11.1-3.96.18-6.06.28-.31,1.44-.58,2.72-.99,4.59ZM160.77,147.48c-.69-1.89-1.15-3.16-1.71-4.67-1.47.21-2.79.39-4.44.62.42,2.11.77,3.83,1.19,5.91,1.78-.67,3.15-1.18,4.96-1.86Zm-23.55,2.4c-.55-1.63-.87-3.4-2.84-3.17-2.72.32-5.4,1.09-8.09,1.67,3.23,1.02,6.39,1.5,9.55,1.95.24.03.52-.16,1.38-.45Zm286.81,148.1c-.53,5.51-.29,6.31,2.24,7.46.32-2.22.63-4.34.97-6.69-1.19-.29-2.07-.5-3.21-.77Zm7.62,1.19c-1.26.35-2.2.48-2.2.64-.05,1.55-1.2,2.54-1.73,3.82-.24.58-.04,1.34-.04,2.2,1.14.29,2.13.54,3.51.89.16-2.55.29-4.71.47-7.55Zm55.44,5.64c-1.85.84-3.19,1.02-3.61,1.74-.56.97-.41,2.36-.6,3.86,1.32.11,2.33.19,3.62.3.18-1.81.33-3.28.59-5.91ZM30.18,240.81c-1.92-.72-3.05,0-3.29,1.6-.36,2.39,1.32,3.25,3.29,3.93v-5.54Zm459.44,65.4c-.29,1.58-.54,3.01-.8,4.42,2.66,1.11,3.3-.28,3.66-2.15.37-1.94-.54-2.56-2.86-2.27Zm-8.32,4.01v-4.96c-2.71.37-2.75.44-2.44,4.77.76.06,1.53.12,2.44.18Zm-66.93-8.52c0-1.56.15-2.92-.09-4.22-.07-.38-1.21-.57-1.86-.85-.27,1.16-.7,2.31-.78,3.48-.1,1.46.91,1.84,2.73,1.59ZM39.6,391.52c-2.06,1.24-2.35,1.76-1.4,3.38.39.67,1.42,1.46,2.07,1.38,1.35-.15,1.11-1.34.7-2.27-.38-.86-.91-1.66-1.37-2.49Zm370.35-95.06c-.35.04-.69.08-1.04.12-.3,1.43-1.45,2.94,1.04,4.56v-4.68Zm-99.24-1.4c.32-.23.65-.46.97-.7-.52-.61-1.05-1.22-1.57-1.84-.23.17-.45.35-.68.52l1.28,2.01ZM42.96,398.74c-.61-.24-1-.55-1.28-.46-.3.09-.5.54-.74.83.34.15.69.44,1.02.42.28-.02.54-.4,1-.78Z"/>
  <path class="cls-1" d="m449.24,536.09c-1.48-4.18-1.12-8.5-1-12.8,1.75,4.13,1.63,8.39.93,12.71.02.02.07.09.07.09Z"/>
  <path class="cls-1" d="m443.78,516.99c.4,3.1.8,6.2,1.2,9.3-1.43-3.04-2.54-6.13-2.01-9.49l.81.18Z"/>
  <path class="cls-1" d="m252.72,188.5c-1.37,2.21-2.41,4.17-3.72,5.92-2.53,3.39-5.41,6.44-9.73,7.55-8.24,2.12-19.64-2.99-21.89-12.89-.74-3.27-1.64-6.51-2.58-9.73-.78-2.65-.51-5.18.03-7.86,1.95-9.67,6.77-17.33,14.94-22.92,3.81-2.61,7.39-5.57,11.27-8.08,2.44-1.58,5.2-2.69,7.89-3.85,2.95-1.27,6.05-2.17,8.95-3.54,5.84-2.77,11.31-1.49,16.41,1.58,3.2,1.92,6.08,4.37,7.96,7.87,1.38,2.56,3.22,4.92,5.13,7.14,3.09,3.6,3.62,7.5,1.85,11.75-1.06,2.56-2.35,5.03-3.62,7.74.4.56.95,1.37,1.55,2.15,5.18,6.81,6.47,14.4,4.5,22.63-.33,1.36-.8,2.68-1.18,4.02-1.37,4.84-5.51,8.81-10.52,9.02-9.92.4-18.79-2.05-23.98-12.62-.92-1.87-2.02-3.66-3.25-5.86Zm-1.84-6.37c-.91.31-1.82.58-2.69.94-2.11.87-3.91.05-5.48-1.19-3.53-2.78-3.52-7.78.07-9.41,2.11-.95,4.42-1.8,6.83-.53.96.5,1.77.81,3.04.05,1.58-.94,2.32-.15,2.35,1.88.02,1.53-.16,3.13.2,4.58,1.37,5.48,3.95,10.42,6.82,15.28,3.86,6.51,9.67,8.44,16.71,8.29,3.19-.07,5.47-1.7,6.64-4.35,1.45-3.29,2.64-6.72,2.49-10.51-.37-9.15-5.6-15.85-11.2-22.29-2.07-2.38-2.47-7.13.19-8.78,1.38-.85,3.51-1.1,5.13-.76,1.79.37,1.67,2.38,1.5,3.93-.15,1.38-.53,2.74-.74,4.12-.09.63-.02,1.28-.02,2.16,3.42-3.01,4.37-8.59,2.13-11.8-1.6-2.29-3.64-4.32-5.03-6.72-2.1-3.63-4.95-6.39-8.33-8.75-3.62-2.52-7.43-3.03-11.56-1.52-2.76,1.01-5.6,1.83-8.33,2.94-2.96,1.2-6.02,2.34-8.69,4.05-3.99,2.55-7.49,5.9-11.55,8.31-4.96,2.94-8.15,7.55-10.54,12.19-2.84,5.53-3.91,12-.95,18.26.54,1.14.89,2.36,1.24,3.58,1.74,6.02,6.06,8.99,11.85,10.5,4.09,1.06,7.5-.08,10.54-2.63,2.25-1.89,4.23-4.1,6.45-6.04,1.87-1.64,2.21-3.41.93-5.76Z"/>
  <path class="cls-1" d="m130.49,284.53c.15,2.92.3,5.11.35,7.3.09,3.83-1.76,6.6-4.79,8.8-5.39,3.93-11.25,5.51-17.82,3.89-.27-.07-.55-.14-.83-.14-6.59-.04-9.13-2.71-9.62-10.48-.1-1.67-.18-3.38-.61-4.98-.74-2.77-1.9-2.98-3.98-.95-5.79,5.69-15.73,6.04-21.33.41-3.69-3.71-4.97-8.67-5.59-13.75-1.06-8.66,2.24-15.55,8.51-21.35,5.17-4.78,10.54-9.27,16.86-12.43,9.54-4.78,19.43-7.91,30.33-5.94,4.12.75,8.3,1.2,12.44,1.89,6.27,1.05,10.49,5.23,14.11,9.94,6.04,7.86,6.84,16.96,5.21,26.38-1,5.81-4.77,9.39-10.25,11.12-4.15,1.31-8.37,2.64-12.99.28Zm-.86-2.39c1.36.14,2.09.4,2.71.24,3.79-.99,7.65-1.81,11.29-3.22,2.3-.89,4.09-2.7,4.92-5.39,1.22-3.95,1.71-7.91,1.55-12.02-.34-8.74-8.39-18.56-16.31-20.4-2.46-.57-4.93-1.07-7.39-1.62-12.52-2.82-24.26-.9-34.97,6.17-4.43,2.92-8.63,6.25-12.7,9.67-7.63,6.4-10.11,14.5-7.27,24.13,1.6,5.43,5.56,9.38,9.74,9.03,3.86-.32,7.81-1,11.01-4.09-.19-1.15-.48-2.36-.58-3.59-.18-2.22,1.86-4.81,4.01-5.22,2.09-.4,3.73.65,4.37,3.46,1.2,5.28,3.96,10.2,3.66,15.86-.04.82.93,2.25,1.71,2.48,5.64,1.64,11.28,2.17,16.7-.92,1.9-1.09,3.49-2.5,3.87-4.72.37-2.18.42-4.42.61-6.6-3.98-2.29-4.93-5.72-4.22-9.78.31-1.73,1.18-3.29,3.03-3.67,2.07-.42,3.52.97,4.5,2.5.53.83.51,2.13.46,3.2-.06,1.34-.41,2.67-.71,4.48Z"/>
  <path class="cls-1" d="m400.88,236.49c8.24.61,14.53,6.33,14.14,13.18-.18,3.23-1.2,6.79-2.95,9.47-4.01,6.15-9.47,10.51-17.21,11.56-7.09.97-14.18,1.73-21.3,1.38-8.31-.41-16.51-1.8-23.63-6.47-2.51-1.64-4.95-3.82-6.55-6.32-4.09-6.39-2.37-17.08,3.25-23.38,3.25-3.64,7.28-5.62,12.17-5.7,2.66-.05,5.32,0,8.13,0,.36-2.47.45-5.43,1.3-8.15.77-2.47,2-5.01,3.69-6.92,2.73-3.09,6.39-4.83,10.6-5.39,5.18-.68,10.31-1.09,15.46.21,4.41,1.12,7.26,4.25,7.87,8.74.73,5.36-.4,10.29-3.37,14.82-.53.8-.91,1.69-1.59,2.97Zm-7.65,11.73c1.4.62,2.17.92,2.89,1.29,2.25,1.16,3.39,3.49,2.91,5.9-.58,2.94-4.41,5.56-6.61,4.11-1.89-1.25-3.69-3.16-4.61-5.2-.71-1.57-.55-4.02.17-5.66,1.86-4.2,4.17-8.22,6.47-12.21,1.26-2.17,2.78-4.22,4.36-6.18,2.27-2.82,2.8-6.04,2.61-9.48-.24-4.34-2.11-6.7-6.39-6.83-4.6-.14-9.28.09-13.8.87-4.93.84-8.23,4.16-9.55,9.03-.69,2.54-.76,5.25-1.22,7.86-.62,3.58-1.33,7.15-2.04,10.72-.29,1.47-1.41,2.22-2.76,2.03-1.12-.15-2.44-.6-3.19-1.38-1.13-1.18-.55-2.66.98-3.34q3.87-1.72,2.96-6.51c-3.81.48-7.72.73-11.51,1.51-3.47.71-5.96,3.09-7.56,6.22-.89,1.74-1.5,3.63-2.16,5.47-2.3,6.37-.81,11.81,6.42,15.85,3.73,2.09,7.97,3.64,12.17,4.47,10.57,2.11,21.29,1.61,31.75-.62,7.08-1.51,12.24-6.11,14.57-13.23,1.36-4.15-.15-7.65-3.54-10.35-2.64-2.11-5.66-1.93-9.18-2.23-1.25,2.38-2.59,4.94-4.14,7.88Z"/>
  <path class="cls-1" d="m226.19,351.32c-7.34.14-13.92-2.52-20.61-4.56-2-.61-3.85-1.76-5.85-2.36-7.02-2.1-11.63-7.05-15.55-12.85-.39-.58-.67-1.26-1.14-1.76-4.83-5.11-6.89-11.51-8.24-18.15-1.31-6.44-.61-12.85,1.65-19.02,2.04-5.57,5.14-10.48,9.13-14.95,2.68-3,5.89-4.69,9.5-5.92,5.82-1.98,11.84-3.48,17.46-5.91,4.75-2.06,9.73-2.66,14.64-3.43,3.06-.48,6.36.58,9.56.91,2.23.23,4.47.62,6.7.54,6.32-.23,11.83,1.49,16.53,5.87,2.95,2.75,6.54,4.89,9.16,7.89,4.36,5.01,7.63,10.64,7.82,17.7.2,7.15-2.23,13.81-3.24,20.73-.06.41-.2.84-.41,1.19-6.52,10.7-13.16,21.19-25.05,27.04-3.37,1.66-6.5,3.82-10.21,4.68-3.92.91-7.89,1.59-11.85,2.36Zm-.19-4.38c2.49-.29,5-.49,7.48-.89,6.33-1.02,11.76-4.28,17.4-7.04,4.01-1.97,7.26-4.88,9.92-8.3,3.09-3.97,5.75-8.28,8.45-12.54.87-1.38,1.43-3.02,1.83-4.62.74-2.99,1.3-6.02,1.86-9.04,1.71-9.09.43-17.37-6.93-23.79-3.48-3.03-6.99-6.08-10.79-8.68-2.62-1.79-5.65-3.67-8.67-4.04-7.85-.95-15.63-3.01-23.76-1.29-3.32.71-6.41,1.61-9.53,2.88-4.79,1.96-9.61,4.09-14.63,5.19-4.7,1.03-8.03,3.2-11.04,6.88-7.92,9.7-10.66,20.45-7.78,32.63,1.83,7.74,6.23,14.07,11.31,19.92,1.79,2.06,4.07,4.1,6.55,5.09,9.09,3.65,18.28,7.21,28.35,7.63Z"/>
  <path class="cls-1" d="m144.03,401.93c-.61-.19-.91-.4-1.12-.34-7.93,2.29-14.09-1.62-19.98-5.96-3.19-2.35-9.44-15.59-9.7-19.7-.29-4.56,2.72-8.92,7.85-9.91,3.25-.63,6.66-.41,10-.55.69-.03,1.39.14,2.07.1,6.68-.4,13.36-.83,20.4-1.27.67-4.72,3.11-9.04,6.63-12.75,4.93-5.19,9.31-6.95,17.72-3.54,7.06,2.87,11,8.41,14.78,14.29.92,1.43,1.02,3.48,1.18,5.28.87,9.9-.47,19.68-2.85,29.19-1.23,4.91-3.67,9.81-6.66,13.93-5.08,7.01-11.85,10.99-21.26,9.76-6.43-.84-11.83-2.83-16.35-7.52-2.47-2.56-3.56-5.27-2.73-8.75.16-.65.02-1.37.02-2.27Zm18.41-37.63c.22.56.4.92.5,1.3.49,1.84.68,3.67-.99,5.04-1.8,1.47-3.33.11-5.03-.48-2.07-.72-4.29-1.36-6.45-1.37-9.65-.04-19.29.21-28.94.26-4.12.02-6.5,2.36-4.25,6.91,2.12,4.27,4.4,8.45,6.57,12.69,3.71,7.27,10.26,10.18,18.11,8.01,1.22-.34,2.42-.8,3.66-.95,1.8-.21,3.7-.53,5.41-.14,1.13.26,2.26,1.51,2.92,2.6.71,1.16.27,2.42-1.22,3.14-.71-.4-1.43-1.15-2.13-1.12-.75.03-2.08.77-2.1,1.24-.14,3.04-.35,6.03,2.23,8.58,4.08,4.04,8.76,6.33,14.48,6.82,3.21.27,5.99-.39,8.82-1.98,6.38-3.58,9.88-9.4,12.71-15.73,4.19-9.36,4.3-19.35,3.95-29.34-.12-3.26-1.45-6.12-3.52-8.82-3.82-4.99-9.15-7.26-14.79-9.06-2.92-.93-5.7.14-7.79,2.12-2.01,1.9-3.69,4.22-5.24,6.54-.97,1.45-1.03,3.19.5,4.72.83-.32,1.68-.64,2.59-.99Z"/>
  <path class="cls-1" d="m494.59,198.05c-.8,5.09-1.03,9.87-3.43,14.18-2.46,4.41-4.83,8.86-7.23,13.3-3.83,7.11-9.21,12.25-17.35,14.07-2.71.61-5.28,1.89-8.01,2.29-13.77,2.03-25.41-2.26-33.66-13.41-5.53-7.47-8.56-16.1-5.18-25.76.92-2.63,1.33-5.44,1.89-8.18,1.22-5.96,4.35-10.94,8.43-15.23,4.92-5.15,11.32-6.88,18.3-6.69,1.11.03,2.34.44,3.3.08,4.4-1.63,8.98-1.21,13.34-.63,7.53.99,14.83,3.05,20.82,8.24,5.53,4.79,7.84,11.05,8.76,17.73Zm-45.34-23.17c-2.81-.51-7.01,1.43-11.02,3.79-2,1.18-4.22,2.53-5.43,4.4-2.88,4.44-5.45,9.1-6.26,14.53-.45,3.01-1.61,5.92-2.14,8.92-.41,2.31-.72,4.75-.44,7.06,1.52,12.43,10.8,20.98,22.5,23.48,7.64,1.63,14.77-.08,21.79-2.48,3.82-1.31,7.54-3.41,9.62-7.14,3.89-6.95,8.04-13.78,10.55-21.43,3.21-9.77-1.64-21.68-11.37-25.56-8.25-3.29-16.85-4.94-27.8-5.58Z"/>
  <path class="cls-1" d="m350.34,188.05c-6.9.13-13.46-.79-20.01-2.74-10.62-3.16-18.74-14.15-18.14-25.49.25-4.63.81-9.16,2.42-13.59,2.1-5.79,5.84-10.14,10.74-13.62.87-.62,2.18-1.38,3.03-1.14,2.37.64,4.08-.61,5.89-1.51,8.05-4.03,16.03-4.37,24.17-.15,2.44,1.26,5.18,2.19,7.89,2.63,5.98.95,10.68,3.55,14.34,8.52,3.49,4.73,5.92,9.93,7.31,15.48.7,2.79.23,6.27-.82,9.01-1.34,3.47-3.41,6.86-5.88,9.63-4.39,4.92-9.64,8.93-15.76,11.65-4.95,2.21-10.12,1.81-15.17,1.32Zm-.94-3.18c.03-.11.07-.23.1-.34,1.82,0,3.64-.01,5.47,0,4.58.03,9.32-.57,12.9-3.16,5.84-4.23,11.6-8.76,14.78-15.73,1.44-3.16,2.07-6.27.8-9.32-1.82-4.37-4.19-8.52-6.36-12.74-2.27-4.42-6.44-6.29-10.89-7.09-4.35-.78-8.32-2.32-12.32-4.04-1.75-.75-3.72-1.32-5.61-1.38-9.24-.31-17.17,3.52-24.75,8.28-.68.43-1.12,1.23-1.67,1.85-4.51,5.08-4.84,11.46-5.44,17.73-.17,1.8-.33,3.73.12,5.44,2.33,8.71,7.38,15.13,16.42,17.41,5.39,1.36,10.95,2.08,16.43,3.09Z"/>
  <path class="cls-1" d="m333.64,382.42c-1.68-.11-2.32-.07-2.91-.21-1.91-.45-3.81-.94-5.7-1.47-4.26-1.18-8.32-.56-12.24,1.31-4.21,2.01-8.61,2.99-13.29,3.49-10.17,1.11-16.43,7.3-20.34,16.52-2.64,6.22-.29,11.63,2.2,16.88,1.84,3.87,4.55,7.41,7.34,10.71,1.34,1.59,3.64,2.82,5.71,3.26,12.14,2.56,23.31,1.07,32.86-7.9,3.33-3.13,7.43-5.48,11.35-7.9,1.33-.82,3.2-.79,4.71-1.12,1.5,1.25,1.05,2.45.06,3.35-.8.73-1.88,1.17-2.89,1.62-4.89,2.18-9.47,4.78-13.4,8.55-7.21,6.93-16.09,9.31-25.88,8.83-.84-.04-1.66-.25-2.5-.36-11.31-1.39-10.46-2.16-15.98-9.08-4.69-5.88-8.03-12.46-8.83-20.09-.07-.69-.14-1.4-.09-2.09.71-10.96,12.45-23.44,23.22-24.67,3.2-.36,6.43-.47,9.62-.91,2.35-.32,4.78-.67,6.95-1.56,5.9-2.4,11.6-.85,17.33.45.74.17,1.31,1.11,2.72,2.38Z"/>
  <path class="cls-1" d="m440.47,296.85c-2.42-1.8-1.73-3.81-.98-5.53,2.58-5.92,6.87-10.46,13.02-12.32,5.97-1.81,12.2-3.02,18.41-3.76,11.6-1.39,20.17,4.26,26.92,13.05,1.96,2.55,2.3,5.76,1.44,9.07-2.54-.15-3.33-1.82-3.67-3.34-.56-2.47-1.95-4.21-3.64-5.95-6.56-6.79-14.35-10.08-23.82-8.4-4.52.8-9.01,1.86-13.48,2.95-6.92,1.69-10.62,6.82-13.41,12.86-.17.37-.4.71-.79,1.38Z"/>
  <path class="cls-1" d="m160.24,502.24c.94.65,1.99,1,2.38,1.71,2.83,5.09,7.68,7.82,12.52,10.27,5.98,3.03,12.3,5.4,19.05,8.3-.3-1.54-.47-2.42-.69-3.6h4.51c1.34-1.33-2.91-4.07,1.34-4.98.59,1.02,1.25,2.15,1.98,3.4.92-.05,1.85-.11,3.17-.18-.56.94-.95,1.58-1.58,2.64,9.64,2.2,19.53,1.69,28.97,4.13-11.12,1.08-22.15-.09-33.34-.35,3.77,1.14,7.53,2.29,11.3,3.43-.04.23-.09.45-.13.68-1.87-.21-3.76-.29-5.59-.65-13.29-2.6-26.11-6.52-37.53-14.08-2.18-1.44-4.04-3.45-5.78-5.43-1.16-1.33-1.89-3.07-.56-5.29Z"/>
  <path class="cls-1" d="m407.08,526.02c-1.21-4.53-2.2-8.23-3.3-12.33,3.88.37,3.75,3.15,4.28,5.21.58,2.26.76,4.63,1.16,7.27,2.01.33,4,.65,6.92,1.13-1.47-2.76-2.48-4.72-3.54-6.64-.34-.61-1.02-1.1-1.16-1.72-.15-.71-.12-1.84.31-2.18.47-.37,1.84-.37,2.21.03,1.49,1.6,2.74,3.42,4.03,5.08-.1-1.94-.22-4.03-.36-6.61,1.03.41,1.79.49,1.9.8,1.76,4.82,3.23,9.71,2.65,16.07-1.58-2.55-3.25-2.77-5.17-2.87-4.43-.23-8.83-.91-13.25-1.23-1.87-.13-3.78.18-5.67.3-.12,0-.31.16-.35.12-2.76-2.79-6.84-1.48-10.42-3.2,2.93-2.59,6.06-.69,8.96-1.29.53-3.94-1.91-7.92-.08-11.84,2.49,3.71,2.18,7.95,2.66,12.49,2.43.41,4.84.83,8.21,1.4Z"/>
  <path class="cls-1" d="m90.98,126.14c-16.67,7.33-33.14,14.67-45.49,28.69-2.45-2.12-.68-3.8.32-5.25,2.98-4.34,6.94-7.69,11.37-10.46,6.9-4.31,13.88-8.49,21.65-11.11,3.92-1.32,7.9-2.46,12.15-1.87Z"/>
  <path class="cls-1" d="m338.57,531.6c-11.36,3.83-22.94,5.65-34.73,6.18-1.19.05-2.41-.7-3.56-1.66,4.04-2.13,8.42-.42,12.48-1.96-4.31-.21-8.62-.39-12.93-.63-4.47-.25-8.96-.45-13.41-.9-4.39-.44-8.89-.5-13.06-2.74.41-1.61,1.41-1.51,2.59-1.39,12.68,1.29,25.35,2.64,38.04,3.75,8.21.72,16.47,1.64,24.58-.65Z"/>
  <path class="cls-1" d="m444.7,39c-.97,2.29-1.67,3.92-2.36,5.55-.24-.05-.49-.11-.73-.16.42-2,.84-4,1.32-6.27-1.88-1.15-3.73-2.29-5.96-3.66-1.01,2.84-1.87,5.27-2.74,7.7-.23-.05-.45-.1-.68-.15.5-2.8.99-5.6,1.56-8.82-1.54-.93-3.13-1.89-5.03-3.03-.73,2.14-1.3,3.8-1.86,5.47-.17-.03-.34-.06-.51-.09.22-1.86.45-3.71.73-6.05-.98-.51-2.13-1.1-3.65-1.88-.84,2.3-1.53,4.19-2.22,6.09.12-3.87-.98-8.09,3.52-11.44-.36,1.61-.56,2.52-.87,3.9,6.82,1.59,12.52,5.65,18.18,9.16,2.7-.93,2.5-4.98,6.43-4.64-1.02,1.36-1.78,2.29-2.46,3.28-1.69,2.48-1.58,3.16.8,4.77.92.62,1.91,1.13,3.46,2.04.39-.88.78-1.75,1.31-2.92.43.98.69,1.3.61,1.44-1.17,2.18.12,3.26,1.7,4.49,3.87,3.01,7.64,6.16,11.41,9.29.68.56,1.19,1.33,1.33,2.5-5.13-3.77-10.25-7.53-15.82-11.63-.88,2.14-1.59,3.87-2.36,5.75q-.48-2.32.53-6.57c-1.66-1.22-3.42-2.51-5.64-4.14Z"/>
  <path class="cls-1" d="m67.94,424.77c.26,1.22.23,2.32.71,3.11,2.5,4.21,5.13,8.35,7.71,12.52.57.92,1.09,1.88,1.17,3.25-.99-1.03-2.02-2.03-2.96-3.11-2.76-3.19-4.18-3.55-9.17-1.96,3.32,3.7,6.53,7.28,10.05,11.2-4.92-1.58-16.95-14.12-18.94-19.65.96.33,1.7.42,2.24.81.55.39.92,1.05,1.32,1.62,1.69,2.42,3.72,4.07,6.96,3.66,1.18-.15,2.43.23,4.33.45-2.2-3.42-4.06-6.34-5.96-9.23-.93-1.41-2.28-1.35-3.74-.98-1.99.49-4.01.87-6.31,1.36q.93-2.08,7.06-3.96c-1.25-4.91-6.7-8.06-6.36-13.97,2.16.07,2.66,1.36,3.35,2.58,1.79,3.17,3.6,6.34,5.58,9.39.77,1.18,2.05,2.03,2.97,2.91Z"/>
  <path class="cls-1" d="m247.08,83.41c.93-1.43,1.65-3.08,2.85-4.25,2.8-2.73,5.61-5.54,8.79-7.77,10.65-7.48,21.34-14.9,32.28-21.94,3.66-2.35,7.69-4.55,12.53-5.14-9.87,6.42-19.62,12.39-28.97,18.95-9.22,6.48-18.03,13.55-27.02,20.36-.15-.07-.3-.13-.45-.2Z"/>
  <path class="cls-1" d="m17.26,228.36c-.11,13.35-.51,25.82-.22,38.28.29,12.32,1.29,24.62,1.96,36.61-.3-.87-.82-2.13-1.16-3.43-.35-1.35-.56-2.74-.78-4.11-.24-1.52-.48-3.05-.63-4.58-1.57-15.52-2.65-31.06-1.81-46.66.24-4.46.92-8.9,1.48-13.34.09-.75.59-1.44,1.16-2.76Z"/>
  <path class="cls-1" d="m527.53,96.41c-8.6-13.06-15.93-27.25-30.81-35.13,1.1-.36,2.17-.71,3.24-1.07-.99-3.02-3.4-1.28-5.06-1.76.64-.43,1.26-.85,2.14-1.45-6.06-5.74-12.46-10.31-20.21-13.23.81-1.57,1.97-1.63,3.14-1.01,2.48,1.3,5.09,2.47,7.3,4.14,5.46,4.13,10.95,8.29,14.96,13.99.48.69,1.05,1.32,1.61,1.94,5.38,5.99,11.15,11.67,16.01,18.05,3.41,4.48,5.58,9.9,8.31,14.9-.21.2-.42.41-.62.61Z"/>
  <path class="cls-1" d="m309.58,250.5c.41,1.29.81,2.56,1.27,4.02,5.28-2.22,6.76-7.19,9.3-12.5.63,1.85,1.14,2.78,1.24,3.76.48,4.67-2.4,10.81-7.91,13.79-2.8,1.52-6.52.3-7.63-2.25-1.1-2.54.46-5.57,3.73-6.82Z"/>
  <path class="cls-1" d="m158.79,499.52c-1.74-.18-3.59-.05-5.21-.58-9.65-3.16-17.8-8.75-24.98-15.85-.4-.39-.84-.81-1.04-1.31-.24-.58-.23-1.26-.33-1.89.74-.04,1.71-.4,2.19-.06,2.39,1.69,4.7,3.51,6.96,5.38,6.81,5.64,13.95,10.69,22.68,13.07-.09.41-.18.83-.27,1.24Z"/>
  <path class="cls-1" d="m567.62,244c0,2.64,0,5.28,0,7.92-.01,9.79.75,19.61-.87,29.34-.34,2.04-.38,4.54-3.65,5.32-.8-5,1.43-9.45,1.4-14.11-.03-4.89.51-9.78.83-14.67.3-4.65.63-9.3.95-13.96.45.05.89.11,1.34.16Z"/>
  <path class="cls-1" d="m287.62,239.58c4.03-.72,3.85-4.79,6.37-6.86,1.5,2.39,1.39,4.53.55,6.85-.96,2.66-2.65,4.59-5.21,5.67-1.83.77-4.76-.31-6.3-2.3-1.43-1.85-2-4.06-1.2-6.26.75-2.07,2.94-2.15,4.16-.28.6.91,1.01,1.95,1.63,3.19Z"/>
  <path class="cls-1" d="m308.29,527.86c15.66-1.94,31.53-.57,47.08-3.68-3.51,1.77-7.33,2.38-11.16,2.87-4.03.52-8.07.97-12.12,1.29-4.05.32-8.12.62-12.17.58-3.87-.04-7.89,1.05-11.62-1.06Z"/>
  <path class="cls-1" d="m322.7,215c2.05-2.46,3.61-4.33,5.27-6.32,1.84,4.2.2,10.08-3.23,11.5-2.15.89-4.5.5-6.25-1.14-1.08-1.02-1.87-2.42-2.58-3.76-.64-1.21-.48-2.48.76-3.35,1.25-.87,2.36-.5,3.37.51.76.76,1.53,1.49,2.64,2.57Z"/>
  <path class="cls-1" d="m514.12,231.62c-1.66-.67-2.89-1.17-4.35-1.76,1.15-2.4,2.52-3.99,4.91-3.72,2.32.27,3.48,2.13,4.3,4.18,1.13,2.81.59,5.44-1.56,7.33-2.2,1.92-4.54,4.36-8.31,2.48,1.6-2.93,5.32-4.49,5.02-8.5Z"/>
  <path class="cls-1" d="m320.8,36.51c-.21-3.13,1.37-4.06,2.92-4.97,9.99-5.87,20.67-9.89,32.12-11.89-11.76,4.94-23.7,9.49-35.04,16.86Z"/>
  <path class="cls-1" d="m248.58,384.74c1.98,5.32.18,11.64-3.92,14.94-1.68,1.35-3.1.86-4.6-.06-3.16-1.95-3.47-4.96-.62-8.18.83,1.11,1.62,2.16,2.53,3.37,4.53-1.73,4.09-6.86,6.62-10.06Z"/>
  <path class="cls-1" d="m99.11,145.45c-9.69,5.66-18.49,10.81-27.48,16.07-.91-2.15.41-3.38,1.47-4.19,7.48-5.76,15.71-9.98,26.01-11.88Z"/>
  <path class="cls-1" d="m97.88,132.49c-9.47,6-18.93,12-28.54,18.08-.71-2.04,1.01-3.3,2.39-4.4,2.73-2.17,5.55-4.28,8.55-6.04,4.2-2.47,8.57-4.67,12.94-6.84,1.39-.69,3.01-.92,4.52-1.35.05.18.1.36.14.55Z"/>
  <path class="cls-1" d="m403.83,120.61c2.43-2.68,4.14-4.56,5.98-6.58.65,3.74-1.19,8.2-3.74,9.57-2.58,1.38-5.47.77-6.93-1.72-.82-1.41-1.57-3.08-1.61-4.66-.03-1.11.93-2.8,1.9-3.25,1.58-.72,2.4.73,2.84,2.2.35,1.15.79,2.27,1.57,4.43Z"/>
  <path class="cls-1" d="m433.11,128.77c-1.47,3.44-1.14,5.97,2.15,7.88,1.48-.99,3.17-2.1,4.85-3.22.95,3.21-.97,6.96-4.01,7.94-3.16,1.01-6.4-1.21-7.4-5.06-.96-3.69.48-6.53,4.42-7.54Z"/>
  <path class="cls-1" d="m184.57,242.38c-1.52,2.41-2.76,4.38-4,6.35.18.25.36.5.54.75,2.46-.65,4.92-1.3,7.4-1.95-1.43,4.48-5.12,6.95-9.22,6.25-3.24-.55-4.75-3.47-2.89-6.19,1.79-2.61,4.09-4.82,8.17-5.22Z"/>
  <path class="cls-1" d="m556.72,290.72c-.58-1.25-1.23-1.97-1.18-2.64.58-8.6,1.26-17.18,1.97-26.52,2.82,5.51,2.3,24.5-.79,29.16Z"/>
  <path class="cls-1" d="m116.59,173.23c-3.66,3.19-7.53,6.18-10.92,9.63-3.33,3.38-6.17,7.24-9.35,11.03-1.56-1.55-.74-2.89.01-4.21,2.55-4.46,6.4-7.75,10.16-11.08,1.97-1.75,4.32-3.09,6.58-4.5,1-.62,2.18-.93,3.28-1.39.08.17.17.34.25.51Z"/>
  <path class="cls-1" d="m158.23,186.81c1.14,5.59-.63,9.02-4.68,9.57-3.76.51-7.26-2.74-6.88-6.5.07-.7.59-1.68,1.16-1.92.58-.24,1.65.06,2.19.52,1.22,1.03,1.94,3.33,3.83,2.61,1.38-.52,2.29-2.27,3.42-3.46.19-.2.42-.36.97-.82Z"/>
  <path class="cls-1" d="m178.07,214.72c2.55-1.48,4.55-2.65,6.59-3.84.09,3.7-1.89,7.03-4.72,8.11-2.08.79-4.88-.16-6.33-2.15-1.36-1.87-1.54-4.24-.18-5.84.55-.65,1.58-1.19,2.41-1.2.47,0,1.07,1.08,1.41,1.78.34.71.43,1.55.83,3.14Z"/>
  <path class="cls-1" d="m291.22,118.12c1.89,5.48,4.56,7.8,11.38,7.31-.58,2.75-2.61,3.5-4.97,3.61-3.54.18-8.01-2.85-9.33-6.17-1.03-2.6.01-4.31,2.92-4.75Z"/>
  <path class="cls-1" d="m24.57,288.2c.31.23.84.41.9.7,2.1,9.22,4.15,18.44,5.76,27.77-4.35-8.93-6.67-18.37-7.74-28.13.36-.11.71-.23,1.07-.34Z"/>
  <path class="cls-1" d="m285.53,65.56c.93-.9,1.76-1.91,2.79-2.68,6.89-5.12,14.74-8.43,22.53-11.85,1.74-.76,3.52-1.43,5.52-1.63-10.14,5.52-20.28,11.04-30.43,16.55-.14-.13-.28-.27-.42-.4Z"/>
  <path class="cls-1" d="m234.85,432.69c1.51-2.41,2.69-4.31,3.88-6.21.37.28.74.56,1.12.84.49,2.91-.34,5.48-2.67,7.49-2.26,1.94-4.91,1.78-6.71-.2-2.29-2.53-2.22-4.41.53-7.42.46.94.8,1.79,1.28,2.54.44.67,1.05,1.23,2.57,2.97Z"/>
  <path class="cls-1" d="m417.23,82.22c.95-1.73,1.79-3.26,2.72-4.94,2.38,3.6,2.14,7.29-.38,9.66-1.24,1.17-2.69,1.5-4.27.86-1.58-.64-3.3-3.26-3.07-4.69.25-1.55,1.31-2.11,2.75-1.82.77.15,1.48.59,2.26.92Z"/>
  <path class="cls-1" d="m398.61,76.94c.94-2.04,1.88-4.09,3.09-6.71,1.64,3.66,1.35,6.53-.38,9.22-1.87,2.9-4.35,3.09-6.42.36-1.05-1.39-1.65-3.18-2.16-4.88-.16-.53.5-1.71,1.05-1.93.49-.2,1.57.34,1.99.87.73.92,1.16,2.08,1.71,3.13l1.11-.06Z"/>
  <path class="cls-1" d="m284.67,359.04c1.02-1.87,2.03-3.75,3.33-6.15.88,2.93.53,5.17-.37,7.31-1.07,2.55-2.78,3.2-5.43,2.28-2.46-.85-4.95-5.44-4.11-7.95.23-.69,1.24-1.12,1.98-1.74,1.31,2.42,2.4,4.42,3.48,6.42.37-.06.75-.12,1.12-.17Z"/>
  <path class="cls-1" d="m122.72,319.28c.13,3.53-1.61,5.94-4.06,6.35-1.8.3-4.46-1.51-4.94-3.71-.32-1.45-.39-3.09-.04-4.51.2-.81,1.5-1.88,2.26-1.85.73.04,1.46,1.3,2.06,2.12.17.24-.18.81-.13,1.21.24,2.1.98,2.48,3.07,1.55.47-.21.87-.57,1.78-1.17Z"/>
  <path class="cls-1" d="m140.16,319.46c1.52-.88,2.68-1.55,3.92-2.26.11,3.89-.57,5.01-3.22,5.92-2.76.95-4.14-1.17-5.61-2.65-1.4-1.41-2.04-3.38-1.14-5.39.72-1.63,2.49-1.58,3.54.06.87,1.36,1.64,2.78,2.53,4.31Z"/>
  <path class="cls-1" d="m136.29,223.36c1.23-.72,2.29-1.34,3.41-2,.71,3.85-1.04,6.69-4.03,6.85-2.47.13-5.63-3.12-5.46-5.9.06-.94.78-2.09,1.55-2.63.38-.27,1.71.49,2.37,1.06.82.7,1.4,1.68,2.15,2.62Z"/>
  <path class="cls-1" d="m205.52,407.08c.08,2.07-1.39,4.35.83,6.56,1.47-.33,3.15-.7,4.9-1.09-1.23,3.96-3.25,5.34-6.51,4.59-2.73-.63-4.19-3.11-3.61-6.09.61-3.11,1.78-4.22,4.39-3.97Z"/>
  <path class="cls-1" d="m172.82,154.75c1.26,1.39,2.25,2.49,3.59,3.97,2.09-1.41,4.12-2.78,6.42-4.33.6,2.85-1.28,4.34-2.71,6.07-1.26,1.52-2.74,2.35-4.74,2.14-2-.21-3.36-1.22-4.1-3.11-.7-1.77-.5-3.22,1.54-4.74Z"/>
  <path class="cls-1" d="m142.46,473.38c8.02-.06,15,1.24,21.43,5.3-3.62-.51-7.23-1.08-10.86-1.52-8.69-1.05-8.69-1.02-10.56-3.78Z"/>
  <path class="cls-1" d="m135.19,479.31c4.12,1.17,17.28,9.98,20.83,13.72-5.01-.8-17.91-9.14-20.83-13.72Z"/>
  <path class="cls-1" d="m311.57,403.64c2,.36,3.85,1.28,4.93.73,1.22-.63,1.76-2.6,2.67-4.1,1.71,3.15,1.12,6.86-1.2,8.69-1.7,1.34-4.18,1.08-6.08-.63-1.64-1.48-1.67-2.39-.31-4.68Z"/>
  <path class="cls-1" d="m20.09,314.7c2.73,3.7,2.21,8.17,3.55,12.05,1.35,3.92,2.88,7.78,4.48,12.06-5.11-5.01-10-19.67-8.03-24.11Z"/>
  <path class="cls-1" d="m300.17,401.9c.85-.25,1.87-.55,2.93-.86.36,3.49-.14,4.54-2.48,5.56-1.87.81-3.83.38-4.85-1.06-1.17-1.66-1.32-4.77,0-5.83.74-.6,2.13-1.03,2.94-.74.64.23.87,1.66,1.45,2.94Z"/>
  <path class="cls-1" d="m224.99,228.85c-2.54,3.25-4.2,3.71-6.53,2.2-2.26-1.46-3.44-5.32-2.1-7.35.39-.59,1.34-1.18,1.98-1.12.63.06,1.62.88,1.69,1.45.34,2.81,2.29,3.95,4.96,4.81Z"/>
  <path class="cls-1" d="m103.89,465.87c-5.45-2.01-9.55-5.94-13.92-9.44-.7-.56-.89-1.78-1.58-3.26,1.37.1,2.2-.11,2.57.22,4.48,3.96,9.39,7.5,12.94,12.48Z"/>
  <path class="cls-1" d="m562.44,243.41c.2,7.24,2.08,14.51-.7,22.62-.77-1.33-1.37-1.88-1.35-2.41.25-6.75.59-13.5.91-20.25.38.01.76.02,1.14.03Z"/>
  <path class="cls-1" d="m103.34,332.72c1.35,6.15,2.13,6.82,8.39,7.7-.8,2.23-2.43,3.13-4.52,2.73-2.82-.54-5.34-1.79-6.31-4.82-.72-2.27.12-3.95,2.44-5.61Z"/>
  <path class="cls-1" d="m571.6,222.73c-2.66-6.89-2.55-14.6-7.28-21.68,1.61.35,2.57.26,2.92.68.78.96,1.47,2.1,1.82,3.28,1.74,5.76,2.57,11.68,2.54,17.72Z"/>
  <path class="cls-1" d="m95.35,199.02c4.21-5.89,10.48-9.28,16.57-12.9-1.64,3.27-4.82,4.98-7.38,7.3-2.63,2.38-5.47,4.53-8.22,6.78-.32-.39-.65-.78-.97-1.17Z"/>
  <path class="cls-1" d="m561.42,169.16c-2.82-5.78-5.64-11.55-8.59-17.61.49-.04,1.33-.38,1.81-.09.79.47,1.47,1.26,1.98,2.06,3.04,4.74,4.31,10.06,4.8,15.65Z"/>
  <path class="cls-1" d="m81.55,212.97c-2.08,4.57-4.16,9.15-6.26,13.72-.29.63-.64,1.29-1.13,1.75-.34.32-1.15.62-1.43.44-.5-.33-.86-.99-1.08-1.58-.12-.32.13-.82.3-1.19,2.37-4.94,5.38-9.46,9.6-13.14Z"/>
  <path class="cls-1" d="m555.58,250.83c-1.4-6.1-2.77-12.2-4.21-18.29-.36-1.5-.9-2.93,1.57-4.04,1.6,7.63,3.38,14.83,2.64,22.34Z"/>
  <path class="cls-1" d="m474.85,288.12c-.76,2.27-1.64,2.98-3.77,2.78-2.17-.21-4.25-1.96-4.25-3.91,0-.82.55-1.88,1.2-2.37.44-.33,1.62-.08,2.25.29,1.56.93,2.98,2.07,4.58,3.21Z"/>
  <path class="cls-1" d="m412.36,17.19c-1.94,4.96-3.87,9.93-5.81,14.89-.02-5.72.96-11.06,4.62-15.43.39.18.79.36,1.18.54Z"/>
  <path class="cls-1" d="m74.88,426.81c3.3,3.42,6.35,7.05,8.72,11.65-3.69-1.08-6.03-4.19-8.72-11.65Z"/>
  <path class="cls-1" d="m479.18,104.27c-2.42-2-4.87-3.96-7.24-6.02-.3-.26-.43-1.22-.2-1.49.37-.45,1.14-.89,1.67-.81.77.12,1.67.52,2.15,1.11,1.62,2.01,3.08,4.16,4.6,6.26-.32.32-.65.64-.97.95Z"/>
  <path class="cls-1" d="m352.6,77.51c-3.19,2.11-6.39,4.23-10.18,6.74.08-1.37-.14-2.29.21-2.74,2.4-3.05,5.84-4.07,9.96-4Z"/>
  <path class="cls-1" d="m299.74,419.75c-1.26,3.8-3.73,2.64-5.55,2.45-1.66-.18-2.6-1.48-1.78-3.93,2.31.47,4.63.93,7.33,1.48Z"/>
  <path class="cls-1" d="m226.64,124.83c1.19-4.41,4.6-6.94,7.71-9.72-1.67,3.96-4.29,7.18-7.71,9.72Z"/>
  <path class="cls-1" d="m188.05,155.04c1.98.44,3.67.82,5.36,1.2-.72,3.08-1.94,4.02-4.24,3.24-1.91-.64-2.12-1.37-1.12-4.44Z"/>
  <path class="cls-1" d="m187.34,170.59c-1.86,2.03-3.47,2.59-5.11,1.13-.68-.61-.81-1.84-1.19-2.79,1.1-.3,2.3-1.02,3.26-.77,1.05.28,1.87,1.45,3.04,2.44Z"/>
  <path class="cls-1" d="m42.2,360.42c2.68,2.56,3,5.35,4.14,8.32-3.52-1.26-4.74-3.77-4.14-8.32Z"/>
  <path class="cls-1" d="m552.69,173.85c2.34,3.41,3.18,7.36,3.45,11.53-1.54-3.71-3.07-7.43-4.61-11.14.39-.13.78-.26,1.16-.39Z"/>
  <path class="cls-1" d="m205.55,505.82c-2.9,2.13-5,2.1-6.06.23-.3-.52-.41-1.46-.13-1.91.28-.43,1.29-.81,1.76-.63,1.38.53,2.65,1.35,4.43,2.31Z"/>
  <path class="cls-1" d="m38.04,297.26c-2.03-1.78-4.71-3.14-3.73-7.06,2.93,1.81,4.03,4.07,3.73,7.06Z"/>
  <path class="cls-1" d="m478.83,64.85c2.79-3,6.34-4.52,10.47-4.7-3.49,1.57-6.98,3.13-10.47,4.7Z"/>
  <path class="cls-1" d="m41.08,316.44c-2.01-2.3-2.65-4.04-1.28-6.61,2.39,1.84,1.55,3.87,1.28,6.61Z"/>
  <path class="cls-1" d="m308.98,424.53c1.83-.76,4.49.77,5.48-2.2.37,2.46-.89,3.56-2.74,4.09-1.43.41-2.38-.2-2.74-1.89Z"/>
  <path class="cls-1" d="m36.34,284.03c-1.44-1.77-4-3.02-3.18-6.2q2.34,2.07,3.18,6.2Z"/>
  <path class="cls-1" d="m484.05,289.55c-.94,1.37-1.72,2.86-3.6,1.79-.49-.28-.95-1.67-.7-2,1.36-1.76,2.8-1.16,4.3.21Z"/>
  <path class="cls-1" d="m30.33,214.13c-.44-1.1-1.28-2.19-1.02-2.79.32-.72,1.58-1.02,2.59-1.58.91,2.12.2,3.12-1.57,4.37Z"/>
  <path class="cls-1" d="m214.46,515.4q.04-3.58,1.61-5.44c1.73,2.31.36,3.61-1.61,5.44Z"/>
  <path class="cls-1" d="m507.43,82.5c1.08-2.56,3.19-2.73,5.53-2.3-1.86.77-3.7,1.54-5.53,2.3Z"/>
  <path class="cls-1" d="m506.22,76.49c-1.59.6-3.17,1.2-4.76,1.79-.1-.27-.2-.53-.29-.8,1.6-.55,3.21-1.11,4.81-1.66.08.22.17.44.25.66Z"/>
  <path class="cls-1" d="m503.05,71.23c-1.98.81-3.96,1.63-5.94,2.44,1.34-2.3,3.65-2.32,5.94-2.44Z"/>
  <path class="cls-1" d="m49.93,178.45c-.55,1.17-1.09,2.34-1.77,3.8q-1.76-2.59.89-4.24c.29.15.59.29.88.44Z"/>
  <path class="cls-1" d="m36.31,191.27c-.6,1.35-1.15,2.58-1.81,4.06-1.48-3.34-1.33-3.65,1.81-4.06Z"/>
  <path class="cls-1" d="m153.05,132.12c1.83-.22,3.67-.45,5.5-.67.03.2.06.39.09.59-1.82.32-3.64.64-5.46.96-.04-.29-.09-.59-.13-.88Z"/>
  <path class="cls-1" d="m416.76,23.36c-.65,1.64-1.3,3.29-1.95,4.93-.25-.09-.5-.17-.75-.26.57-1.67,1.14-3.35,1.7-5.02.33.12.66.23.99.35Z"/>
  <path class="cls-1" d="m51.91,186.12c-.93.29-1.85.58-3.34,1.04.66-2.59,1.64-2.86,3.02-2.21.11.39.21.78.32,1.17Z"/>
  <path class="cls-1" d="m39.6,172.98c.67.55,1.15.94,1.63,1.34-.54.49-1.02,1.2-1.65,1.38-.33.09-.93-.74-1.41-1.15.42-.46.83-.92,1.42-1.57Z"/>
  <path class="cls-1" d="m391.17,458.26v4.01c-.1,0-.2.02-.3.03-.09-1.34-.18-2.68-.27-4.02.19,0,.38-.01.57-.02Z"/>
  <path class="cls-1" d="m240.73,113.84c-.2.76-.39,1.51-.59,2.27l-.57-.1c.12-.79.25-1.57.37-2.36.26.06.52.13.79.19Z"/>
  <path class="cls-1" d="m512.38,97.75c-.67.66-1.34,1.33-2.01,1.99-.21-.18-.42-.36-.62-.54l1.88-2.17.75.72Z"/>
  <path class="cls-1" d="m24.42,181.96c-.42.35-.68.75-.98.78-.34.04-.72-.24-1.09-.38.3-.36.54-.84.92-1.05.17-.09.63.34,1.15.64Z"/>
  <path class="cls-1" d="m344.46,365.97c.36-.1,1.01-.16,1.03-.31.77-5.38,4.79-8.04,8.96-10.35,5.53-3.06,11.5-5.13,17.6-6.76,4.73-1.27,9.38-1.37,13.94.8,2.27,1.08,4.66,1.89,6.94,2.95,3.1,1.43,5.23,6.46,4.12,10.17-1.27,4.21-1.9,8.73-5.34,12.16,4.96,3.85,11.22,2.88,16.69,5.42-.66,5.42-2.72,9.95-6.84,13.48-.95.82-2.1,1.42-3.04,2.24-3.68,3.2-7.68,4.65-12.62,2.11-1.78,4.29-4.41,7.23-9.31,7.31-3.7.06-5.18-.28-7.13-2.49,2.16-1.71,4.8-1.18,7.18-1.56,2.19-.35,3.98-.84,4.85-3.28,1.37-3.85-.51-7.17-5.94-7.09-.19,1.33-.25,2.73-.6,4.04-.8,2.94-2.98,4.48-5.53,4.07-2.33-.37-3.75-2.3-3.88-5.28-.2-4.6,2.12-7.32,6.65-7.31,2.78,0,5.75.05,8.27,1.02,2.05.79,3.72,2.84,5.29,4.58,3.15,3.5,5.18,3.99,8.96,1.28,3.47-2.48,7.19-4.85,8.66-9.6-3.27-.76-6.39-1.33-9.42-2.22-3.79-1.11-7.36-2.7-9.94-5.94-.49-.61-1.31-.98-2.02-1.39-4.61-2.68-4.65-9.87-.05-12.68,1.78-1.09,5.17-.1,6,2.17.63,1.74.66,3.79.55,5.68-.08,1.32-.84,2.6-1.38,4.11.75.32,1.47.63,2.32,1,1.08-4.01,2.15-7.74,3.09-11.51,1.02-4.1-.39-6.1-4.25-7.74-4.22-1.8-8.46-3.16-13.03-2.45-8.67,1.34-17,3.58-23.46,10.12-1.57,1.59-3.26,3.05-5.12,4.77-.68-.47-1.44-1-2.2-1.53,0,0,0,.02,0,.02Z"/>
  <path class="cls-1" d="m434.38,379.23c.19-2.11.04-4.52,2.67-5.53,2.35-.9,6.97.6,8.32,2.62,2.02,3.01,1.79,6.99-.55,9.72-1.35,1.57-3.19,1.98-5.3,1.18-3.01-1.14-5.18-4.46-5.15-7.99Zm7.11,2.91c1.02-2.38.24-3.21-2.18-4.17.92,1.76,1.43,2.73,2.18,4.17Z"/>
  <path class="cls-1" d="m382.63,318.74c-.07,5.16-2.26,9.45-5.41,13.25-1.42,1.71-3.58,2.35-5.73,1.5-2.01-.79-3.07-2.68-2.9-4.71.15-1.86.94-3.72,1.72-5.46.23-.52,1.51-1.02,2.04-.82.58.22,1.09,1.23,1.2,1.96.19,1.25.05,2.55.05,4.31,4.33-2.77,5.67-7.22,9.03-10.04Z"/>
  <path class="cls-1" d="m403.54,320.12c.36.15.8.23,1.1.48,3.05,2.52,4.4,2.37,6.6-.84,1.47-2.15,2.9-4.32,4.6-6.86,1.52,5.76-2.11,13.2-6.7,14.81-2.22.78-4.13.08-5.85-2.16-1.51-1.96-1.47-3.18.25-5.44Z"/>
  <path class="cls-1" d="m544.91,373.69c0,1.24.4,2.55-.06,3.39-3.05,5.57-3.18,11.39-1.85,17.4.06.26-.03.55-.1,1.48-.65-2.37-1.14-4.16-1.9-6.93-1.18,2.55-2.14,4.32-2.84,6.18-2.49,6.59-5.89,12.69-10.01,18.38-1.04,1.43-2.33,2.67-4.15,3.57,1.95-3.79,3.93-7.56,5.83-11.38,4.76-9.54,8.29-19.57,11.37-29.76.52-1.72,1.17-2.83,3.71-2.34Z"/>
  <path class="cls-1" d="m496.5,446.36c1-2.61,13.73-17.15,19.52-21.63-1.4,2.46-2.52,5.14-4.26,7.33-3.64,4.58-7.57,8.94-11.48,13.31-.92,1.03-2.04,2.52-3.77.99Z"/>
  <path class="cls-1" d="m458.85,506.88c5.72-7.11,11.38-14.16,17.05-21.21-2.54,8.44-7.43,15.38-13.56,21.49-.75.75-1.77,1.58-3.49-.28Z"/>
  <path class="cls-1" d="m471.27,469.33c-3.56,7.94-7.11,15.88-10.67,23.82-.34,0-.68,0-1.02,0-.34-.72-.86-1.42-.98-2.18-.1-.64.13-1.41.41-2.03,3.17-7.09,6.98-13.81,11.4-20.18l.86.56Z"/>
  <path class="cls-1" d="m533.01,382.6c-.42,5.12-9.47,23.13-12.79,26.1,3.97-8.85,6.74-18.29,12.79-26.1Z"/>
  <path class="cls-1" d="m544.99,336.33c1.44,1.54,2.88,3.08,4.4,4.71.8-1.88-2.16-3.27-.11-5.32,3.24,2.41,3.67,5.84,3.89,9.86-4.16-2.06-7.8-4.04-9.07-8.37.3-.29.6-.59.89-.88Z"/>
  <path class="cls-1" d="m481.7,467.76c-1.72-5.57-3.44-11.14-5.17-16.71.25-.18.51-.35.76-.53.69.49,1.72.83,2.01,1.49,2.14,5,3.56,10.15,2.4,15.75Z"/>
  <path class="cls-1" d="m557.48,336.31c-.81-1.11-1.5-2.34-2.45-3.3-1.4-1.42-2.24-3.72-4.94-3.37-.31.04-1.11-1.02-1.04-1.47.11-.68.73-1.74,1.23-1.81,1.18-.15,2.58-.1,3.61.42,2.47,1.24,4.28,5.37,3.59,9.53Z"/>
  <path class="cls-1" d="m546.26,361.61c.45.42,1.14.75,1.31,1.26,1.73,5.13,3.12,10.34,2.31,15.97-1.47-5.61-2.93-11.23-4.4-16.84.26-.13.52-.26.78-.39Z"/>
  <path class="cls-1" d="m546.5,356.35c4.04,3.03,7.19,10.28,7.64,17.3-1.39-3.26-2.51-5.97-3.7-8.64-1.21-2.72-3.13-5.14-3.93-8.66Z"/>
  <path class="cls-1" d="m557.25,343.69c2.42,3.27,2.78,6.55,1.88,10.32-3.05-3.43-3.85-7.26-1.88-10.32Z"/>
  <path class="cls-1" d="m505.44,417.68c-.51,3.96-2.21,7.31-4.39,10.98-.68-2.57-.62-2.77,1.28-5.88,1.04-1.7,2.07-3.4,3.11-5.1Z"/>
  <path class="cls-1" d="m461.12,517.69c.2-1.77,1.3-2.19,2.81-2.3q-.75,2-2.81,2.3Z"/>
  <path class="cls-1" d="m465.09,322.94c2.83,1.09,5.35,2.07,7.88,3.04-1.02,2.95-2.84,3.78-5.97,2.74-2.38-.78-2.98-2.25-1.91-5.79Z"/>
  <path class="cls-1" d="m455.17,317.58c.73.42,1.39.65,1.86,1.1.58.55,1.02,1.25,1.47,1.92.42.63,1.26,1.56,1.07,1.92-.4.77-1.39,1.78-2.06,1.73-1.25-.1-2.79-.58-3.57-1.47-.66-.75-.65-2.31-.5-3.46.08-.61,1.07-1.1,1.74-1.73Z"/>
  <path class="cls-1" d="m477.87,315.95c-.85.91-1.69,1.83-2.51,2.71-1.64-1.03-1.71-2.15-.8-3.01.64-.59,1.76-.66,2.66-.97.21.42.43.85.64,1.27Z"/>
  <path class="cls-1" d="m224.66,296.51c.3-1.37.5-2.3.7-3.23.43-1.95-.42-3.24-2.12-4.08-.25-.12-.53-.16-.8-.23-1.63-.42-2.96-1.2-2.56-3.14.3-1.47,2.25-2.04,4.25-1.27,1.16.44,2.35,1.01,3.28,1.8,3.05,2.61,3.43,8.66-2.75,10.16Z"/>
  <path class="cls-1" d="m212.05,298.79c-.4,2.22-2.06,3.11-3.97,3.65-1.52.43-2.94-.15-3.5-1.48-.42-1-.45-2.57.07-3.47.83-1.46,2.35-.94,3.67-.33,1.19.55,2.4,1.05,3.73,1.63Z"/>
  <path class="cls-1" d="m258.84,300.26c-1.23-2.02-2.43-3.83-3.42-5.74-.24-.46-.02-1.54.37-1.86.53-.43,1.5-.68,2.16-.52,1.48.36,2.34,1.45,2.41,3.05.08,1.77.33,3.6-1.52,5.07Z"/>
  <path class="cls-1" d="m235.02,303.56c2.64.96,4.36,1.59,6.21,2.26.11,2.03-1.3,3.37-3.14,3.4-1.26.02-2.92-1.04-3.68-2.13-.48-.68.36-2.3.61-3.53Z"/>
  <path class="cls-1" d="m235.44,322.48c-1.31,2.24-2.29,4.06-3.45,5.76-.3.44-1.26.8-1.73.65-.46-.15-.95-1.03-.95-1.58.03-2.82,2.19-4.65,6.13-4.83Z"/>
  <path class="cls-1" d="m252.46,282.37c-1.48-.32-2.75-.4-3.81-.9-.71-.34-1.61-1.35-1.54-1.95.08-.71,1.02-1.67,1.77-1.89,2.69-.81,4.13.97,3.58,4.75Z"/>
  <path class="cls-1" d="m228.22,317.44c-2.15,1.53-3.87,1.85-5.07-.18-1.14-1.94-.13-3.1,2.05-3.64.94,1.19,1.85,2.34,3.01,3.82Z"/>
  <path class="cls-1" d="m461.07,217.43c-.76,4.66-4.92,6.93-8.79,5.07-1.3-.62-1.92-1.59-1.74-2.99.2-1.51,1.26-2.05,2.65-2.11.42-.02.83.03,1.25.03,2.2,0,4.39,0,6.63,0Z"/>
  <path class="cls-1" d="m465.8,204.75c0-3.21,0-5.86,0-8.5,0-1.54.31-2.83,2.18-2.96,1.55-.1,3.3,1.51,3.03,3.32-.46,3.14-1.21,6.31-5.2,8.13Z"/>
  <path class="cls-1" d="m446.85,192.04c-.45,1.81-1.78,2.74-3.54,2.62-1.56-.1-3.23-.49-4.58-1.25-.59-.33-.5-1.89-.71-2.89.98-.2,2.04-.73,2.92-.52,1.95.46,3.82,1.29,5.91,2.03Z"/>
  <path class="cls-1" d="m448.13,202.68c-.21,2.67-2.61,2.41-4.18,2.65-1.15.18-2.5-.59-3.65-1.18-.27-.14-.33-1.52,0-1.8.64-.57,1.65-1.14,2.43-1.05,1.74.22,3.44.85,5.41,1.38Z"/>
  <path class="cls-1" d="m460.69,198.93c-1.35-1.47-2.42-2.32-3.04-3.43-.36-.65,0-1.71.03-2.59.97.17,2.2.03,2.85.58,1.44,1.21,1.16,2.89.15,5.43Z"/>
  <path class="cls-1" d="m345,168.09c1.81,1.36,3.41,2.57,5.11,3.85-.95,2.21-2.86,2.17-4.55,1.66-1.02-.31-2.13-1.37-2.57-2.37-.68-1.53.3-2.61,2.01-3.15Z"/>
  <path class="cls-1" d="m355.58,155.68c-.66-1.6-1.54-3.15-1.86-4.81-.13-.71.78-2.14,1.5-2.37,1.31-.41,2.56.4,2.49,1.95-.08,1.72-.53,3.42-.81,5.13-.44.03-.88.07-1.31.1Z"/>
  <path class="cls-1" d="m340.1,155.98c-1.86,2.79-3.65,3.75-5.66,2.99-.7-.26-1.57-1.39-1.49-2.02.09-.71,1.15-1.84,1.78-1.84,1.72,0,3.44.52,5.37.87Z"/>
  <path class="cls-1" d="m337.63,149.37c-1.5.99-2.18,1.74-2.97,1.9-1.41.28-2.59-.52-2.71-1.92-.05-.54,1.19-1.73,1.78-1.68,1.08.08,2.1.86,3.91,1.7Z"/>
  <path class="cls-1" d="m362.55,174.27c-1.9-.55-3.57-1.12-3.11-3.53.1-.53.78-1.11,1.33-1.35.34-.14,1.13.2,1.39.56.88,1.24,1.54,2.6.39,4.31Z"/>
</svg>