<?xml version="1.0" encoding="UTF-8"?>
<svg id="Layer_1" data-name="Layer 1" xmlns="http://www.w3.org/2000/svg" viewBox="0 0 513.35 275.31">
  <defs>
    <style>
      .cls-1 {
        fill: #d44000;
        stroke-width: 0px;
      }
    </style>
  </defs>
  <path class="cls-1" d="m147.58,273.44c-1.99,1.51-4.34,1.94-6.78,1.86-6.54-.23-13.12-.18-19.6-.95-5.45-.65-10.82-2.15-16.16-3.53-3.69-.95-7.36-2.11-10.88-3.56-4.59-1.9-9.08-4.07-13.5-6.35-4.02-2.07-8.04-4.22-11.78-6.74-5.37-3.61-10.74-7.29-15.67-11.47-5.69-4.83-10.97-10.15-16.28-15.41-1.95-1.93-3.53-4.24-5.15-6.48-.54-.75-.76-1.78-.91-2.71-.05-.34.46-1.02.83-1.12.59-.17,1.47-.23,1.88.09,2.28,1.77,4.46,3.68,6.67,5.54,2.15,1.81,4.32,3.61,6.46,5.43,3.46,2.94,6.82,6,10.39,8.79,2.88,2.26,6,4.22,9.03,6.29,3.5,2.39,6.88,5.01,10.57,7.08,6.2,3.49,12.54,6.73,18.93,9.86,2.38,1.17,5.28,1.34,7.55,2.64,4.83,2.76,10.28,3.4,15.41,5.11,6.84,2.28,13.87,3.67,21.06,4.19,2.62.19,5.24.4,7.86.61.02.28.04.55.06.83Z"/>
  <path class="cls-1" d="m386.7,265.17c-1.04-1.12-.18-1.64.65-2.1,2.06-1.13,4.2-2.14,6.21-3.35,6.16-3.71,12.31-7.43,18.39-11.27,4.03-2.55,8.11-5.09,11.85-8.03,6.39-5.01,12.74-10.1,18.71-15.59,5.01-4.61,9.57-9.75,14.12-14.83,2.56-2.87,4.75-6.08,7.04-9.18,2.77-3.75,5.52-7.53,8.2-11.35,2.13-3.03,4.09-6.19,6.26-9.2,1.14-1.59,2.18-3.55,4.82-3.09,1.03,2.41.08,4.62-.91,6.72-1.51,3.24-3.13,6.43-4.89,9.54-1.58,2.81-3.35,5.52-5.14,8.2-2.34,3.49-4.54,7.13-7.29,10.29-2.49,2.86-4.29,6.24-7.64,8.51-3.1,2.1-5.42,5.31-8.27,7.81-2.57,2.25-5.42,4.19-8.13,6.28-1.67,1.29-3.29,2.66-4.99,3.92-2.94,2.16-5.88,4.33-8.92,6.36-3.12,2.08-6.28,4.11-9.55,5.93-5.26,2.92-10.56,5.77-15.95,8.43-4.1,2.03-8.36,3.74-12.56,5.55-.63.27-1.36.32-2.02.46Z"/>
  <path class="cls-1" d="m438.97,206.56c1.76-2.19,3.49-4.41,5.29-6.57,1.68-2.01,3.51-3.91,5.16-5.95,2.21-2.74,4.45-5.48,6.4-8.41,3.65-5.48,7.2-11.03,10.58-16.68,1.63-2.73,2.7-5.8,4.13-8.66,2.07-4.13,4.28-8.19,6.34-12.32,1.61-3.23,3.07-6.53,4.65-9.77,1.04-2.15,2.28-4.21,3.23-6.4,1.83-4.21,3.55-8.47,5.26-12.73.93-2.32,1.68-4.73,2.68-7.02.25-.58,1.53-1.36,1.69-1.23.87.69,2.15,1.62,2.17,2.49.08,3.34.28,6.84-.58,10-1.08,3.98-3.18,7.69-4.79,11.53-.57,1.37-.88,2.85-1.51,4.18-2.21,4.65-4.23,9.43-6.87,13.83-2.47,4.1-4.65,8.32-6.81,12.58-.17.34-.53.58-.72.91-.85,1.53-1.61,3.1-2.5,4.6-1.1,1.83-2.24,3.64-3.48,5.39-2.13,3.01-4.26,6.01-6.53,8.91-2.46,3.14-4.89,6.32-7.66,9.18-4.3,4.44-8.43,9.14-13.89,12.28-.57.33-1.33.32-2,.46-.08-.2-.16-.4-.23-.6Z"/>
  <path class="cls-1" d="m6.19,155.14c1.14,1.05,2.54,1.93,3.35,3.19,1.43,2.23,2.41,4.75,3.75,7.05,2.07,3.55,4.23,7.06,6.46,10.52,2.45,3.79,4.8,7.68,7.6,11.21,3.12,3.93,6.82,7.39,10.02,11.25,4.46,5.38,9.83,9.77,14.99,14.39,3.09,2.76,6.19,5.52,9.37,8.18,1.74,1.45,3.67,2.68,5.49,4.03,1.42,1.06,2.84,2.11,4.18,3.27.4.34.48,1.05.71,1.58-.57-.13-1.2-.14-1.71-.39-2.2-1.1-4.45-2.14-6.53-3.43-3.39-2.11-6.75-4.3-9.97-6.66-3.59-2.63-7.17-5.31-10.46-8.3-3.66-3.33-6.93-7.08-10.46-10.54-3.31-3.25-5.97-6.99-8.82-10.62-3.78-4.82-6.85-10-9.75-15.33-2.53-4.65-4.97-9.35-7.35-14.07-.74-1.47-1.15-3.11-1.71-4.67.28-.22.55-.43.83-.65Z"/>
  <path class="cls-1" d="m24.05,163.64c-1.47-1.6-3.14-3.07-4.38-4.83-1.77-2.52-3.44-5.16-4.77-7.93-1.29-2.67-2.12-5.56-3.1-8.37-.42-1.21-.44-2.63-1.08-3.69-1.75-2.9-1.64-6.21-2.44-9.32-.88-3.43-.87-6.88-.73-10.36.02-.44.02-.95.23-1.31.46-.81,1.15-2.25,1.56-2.19,1.21.18,2.83.13,3.27,1.88.27,1.07.71,2.1.96,3.17.74,3.11,1.39,6.24,2.16,9.34.2.79.9,1.45,1.11,2.24.34,1.27.34,2.62.69,3.88.61,2.17,1.41,4.27,2.06,6.43.28.93.34,1.93.6,2.87.69,2.46,1.4,4.91,2.16,7.34.84,2.69,1.82,5.35,2.59,8.07.21.74-.12,1.63-.2,2.45-.24.11-.47.21-.71.32Z"/>
  <path class="cls-1" d="m500.4,73.04c-2.1-1.04-1.41-2.99-1.5-4.43-.4-6.55-.12-13.1-1.17-19.66-.9-5.61-.7-11.4-1-17.11-.04-.69-.39-1.44-.19-2.03.3-.9.79-1.86,1.48-2.48.95-.85,1.35.21,1.95.83,2.19,2.23,2.86,5.01,3.33,7.96.19,1.19.92,2.29,1.28,3.47.24.78.26,1.63.36,2.45.28,2.29.67,4.58.79,6.88.09,1.85-.04,3.73-.28,5.57-.42,3.25-.82,6.52-1.58,9.69-.74,3.08-1.14,6.39-3.47,8.86Z"/>
  <path class="cls-1" d="m512.88,29.14c-.2,2.77-.32,5.55-.67,8.3-.09.7-.91,1.32-1.4,1.97-.45-.57-1.12-1.08-1.31-1.73-1.64-5.35-3.08-10.76-4.8-16.08-.98-3.03-2.47-5.89-3.52-8.9-1.18-3.4-2.18-6.87-3.12-10.34-.4-1.49,1.02-2.78,2.48-2.22,1.03.4,2.14,1.12,2.76,2.01,3.18,4.57,5.73,9.48,7.16,14.9,1.05,3.98,1.94,8.01,2.89,12.02-.16.03-.31.06-.47.08Z"/>
  <path class="cls-1" d="m7.53,187.25c.14.07.7.18.85.48,1.93,3.99,3.83,8,5.65,12.04.16.35-.35,1-.57,1.56-3.19-2.71-6.14-5.4-7.84-9.27-1.64-3.74-3.65-7.32-5.43-11.01-.24-.51-.2-1.24-.08-1.82.44-2.15,1.13-2.46,2.81-1.07,2.78,2.3,4.02,5.45,4.62,9.09Z"/>
</svg>