<?xml version="1.0" encoding="utf-8"?>
<!-- Generator: Adobe Illustrator 28.0.0, SVG Export Plug-In . SVG Version: 6.00 Build 0)  -->
<svg version="1.1" id="Layer_1" xmlns="http://www.w3.org/2000/svg" xmlns:xlink="http://www.w3.org/1999/xlink" x="0px" y="0px"
	 viewBox="0 0 406.4 323.4" style="enable-background:new 0 0 406.4 323.4;" xml:space="preserve">
<style type="text/css">
	.st0{fill:#D34327;}
</style>
<path class="st0" d="M234.2,202.6c0.2,1.3,0.6,2.8,0.6,4.3c0.2,6.9,0.4,13.9-1.8,20.6c-0.4,1.2-1.8,2.4-3,3.1
	c-0.6,0.3-2.3-0.2-2.8-0.9c-0.9-1.2-1.6-2.7-1.9-4.1c-0.4-2.5-0.4-5.1-0.5-7.6c-0.1-2.8,0-5.5,0-8.5c-0.6,0.2-1.4,0.3-1.9,0.7
	c-4.2,4-9.7,5.8-14.7,8.4c-9.5,5-18.7,10.6-28.3,15.6c-10.1,5.3-20.4,10.3-30.7,15.2c-7,3.4-14.3,6.3-21.8,9.6
	c0.4,1.6,0.8,3.4,1.3,5.2c1.4,4.4,1.4,8.8,0.9,13.3c-0.3,2.6-0.2,5.1-2.2,7.2c-2.5,2.6-6.8,2.5-8-0.6c-1.3-3.2-1.9-6.5-0.8-10
	c1.2-3.8,1.9-7.8,2.9-11.7c-0.2-0.3-0.5-0.5-0.7-0.8c-2.3,1.1-4.7,2.1-7,3.3c-3.2,1.6-6.3,3.4-9.5,5c-1.7,0.8-3,4.3-3.4,7.2
	c-0.7,4.8-0.5,10-4.1,14c-1.6,1.8-3.8,1.6-5.3-0.2c-1.7-2-1.9-4.4-1.5-6.9c0.4-3,0.9-6,1.3-8.7c-3.3,1.8-6.7,3.6-10.1,5.4
	c-1.3,0.7-2.8,1.2-4.3,1.5c-3.1,0.6-5.3,2.6-7.8,4.1c-3.3,1.9-6.9,3.2-10.3,5c-2.3,1.1-4.3,2.7-6.6,3.8c-2,1-4.1,1.6-6.6,2.6
	c0,2.7-0.1,5.9,0,9.1c0.2,4.7,0.7,9.5-1.7,13.9c-1.4,2.5-3.8,3.6-6.9,3c-2.7-0.5-3.5-2.5-3.3-4.8c0.3-4.5,0.8-9.1,1.3-13.6
	c0.2-2.2,0.9-4.4,1.1-6.6c0.5-6-0.5-11.7-3-17.2c-0.7-1.6-0.5-3.7-0.9-5.5c-1.1-5.6-0.3-11.2,1.5-16.5c1.8-5.6,4.2-11,6.4-16.5
	c1.2-3.1,2.7-6,3.6-9.1c1.5-5,2-10.4,3.9-15.2c1.7-4.4,4.5-8.4,7.2-12.3c2.6-3.7,5.5-7.2,8.5-10.6c2.7-3.1,5.8-5.8,8.5-8.9
	c2-2.3,3.8-4.7,5.4-7.3c1.6-2.6,3.1-5.1,5.8-6.9c2.2-1.4,4-3.9,5.2-6.2c3.5-7.2,6.4-14.8,10.1-22c2.3-4.5,5.6-8.5,8.1-12.8
	c2.5-4.2,5.2-8.3,6-13.4c0.5-3.8,3.1-6.8,5.2-10c3.8-5.8,7.2-11.7,8.6-18.7c0.6-2.8,2.6-5.6,4.6-7.7c5.4-5.7,9.2-12.3,12.8-19.2
	c1.5-2.8,1-6.7,1.6-10c0.6-3.8,1.5-7.5,2.2-11.5c-1.3-1.5-3.3-3.4-4.9-5.5c-3.4-4.4-3.4-10.1-0.3-14.7c0.6-1,1.4-2,1.6-3
	c0.9-5,3.9-8.1,8.2-10.2c0.8-0.4,1.6-1,2.1-1.7c3.5-5,8.3-5.9,14.1-5.2c7.9,0.9,15.8,1.3,23.6,2.1c4.1,0.4,8.1,1.9,12.1,1.7
	c5-0.2,9.1,2.5,13.7,3.2c3.8,0.6,7.6,0.8,11.3,1.7c4.2,1.1,8.3,2.8,12.5,4.2c6.9,2.4,13.7,4.8,20.5,7.2c6.9,2.4,13.8,4.6,20.6,7.3
	c6.5,2.6,12.8,6,19.3,8.7c6.3,2.6,11.4,6.8,16.9,10.7c2.6,1.8,5.9,2.7,8.9,4.1c2.9,1.3,5.3,3,7.1,5.8c1.4,2.2,4,3.5,5.9,5.4
	c1.1,1.2,4.1,0.7,3.5,3.6c2.9-0.4,3.4,2.7,5.3,3.6c0.7,0.3,1.4,0.9,1.9,1.5c4,4.9,8.9,9.1,11.5,15.1c1.9,4.4,4.1,8.6,6.1,13
	c3.1,7.1,1.7,14-0.8,21c-1.8,5.1-5.6,7.6-10.1,9.6c-4.2,1.9-8.7,3.5-11.6,7.1c-5.2,6.3-12.2,10.1-18.9,14.3
	c-7.8,4.8-15.5,9.7-23.5,14.1c-4.4,2.4-9.2,3.9-13.8,5.8c-7.3,2.9-14,6.9-20.5,11.4c-4,2.8-8.3,5.1-12.5,7.5c-5.2,3-10.4,6-15.7,8.9
	C239.1,200.2,236.8,201.3,234.2,202.6L234.2,202.6z M85.3,254.9c0-0.3,0-0.5,0-0.8c0.8-0.1,1.7-0.6,2.3-0.2c1.5,0.9,3.2,1.8,4.3,3.1
	c3.4,4.1,2.8,9,2.3,13.7c-0.4,4.9-1.2,9.9-1.7,14.8c-0.1,1,1,2.1,1.5,3.1c0.7-0.7,1.9-1.4,2.1-2.2c1.2-4.8,2.2-9.6,3.1-14.5
	c0.3-1.8,0.2-3.7,0-5.5c-0.7-6-1.6-11.9-2.1-17.9c-0.2-2.8,0.3-5.7,2.7-8.4c0.1,1.2,0.2,1.7,0.2,2.2c-0.2,2.3-0.5,4.6-0.5,6.9
	c0,0.6,0.6,1.2,0.8,1.8c0.5-0.4,0.9-0.7,1.4-1.1c1.1-0.8,2.1-1.6,3.2-2.4c0.2,0.3,0.4,0.5,0.6,0.8c-0.6,0.6-1.3,1.1-1.9,1.8
	c-1,1.2-2.9,2.4-2.8,3.6c0.1,4.4,0.9,8.7,1.5,13.4c6.3-3.2,12.3-6.2,18.8-9.4c-0.4-2.2-0.8-4.8-1.4-7.4c-1.1-4.4-5.2-4.8-8.4-6.5
	c-0.8-0.4-1.3-1.1-2-1.6c1.1-0.2,2.2-0.8,3.2-0.6c1.5,0.3,2.8,1.2,4.3,1.6c3.1,0.8,4.7,3.2,5.4,5.8c2,7.7,1.8,15.4-0.5,23.1
	c-0.9,3.1-1.6,6.4,0,9.5c0.4,0.7,1.1,1.9,1.7,1.8c0.8,0,1.7-0.8,2.4-1.5c0.5-0.6,0.9-1.5,0.9-2.2c0.1-4.4,0.5-8.8,0.1-13.2
	c-0.6-6.8-1.8-13.4-2.8-20.2c-0.1-0.4,0-0.9,0.1-1.3c2.3-8.4,6.4-15.8,13.2-21.5c0.7-0.6,1.7-0.7,2.5-1.1c0.2,0.3,0.4,0.6,0.6,0.8
	c-5.3,6.8-11.4,13.1-13.2,22.9c1.3-1.1,2.1-1.6,2.7-2.3c3.7-3.9,7.8-7.2,12.8-9.4c4.2-1.9,8.2-2.9,12.2,0.7c2.1,1.8,3.9,1.2,4.9-1.5
	c0.9-2.4,1.1-5,1.9-7.4c0.6-2,1.6-3.8,4.3-4.4c-0.4,1.2-0.7,1.9-1.2,3.3c4.1-2.4,8-3.6,11.3-6.2c3.9-3,8.4-5.4,12.8-7.9
	c3.2-1.8,6.6-3.1,9.8-4.7c1.7-0.9,3.5-1.8,5.1-2.9c1.6-1.2,2.9-3,4.5-4.2c3.4-2.7,7.1-5,11.6-5.7c-0.5,0.9-1.2,1.6-2,2.1
	c-2.9,2.1-5.9,3.9-8.7,6.1c-4.1,3.1-7.5,7.2-13,8.1c-0.5,0.1-1,0.4-1.5,0.7c-3.4,2.1-6.8,4.2-10.2,6.2c-5.7,3.3-11.5,6.5-17.2,9.9
	c-1.5,0.9-2.9,2.2-3.8,3.6c-0.8,1.3-0.8,3.1-1.4,4.6c-1.5,4-4.2,4.8-8.1,2.7c-2.2-1.2-4.7-2.7-7.3-1.5c-3.4,1.6-6.7,3.5-9.8,5.6
	c-3.3,2.2-5.6,6-10.2,6c0.3,2.6,0.5,5,0.8,7.4c2.1-1,4-1.9,6-2.7c1.8-0.8,3.7-1.3,5.5-2.1c3.4-1.6,6.6-3.6,10.1-4.9
	c9.6-3.4,17.9-9.2,26.8-13.8c8.7-4.5,17-9.6,25.6-14.3c4-2.2,8.1-3.9,12.2-6c3.8-1.9,7.4-4,11.1-6.1c0.6-0.4,1.2-1.4,1.2-2.1
	c-0.2-4-0.3-8-3.6-10.9c-0.6-0.5-0.8-1.3-1.2-2c2.2-1.7,4-0.7,4.6,1c1.2,3.3,2.4,6.9,2.4,10.3c0,5.2-1.1,10.4-1.6,15.6
	c-0.3,3.4-0.8,7,1.1,10.1c0.4,0.6,1.1,1.2,1.8,1.3c0.4,0.1,1.1-0.9,1.3-1.4c0.5-1.5,1.1-3,1.2-4.6c0.3-4.9,0.3-9.9,0.4-14.8
	c0-1.5,0-3.1-0.4-4.5c-0.8-3.4-2-6.7-2.6-10.2c-0.3-1.8-0.5-4.4,0.5-5.5c1.8-2.1,4.5-3.4,6.8-5.1l0.6,0.8c-1.5,1.1-3,2.2-4.4,3.4
	c-1.3,1.1-2.8,2.4-2.3,4.4c0.7,3.1,1.5,6.1,2.4,9.7c2.4-1.6,4.2-2.7,6-3.9c1.9-1.3,3.7-2.9,5.8-3.9c6.1-3.1,12.4-6,18.5-9.2
	c1.9-1,3.6-2.4,5.4-3.6c4.1-2.7,8-5.8,12.4-7.9c8.4-4.1,17.4-7.2,25.6-11.6c8.2-4.5,15.9-9.9,23.6-15.3c5.9-4.1,11.4-8.9,17.1-13.3
	c1-0.8,2-1.4,3-2.1c0-0.2,0-0.5,0-0.7c-5.8,0.8-11.1,0.3-14.2-5.3c-1.3,2.2-2,4.6-3.6,6c-4.5,3.6-9.3,7.2-14.3,10.1
	c-4.9,2.8-10.4,4.6-15.4,7.2c-4.8,2.5-9.4,5.4-13.8,8.8c-5.6,4.3-12.1,7.5-18.2,11.1c-0.2,0.1-0.6-0.3-1.4-0.7
	c3.4-2.2,6.5-4.2,9.5-6.1c3.6-2.3,7.2-4.6,10.7-6.9c3.9-2.6,7.6-5.8,11.8-7.7c10.1-4.4,20-8.9,28.2-16.5c3.4-3.1,4.6-6,3-9.2
	c-3.4-6.6-8.2-11.9-14.3-16.1c-4.9-3.3-9.9-6.7-13.9-10.9c-5.4-5.7-11.4-8.9-19.3-9.3c-1.7-0.1-3.4-1.8-5.1-2.7
	c-2.4-1.3-4.7-3-7.2-3.7c-3.2-0.9-5.7-2.5-7.8-4.9c-1.5-1.8-2.9-4-4.9-5.3c-1.9-1.2-4.3-1.6-6.5-2.3c-5.5-1.8-10.7-4.1-15.3-7.8
	c-2.8-2.2-6-4.6-9.3-5.2c-5.9-1-10.8-3.7-15.7-6.5c-7.6-4.3-16-5.8-24.6-5.7c-4.9,0.1-9.8,1.3-14.7,1.7c-3.5,0.3-7,0.1-10.5,0
	c-2.9,0-5.9-0.5-8.8-0.3c-3,0.2-4.8,3.6-4.8,6.6c0,3.1-0.2,6.2-1.9,9.2c-2.3,4-3.7,8.4-5.6,12.9c3.2-0.8,5.7-1.8,8.3-2.1
	c5.2-0.6,10.1,1.1,14.6,3.6c4.1,2.2,6,5.3,5.6,10.3c-0.3,4.9-2.6,8.5-5.9,11.5c-3.5,3.2-7.7,5.6-11.4,8.6
	c-5.4,4.5-11.7,5.5-18.3,5.8c-0.8,0-1.7-0.1-2.3-0.5c-2.8-1.7-5.4-3.5-8.1-5.3c-0.7,1-1.5,1.9-2,3c-2.2,4-4.5,8.1-6.5,12.2
	c-2.3,4.7-4,9.6-6.5,14.1c-2.6,4.8-6.1,9.1-8.6,13.9c-3.3,6.4-5.9,13.1-8.9,19.6c-1.8,3.9-3.8,7.5-7.6,9.9c-1.2,0.7-2.5,1.6-3.1,2.8
	c-2.7,5.4-6.5,10-10.8,14.2c-2.4,2.4-4.6,5.1-7.1,7.9c2.9-0.6,5.3-1.1,7.7-1.6c1.6-0.3,3.2-0.5,4.7-1c8.2-2.4,15.7-2,22.4,4.1
	c5.1,4.6,6.6,12.3,2.7,17.8c-2.3,3.2-5.6,5.8-8.6,8.4c-1.6,1.4-3.7,2-5.2,3.4c-1.6,1.5-2.6,3.7-4.2,5.1c-3.7,3.2-7.9,4.4-12.7,2.2
	c-0.4-0.2-0.8-0.3-1.2-0.3c-2.8,0.5-5.7,1.3-8.5,1.3c-1.9,0-3.9-0.9-5.5-1.9c-2.1-1.3-3.8-3.1-5.7-4.8c-1.9-1.7-2.6-0.1-3.2,1.3
	c-2.8,7.3-5.5,14.6-8.3,21.8c-3.9,10-4.4,20-0.5,30.1c2.5,6.5,1.3,12.9,0.5,19.4c-0.6,4.6-2.9,9.1-1.3,13.9c0.2,0.6,0.8,1.5,1.3,1.6
	c0.7,0.1,2-0.2,2.3-0.8c1-2.1,2.3-4.4,2.5-6.6c0.5-7.2,0.1-14.4-1.6-21.4c-0.2-0.8-0.2-1.8-0.1-2.6c0.2-2.7,0.5-5.5,0.9-8.2
	c0.3-2,0.2-4.3,3.1-5.1c-0.3,1.7-0.5,3.2-0.7,4.6c2.7-0.8,5.1-1.4,7.4-2.3c6-2.2,11.5-5.4,17.8-7.1c7.5-2.1,14.4-6.4,22.2-10
	C89.2,258.3,87.3,256.6,85.3,254.9L85.3,254.9z M335.2,117.7c1.4-1.3,2.1-1.3,2.4,0.1c1.1,5.8,4.7,8.5,10.5,8.8c2,0.1,3.9,1,5.9,1.3
	c0.8,0.1,1.9,0.1,2.4-0.3c3.5-3.2,7.9-5.8,9-11.1c0.5-2.3,1.7-4.4,2.4-6.7c1.2-4.1-1.1-7.7-2.2-11.4c-1.4-4.7-3.6-8.9-6.7-12.7
	c-2.5-3-5.1-5.7-7.6-8.7c-1-1.3-1.5-3.2-2.6-4.3c-4.6-4.1-9.4-8-14.1-12c-2.9-2.4-5.7-5-8.8-7.2c-1.6-1.2-3.8-1.7-5.5-2.7
	c-4.8-2.7-9.4-5.7-14.2-8.3c-5.4-2.9-10.9-5.6-16.4-8.3c-3.6-1.7-7.2-3.3-10.9-4.8c-1.2-0.5-2.7-0.5-3.9-1
	c-4.8-1.9-9.5-4.1-14.3-5.9c-5.3-2-10.6-3.9-16-5.7c-6.5-2.1-12.9-4.2-19.5-6c-2.5-0.7-5.1-0.6-7.7-1.2C211.6,8.4,206,6,199.8,6.3
	c-3.6,0.2-7.4-1.4-11.1-1.8c-6.5-0.7-13.1-1.1-19.6-1.8c-3.5-0.4-6.7-0.1-9.6,1.9c-2.5,1.7-5,3.3-7.4,5c-1.1,0.8-2.5,1.8-3.1,3
	c-1.7,3.4-3.3,7-4.5,10.6c-1.2,3.5-1.2,7.1,1.8,10c1.3,1.3,2.6,2.7,3.6,4.2c1.3,2,2.9,1.9,4.9,1.7c3.7-0.3,7.4-0.1,11.1-0.1
	c1.6,0,3.2,0.4,4.7,0.1c8-1.7,15.9-2.9,24.3-1.9c9.1,1.1,17.5,3.4,25.2,8.5c2.2,1.4,4.8,2.8,7.4,3c4.8,0.3,8.3,2.9,11.9,5.5
	c4.6,3.3,9.4,6,15,7.6c3.2,0.9,6.2,2.5,9,4.2c1.7,1,2.9,2.9,4.5,4.3c1.5,1.3,3.1,3.1,4.9,3.5c3.3,0.8,6.2,2.3,8.2,4.7
	c2.3,2.7,4.9,3.1,8.1,3c5.8-0.1,10.9,1.7,14.8,6.4c2.4,3,4.7,6.3,7.6,8.7c4.9,4,10.2,7.5,15.3,11.2
	C330.3,110.4,333.8,113.2,335.2,117.7L335.2,117.7z M48.4,229.8c2.4,1.2,4.8,2.2,7,3.5c2.2,1.3,4.3,2.1,7,2.1
	c4.1,0,8.1,0.8,12.2,0.8c1.8,0,3.9-0.9,5.4-2c4.4-3.1,8.5-6.5,12.7-9.8c1.7-1.3,3.4-2.7,4.7-4.3c5.8-7.4,5-15.4-3.4-19.6
	c-5.4-2.7-11.9-3.5-18.1-1.2c-3.3,1.2-7,1.3-10,3.7c-2.2,1.8-4.5,3.5-7,4.7c-2.2,1.1-4,2.2-5,4.7c-1.6,4.1-3.8,8-4.2,12.6
	C49.6,226.8,48.8,228.5,48.4,229.8L48.4,229.8z M126.6,97.8c2.1,1.9,4,3.8,5.9,5.4c0.8,0.7,1.9,1.6,2.8,1.5
	c4.1-0.6,8.7-0.6,12.3-2.4c4.9-2.5,8.9-6.5,13.3-9.9c4.4-3.4,7.7-7.2,7.1-13.5c-0.3-2.8-1.5-4.5-3.6-5.8c-4.5-2.7-9.6-3.2-14.6-2.2
	c-4.1,0.8-7.7,2.2-10.9,5.5C132.8,82.7,128.6,89.9,126.6,97.8L126.6,97.8z M45.4,293.1c2.1-0.8,4.6-1.2,6.3-2.5
	c5.9-4.5,12.6-7.3,19.3-10.1c4.5-1.9,9.2-3.4,13.8-5c4.2-1.5,7.6-5.1,7.6-8.2c0-1.2-0.4-2.5-0.6-4c-2.9,1.6-5.5,3.3-8.3,4.6
	c-6.5,2.9-13,5.5-19.6,8.2c-4.7,1.9-9.4,3.8-14.2,5.5C43.8,283.7,43.4,286.9,45.4,293.1L45.4,293.1z"/>
<path class="st0" d="M402.2,95c0-2.4,0-4.8,0-7.1c0.1-6.5-1.9-12.5-3.9-18.5c-0.8-2.4-2.2-4.6-2.9-7c-0.4-1.2,0.2-2.6,0.4-3.9
	c1.5,0.6,3.7,0.7,4.4,1.8c3.4,5.1,5,11,5.8,17.1c0.6,5,0.6,9.8-1.2,14.6c-0.5,1.2-1.1,2.2-1.6,3.4C402.8,95.2,402.5,95.1,402.2,95
	L402.2,95z"/>
<path class="st0" d="M391.6,86.4c-1.9-5.6-3.6-10.9-5.4-16.1c-0.5-1.5-1.7-2.9-2.3-4.4c-0.3-0.9-0.1-1.9-0.1-2.9c1,0,2.2-0.4,2.9,0
	c1.2,0.8,2.4,2,3.1,3.2c2.9,4.8,4.3,10.1,4,15.7C393.7,83.8,393.5,85.6,391.6,86.4L391.6,86.4z"/>
<path class="st0" d="M13,308.5c-1.6-0.1-2.8,0.1-3.7-0.3c-5.4-2.3-9.8-9.9-9.2-15.7c0.1-0.9,0.9-2.4,1.5-2.5
	c0.9-0.1,2.3,0.6,2.8,1.4c1,1.5,1.9,3.3,2.2,5.1c0.7,3.9,3.3,6.7,5.2,9.8C12.1,306.8,12.4,307.4,13,308.5z"/>
<path class="st0" d="M19.5,302.1c-1.2-0.1-2.3,0.1-3-0.3c-3.9-2.5-7.6-5.4-8.3-10.5c-0.1-0.9,0.5-2.2,1.2-2.9
	c0.4-0.3,2.1,0.1,2.5,0.7C14.5,293.2,16.9,297.5,19.5,302.1L19.5,302.1z"/>
<path class="st0" d="M124.5,176.3c-0.2,3.2-1.4,6.3-3.9,8.2c-1.7,1.3-4.4,1.9-6.6,1.8c-5.9-0.2-8.3-4.9-5.7-10.4
	c0.8-1.7,1.1-3.6,1.8-5.4c0.7-1.7,1.7-3.4,2.5-4.9c-1-1.2-2.1-2.2-3-3.4c-3.8-5.1-2.5-8.9,1.6-12.7c3.4-3.1,7.4-4.1,12.2-3.6
	c8,0.9,14.6,4.3,19.5,10.5c2,2.5,2.9,5.8,4.2,8.6c1.7-0.6,3.8-1.2,5.9-2.1c1.9-0.8,3.8-1.5,5.4-2.6c4.4-3,9.5-2.7,14.4-3.5
	c6-0.9,15,4.1,17.5,9.6c1.6,3.5,0.9,7.1-1.5,10c-5.6,6.7-12.2,11.8-21,13.9c-6.1,1.5-12.1,1.7-18.1,0.3c-5.1-1.1-8.9-7.1-8.5-11.2
	c0.2-2.1,0.5-4.2,0.7-6.4c0.1-0.6-0.2-1.2-0.4-2c-4.8,3.4-9.8,4-15.1,1.9C125.6,174.2,125,175.3,124.5,176.3c-1.3-3.6,0.2-8.4,3-9
	c0,0.5,0.1,1,0.1,1.5c-0.1,0.5-0.2,1-0.3,1.5c6.1,3.6,12.8,0.4,16-3.8c0.7-0.9,0.2-2.8,0.2-4.2c-0.1-1.1-0.4-2.1-0.6-3.2
	c-0.3-0.1-0.9-0.3-1.3-0.7c-3-3.3-6.1-6.6-10.5-8.1c-5.2-1.9-10.6-3.3-15.9-0.1c-2.9,1.7-4.9,4.6-4.2,7c0.7,2.2,1.8,4.4,2.9,6.9
	c1.4-1.6,2.5-2.7,3.7-3.9c1.3,1.9,0.8,3.4-0.2,4.6c-1.9,2.1-3.8,4.1-4.2,7.2c-0.2,1.6-1.6,3-1.9,4.6c-0.3,1.8-3.1,3-1.2,5.3
	c1.5,1.9,2.7,3.4,5.7,1.8c2.8-1.4,5.2-2.6,6.4-5.7C122.3,177.1,123.7,176.8,124.5,176.3L124.5,176.3z M156.6,188.6
	c0.1-0.2,0.1-0.4,0.2-0.7c5.2,0.4,10-0.9,14.8-2.9c5.9-2.4,10.9-6.1,15-11c1.4-1.7,2.2-4.1,0.6-5.9c-4.1-4.4-8.6-8.1-15.4-7.4
	c-5.6,0.6-10.9,2.4-16.3,3.9c-4.5,1.3-7.4,3.7-9.6,7.4c-2.6,4.3-1.5,11.4,2.8,14C150.9,187.6,153.9,187.8,156.6,188.6L156.6,188.6z"
	/>
<path class="st0" d="M250.9,146.2c-5.1-0.4-10.1-0.8-15.1-1.1c-1.3-0.1-2.7,0-4,0.2c-4.9,0.8-9.6-0.3-13.2-3.4
	c-1.8-1.5-2.7-4.7-3.1-7.3c-0.6-3.5-0.4-7.2-0.4-10.8c0-7.9,5.2-12.5,11.2-15.9c4.9-2.7,10.4-4.3,15.6-6.4c0.6-0.3,1.2-0.7,1.7-1.2
	c3-3.5,5.3-3.6,10.1-2.6c3.5,0.7,7.2,0.5,10.8,0.1c5.8-0.7,10.4,1.4,14.4,5.3c1.1,1.1,2.5,2,3.8,3c4.4,3.4,7.3,7.7,7.2,13.5
	c0,1.5-0.6,3.4-1.7,4.4c-3.8,3.7-6.3,8.3-9.2,12.6c-1.2,1.8-3.3,3.4-5.3,4.3C266.4,144,258.8,145.8,250.9,146.2L250.9,146.2z
	 M250,141.8c0-0.1,0-0.1,0-0.2c0.8-0.1,1.7,0,2.5-0.2c5.9-1.2,11.8-2.2,17.7-3.6c2.3-0.6,4.6-1.5,6-4.2c1.9-3.5,4.3-6.8,7-9.8
	c3.6-4,2.1-9.4-0.9-11.8c-3.3-2.6-6.8-4.8-10.3-7.1c-1.2-0.8-2.6-1.5-3.9-1.5c-3.2-0.2-6.4,0.2-9.6,0.1c-1.7,0-3.3-0.4-5-0.6
	c-1.6-0.2-3.4-0.8-4.9-0.4c-6,1.9-12,3.9-17.7,6.4c-3.2,1.4-6.1,3.8-8.8,6.1c-2.7,2.2-4.1,5.2-4,8.9c0.1,4.1,0,8.1,0,12.2
	c0,0.1,0.2,0.2,0.3,0.4c2.3,3.2,5.4,5.2,9.3,5.3C235.1,141.9,242.5,141.8,250,141.8L250,141.8z"/>
<path class="st0" d="M198.1,112.4c2.6,2,4.9,3.9,7.2,5.8c2.1,1.6,1.3,3.8,1,5.7c-0.5,4-2.2,6.1-5,6.2c-1.1,0.1-2.2-1-3.3-1.5
	c-2.9-1.3-5.7-2.7-8.6-3.9c-0.2-0.1-0.8,0.6-1.1,1c-3.1,4.2-10.3,4.5-14.6,2.2c-2-1.1-3.1-5.2-1.9-7.8c3.2-6.7,6.8-13.1,12.9-17.6
	c2-1.5,4.5-2.6,6.9-3.5c2.9-1.1,5.6,1.1,7.7,3.9c1.5,1.9,1.9,4.5,0.2,6.8C198.9,110.5,198.6,111.5,198.1,112.4L198.1,112.4z
	 M199.5,128.1c2.4,0.2,5.6-3.1,5.2-5.4c-0.1-0.4-0.4-0.8-0.7-1c-2.6-1.8-5.1-3.5-7.7-5.2c-0.4-0.3-0.9-0.4-1.4-0.5
	c-0.5-0.1-1.1,0.1-1.7,0.1c0.2-0.6,0.2-1.2,0.5-1.7c0.5-0.8,1.1-1.4,1.6-2.1c2.3-2.6,2.8-5.4,1.2-7.5c-2.6-3.5-3.6-4-7.7-1.6
	c-7.4,4.3-11.5,11.3-14.5,19.1c-0.3,0.8,0.5,2.8,1.4,3.3c3.5,2.3,9.4,0.5,11.5-3.1c0.7-1.2,1.8-2.3,2.4-3.1c1.6,1.1,2.7,1.9,3.8,2.6
	C196.1,123.6,199.3,124.4,199.5,128.1L199.5,128.1z"/>
<path class="st0" d="M210.6,93.5c2.5-2.3,4.2-2.1,7.1,0.3c1.9,1.6,2.7,4.3,1.5,6.9c-1.1,2.4-3.6,3.4-5.9,3.4c-2.4,0-5.2-0.1-6-3.5
	c-0.6-2.6-0.2-3.7,2.8-4.6c0.1,2.5,0.8,4.8,3.9,3.6c0.9-0.3,1.9-1.9,1.8-2.8C215.6,94.3,213.5,93.5,210.6,93.5L210.6,93.5z"/>
<path class="st0" d="M64.1,255.8c-1.1,4.7-4.3,6.5-7.7,6c-3.3-0.5-7.8-6.7-6.9-10c0.7-2.6,2.9-3.6,6.1-2.4c-2.3,2.5-3,5.1-0.1,7.8
	C59,260.4,61.1,256.2,64.1,255.8L64.1,255.8z"/>
<path class="st0" d="M311.3,116.9c0.9-0.7,1.5-1.2,2.5-1.9c-1-0.8-1.8-1.2-2.4-1.9c-0.4-0.5-0.7-1.3-0.5-1.9c0.1-0.3,1-0.8,1.5-0.7
	c2.2,0.4,4.4,1.1,5,3.4c0.6,2.2,0,4.2-2.1,5.5c-1.8,1.1-3.9,2.2-5.7,0.8c-1.2-0.9-1.8-2.9-2.1-4.6c-0.2-0.7,0.8-1.7,1.3-2.6
	c0.7,0.7,1.4,1.3,2,2.1C311.1,115.5,311.1,116.1,311.3,116.9L311.3,116.9z"/>
<path class="st0" d="M200.9,74.4c3.2,0.4,4.7,2.1,4.7,4.3c0,2.3-1.2,4.4-3.7,5c-2.2,0.5-4.4,0.6-6-1.8c-1.6-2.4-1.8-4.8-1.1-7.4
	c0.1-0.5,0.8-1.1,1.1-1.1c0.4,0,1,0.7,1.2,1.1c0.6,1.6,1,3.3,1.8,4.8c0.3,0.5,1.6,0.5,2.4,0.8c0-0.8,0.2-1.7,0.1-2.5
	C201.4,76.6,201.1,75.6,200.9,74.4L200.9,74.4z"/>
<path class="st0" d="M136.2,128.3c0.6,4.3,3.4,4.8,6.6,4c0.7-4.7-1.6-6.4-6.6-5.3c2.8-2.8,4.7-3.2,7.4-1.1c1.2,0.9,2.3,3.1,2.1,4.5
	c-0.4,3.4-3.7,5.8-6.6,5.7c-2-0.1-4.5-2.1-4.7-4.2c-0.1-1.1,0.5-2.3,0.8-3.4C135.6,128.3,135.9,128.3,136.2,128.3L136.2,128.3z"/>
<path class="st0" d="M157.3,201.8c0.9,5.6-4.2,10.3-8.5,8.2c-1.5-0.7-2.2-3.2-3.1-5c-0.2-0.3,0.6-1.1,1-1.7c0.6,0.4,1.4,0.7,1.8,1.2
	c1.8,2.9,3.3,3.1,5.6,0.5C155,204,156.1,203.1,157.3,201.8L157.3,201.8z"/>
<path class="st0" d="M199.6,149.6c0.9-0.5,1.7-1,2.6-1.5c0.8,1.3,1.5,2.6,2.2,3.9c0.3,0,0.6,0.1,0.9,0.1c0.5-1.5,1.1-2.9,1.7-4.7
	c1.6,0.9,2.4,2.3,2.1,4.2c-0.3,2.1-2.5,4-4.6,3.9C201.7,155.4,199.9,153.2,199.6,149.6L199.6,149.6z"/>
<path class="st0" d="M220.1,178c0.3-0.9,0.5-1.4,0.6-2c0.1-0.8,0.1-1.6,0.1-2.4c1.1,0.4,2.9,0.5,3.2,1.2c0.4,1.2,0.4,3.1-0.3,4.1
	c-1.1,1.9-3.1,3.4-5.4,2.1c-1.1-0.6-1.6-2.3-2.2-3.6c-0.1-0.3,0.4-1.3,0.8-1.5c0.5-0.2,1.3-0.1,1.8,0.2
	C219.2,176.5,219.5,177.2,220.1,178z"/>
<path class="st0" d="M269.2,168.2c-2,1.3-3.9,3-6.1,3.8c-6.2,2.4-12.6,4.5-18.9,6.7c-0.7,0.2-1.2,0.7-2,0.8
	c8-5.6,17.7-7.6,26.3-11.9C268.8,167.8,269,168,269.2,168.2z"/>
<path class="st0" d="M296.4,146.2c-4.7,3-9.3,6-14,9c-0.2-0.4-0.4-0.7-0.7-1.1c3.9-4.2,9.4-6,14.1-9.1
	C296,145.5,296.2,145.9,296.4,146.2L296.4,146.2z"/>
<path class="st0" d="M170.2,201.1c1.4,1.9,2.6,3.5,3.6,5.1c0.2,0.4,0.1,1.4-0.2,1.7c-0.5,0.5-1.8,1.1-2,0.9c-1.2-1-2.8-2.2-3.2-3.6
	C167.8,203.6,167.9,201.4,170.2,201.1z"/>
<path class="st0" d="M169.6,48.9c3.4-1.7,6.8-3.5,10.2-5.1c0.6-0.3,1.4-0.1,2.1,0c0.3,0.1,0.8,0.8,0.8,0.9c-0.2,0.4-0.7,0.9-1.1,0.9
	c-3.6-0.4-6.1,2.3-9.1,3.4c-0.8,0.3-1.6,0.7-2.4,1C169.9,49.6,169.8,49.3,169.6,48.9L169.6,48.9z"/>
<path class="st0" d="M248.1,77.4c0.5,1.7,0.9,3.4,1.5,5.4c0.9-0.6,1.4-0.9,2.1-1.4c0.2,0.7,0.5,1.2,0.4,1.6
	c-0.2,0.7-0.7,1.8-1.1,1.8c-0.9,0.1-2.6-0.2-2.8-0.7c-0.8-2-1.1-4.2-1.5-6.4C247.2,77.7,247.6,77.5,248.1,77.4L248.1,77.4z"/>
<path class="st0" d="M295.4,142.6l-9.2,5.5c-0.2-0.4-0.5-0.7-0.7-1.1c3-1.9,6.1-3.7,9.1-5.6C294.9,141.8,295.1,142.2,295.4,142.6
	L295.4,142.6z"/>
<path class="st0" d="M164.5,49.4c0.1-1.6,1.4-2.9,4.5-2.7C167.3,47.7,165.6,48.7,164.5,49.4z"/>
<path class="st0" d="M272.4,156.6c1.6-1.3,3.2-2.5,4.7-3.8c0.2,0.3,0.5,0.6,0.7,0.9c-1.6,1.2-3.2,2.4-4.8,3.6
	C272.8,157.1,272.6,156.8,272.4,156.6L272.4,156.6z"/>
<path class="st0" d="M283.5,39.7c7.7,0.5,23.9,17.8,23.1,22.8c-6.4-8.9-14.9-15-23-21.6C283.4,40.7,283.5,40.2,283.5,39.7
	L283.5,39.7z"/>
<path class="st0" d="M306,53.1c-2.1-2-4.4-4-6.4-6.1c-4.2-4.2-8.3-8.4-14.4-9.9c-0.8-0.2-1.4-1.3-2.1-1.9c1-0.2,2-0.9,2.9-0.7
	c4.4,0.9,8.2,2.8,11.2,6.3c3.2,3.8,6.6,7.5,9.9,11.2L306,53.1L306,53.1z"/>
<path class="st0" d="M347.8,95.1c-1-4.9-1.9-9.6-2.8-14.3c-0.1-0.6,0.4-1.2,0.6-1.8c0.6,0.4,1.5,0.7,1.6,1.3
	c0.7,2.8,2.4,5.4,1.1,8.6c-0.6,1.4,0.1,3.3,0.1,5C348.5,94.2,348.1,94.6,347.8,95.1L347.8,95.1z"/>
<path class="st0" d="M347.5,106.9c1-4.9,2.2-10.3,3.3-15.6C354.2,94.1,352.5,101.8,347.5,106.9z"/>
<path class="st0" d="M342.5,91.2c1.1,3.6-0.6,8-4,10.2C339.9,97.8,341,94.8,342.5,91.2z"/>
<path class="st0" d="M63.2,223.1c-1.3,3-1.8,2.7-4.6,2.1c-2.1-0.5-3.4-0.7-3.1-3c0.1-0.8,0.8-1.6,1.3-2.4c0.7,0.6,1.4,1,1.9,1.7
	c0.5,0.5,0.7,1.2,1,1.9C60.8,223.3,61.9,223.2,63.2,223.1L63.2,223.1z"/>
<path class="st0" d="M87.1,209.7c-1.6,1.1-2.9,2.2-3.1,2.1c-2.3-0.9-4.5-1.9-6.7-2.9c1.1-0.6,2.5-1.8,3.2-1.6
	C82.7,207.7,84.5,208.7,87.1,209.7z"/>
<path class="st0" d="M70.7,214.1c-2.6,0.8-5-0.6-4.8-2.7c0.1-0.4,0.4-1,0.8-1.2c0.2-0.1,0.9,0.2,1.1,0.4
	C68.8,211.7,69.7,212.9,70.7,214.1L70.7,214.1z"/>
<path class="st0" d="M75.7,223.4c-1.3,0.5-2.6,1-3.9,1.6c-0.3-0.9-0.7-1.7-1-2.6c1.5-0.2,2.9-0.4,4.4-0.6L75.7,223.4L75.7,223.4z"/>
<path class="st0" d="M144.1,91.7c1.4-0.5,2.5-0.9,3.7-1.3c-0.4,2.8-2.3,4.6-4.5,4.4c-1.6-0.2-2.6-1.2-2.6-2.9c0-0.7,0.4-1.4,0.7-2.1
	c0.7,0.4,1.4,0.7,2,1.2C143.8,91,143.9,91.4,144.1,91.7L144.1,91.7z"/>
<path class="st0" d="M155.3,83.6c1.2-1.3,2-2.7,2.5-2.6c1.4,0.2,3.5,0.5,3.3,2.6c-0.1,0.9-1.5,2.3-2.2,2.3
	C157.8,85.8,156.8,84.6,155.3,83.6z"/>
<path class="st0" d="M161.2,181.8c-1.1,2.9-3.1,3.6-5.2,3.4c-2-0.2-4.1-1-4.3-3.6c-0.1-1.1,0.6-2.1,1-3.2c0.8,0.4,2,0.6,2.4,1.2
	C156.4,182.2,158.7,181.8,161.2,181.8L161.2,181.8z"/>
<path class="st0" d="M165.6,174.7c-0.9,0.7-1.8,2.1-2.8,2.1c-2.2,0.1-4.2-0.8-5.2-3c-0.4-0.8-0.5-1.8-0.4-2.6c0.1-0.5,0.9-1,1.4-1.3
	c0.3-0.1,1.2,0.2,1.3,0.5c0.7,2.7,2.8,3.2,5.3,3.3C165.3,174,165.4,174.3,165.6,174.7L165.6,174.7z"/>
<path class="st0" d="M176.8,174.4c0.1-1.3,0.1-2.6,0.2-3.9c0.7,0.3,1.7,0.3,2.1,0.9C180.4,173.3,178.6,173.7,176.8,174.4
	L176.8,174.4z"/>
<path class="st0" d="M119,158.4c4.9-1.8,8.8,1.8,8.3,7.5c-1-1.5-1.9-3.3-3.2-4.5C122.8,160.3,121,159.6,119,158.4L119,158.4z"/>
<path class="st0" d="M242.9,124.9c1.3,0.4,2.3,0.8,3.2,1.1c-0.3,0.8-0.4,2-0.9,2.3c-1.1,0.5-2.8,1.1-3.6,0.7
	c-1.8-1.1-3.1-2.8-2.4-5.2c0.3-0.8,1.2-1.3,1.8-2c0.6,0.7,1.2,1.3,1.6,2C242.9,124.2,242.9,124.8,242.9,124.9L242.9,124.9z"/>
<path class="st0" d="M255.9,109.4c1.4,0,3.1-0.5,4.1,0.1c1,0.8,1.3,2.6,1.9,3.9c-0.4,0.3-0.7,0.6-1.1,0.9c-1.8-1.1-3.6-2.3-5.4-3.4
	C255.5,110.4,255.7,109.9,255.9,109.4L255.9,109.4z"/>
<path class="st0" d="M265.4,124.5c0.5-1.6,0.9-3.2,1.6-4.8c0.6-1.4,1.6-1.2,2,0c0.4,1.2,0.5,2.8,0,3.8c-0.4,0.8-1.9,1.1-2.9,1.7
	C265.8,125,265.6,124.8,265.4,124.5L265.4,124.5z"/>
<path class="st0" d="M233.9,125.4c-2,1.6-3.9,1.3-4.5-0.7c-0.3-0.8,0.3-1.9,0.4-2.9c0.6,0.5,1.2,1,1.8,1.5
	C232.3,124,233.1,124.7,233.9,125.4L233.9,125.4z"/>
</svg>
