<?xml version="1.0" encoding="UTF-8"?>
<svg id="Layer_1" data-name="Layer 1" xmlns="http://www.w3.org/2000/svg" viewBox="0 0 27.55 29.46">
  <defs>
    <style>
      .cls-1 {
        fill: #d34327;
        stroke-width: 0px;
      }
    </style>
  </defs>
  <path class="cls-1" d="m13.43,29.42c-3.68.25-6.37-1.01-8.69-3.47C-2.31,18.49-.93,9.98,5.17,3.58,11.79-3.37,22.86.49,25.53,9.25c.47,1.54,1.19,3,1.65,4.54,1.25,4.12-.79,9.42-4.53,11.4-3.07,1.63-5.58,4.55-9.22,4.23Zm2.85-18.07c-1.56-1.58-2.88-1.77-3.92-.67-1.2,1.26-1.61,5.56-.67,7.43.26-1.24.5-2.43.74-3.6.66-.07,1.23-.13,1.94-.2-.21-.77-.37-1.35-.54-1.97.8-.33,1.59-.65,2.44-1Zm-9.84-1.31c2.99-2.08,5.94-4.13,8.92-6.2-4.37-.38-9.06,2.85-8.92,6.2Zm10.83-2.74c1.57,1.52,3.15,3.06,4.61,4.48.61-2.84-1.07-4.53-4.61-4.48Z"/>
</svg>