<?xml version="1.0" encoding="UTF-8"?>
<svg id="Layer_1" data-name="Layer 1" xmlns="http://www.w3.org/2000/svg" viewBox="0 0 303.22 303.43">
  <defs>
    <style>
      .cls-1 {
        fill: #285d2e;
        stroke-width: 0px;
      }
    </style>
  </defs>
  <path class="cls-1" d="m303.14,129.39c-.18,2.52-.47,5.04-.5,7.56-.04,2.61.22,5.23.23,7.84,0,1.53-.29,3.06-.36,4.6-.1,2.25-.08,4.51-.16,6.76-.18,5.22.17,10.47-1.11,15.63-.88,3.57-1.64,7.19-2.23,10.82-.93,5.77-3.36,11.06-5.02,16.6-.7,2.33-1.17,4.73-1.82,7.07-.28,1.02-.62,2.07-1.15,2.98-2.43,4.14-5.04,8.18-7.38,12.37-1.37,2.44-2.26,5.14-3.53,7.64-1.92,3.78-3.89,7.54-6.04,11.19-.81,1.37-2.12,2.45-3.28,3.59-3.86,3.8-7.74,7.58-11.64,11.34-6.84,6.6-13.5,13.4-20.63,19.67-4.04,3.56-8.6,6.63-13.77,8.6-2.77,1.06-5.37,2.55-8.07,3.81-6.73,3.13-13.46,6.24-20.74,7.99-2.06.49-4.01,1.68-5.86,2.78-2.31,1.38-4.73,2.23-7.38,2.61-1.7.24-3.34.86-5.04,1.05-4.41.47-8.83.92-13.26,1.15-5.23.27-10.47.43-15.71.37-3.61-.04-7.23-.34-10.81-.83-9.08-1.26-17.88-3.81-26.66-6.32-4.13-1.18-7.91-3.53-11.89-5.26-2.57-1.12-5.13-2.37-7.83-3.03-3.04-.74-5.8-2.03-8.58-3.34-1.23-.58-2.44-1.19-3.66-1.78-2.11-1.03-4.18-2.08-5.97-3.69-4-3.59-8.81-6-13.36-8.79-6.81-4.19-13.13-9.03-18.42-15.11-2.48-2.85-4.94-5.7-7.47-8.5-.9-.99-2.01-1.79-2.93-2.77-7.11-7.58-11.93-16.58-15.99-26.02-1.46-3.39-2.35-7.03-3.8-10.44-1.87-4.4-4.08-8.66-6.06-13.02-.44-.97-.65-2.09-.76-3.16-.47-4.87-.81-9.76-1.31-14.62-.25-2.43-.82-4.83-1.11-7.26-.27-2.33-.45-4.68-.52-7.03-.21-6.88-.31-13.77-.54-20.65-.08-2.25-.26-4.53-.73-6.72-.87-4.12.4-7.9,1.46-11.74,1.59-5.75,2.96-11.58,4.78-17.25,1.63-5.07,3.77-9.96,5.62-14.96,1.04-2.78,1.93-5.62,2.94-8.41.46-1.27,1.01-2.51,1.58-3.74,2.39-5.1,5.28-9.93,8.73-14.36,3.11-3.98,6.65-7.63,10.04-11.38,2.12-2.35,4.32-4.63,6.48-6.94.31-.33.59-.7.95-.97,3.58-2.66,6.55-5.91,9.44-9.28,3.21-3.73,7.2-6.61,11.25-9.35,3.29-2.23,6.66-4.34,10.05-6.4,1.31-.79,2.79-1.29,4.19-1.93,5.68-2.61,11.34-5.29,17.06-7.82,2.13-.94,4.21-1.91,6.27-3.03,4.38-2.37,9.16-3.8,14.19-4.27,4.96-.46,9.91-1.03,14.87-1.47,7.02-.63,14.04-1.39,21.07-1.73,4.13-.2,8.3.25,12.44.52,4.33.28,8.65.72,12.97,1.05,3.61.28,7.22.64,10.84.73,7.86.19,14.65,3.74,21.65,6.65,3.77,1.57,7.57,3.05,11.24,4.82,4.07,1.96,8.06,4.11,11.99,6.36,3.06,1.75,6.14,3.54,8.89,5.71,4.6,3.62,9.33,7.1,13.44,11.33,2.45,2.52,5.13,4.9,8,6.92,3.44,2.43,5.86,5.64,8.11,9.05,3.23,4.89,6.46,9.79,9.59,14.74,1.35,2.13,2.31,4.51,3.71,6.6,2.56,3.84,4.67,7.89,6.6,12.08.97,2.12,2.78,3.85,3.74,5.97,1.27,2.79,2.2,5.75,3.05,8.69,1.33,4.6,2.46,9.27,3.7,13.9,1.25,4.65,2.29,9.33,1.91,14.21ZM216.34,15.65c-.07.13-.15.26-.22.39,2.53,2.12,5.09,4.2,7.57,6.38,2.04,1.79,4.08,3.6,5.93,5.58,2.39,2.58,4.43,5.49,6.89,7.99,5.87,5.95,11.17,12.35,15.95,19.2.82,1.18,1.5,2.47,2.13,3.76,3.29,6.75,6.6,13.5,9.79,20.3,1.19,2.53,2.27,5.15,3.04,7.83,1.87,6.51,3.48,13.09,5.3,19.61,1.92,6.9,3.78,13.77,3.17,21.06-.4,4.69-.42,9.41-.94,14.08-.48,4.31-1.52,8.55-2.09,12.85-.74,5.63-2.55,10.9-4.82,16.07-1.04,2.37-1.81,4.85-2.84,7.22-1.62,3.71-3.18,7.47-5.12,11.03-1.76,3.23-3.95,6.24-6,9.31-.7,1.04-1.46,2.08-2.36,2.94-4.7,4.45-9.58,8.73-14.17,13.29-5.41,5.38-11.97,8.97-18.48,12.71-2.25,1.29-4.43,2.77-6.43,4.42-2.82,2.32-5.68,4.49-9.26,5.52-3.03.87-5.9,2.29-9.1,2.57-.7.06-1.41.33-2.07.62-7.49,3.25-15.38,5.34-23.14,7.77-2.18.68-4.54.79-6.95.5-2.3-.28-4.81-1.56-7.03.4-.62,2.49-1.31,4.98-1.43,7.56-.06,1.34.05,2.69.15,4.03.08,1.16.34,2.31.35,3.46.04,3.7.03,7.39-.02,11.09-.03,1.9-.09,3.81-.34,5.68-.23,1.72-.85,2.09-2.62,1.93-.71-.07-1.46-.22-2.08-.54-1.91-1.01-3.83-2.03-5.64-3.21-5-3.25-10.09-6.38-14.86-9.95-5.27-3.94-10.96-7.43-14.93-12.94-1.68-2.33-3.82-4.33-5.63-6.58-2.15-2.68-4.06-5.56-6.28-8.18-4.45-5.24-9.15-10.28-12.96-16.03-1.39-2.1-2.86-4.19-3.96-6.45-1.63-3.32-2.7-6.93-4.51-10.13-1.19-2.09-1.25-3.92-.45-5.91.88-2.18,1.89-4.32,3.01-6.39,2.15-3.98,4.47-7.87,6.64-11.84,3.43-6.29,7.1-12.41,11.94-17.74,3.11-3.42,6.19-6.85,10.05-9.5,1.48-1.02,2.8-2.3,4.11-3.54,3.22-3.06,6.37-6.17,10.3-8.38,2.05-1.15,4.02-2.51,5.81-4.03,3.86-3.28,7.51-6.78,11.36-10.07,2.89-2.47,5.93-4.77,8.97-7.08.82-.62,1.8-1.59,2.93-.85,1.18.77,1.2,2.14,1.07,3.44-.07.72-.15,1.44-.23,2.17-.56,5.22-1.07,10.45-.54,15.71.21,2.07.72,4.2.45,6.22-.66,5.02-.43,10.16-2.09,15.04-.18.54-.12,1.15-.23,2.32,3.38-2.17,6.37-4,9.24-5.99,1.47-1.02,2.75-2.32,4.11-3.49.89-.77,1.69-1.7,2.69-2.29,6.03-3.58,11.3-8.16,16.7-12.58,3.91-3.21,8.15-6.05,11.92-9.41,4.5-4.02,8.65-8.44,12.98-12.66,3.35-3.27,5.26-7.58,8.07-11.23.93-1.2,1.66-2.61,2.2-4.03,1.93-5.05,3.76-10.15,5.59-15.24.2-.56.43-1.29.24-1.78-1.09-2.76-2.2-5.53-3.52-8.19-1.16-2.34-2.68-4.5-3.9-6.81-2.55-4.82-5.38-9.41-9.36-13.24-.88-.85-1.38-2.1-2.04-3.17-.9-1.46-1.61-3.07-2.72-4.34-1.96-2.25-4.23-4.22-6.23-6.43-2.59-2.88-5.02-5.91-7.57-8.83-1.01-1.16-2.14-2.2-3.23-3.29-4.15-4.17-8.28-8.36-12.48-12.48-1.55-1.52-3.24-2.89-4.93-4.25-3.23-2.6-6.46-5.2-9.77-7.69-1.89-1.42-3.8-2.95-6.53-3.3.14,1.65.24,3.07.38,4.48.5,5.16.1,10.24-.61,15.38-.72,5.15-.72,10.41-.94,15.62-.09,2.17-.11,4.3-1.02,5.76-1.62.3-2.71.45-3.79.7-4.05.92-8.06,2.21-12.17,2.71-3.44.41-6.81.96-10.12,1.94-1.99.59-3.93,1.39-5.93,1.95-6.22,1.75-11.86,4.89-17.82,7.27-.58.23-1.16.55-1.65.95-2.89,2.32-5.75,4.67-8.61,7.03-1.94,1.6-3.74,3.37-6.09,4.46-1.03.47-1.9,1.38-2.7,2.24-2.22,2.38-4.34,4.86-6.55,7.26-1.96,2.12-4.04,4.14-5.99,6.28-2.26,2.47-4.5,4.96-6.64,7.53-2.42,2.91-5.08,5.71-6.98,8.95-3.62,6.16-7.1,12.44-10.03,18.94-2.78,6.18-5.06,12.62-7.05,19.1-1.7,5.52-2.73,11.25-3.96,16.91-.4,1.85-.61,3.76-.68,5.65-.15,3.89-.05,7.8-.24,11.69-.31,6.12.49,12.13,1.92,18.01,2.04,8.34,3.8,16.76,7.13,24.78,1.44,3.46,2.94,6.75,5.23,9.71.65.84,1.01,1.9,1.5,2.85,1.39,2.72,2.66,5.51,4.21,8.14,1.32,2.25,3.04,4.26,4.44,6.46,3.71,5.87,8.56,10.76,13.47,15.55,2.37,2.32,5.33,4.04,8.05,6,5.35,3.86,10.71,7.71,16.08,11.54,4.93,3.51,9.87,6.99,14.83,10.46.5.35,1.12.6,1.72.74,2.29.53,4.58,1.01,6.89,1.47,3.28.66,6.54,1.42,9.84,1.92,3.93.59,7.92.82,11.85,1.46,4.12.67,8.22,1.19,12.39.94,6.66-.41,13.31-.76,19.96-1.25,1.79-.13,3.54-.86,5.33-.95,2.44-.13,4.58-.94,6.69-2.04,2.33-1.21,4.62-2.76,7.12-3.32,5.99-1.35,11.53-3.74,17.02-6.35,4.25-2.01,8.53-3.96,12.8-5.93,1.31-.61,2.69-1.12,3.92-1.86,4.97-3.02,9.46-6.7,13.66-10.7,5.17-4.93,10.19-10.02,15.29-15.02,3.62-3.54,7.15-7.19,10.96-10.51,3.75-3.27,6.16-7.42,8.03-11.8,2.18-5.09,4.73-9.94,7.41-14.77,2.51-4.54,6.1-8.64,6.34-14.21.01-.26.13-.53.21-.79,1.86-5.67,3.78-11.32,5.54-17.03.88-2.84,1.46-5.77,2.16-8.67.46-1.93,1.2-3.85,1.26-5.79.18-5.42.06-10.85.09-16.27,0-1.17.18-2.34.3-3.51.18-1.8.53-3.59.54-5.39.05-6.88.16-13.77-.11-20.64-.11-2.94-.74-5.98-1.78-8.73-1.1-2.91-1.81-5.87-2.4-8.88-.77-3.94-1.73-7.81-3.67-11.35-1.3-2.38-2.83-4.63-4.13-7-2.65-4.84-5.05-9.83-7.86-14.57-4.26-7.15-8.74-14.17-13.24-21.18-.91-1.42-2.22-2.62-3.5-3.74-3.48-3.02-7.2-5.78-10.56-8.93-6.03-5.65-12.22-11.02-19.58-14.91-4.87-2.57-9.73-5.18-14.59-7.76-.68-.36-1.39-.64-2.08-.96Zm-65.54,30.81c0-2.18-.08-4.35.02-6.51.13-2.61.44-5.21.63-7.81.2-2.79.37-5.59.53-8.38.25-4.24,1.26-8.44.67-12.74-.2-1.42-.1-2.9-.03-4.35.07-1.4.95-2.38,1.95-2.1,2.16.61,4.57.98,6.35,2.21,5.5,3.8,10.95,7.73,16.06,12.04,4.13,3.48,7.76,7.55,11.55,11.42,2.78,2.84,5.48,5.75,8.17,8.67,2.57,2.78,4.75,5.86,7.51,8.51,2.84,2.73,5.56,5.69,7.11,9.51.6,1.47,1.62,2.84,2.7,4.03,2.3,2.54,4.75,4.93,6.36,8.03.95,1.84,1.96,3.68,3.19,5.33,1.81,2.41,3.21,4.97,4.4,7.75,2.07,4.81,2.25,9.54.51,14.42-.43,1.2-.71,2.44-1.21,3.61-1.45,3.41-2.55,7.07-4.56,10.11-4.13,6.24-7.93,12.71-13.23,18.19-5.37,5.55-10.98,10.74-17.27,15.2-3.55,2.52-7.19,4.91-10.59,7.61-5.24,4.17-10.24,8.65-15.49,12.82-2.1,1.66-4.57,2.85-6.88,4.25-1.31.8-2.59,1.67-3.95,2.38-2.69,1.4-4.1-.41-4.41-3.13-.1-.86.27-1.78.42-2.67.31-1.87.67-3.74.9-5.62.94-7.66.73-15.37.85-23.06.04-2.63-.4-5.27-.65-8.13-.7.4-1.1.59-1.46.83-5.69,3.91-10.98,8.29-15.95,13.09-1.97,1.9-4.3,3.44-6.53,5.05-1.76,1.27-3.83,2.18-5.4,3.65-4.77,4.44-9.91,8.48-14.62,12.94-4.22,4-7.83,8.79-11.06,13.66-4.55,6.86-8.57,14.08-12.68,21.23-1.38,2.4-2.33,5.03-3.36,7.3,2.35,3.14,4.57,5.77,5.33,9.29.5,2.32,1.66,4.32,3.14,6.22,2.22,2.84,4.13,5.92,6.27,8.84,1.28,1.75,2.74,3.37,4.09,5.06,2.65,3.32,5.54,6.48,7.88,10.01,3.27,4.93,7.05,9.39,11.33,13.41,2.63,2.47,5.69,4.46,8.51,6.72,6.22,4.99,12.57,9.79,19.46,13.82,1.2.7,2.58,1.07,4.2,1.72,0-1.32.03-2.21,0-3.08-.11-2.89-.29-5.79-.36-8.68-.08-3.61.7-7.23-.15-10.83-.12-.51-.01-1.09.09-1.62.59-3.02,1.16-6.04,1.83-9.04.42-1.91,1.45-2.78,3.34-2.98.71-.07,1.44.05,2.17.06,2.8.03,5.64.37,8.39,0,7.21-.97,13.73-4.36,20.72-6.17,1.91-.49,3.68-1.49,5.57-2.09,3.53-1.11,7.18-1.91,10.64-3.19,1.9-.7,3.86-1.83,5.22-3.29,3.55-3.81,8.15-6.01,12.55-8.42,4.18-2.29,8.03-4.88,11.41-8.22,2.77-2.74,5.55-5.47,8.47-8.04,3.74-3.28,7.68-6.32,10.36-10.65,3.18-5.14,7.07-9.87,9.27-15.59,1.72-4.47,3.32-8.98,4.97-13.47.43-1.18.98-2.34,1.24-3.55.88-4.07,1.68-8.16,2.44-12.26.49-2.67,1-5.35,1.25-8.04.49-5.22.67-10.47,1.24-15.68.37-3.4.06-6.69-.73-9.94-1.6-6.59-3.28-13.17-5.1-19.7-1.45-5.22-2.58-10.57-4.96-15.48-2.57-5.3-5.45-10.44-7.93-15.78-1.72-3.69-3.28-7.41-5.6-10.81-2.91-4.28-5.77-8.53-9.71-11.99-2.17-1.9-4.24-4-5.97-6.3-4.38-5.84-9.8-10.59-15.37-15.2-3.34-2.77-6.74-5.49-10.24-8.05-2.75-2.01-5.38-4.35-9.05-4.62-.25-.02-.59-.12-.73-.31-1.17-1.58-2.97-1.62-4.65-1.88-1.96-.31-3.95-.51-5.93-.7-4.78-.46-9.57-.89-14.35-1.32-1.53-.14-3.07-.21-4.61-.33-3.7-.31-7.39-.71-11.09-.91-1.52-.08-3.06.26-4.6.36-6.5.44-13.01.79-19.51,1.32-5.24.43-10.47,1.01-15.69,1.62-2.05.24-4.13.55-6.11,1.14-3.11.92-6.21,1.95-9.2,3.21-1.97.83-3.7,2.21-5.61,3.22-3.19,1.71-6.35,3.51-9.67,4.93-7.48,3.21-15.23,5.85-21.52,11.33-3.26,2.85-6.69,5.5-9.93,8.37-1.48,1.31-2.5,3.16-4.03,4.37-6.81,5.38-11.94,12.37-18.08,18.39-6.35,6.23-10.03,14.33-14.82,21.65-.19.3-.38.66-.4,1-.31,4.03-1.79,7.7-3.37,11.34-.54,1.24-1.13,2.48-1.51,3.78-1.67,5.54-3.26,11.11-4.89,16.66-1.17,3.99-2.48,7.94-3.52,11.96-.54,2.08-.96,4.29-.85,6.42.23,4.59.9,9.16,1.25,13.74.27,3.52.37,7.05.46,10.58.13,4.97-.38,9.97.82,14.88.24.96.36,1.96.47,2.95.63,5.58,1.16,11.17,1.9,16.74.31,2.31,1.11,4.46,2.39,6.54,2.4,3.92,4.7,7.93,6.04,12.4.7,2.34,1.43,4.72,2.56,6.87,2.97,5.69,6.01,11.36,9.32,16.85,1.66,2.75,3.94,5.16,6.05,7.62,1.7,1.98,3.73,3.69,5.36,5.73,4.8,5.98,10.4,11.09,16.68,15.45,3.56,2.47,7.33,4.66,10.93,7.07,2.7,1.81,5.21,3.91,7.95,5.67,2.81,1.81,5.78,3.38,8.7,5.02,3.3,1.85,6.61,3.66,10.34,4.57,1.95.48,3.84,1.18,5.76,1.77-.85-1.12-1.88-1.84-2.94-2.52-6.08-3.93-12.38-7.51-18.06-12.04-2.12-1.69-4.57-2.99-6.53-4.83-3.54-3.35-7.09-6.75-10.15-10.53-5.34-6.61-10.33-13.49-13.71-21.4-1.13-2.64-2.86-5.03-4.03-7.65-1.28-2.88-2.15-5.94-3.34-8.86-2.16-5.29-4.26-10.59-5.25-16.25-.8-4.54-1.51-9.09-2.34-13.62-.87-4.77-.54-9.56-.36-14.34.21-5.5-.5-11.07,1.1-16.49.64-2.17,1.11-4.4,1.49-6.62,1.03-5.99,2.91-11.74,4.84-17.48,2.5-7.42,6.22-14.27,9.75-21.22,2.96-5.82,5.95-11.56,10.65-16.27,3.19-3.2,5.95-6.83,9.01-10.16,3.67-3.99,7.47-7.87,11.22-11.78.81-.84,1.54-1.93,2.54-2.4,3.28-1.53,5.61-4.21,8.37-6.38,3.2-2.51,6.37-5.19,9.94-7.05,5.93-3.08,12.16-5.61,18.61-7.49,1.64-.48,3.21-1.22,4.86-1.68,4.19-1.14,8.42-2,12.75-2.51,4.11-.48,8.17-1.46,12.46-2.26Z"/>
  <path class="cls-1" d="m216.34,15.65c.7.32,1.41.61,2.08.96,4.87,2.58,9.72,5.19,14.59,7.76,7.36,3.89,13.56,9.26,19.58,14.91,3.36,3.15,7.08,5.91,10.56,8.93,1.29,1.11,2.59,2.32,3.5,3.74,4.5,7.01,8.98,14.03,13.24,21.18,2.82,4.74,5.21,9.73,7.86,14.57,1.3,2.37,2.83,4.62,4.13,7,1.93,3.54,2.9,7.41,3.67,11.35.59,3.01,1.3,5.97,2.4,8.88,1.04,2.75,1.67,5.79,1.78,8.73.27,6.87.16,13.76.11,20.64-.01,1.8-.36,3.59-.54,5.39-.12,1.17-.29,2.34-.3,3.51-.04,5.42.09,10.85-.09,16.27-.06,1.94-.8,3.87-1.26,5.79-.69,2.9-1.28,5.83-2.16,8.67-1.76,5.7-3.69,11.35-5.54,17.03-.08.26-.2.52-.21.79-.24,5.57-3.83,9.67-6.34,14.21-2.68,4.83-5.23,9.67-7.41,14.77-1.87,4.38-4.28,8.53-8.03,11.8-3.81,3.32-7.34,6.97-10.96,10.51-5.11,5-10.12,10.09-15.29,15.02-4.2,4-8.68,7.68-13.66,10.7-1.23.75-2.61,1.26-3.92,1.86-4.27,1.98-8.55,3.92-12.8,5.93-5.49,2.6-11.03,4.99-17.02,6.35-2.5.56-4.79,2.11-7.12,3.32-2.12,1.1-4.25,1.91-6.69,2.04-1.79.1-3.54.82-5.33.95-6.65.49-13.31.84-19.96,1.25-4.17.25-8.27-.26-12.39-.94-3.92-.64-7.91-.86-11.85-1.46-3.3-.5-6.57-1.26-9.84-1.92-2.3-.47-4.6-.95-6.89-1.47-.6-.14-1.22-.38-1.72-.74-4.96-3.47-9.9-6.95-14.83-10.46-5.37-3.83-10.73-7.68-16.08-11.54-2.72-1.96-5.67-3.68-8.05-6-4.91-4.79-9.77-9.68-13.47-15.55-1.39-2.21-3.12-4.22-4.44-6.46-1.55-2.63-2.82-5.42-4.21-8.14-.49-.96-.85-2.02-1.5-2.85-2.28-2.96-3.79-6.24-5.23-9.71-3.33-8.02-5.09-16.43-7.13-24.78-1.44-5.88-2.23-11.89-1.92-18.01.2-3.89.09-7.79.24-11.69.07-1.89.28-3.8.68-5.65,1.23-5.66,2.26-11.39,3.96-16.91,2-6.48,4.27-12.92,7.05-19.1,2.93-6.5,6.41-12.79,10.03-18.94,1.9-3.23,4.56-6.03,6.98-8.95,2.14-2.57,4.38-5.06,6.64-7.53,1.95-2.13,4.03-4.15,5.99-6.28,2.21-2.39,4.33-4.87,6.55-7.26.79-.85,1.67-1.76,2.7-2.24,2.35-1.09,4.15-2.85,6.09-4.46,2.86-2.36,5.73-4.71,8.61-7.03.49-.39,1.06-.71,1.65-.95,5.96-2.37,11.6-5.51,17.82-7.27,2-.56,3.93-1.36,5.93-1.95,3.31-.98,6.68-1.53,10.12-1.94,4.1-.49,8.11-1.78,12.17-2.71,1.08-.24,2.17-.4,3.79-.7.91-1.46.93-3.59,1.02-5.76.21-5.21.22-10.47.94-15.62.72-5.14,1.11-10.23.61-15.38-.14-1.41-.24-2.83-.38-4.48,2.73.35,4.63,1.88,6.53,3.3,3.31,2.49,6.54,5.09,9.77,7.69,1.69,1.36,3.38,2.73,4.93,4.25,4.2,4.12,8.33,8.31,12.48,12.48,1.09,1.09,2.22,2.14,3.23,3.29,2.55,2.92,4.98,5.95,7.57,8.83,2,2.22,4.27,4.19,6.23,6.43,1.11,1.27,1.82,2.89,2.72,4.34.66,1.07,1.16,2.32,2.04,3.17,3.97,3.83,6.81,8.42,9.36,13.24,1.22,2.31,2.74,4.47,3.9,6.81,1.32,2.66,2.42,5.43,3.52,8.19.19.49-.04,1.22-.24,1.78-1.83,5.09-3.66,10.18-5.59,15.24-.54,1.42-1.27,2.83-2.2,4.03-2.82,3.65-4.72,7.96-8.07,11.23-4.33,4.22-8.47,8.64-12.98,12.66-3.77,3.37-8.01,6.2-11.92,9.41-5.39,4.43-10.66,9-16.7,12.58-1,.59-1.79,1.52-2.69,2.29-1.36,1.18-2.64,2.48-4.11,3.49-2.88,1.99-5.86,3.81-9.24,5.99.11-1.17.05-1.79.23-2.32,1.66-4.88,1.44-10.03,2.09-15.04.26-2.02-.24-4.15-.45-6.22-.53-5.26-.02-10.49.54-15.71.08-.72.16-1.44.23-2.17.13-1.3.11-2.66-1.07-3.44-1.13-.74-2.1.23-2.93.85-3.03,2.3-6.07,4.61-8.97,7.08-3.85,3.28-7.51,6.79-11.36,10.07-1.79,1.52-3.76,2.88-5.81,4.03-3.94,2.2-7.09,5.31-10.3,8.38-1.31,1.25-2.63,2.52-4.11,3.54-3.86,2.65-6.94,6.08-10.05,9.5-4.85,5.34-8.51,11.45-11.94,17.74-2.16,3.97-4.48,7.86-6.64,11.84-1.12,2.07-2.13,4.21-3.01,6.39-.8,1.99-.74,3.82.45,5.91,1.81,3.2,2.88,6.81,4.51,10.13,1.11,2.26,2.57,4.35,3.96,6.45,3.81,5.75,8.52,10.79,12.96,16.03,2.22,2.62,4.13,5.5,6.28,8.18,1.81,2.25,3.95,4.24,5.63,6.58,3.96,5.51,9.66,8.99,14.93,12.94,4.77,3.57,9.86,6.7,14.86,9.95,1.81,1.18,3.73,2.2,5.64,3.21.62.33,1.37.48,2.08.54,1.77.16,2.39-.22,2.62-1.93.26-1.87.31-3.78.34-5.68.06-3.7.06-7.39.02-11.09-.01-1.15-.27-2.3-.35-3.46-.09-1.34-.21-2.69-.15-4.03.12-2.58.8-5.07,1.43-7.56,2.22-1.96,4.73-.68,7.03-.4,2.41.29,4.77.18,6.95-.5,7.77-2.43,15.65-4.51,23.14-7.77.66-.29,1.36-.55,2.07-.62,3.2-.28,6.08-1.7,9.1-2.57,3.57-1.03,6.43-3.2,9.26-5.52,2-1.65,4.18-3.13,6.43-4.42,6.51-3.74,13.07-7.33,18.48-12.71,4.59-4.56,9.47-8.84,14.17-13.29.9-.86,1.66-1.9,2.36-2.94,2.05-3.07,4.25-6.07,6-9.31,1.93-3.55,3.49-7.31,5.12-11.03,1.04-2.37,1.8-4.86,2.84-7.22,2.27-5.16,4.08-10.43,4.82-16.07.57-4.3,1.61-8.55,2.09-12.85.52-4.67.55-9.39.94-14.08.62-7.29-1.24-14.16-3.17-21.06-1.82-6.52-3.43-13.11-5.3-19.61-.77-2.68-1.86-5.3-3.04-7.83-3.19-6.8-6.5-13.55-9.79-20.3-.63-1.29-1.31-2.58-2.13-3.76-4.77-6.85-10.08-13.25-15.95-19.2-2.46-2.5-4.5-5.41-6.89-7.99-1.84-1.99-3.89-3.79-5.93-5.58-2.48-2.18-5.04-4.25-7.57-6.38.07-.13.15-.26.22-.39Z"/>
</svg>