<?xml version="1.0" encoding="UTF-8"?>
<svg id="Layer_1" data-name="Layer 1" xmlns="http://www.w3.org/2000/svg" viewBox="0 0 396.42 432.69">
  <defs>
    <style>
      .cls-1 {
        fill: #1d5c00;
        stroke-width: 0px;
      }
    </style>
  </defs>
  <path class="cls-1" d="m152.37,423.25c-6.51.34-12.76,1.53-18.53,4.89-2.97,1.73-6.24,3.03-9.51,4.11-4.99,1.64-7.76-1.54-8.47-5.26-1.58-8.33-2.48-16.78-3.81-25.16-.24-1.5-.98-3.05-1.86-4.31-1.74-2.48-3.47-5.07-5.69-7.08-4.04-3.66-8.94-6-14.11-7.74-6.97-2.35-11.68-7.06-14.47-13.79-1.84-4.44-3.14-9.23-5.66-13.25-3.77-6.01-7.17-12.68-14.06-15.9-6.9-3.22-12.26-8.42-18.06-13.09-4.55-3.67-9.47-6.9-13.86-10.74-3.67-3.22-7.31-6.9-8.38-11.83-.94-4.32-1-8.88-1.05-13.34-.04-4.62.57-9.24.59-13.86.04-8.36-4.32-14.8-9.46-20.87-1.32-1.56-2.47-3.26-3.57-4.98-2.35-3.65-3.5-7.59-1.12-11.56,1.73-2.88,3.7-5.8,6.17-8.03,6.31-5.71,13.56-10.06,21.66-12.76,2.61-.87,5.47-.94,8.16-1.62,6.85-1.71,13.17-4.39,18.32-9.52,2.46-2.45,5.62-4.2,8.08-6.65,3.16-3.16,5.7-6.95,8.94-10.03,3.15-3,6.68-5.66,10.31-8.06,5.15-3.4,10.47-6.62,16.86-7.14,2.59-.21,5.29.19,7.78-.4,4.37-1.05,8.68-2.44,12.87-4.05,6.58-2.53,13.12-5.2,19.53-8.14,4.25-1.95,8.26-4.43,12.34-6.75,3.74-2.13,7.47-4.29,11.12-6.58,4.41-2.76,8.7-5.71,13.08-8.51,5.34-3.41,10.57-7.04,16.15-10.02,4.57-2.45,9.44-4.6,14.43-5.96,4.27-1.16,8.89-1.24,13.36-1.39,6.88-.22,13.77.01,20.66-.13,8.45-.18,16.9-.41,25.33-.91,3.69-.22,7.31-1.33,11-1.75,3.14-.36,6.5-1.02,9.43-.27,3.05.79,5.73,3.08,8.52,4.81.72.45,1.13,1.41,1.85,1.84,4.28,2.56,4.82,6.73,5.03,11.13.18,3.66.67,7.31.74,10.98.14,6.94,2,13.47,4.33,19.92.45,1.26.54,2.71,1.21,3.83,1.88,3.18,4.03,6.2,5.95,9.35,1.2,1.96,2.47,3.95,3.23,6.1,2.6,7.31,4.74,14.79,7.58,22,1.41,3.57,3.93,6.71,6.02,10.01,1.56,2.46,3.05,5.01,4.89,7.25,3.21,3.9,6.8,6.99,12.17,8.21,6.76,1.55,12.79,4.7,16.27,11.49,3.16,6.16,8.33,10.45,14.12,14.29,4.42,2.93,9.77,4.76,12.67,9.89,2,3.54,4.08,6.79,4,11.16-.08,4.4.67,8.81.92,13.23.3,5.15-1.35,9.77-4,14.13-1.87,3.08-3.48,6.3-5.34,9.38-2.22,3.68-6.11,4.76-9.83,6.15-3.49,1.31-6.89,2.89-10.3,4.42-1.19.54-2.25,1.39-3.45,1.9-5.88,2.45-8.81,7.95-12.91,12.26-5.28,5.55-11.31,10.24-19.02,11.58-6.61,1.15-13.38,1.34-20.08,2.02-5.82.59-11.62,1.37-17.44,1.84-3.43.28-6.95.56-10.33.1-4.76-.65-8.85,1.28-13.08,2.59-5.16,1.59-9.71,4.63-14.34,7.31-5.72,3.31-11.09,7.22-16.64,10.82-4.69,3.04-9.36,6.1-14.15,8.98-8.66,5.22-17.51,10.12-26.06,15.52-5.5,3.47-10.41,7.9-15.94,11.33-5.33,3.31-11.45,4.76-17.73,5.33-4.47.41-8.93.89-13.39,1.35Zm-40.81-246.71c-1.13,2.12-3.64,1.62-5.65,2.01-3.38.67-6.9.74-10.18,1.68-2.13.61-3.95,2.31-5.88,3.57-2.44,1.59-4.89,3.17-7.25,4.87-2.15,1.55-4.35,3.08-6.23,4.92-3.58,3.5-6.83,7.33-10.44,10.8-2.94,2.82-6.19,5.34-9.34,7.94-5.21,4.3-10.72,7.87-17.59,9.18-4.76.91-9.43,2.44-14.01,4.05-2.28.8-4.17,2.66-6.4,3.64-4.29,1.88-7.84,4.59-10.83,8.18-3.55,4.26-3.82,8.46-.56,12.8,2.94,3.92,6.19,7.65,8.79,11.78,1.82,2.9,3.7,6.27,3.96,9.55.65,8.07.09,16.24.57,24.34.32,5.38,1.86,10.55,6.58,14.09,5.16,3.88,10.31,7.79,15.38,11.79,4.56,3.59,8.97,7.38,13.55,10.94,2.49,1.94,5.52,3.27,7.76,5.45,3.03,2.95,5.63,6.36,8.21,9.74,4.31,5.63,7.11,12.04,9.31,18.76.52,1.59,1.31,3.13,2.2,4.55,3.14,5.02,8.75,6.51,13.68,8.36,6.2,2.32,10.92,5.85,15.06,10.9,3.45,4.21,5.75,8.53,5.49,14.04-.34,7.02,1.07,13.78,3.03,20.48.67,2.3,1.85,2.6,3.73,1.76,2.68-1.19,5.28-2.61,8.04-3.59,4.42-1.59,8.85-3.47,13.43-4.2,6.1-.98,12.42-.58,18.53-1.52,5.13-.79,10.22-2.33,15.12-4.09,6.4-2.3,10.98-7.55,16.59-11.15,6.93-4.44,13.83-8.92,20.88-13.16,6.49-3.9,13.29-7.31,19.72-11.3,6.76-4.19,13.18-8.93,19.9-13.21,3.22-2.05,6.66-3.83,10.18-5.29,5.71-2.38,11.5-4.43,17.94-4,3.62.24,7.3-.27,10.94-.62,10.96-1.05,21.89-2.35,32.86-3.22,4.48-.36,8.41-2.01,11.71-4.59,4.6-3.59,8.84-7.71,12.83-11.98,6.01-6.44,13.73-9.69,21.84-11.88,4.99-1.35,8.8-3.34,10.87-8.19.92-2.15,2.32-4.14,3-6.36,1.09-3.53,2.31-7.17,2.46-10.81.22-4.97-.09-10.06-.98-14.95-.64-3.51-1.83-7.52-4.17-9.97-3.21-3.36-7.83-5.34-11.67-8.15-2.66-1.95-5.1-4.21-7.48-6.5-1.3-1.25-2.27-2.85-3.39-4.28-1.76-2.24-3.35-4.64-5.32-6.69-3.54-3.68-8.35-5.06-12.97-6.88-3.18-1.25-6.5-2.89-8.92-5.22-3.48-3.35-6.46-7.31-9.19-11.32-5.14-7.57-9-15.79-11.44-24.64-1.76-6.39-4.14-12.48-8.34-17.74-4.09-5.11-6.04-11.34-7.32-17.47-1.45-6.92-1.34-14.17-1.96-21.27-.24-2.67.13-5.79-1.13-7.88-1.78-2.95-4.75-5.21-7.37-7.59-.86-.78-2.19-1.44-3.32-1.45-3.6-.04-7.32-.23-10.8.51-9.04,1.92-18.19,2.4-27.35,2.86-6.6.33-13.22.46-19.83.33-8.53-.17-17.03-.27-25.21,2.55-8.76,3.03-16.65,7.68-24.09,13.22-5.17,3.85-10.58,7.42-16.07,10.8-4,2.46-8.31,4.42-12.5,6.57-4.83,2.48-9.51,5.34-14.55,7.3-7.29,2.84-14.83,5.06-22.29,7.45-.55.18-1.32-.34-2.11-.57Z"/>
  <path class="cls-1" d="m360.05,26.1c-2.79,2.5-5.98,2.63-9.05,2.69-8.89.17-17.48,2.04-26.16,3.73-4.64.9-8.82,2.79-13.03,4.48-5.45,2.2-10.51,5.45-15.56,8.54-2.6,1.59-4.56,4.84-7.25,5.47-3.21.76-3.18,3.85-5.54,5.06-2.27,1.17-4.07,3.37-5.87,5.31-2.4,2.58-4.54,5.4-6.9,8.02-2.56,2.83-5.16,5.63-7.94,8.22-.7.65-2.25.83-3.24.58-.58-.15-1.28-1.69-1.12-2.44.43-2.02,1-4.12,2.05-5.86,1.83-3.03,3.84-6.01,6.17-8.66,3.66-4.15,7.56-8.1,11.53-11.96,3.19-3.11,6.49-6.16,10.03-8.85,2.45-1.86,5.4-3.06,8.12-4.58,3.07-1.71,6.03-3.66,9.23-5.09,4.19-1.88,8.43-3.88,12.87-4.9,6.28-1.44,12.74-2.76,19.13-2.8,7.1-.05,14.2,1.39,21.3,2.21.31.04.59.38,1.24.82Z"/>
  <path class="cls-1" d="m363.61,46.04c1.85-1.6,3.68-3.23,5.56-4.8,2.68-2.23,5.39-4.41,8.1-6.6,2.69-2.17,4.51-5.03,6.01-8.04,1.35-2.7.19-4.19-2.27-6.06-2.79-2.14-6.4-2.67-8.9-5.52-1.43-1.63-4.42-1.84-6.65-2.8-3.93-1.7-7.46-3.87-10.69-6.85-1.6-1.47-3.42-2.46-2.01-4.33,1.46-1.93,3.36-.78,5.4.35,3.69,2.04,7.87,3.18,11.76,4.9,4.86,2.15,9.76,4.27,14.42,6.82,5.96,3.26,7.86,10.44,4.87,16.6-2.01,4.14-4.95,7.42-8.9,9.68-4.32,2.48-8.77,4.74-13.22,6.97-.88.44-2.04.29-3.08.42-.14-.24-.27-.49-.41-.73Z"/>
  <path class="cls-1" d="m85.92,202.04c-3.11,8.99-39.11,32.06-54.08,27.18.25-2.63,2.71-2.7,4.2-2.81,10.63-.75,20.07-4.89,28.95-10.27,7.32-4.44,14.23-9.55,20.93-14.1Z"/>
  <path class="cls-1" d="m80.57,225.97c1.56-1.36,3.03-2.86,4.71-4.07,4.36-3.14,8.78-6.19,13.25-9.18.75-.5,1.85-.48,2.78-.7-.33.81-.45,1.82-1.03,2.39-4.94,4.9-9.6,10.23-16.58,12.38-.83.26-1.81.03-2.71.03-.14-.29-.28-.58-.43-.86Z"/>
  <path class="cls-1" d="m314.51,223.77c-1.66-1.22-3.81-2.1-4.9-3.71-3.23-4.77-6.13-9.77-8.94-14.79-.82-1.46-1.02-3.31-1.28-5.02-.07-.46.7-1.04,1.09-1.57.5.45,1.21.81,1.47,1.38,2.49,5.42,4.68,10.99,7.45,16.25,1.32,2.51,3.73,4.45,5.64,6.65-.18.27-.35.54-.53.81Z"/>
  <path class="cls-1" d="m89.83,213.69c-2.92,2.31-5.7,4.81-8.79,6.86-2.89,1.93-6.09,3.38-9.15,5.05-.24.13-.47.41-.7.4-1.33-.09-2.66-.25-4-.38.9-.85,1.68-1.89,2.72-2.51,5.43-3.26,10.91-6.42,16.39-9.58.85-.49,1.82-.77,2.74-1.15.26.43.52.87.78,1.3Z"/>
  <path class="cls-1" d="m127.53,417.88c-1.15-9.36-2.24-18.3-3.26-26.64,3.66,3.55,6.63,22.3,3.26,26.64Z"/>
  <path class="cls-1" d="m301.17,211.77c3.17,5.75,6.84,10.35,12.47,13.08-3.35,1.21-8.47-1.68-12.02-7.07-.99-1.5-2.58-3.38-.45-6.02Z"/>
  <path class="cls-1" d="m149.32,402.2c-1.1-3.32-2.3-6.61-3.25-9.98-.62-2.2-.99-4.49-1.24-6.76-.08-.74.57-1.57.89-2.35.51.7,1.34,1.35,1.47,2.11.93,5.59,1.73,11.2,2.56,16.8-.15.06-.29.12-.44.18Z"/>
  <path class="cls-1" d="m133.09,401.24c.33,1.26.74,2.51.96,3.79.46,2.64.89,5.29,1.18,7.95.05.45-.65,1.03-1.12,1.42-.08.07-1-.46-1.03-.76-.38-4.07-.67-8.14-.98-12.22l.98-.18Z"/>
  <path class="cls-1" d="m154.23,388.13c-1.05-3.12-2.11-6.24-3.16-9.36.29-.1.58-.19.87-.29,1.1,3.13,2.21,6.26,3.31,9.4-.34.08-.67.17-1.01.25Z"/>
  <path class="cls-1" d="m158.08,396c.74,2.16,1.49,4.33,2.23,6.49-.18.07-.35.14-.53.21-.86-2.13-1.71-4.26-2.57-6.39l.86-.31Z"/>
</svg>