<?xml version="1.0" encoding="UTF-8"?>
<svg id="Layer_1" data-name="Layer 1" xmlns="http://www.w3.org/2000/svg" viewBox="0 0 499.56 407.56">
  <defs>
    <style>
      .cls-1 {
        fill: #285d2e;
        stroke-width: 0px;
      }
    </style>
  </defs>
  <path class="cls-1" d="m109.99,218.6c-4.7.24-9.21,1.11-13.38,3.53-2.14,1.25-4.51,2.19-6.87,2.97-3.6,1.19-5.61-1.11-6.11-3.79-1.14-6.01-1.79-12.12-2.75-18.17-.17-1.09-.71-2.2-1.34-3.11-1.25-1.79-2.5-3.66-4.11-5.11-2.92-2.64-6.46-4.33-10.19-5.59-5.03-1.69-8.43-5.1-10.44-9.96-1.33-3.21-2.26-6.66-4.08-9.57-2.72-4.34-5.17-9.16-10.15-11.48-4.98-2.32-8.85-6.08-13.03-9.45-3.29-2.65-6.84-4.98-10-7.76-2.65-2.32-5.28-4.98-6.05-8.54-.68-3.12-.72-6.41-.76-9.63-.03-3.33.41-6.67.43-10.01.03-6.03-3.12-10.68-6.83-15.07-.95-1.12-1.78-2.36-2.58-3.6-1.69-2.63-2.53-5.48-.81-8.34,1.25-2.08,2.67-4.19,4.45-5.8,4.55-4.12,9.79-7.26,15.64-9.21,1.88-.63,3.95-.68,5.89-1.17,4.94-1.24,9.51-3.17,13.23-6.87,1.78-1.77,4.06-3.03,5.83-4.8,2.28-2.28,4.12-5.02,6.45-7.24,2.27-2.16,4.82-4.09,7.44-5.82,3.71-2.46,7.56-4.78,12.17-5.16,1.87-.15,3.82.14,5.61-.29,3.15-.75,6.26-1.76,9.29-2.93,4.75-1.83,9.47-3.75,14.1-5.87,3.07-1.41,5.97-3.2,8.91-4.87,2.7-1.54,5.39-3.1,8.03-4.75,3.18-2,6.28-4.13,9.44-6.15,3.86-2.46,7.63-5.08,11.66-7.24,3.3-1.77,6.81-3.32,10.41-4.3,3.08-.84,6.41-.9,9.65-1,4.97-.16,9.94.01,14.91-.1,6.1-.13,12.2-.29,18.28-.66,2.66-.16,5.28-.96,7.94-1.27,2.26-.26,4.69-.74,6.81-.19,2.2.57,4.14,2.22,6.15,3.47.52.32.81,1.01,1.34,1.33,3.09,1.85,3.48,4.86,3.63,8.03.13,2.64.48,5.28.53,7.92.1,5.01,1.45,9.72,3.12,14.38.33.91.39,1.95.87,2.76,1.36,2.3,2.91,4.48,4.3,6.75.87,1.42,1.78,2.85,2.33,4.4,1.88,5.28,3.42,10.68,5.47,15.88,1.02,2.58,2.84,4.85,4.35,7.22,1.13,1.78,2.2,3.62,3.53,5.24,2.32,2.81,4.91,5.05,8.78,5.93,4.88,1.12,9.23,3.39,11.74,8.29,2.28,4.45,6.01,7.55,10.19,10.32,3.19,2.12,7.06,3.44,9.14,7.14,1.44,2.55,2.94,4.9,2.89,8.05-.06,3.18.48,6.36.67,9.55.21,3.72-.98,7.05-2.89,10.2-1.35,2.22-2.51,4.55-3.85,6.77-1.6,2.66-4.41,3.43-7.1,4.44-2.52.95-4.97,2.09-7.43,3.19-.86.39-1.62,1.01-2.49,1.37-4.24,1.77-6.36,5.74-9.32,8.85-3.81,4.01-8.17,7.39-13.73,8.36-4.77.83-9.66.97-14.49,1.46-4.2.42-8.38.99-12.59,1.33-2.48.2-5.02.4-7.46.07-3.43-.47-6.39.93-9.44,1.87-3.73,1.15-7.01,3.34-10.35,5.28-4.13,2.39-8,5.21-12.01,7.81-3.38,2.19-6.76,4.4-10.21,6.48-6.25,3.77-12.64,7.31-18.81,11.2-3.97,2.51-7.51,5.7-11.5,8.18-3.85,2.39-8.26,3.43-12.8,3.84-3.22.29-6.44.65-9.66.97Zm-29.46-178.09c-.82,1.53-2.63,1.17-4.08,1.45-2.44.48-4.98.53-7.35,1.22-1.53.44-2.85,1.67-4.24,2.57-1.76,1.15-3.53,2.29-5.23,3.52-1.55,1.12-3.14,2.22-4.5,3.55-2.58,2.52-4.93,5.29-7.54,7.79-2.12,2.04-4.47,3.85-6.74,5.73-3.76,3.11-7.74,5.68-12.69,6.63-3.44.66-6.81,1.76-10.11,2.93-1.64.58-3.01,1.92-4.62,2.63-3.1,1.36-5.66,3.32-7.82,5.9-2.57,3.07-2.76,6.11-.4,9.24,2.12,2.83,4.47,5.52,6.34,8.5,1.32,2.09,2.67,4.52,2.86,6.89.47,5.83.07,11.72.41,17.57.23,3.89,1.34,7.62,4.75,10.17,3.73,2.8,7.44,5.62,11.11,8.51,3.29,2.59,6.47,5.33,9.78,7.9,1.8,1.4,3.99,2.36,5.6,3.93,2.18,2.13,4.06,4.59,5.93,7.03,3.11,4.07,5.13,8.69,6.72,13.54.38,1.15.94,2.26,1.59,3.29,2.27,3.63,6.32,4.7,9.87,6.03,4.48,1.67,7.88,4.23,10.87,7.87,2.49,3.04,4.15,6.16,3.96,10.14-.24,5.07.77,9.94,2.19,14.78.48,1.66,1.33,1.88,2.7,1.27,1.94-.86,3.81-1.88,5.8-2.6,3.19-1.15,6.39-2.5,9.7-3.03,4.4-.71,8.97-.42,13.38-1.1,3.71-.57,7.38-1.68,10.92-2.95,4.62-1.66,7.92-5.45,11.98-8.05,5-3.2,9.98-6.44,15.07-9.5,4.69-2.82,9.59-5.28,14.24-8.16,4.88-3.03,9.52-6.45,14.36-9.54,2.32-1.48,4.81-2.76,7.35-3.82,4.12-1.71,8.3-3.19,12.95-2.89,2.61.17,5.27-.2,7.9-.45,7.91-.76,15.8-1.69,23.72-2.32,3.24-.26,6.07-1.45,8.45-3.31,3.32-2.59,6.38-5.56,9.26-8.65,4.33-4.65,9.91-6.99,15.76-8.58,3.6-.97,6.35-2.41,7.85-5.91.66-1.56,1.67-2.99,2.16-4.59.78-2.55,1.66-5.18,1.78-7.81.16-3.59-.06-7.26-.71-10.79-.46-2.53-1.32-5.43-3.01-7.2-2.32-2.43-5.65-3.86-8.42-5.89-1.92-1.4-3.68-3.04-5.4-4.69-.94-.9-1.64-2.06-2.45-3.09-1.27-1.62-2.42-3.35-3.84-4.83-2.56-2.66-6.03-3.65-9.36-4.96-2.3-.91-4.69-2.08-6.44-3.77-2.51-2.42-4.67-5.27-6.63-8.17-3.71-5.46-6.5-11.4-8.26-17.79-1.27-4.61-2.99-9.01-6.02-12.8-2.95-3.69-4.36-8.19-5.28-12.61-1.04-5-.97-10.23-1.42-15.35-.17-1.93.1-4.18-.82-5.69-1.29-2.13-3.43-3.76-5.32-5.48-.62-.56-1.58-1.04-2.39-1.05-2.6-.03-5.28-.16-7.8.37-6.52,1.39-13.13,1.74-19.74,2.06-4.76.24-9.55.33-14.31.23-6.16-.13-12.29-.2-18.2,1.84-6.33,2.19-12.02,5.54-17.39,9.54-3.73,2.78-7.64,5.35-11.6,7.79-2.89,1.78-6,3.19-9.02,4.74-3.49,1.79-6.87,3.85-10.5,5.27-5.26,2.05-10.7,3.65-16.09,5.38-.4.13-.95-.25-1.52-.41Z"/>
  <path class="cls-1" d="m62.02,58.91c-2.24,6.49-28.23,23.14-39.04,19.62.18-1.9,1.96-1.95,3.03-2.03,7.68-.54,14.49-3.53,20.9-7.42,5.29-3.2,10.27-6.9,15.11-10.18Z"/>
  <path class="cls-1" d="m58.16,76.19c1.13-.98,2.19-2.06,3.4-2.94,3.15-2.27,6.34-4.47,9.57-6.62.54-.36,1.33-.34,2.01-.5-.24.58-.33,1.32-.74,1.72-3.57,3.54-6.93,7.38-11.97,8.94-.6.18-1.3.03-1.96.03-.1-.21-.2-.42-.31-.62Z"/>
  <path class="cls-1" d="m227.03,74.6c-1.2-.88-2.75-1.52-3.54-2.68-2.33-3.44-4.42-7.05-6.46-10.68-.59-1.06-.74-2.39-.92-3.62-.05-.33.51-.75.78-1.13.36.33.87.59,1.06.99,1.8,3.91,3.38,7.93,5.38,11.73.95,1.81,2.69,3.21,4.07,4.8-.13.2-.25.39-.38.59Z"/>
  <path class="cls-1" d="m64.85,67.32c-2.1,1.66-4.12,3.47-6.34,4.95-2.08,1.39-4.4,2.44-6.61,3.64-.17.09-.34.3-.5.29-.96-.06-1.92-.18-2.88-.27.65-.61,1.22-1.36,1.96-1.81,3.92-2.35,7.87-4.64,11.83-6.91.61-.35,1.31-.55,1.98-.83.19.31.38.63.57.94Z"/>
  <path class="cls-1" d="m92.06,214.72c-.83-6.76-1.62-13.21-2.35-19.23,2.64,2.56,4.78,16.09,2.35,19.23Z"/>
  <path class="cls-1" d="m217.4,65.94c2.29,4.15,4.94,7.47,9,9.45-2.42.87-6.11-1.22-8.68-5.1-.72-1.09-1.86-2.44-.32-4.34Z"/>
  <path class="cls-1" d="m107.79,203.4c-.79-2.4-1.66-4.77-2.34-7.2-.45-1.59-.72-3.24-.89-4.88-.06-.54.41-1.13.64-1.7.37.51.97.97,1.06,1.53.67,4.03,1.25,8.08,1.85,12.13-.11.04-.21.08-.32.13Z"/>
  <path class="cls-1" d="m96.07,202.71c.24.91.53,1.81.69,2.74.34,1.9.64,3.82.85,5.74.03.32-.47.74-.81,1.02-.06.05-.72-.33-.74-.55-.27-2.94-.48-5.88-.71-8.82l.71-.13Z"/>
  <path class="cls-1" d="m111.33,193.24c-.76-2.25-1.52-4.5-2.28-6.76.21-.07.42-.14.62-.21.8,2.26,1.59,4.52,2.39,6.78-.24.06-.49.12-.73.18Z"/>
  <path class="cls-1" d="m114.11,198.93l1.61,4.69c-.13.05-.25.1-.38.15-.62-1.54-1.24-3.07-1.85-4.61l.62-.22Z"/>
  <g>
    <path class="cls-1" d="m363.94,367.61c1.56-4.87,6.39-5.8,10.01-8.02,7.53-4.62,15.32-8.81,23.07-13.08,2.3-1.27,4.81-2.15,7.19-3.29,1.29-.62,2.5-1.41,3.76-2.08,4.23-2.24,8.5-4.41,12.68-6.73,1.87-1.04,3.54-2.41,5.34-3.58,2.54-1.65,5.06-3.35,7.68-4.86,2.74-1.58,5.66-2.85,8.38-4.45,3.21-1.88,6.28-3.99,9.45-5.95,1.45-.9,2.98-1.68,4.65-2.62-4.04-.84-7.71-1.48-11.32-2.39-7.15-1.82-14.25-3.87-21.4-5.68-4.79-1.21-9.7-1.97-14.46-3.3-5.82-1.62-11.52-3.69-17.31-5.44-3.2-.97-6.49-1.66-9.73-2.5-4.19-1.09-8.36-2.26-12.55-3.31-2.82-.7-5.69-1.17-8.5-1.9-8.13-2.11-16.22-4.35-24.35-6.45-6.92-1.79-13.94-3.25-20.79-5.27-2.99-.89-5.34-.22-7.88.99-2.31,1.1-4.67,2.09-7.06,3.01-.65.25-1.49.04-1.82.04-1.51.89-2.73,1.85-4.11,2.36-4.4,1.64-8.84,3.15-13.3,4.63-4.22,1.39-8.47,2.68-12.71,4-3.95,1.23-7.94,2.36-11.86,3.7-4.23,1.44-8.43,2.97-12.57,4.65-4.27,1.72-8.39,3.81-12.69,5.47-3.85,1.48-7.88,2.52-11.77,3.89-2.52.89-4.95,2.02-7.41,3.04v.7c1.53.41,3.08.78,4.59,1.25,3.58,1.12,7.16,2.26,10.71,3.45,2.66.89,5.29,1.87,7.92,2.84,2.36.87,4.74,1.7,7.05,2.7,4.52,1.96,8.99,4.03,13.49,6.03,2.34,1.04,4.64,2.21,7.07,3.02,2.87.96,5.87,1.51,8.76,2.4,3.56,1.09,7.05,2.38,10.59,3.53,3.56,1.15,7.15,2.2,10.71,3.36,4.03,1.31,8.04,2.72,12.07,4.04,3.69,1.2,7.42,2.3,11.11,3.49,2.88.93,5.72,1.97,8.6,2.9,4.38,1.41,8.81,2.67,13.15,4.19,5.2,1.82,10.34,3.79,15.47,5.8,2.56,1.01,5.05,2.21,7.54,3.41.56.27.97.85,1.45,1.29-.56.13-1.21.5-1.68.34-6.44-2.11-12.85-4.34-19.29-6.46-3.55-1.17-7.17-2.15-10.74-3.28-5.38-1.71-10.75-3.46-16.1-5.24-7.27-2.41-14.54-4.85-21.79-7.31-5.07-1.72-10.09-3.57-15.18-5.21-4.91-1.58-9.89-2.89-14.81-4.43-3.72-1.16-7.49-2.25-11.05-3.81-4.32-1.89-8.4-4.34-12.68-6.35-2.29-1.08-4.79-1.72-7.18-2.6-4.74-1.74-9.46-3.55-14.21-5.25-1.68-.6-3.45-.93-5.16-1.46-7.16-2.25-14.28-4.66-21.48-6.77-5.66-1.66-11.42-2.98-17.13-4.46-3.82-.99-7.66-1.89-11.42-3.06-1.15-.36-2.06-1.46-3.09-2.22.81-1.03,1.41-2.4,2.46-3.02,2.47-1.47,5.12-2.63,7.75-3.82,2.85-1.28,5.7-2.6,8.65-3.61,2.81-.96,5.77-1.49,8.63-2.32,2.07-.6,4.09-1.36,6.12-2.07,4.09-1.43,8.14-2.99,12.27-4.29,3.64-1.15,7.39-1.95,11.05-3.03,5.46-1.61,10.9-3.3,16.34-5.01,5.19-1.63,10.32-3.45,15.54-4.98,5.19-1.51,10.45-2.82,15.71-4.09,2.33-.56,4.73-.83,7.1-1.22-.02-.2-.03-.41-.05-.61-1.67-.38-3.33-.82-5.01-1.14-5.56-1.05-11.11-2.2-16.71-3.06-5.16-.79-10.37-1.24-15.56-1.88-5.1-.62-10.21-1.15-15.28-1.98-8.27-1.35-16.5-2.98-24.77-4.33-5.29-.86-10.62-1.42-15.93-2.16-1.11-.15-2.2-.47-3.27-.8-2.14-.67-2.66-1.63-1.91-4.76.66-2.79,1.59-5.55,2.65-8.22,2.41-6.12,5.01-12.17,7.42-18.29.66-1.67,1.91-2.3,3.4-2.5,7.6-1.03,15.21-.63,22.82.01,2.56.22,5.14.23,7.7.39,2.83.18,5.64.5,8.47.64,3.79.18,7.59.14,11.38.36,4.67.27,9.33.74,14,1.07,3.62.26,7.25.51,10.88.63,3.38.11,6.78-.08,10.16.05,4.81.19,9.6.56,14.41.83,4.87.27,9.75.46,14.62.76,5,.3,9.99.75,15,1.02,3.49.18,6.99.11,10.48.24,5.21.19,10.42.5,15.63.66,6.62.21,13.25.25,19.87.51,9.45.38,18.89.88,28.33,1.37,6.02.31,12.06.58,18.06,1.13,2.68.24,5.3,1.11,7.93,2.11-.47.14-.95.4-1.42.39-3.27-.09-6.54-.26-9.81-.36-2.73-.08-5.46-.08-8.19-.17-3.12-.11-6.23-.33-9.34-.44-3.73-.13-7.46-.15-11.18-.32-1.9-.09-3.78-.54-5.68-.61-3.17-.11-6.34.04-9.51-.06-4.38-.14-8.75-.49-13.13-.59-3.73-.09-7.48.16-11.21.03-3.37-.12-6.73-.64-10.1-.85-1.63-.1-3.29.27-4.92.18-6.82-.4-13.62-.97-20.44-1.33-6.72-.35-13.44-.46-20.16-.79-2.48-.12-4.95-.61-7.43-.81-2.02-.16-4.05-.1-6.08-.2-6.25-.3-12.5-.62-18.74-.95-4.26-.22-8.52-.44-12.78-.71-4.8-.3-9.6-.65-14.4-.95-5.31-.34-10.61-.73-15.93-.96-5.57-.23-11.15-.29-16.73-.44-.97-.03-1.93-.16-2.94-.25-3.65,9.73-7.37,19.65-11.08,29.55h21.29c.41-.32.94-.73,1.47-1.13l-.06-.02c-.39,1.09.26,1.49,1.15,1.57,2.53.23,5.06.4,7.46.58,1.5-4.22,2.9-8.18,4.31-12.15.23.06.45.13.68.19-1.15,4-2.29,7.99-3.47,12.09,2.01.22,4.28.47,6.7.74.58-2.77,1.11-5.52,1.75-8.24.65-2.76,1.43-5.49,2.15-8.23.2.06.41.11.61.17-.58,3.31-1.13,6.62-1.75,9.93-.38,2.04-.88,4.05-1.41,6.5,2.21.25,4.26.51,6.32.71,2.23.22,4.47.47,6.71.58,3.15.15,6.3.13,9.45.29,3.9.2,7.81.41,11.69.78,6.47.62,12.93,1.31,19.38,2.08,2.56.3,5.08.94,7.64,1.29,2.47.35,4.98.43,7.44.81,6.23.96,12.43,2.07,18.66,3.03,2.48.38,4.99.56,7.5.81,3.62.36,7.23.82,10.85,1.02,5.06.28,10.14.29,15.21.53,3.58.17,7.15.55,10.73.79,4.58.31,9.17.52,13.74.86,2.77.21,5.53.66,8.3.88,4.01.31,8.03.52,12.04.74,3.8.21,7.6.38,11.4.58,3.32.18,6.63.45,9.94.56,3.46.11,4.89-1.01,5.74-3.94,1.43-4.93,2.98-9.83,4.42-14.76,1.25-4.26,2.34-8.57,3.64-12.82.63-2.07,1.55-4.05,2.39-6.05.13-.3.55-.72.77-.68.39.07,1.03.45,1.03.69-.03,2.34,2.35,2.25,3.49,3.35,2.01,1.95,4.54,3.38,6.88,5,1.15.8,2.45,1.42,3.51,2.32,3.07,2.61,6.74,4.36,9.82,6.93,4.48,3.74,8.81,7.65,13.3,11.37,5.51,4.58,11.15,9,16.67,13.57,2.06,1.7,3.85,3.73,5.88,5.46,3.2,2.73,6.54,5.29,9.75,8,2.23,1.88,4.37,3.88,6.52,5.87.28.26.33.75.49,1.13-.45.08-1.01.38-1.33.21-1.95-1-3.97-1.94-5.73-3.23-2.73-2-5.31-4.23-7.88-6.44-2.34-2.01-4.55-4.18-6.9-6.18-4.02-3.43-8.11-6.79-12.16-10.19-4.5-3.76-8.95-7.58-13.51-11.27-3.59-2.9-7.3-5.65-10.95-8.47-4.52-3.5-9.05-6.99-13.55-10.52-1.18-.93-2.42-1.85-3.37-2.99-1.12-1.35-1.72-.99-2.14.37-.65,2.08-1.27,4.18-1.74,6.31-.78,3.48-1.25,7.04-2.21,10.46-1.4,5-3.1,9.92-4.73,14.86-.3.92-.85,1.76-1.3,2.67,2.47.95,4.88,1.76,7.19,2.79,2.38,1.06,4.68,2.31,6.99,3.52,3.07,1.61,6.21,3.13,9.15,4.95,2.78,1.72,5.3,3.88,8.03,5.69,3.16,2.09,6.45,4,9.67,6.01,5.18,3.25,10.65,5.99,15.52,9.78,2.66,2.07,5.89,3.39,8.8,5.15,2.75,1.66,5.37,3.54,8.13,5.19,1.73,1.03,3.6,1.82,5.2,2.61,3.37-7.19,6.7-14.28,10.04-21.38.19-.06.38-.13.56-.19.22.6.77,1.31.62,1.79-1.03,3.16-2.16,6.29-3.36,9.39-1.45,3.74-2.89,7.49-4.55,11.14-.99,2.19-1.68,4.34-1.67,6.77,0,1.98-.61,3.54-2.65,4.64-1.69.9-2.85,2.72-4.43,3.88-4.56,3.35-9.14,6.67-13.83,9.81-5.35,3.58-10.8,7.01-16.25,10.42-7.38,4.62-14.84,9.12-22.21,13.76-1.94,1.22-3.64,2.8-5.48,4.19-3.88,2.93-7.81,5.8-11.65,8.79-4.62,3.6-9.15,7.33-13.76,10.94-4.51,3.53-9.02,7.08-13.65,10.45-4.61,3.36-9.36,6.51-14.05,9.76-.27.18-.53.41-.71.67-1.74,2.44-4.41,3.35-7.06,4.26-.51.18-1.22.13-1.73-.07-4.85-1.94-9.65-4.03-14.53-5.88-4.3-1.63-8.8-2.75-13-4.59-3.47-1.52-7.11-2.41-10.65-3.63-5.28-1.82-10.71-3.19-16.05-4.82-2.42-.74-4.8-1.62-7.18-2.5-5.16-1.91-10.31-3.86-15.46-5.8-4.7-1.77-9.38-3.58-14.09-5.31-2.23-.82-4.56-1.37-6.77-2.23-4.03-1.55-8-3.23-12-4.85-3.58-1.45-7.09-3.1-10.74-4.32-7.16-2.39-14.11-5.25-21.08-8.14-8.33-3.45-16.54-7.3-25.39-9.44-4.02-.97-7.92-2.49-11.82-3.92-1.37-.5-2.53-1.55-3.86-2.2-3.19-1.57-6.41-3.05-9.63-4.56-2.03-.95-4.07-1.88-6.09-2.83-.71-.34-1.41-1.02-2.1-1.02-2.23.01-2.6-1.67-2.74-3.13-.44-4.68-.59-9.39-.96-14.08-.26-3.34-.71-6.67-1.02-10.01-.16-1.73-.36-3.5,1.5-5.12.67,2.59,1.52,4.88,1.81,7.23.45,3.75.46,7.55.78,11.31.26,3.06.55,6.12,1.12,9.13.18.93,1.15,2.01,2.05,2.47,4.5,2.29,9.1,4.4,13.66,6.59.48.23.95.48,1.37.79,4.02,2.99,8.78,4.16,13.47,5.47,1.87.52,2.31-.09,2.37-2.08.05-1.54.56-3.05.73-4.59.22-2.01.33-4.03.45-6.05.05-.87,0-1.75.26-2.62,1.1,5.35,1.55,10.7.21,16.24,4.33,1.62,9.1,3.18,13.67,5.17,6.98,3.03,14.38,4.99,21.07,8.81,3.5,2,7.64,2.87,11.45,4.36,4.95,1.94,9.84,4.04,14.79,5.96,2.76,1.07,5.64,1.86,8.42,2.89,6.15,2.27,12.24,4.71,18.41,6.91,6.91,2.46,13.89,4.76,20.85,7.07,4.21,1.4,8.45,2.68,12.69,4.01,4.27,1.34,8.6,2.48,12.79,4.04,7.72,2.88,15.37,5.94,23,9.05,3.37,1.37,6.62,3.05,10.37,4.79,0-6.02.36-11.64-.1-17.18-.44-5.32.05-10.57.15-15.85.03-1.54.08-3.08.04-4.62,0-.24-.47-.46-.73-.69Zm70.77-72.75c.1.01.2.02.29.03v10.27c1.44.34,3.01.71,4.46,1.05.89-6.14,1.75-12.02,2.6-17.9.26.03.52.06.77.09-.14,2.02-.24,4.04-.43,6.05-.34,3.72-.61,7.46-1.16,11.15-.18,1.19.3,1.4,1.06,1.64,1.51.47,3.08.81,4.56,1.37,1.23.46,2.09.44,2.34-.94.44.64.77,1.69,1.31,1.81,4.52,1.02,9.18,3.27,13.35-.91.13-.13.35-.19.52-.28,2.93-1.6,5.86-3.2,8.94-4.88-.51-.33-.93-.61-1.36-.89-2.53-1.61-5.06-3.22-7.59-4.84-3.64-2.33-7.23-4.73-10.92-6.97-2.34-1.43-4.83-2.61-7.23-3.94-4.34-2.42-8.01-5.96-13.4-6.55-5.71-.63-10.81-4.01-16.71-4.28-2.59-.12-5.17-.68-7.73-1.18-3.85-.76-7.81-1.24-11.47-2.57-4.24-1.54-8.53-2.82-12.89-3.92-1.47-.37-3.03-.57-4.35-1.25-5.42-2.76-11.2-4.57-17.13-5.4-7.71-1.09-15.52-1.52-23.3-2.1-2.82-.21-5.68-.03-8.53-.03v7.41c-.2.01-.4.02-.61.04-.13-1.98-.17-3.98-.44-5.94-.09-.66-.72-1.75-1.17-1.78-2.32-.18-4.67-.08-6.84-.08.25,5.92.5,11.55.74,17.17,1.19.2,2.28.21,3.24.58,2.55.97,5.35.91,7.83,2.37,1.34.79,3.26.53,4.89.87,3.79.8,7.6,1.59,11.35,2.56,5.44,1.39,10.85,2.91,16.26,4.41,6.09,1.69,12.17,3.45,18.27,5.12,4.18,1.14,8.4,2.09,12.57,3.27,5.02,1.41,9.96,3.09,14.99,4.41,4.82,1.26,9.71,2.24,14.59,3.29,2.42.52,4.86.91,7.27,1.36.37-3.39.71-6.53,1.05-9.66Zm-67.56,108.79c.99-.94,1.68-1.62,2.4-2.28,1.28-1.18,2.47-2.49,3.88-3.48,3.56-2.49,7.25-4.78,10.84-7.23,3.99-2.73,7.96-5.5,11.87-8.35,3.46-2.52,7.05-4.92,10.18-7.81,3.07-2.84,5.95-5.89,9.33-8.37,1.38-1.01,2.97-1.75,4.46-2.6,1.87-1.07,3.84-1.99,5.59-3.24,4.68-3.34,9.15-7,13.93-10.18,6.58-4.38,13.4-8.4,20.07-12.67,4.87-3.12,9.69-6.31,14.45-9.59,4.06-2.81,8.02-5.77,11.98-8.72.52-.38,1.04-1.11,1.08-1.71.13-2.05.05-4.12.05-6.06-4.17-2.15-8.58-4.42-12.81-6.6-4.44,3.03-8.9,6.29-13.58,9.2-4.11,2.56-8.49,4.69-12.71,7.08-3.58,2.03-7.11,4.15-10.64,6.27-2.41,1.45-4.79,2.94-7.15,4.46-2.24,1.45-4.31,3.2-6.67,4.4-4.83,2.45-9.88,4.48-14.69,6.96-3.72,1.92-7.17,4.33-10.82,6.39-2.96,1.67-6.02,3.19-9.07,4.69-2.59,1.27-5.24,2.42-7.67,3.54,1.86,5,.97,10.04,1.23,14.95.26,4.95.06,9.92.06,14.88-.16,0-.31.01-.47.01-.55-9.79-1.11-19.59-1.66-29.33-4.95,2.89-10.09,5.6-14,10.24.13,1.54.47,3.32.4,5.08-.17,4.6-.68,9.18-.75,13.78-.05,3.44.36,6.89.57,10.33.11,1.87.21,3.73.33,5.97Zm-55.37-145.53c-1.38-.15-3.01-.44-4.64-.49-3.68-.12-7.24-1.65-11.05.66-3.57,2.16-7.71,3.58-11.77,4.71-5.07,1.41-10.28,2.48-15.49,3.13-4.83.61-9.51,1.64-14.13,3.06-5.57,1.71-11.07,3.61-16.65,5.29-3.89,1.18-7.87,2.1-11.79,3.18-5.12,1.41-10.23,2.86-15.33,4.32-2.88.83-5.76,1.65-8.61,2.59-3.92,1.29-7.79,2.72-11.69,4.03-3.53,1.19-7.12,2.22-10.64,3.45-3.27,1.15-6.49,2.42-9.7,3.73-2.4.98-4.74,2.1-7.55,3.36,2.9.67,5.35,1.19,7.77,1.83,1.5.39,2.97,1.39,4.43,1.35,3.85-.09,7.36,1.24,10.96,2.15,3.04.76,5.97,1.92,8.96,2.87,4.4,1.41,8.78,2.86,13.22,4.13.91.26,2.14.04,3.01-.39,1.95-.95,3.66-2.43,5.66-3.22,5.16-2.03,10.43-3.78,15.64-5.69,6.4-2.34,12.73-4.85,19.17-7.07,4.65-1.61,9.47-2.74,14.14-4.3,3.92-1.31,7.7-3.04,11.61-4.39,5.44-1.88,11.03-3.37,16.41-5.4,5.52-2.08,10.93-4.5,16.26-7.04,1.04-.5,1.69-2.16,2.15-3.42.27-.74-.33-1.74-.34-2.63-.05-3.21-.02-6.43-.02-9.81Zm-18.47-2.03c0-.24-.01-.48-.02-.72-2.07-.34-4.13-.71-6.2-1.01-3.11-.46-6.22-.87-9.33-1.31-3.9-.56-7.78-1.2-11.68-1.69-3.84-.48-7.69-.85-11.54-1.21-4.97-.46-9.94-1.21-14.91-1.2-7.12.02-14.22.05-21.3-.68-7.8-.81-15.6-1.66-23.41-2.48-.71-.07-1.44,0-2.17,0,.2.41.41.59.64.63,5.54.93,11.12,1.71,16.63,2.8,5.57,1.1,11.07,2.5,16.76,3.01,6.97.62,13.96,1.31,20.87,2.42,8.7,1.41,17.31,3.31,25.97,4.93,2.15.4,4.25,1.36,6.56.28,1.49-.69,3.2-.87,4.8-1.33,2.78-.79,5.55-1.62,8.33-2.43Zm138.26,21.63c.07-.25.13-.5.2-.74-3.1-1.76-6.16-3.58-9.3-5.25-3.82-2.04-7.67-4.03-11.59-5.87-1.79-.84-3.73-1.66-5.66-1.86-5-.53-10.04-.74-15.07-1.01-5.21-.28-10.43-.48-15.64-.72-.03.22-.06.45-.09.67,2.64.79,5.28,1.61,7.93,2.35,3.43.95,6.9,1.76,10.32,2.77,2.89.85,5.67,2.12,8.59,2.79,5.42,1.23,10.92,2.12,16.37,3.22,1.89.38,3.75.95,5.61,1.46,1.03.28,2.02.66,3.05.92,1.75.46,3.52.86,5.28,1.29Zm-110.23-1.62c.13-.86.29-1.33.25-1.78-.3-3.98-.59-7.96-1-11.93-.12-1.16-.33-3.01-.99-3.26-1.54-.59-3.37-.41-5.24-.55.29,3.79.6,7.09.74,10.4.03.8-.35,1.81-.9,2.4-.95,1.03-.92,1.84.27,2.32,2.22.9,4.52,1.59,6.88,2.4Z"/>
    <path class="cls-1" d="m197.69,242.13c-2.49-1.22-2.55-1.79-1.8-4.49,1.46-5.23,2.69-10.52,3.93-15.45.62,1.04.53,2.96-.67,7.53.54-.21.97-.38,1.54-.6-.17.48-.22.91-.45,1.19-.76.91-1.37,1.65-.55,3,.36.59-.2,1.77-.43,2.66-.52,2.05-1.09,4.09-1.64,6.14,0,0,.07.02.07.02Z"/>
    <path class="cls-1" d="m429.21,238.72c-1.11,9.56-2.47,19.06-6.82,27.82-.2-.05-.39-.1-.59-.14,2.47-9.22,4.94-18.45,7.41-27.67Z"/>
    <path class="cls-1" d="m288.34,358.42c-.34,5.74-.69,11.48-1.03,17.21l-1.02-.07c-1.08-5.85.95-11.49,1.42-17.23l.63.09Z"/>
    <path class="cls-1" d="m283.23,361.82c0,1.24.08,2.49-.02,3.72-.17,2.08-.41,4.15-.75,6.21-.08.48-.65.87-.99,1.3-.19-.51-.59-1.04-.53-1.52.2-1.62.6-3.21.84-4.83.24-1.6.38-3.21.57-4.82.29-.02.59-.04.88-.06Z"/>
    <path class="cls-1" d="m293.8,364.17c-.36,1.79-.71,3.58-1.08,5.37-.39,1.86-.81,3.71-1.21,5.56-.27-.06-.53-.12-.8-.18.78-3.64,1.55-7.27,2.33-10.91.26.05.51.1.77.15Z"/>
    <path class="cls-1" d="m204.21,240.7c-1-2.55-.06-4.91.82-7.27.64,2.52.02,4.9-.82,7.27Z"/>
    <path class="cls-1" d="m189.12,323.43v8.08c-1.1-.62-1.29-4.6,0-8.08Z"/>
    <path class="cls-1" d="m218.98,228.83c-.2-.06-.41-.11-.61-.17.53-2.68,1.06-5.36,1.6-8.04.2.04.4.07.59.11-.53,2.7-1.05,5.4-1.58,8.1Z"/>
    <path class="cls-1" d="m230.99,347.07c-.14,1.49-.28,2.98-.42,4.47l-.32-.05v-4.47c.25.02.49.03.74.05Z"/>
    <path class="cls-1" d="m446.99,293.44c.81,1.68.04,11.95-2.06,13.86.72-4.87,1.37-9.2,2.06-13.86Z"/>
    <path class="cls-1" d="m377.68,364.87c1.3,3.78,1.1,7.68,1.11,11.77-1.18-.82-2-9.39-1.11-11.77Z"/>
  </g>
</svg>