<?xml version="1.0" encoding="utf-8"?>
<!-- Generator: Adobe Illustrator 28.0.0, SVG Export Plug-In . SVG Version: 6.00 Build 0)  -->
<svg version="1.1" id="Layer_1" xmlns="http://www.w3.org/2000/svg" xmlns:xlink="http://www.w3.org/1999/xlink" x="0px" y="0px"
	 viewBox="0 0 918.7 1485.2" style="enable-background:new 0 0 918.7 1485.2;" xml:space="preserve">
<style type="text/css">
	.st0{fill:none;stroke:#D34327;stroke-width:5;}
	.st1{fill:#D34327;}
</style>
<path class="st0" d="M220.1,92.5c-9,8-22-5.2-34.7-1.9c-11.3,2.9-32.6-0.6-44.4,1.4c-26,4.5-44.5,9.6-40.9,37.5
	c3.3,24.9,14.7,46.6,36.7,58.6c57,31,78.2,21.9,142,23.5c102,2.7,201.8-20.3,303.8-17.3c45,1,91,4,132,27c2,2,4,3,7,5
	c6,5,11,9,16,15c1,2,3,5,5,7c15,26,16,57,1,83c-2,2-3,4-5,7c-28,36-71,48-113,59c-58,16-114,25-172,40c-18,5-35,8-52,16
	c-3,1-6,1-9,2c-16,7-32,11-47,20c-5,4-11,6-16,9c-9,6-17,11-25,18c-12,11-22,21-31,35c-26,43-30,96-5,140c2,2,3,4,5,7
	c22,30,56,40,90,49c2,0,3,0,5,0c71,15,157.4,26.9,225.3,38.9c56.2,9.9,111.9,18.4,158.9,57.4c19,17,28,43,18,67c-1,2-2,5-3,7
	c-24,37-62,55-103,67c-120,35-250.2,13.7-360.2,77.7c-4,2-7,6-11,8c-10,7-19,15-27,24c-32,40-51,85-57,135c-3,22-12,50.9-5.6,89.7
	c13.3,81.5,43.7,110.6,108.8,160.3c11,8.4,22,14,33,21c10,5,20,12,31.4,15.4"/>
<path class="st1" d="M750.6,287.4c-3.7,0.2-6.4-1-8.7-3.5c-7-7.5-5.7-16,0.4-22.4c6.6-6.9,17.7-3.1,20.4,5.7c0.5,1.5,1.2,3,1.7,4.5
	c1.2,4.1-0.8,9.4-4.5,11.4C756.7,284.8,754.2,287.7,750.6,287.4z M753.4,269.3c-1.6-1.6-2.9-1.8-3.9-0.7c-1.2,1.3-1.6,5.6-0.7,7.4
	c0.3-1.2,0.5-2.4,0.7-3.6c0.7-0.1,1.2-0.1,1.9-0.2c-0.2-0.8-0.4-1.4-0.5-2C751.8,270,752.6,269.6,753.4,269.3L753.4,269.3z
	 M743.6,268c3-2.1,5.9-4.1,8.9-6.2C748.1,261.4,743.4,264.6,743.6,268z M754.4,265.3c1.6,1.5,3.2,3.1,4.6,4.5
	C759.6,266.9,757.9,265.2,754.4,265.3z"/>
<path class="st1" d="M252.7,626.9c-3.7,0.2-6.4-1-8.7-3.5c-7.1-7.5-5.7-16,0.4-22.4c6.6-7,17.7-3.1,20.4,5.7c0.5,1.5,1.2,3,1.6,4.5
	c1.2,4.1-0.8,9.4-4.5,11.4C258.8,624.3,256.3,627.2,252.7,626.9z M255.5,608.9c-1.6-1.6-2.9-1.8-3.9-0.7c-1.2,1.3-1.6,5.6-0.7,7.4
	c0.3-1.2,0.5-2.4,0.7-3.6c0.7-0.1,1.2-0.1,1.9-0.2c-0.2-0.8-0.4-1.4-0.5-2C253.9,609.5,254.7,609.2,255.5,608.9L255.5,608.9z
	 M245.7,607.5c3-2.1,5.9-4.1,8.9-6.2C250.2,601,245.6,604.2,245.7,607.5z M256.5,604.8c1.6,1.5,3.1,3.1,4.6,4.5
	C261.7,606.4,260.1,604.8,256.5,604.8z"/>
<path class="st1" d="M771.6,887.3c-3.7,0.2-6.4-1-8.7-3.5c-7-7.5-5.7-16,0.4-22.4c6.6-7,17.7-3.1,20.4,5.7c0.5,1.5,1.2,3,1.6,4.5
	c1.2,4.1-0.8,9.4-4.5,11.4C777.8,884.7,775.3,887.6,771.6,887.3z M774.5,869.2c-1.6-1.6-2.9-1.8-3.9-0.7c-1.2,1.3-1.6,5.6-0.7,7.4
	c0.3-1.2,0.5-2.4,0.7-3.6c0.7-0.1,1.2-0.1,1.9-0.2c-0.2-0.8-0.4-1.3-0.5-2C772.8,869.9,773.6,869.6,774.5,869.2L774.5,869.2z
	 M764.6,867.9c3-2.1,5.9-4.1,8.9-6.2C769.2,861.3,764.5,864.6,764.6,867.9z M775.5,865.2c1.6,1.5,3.1,3.1,4.6,4.5
	C780.7,866.8,779,865.1,775.5,865.2z"/>
<path class="st1" d="M210.2,1223.1c-3.7,0.2-6.4-1-8.7-3.5c-7.1-7.5-5.7-16,0.4-22.4c6.6-7,17.7-3.1,20.4,5.7c0.5,1.5,1.2,3,1.7,4.5
	c1.2,4.1-0.8,9.4-4.5,11.4C216.4,1220.5,213.9,1223.4,210.2,1223.1z M213.1,1205c-1.6-1.6-2.9-1.8-3.9-0.7c-1.2,1.3-1.6,5.6-0.7,7.4
	c0.3-1.2,0.5-2.4,0.7-3.6c0.7-0.1,1.2-0.1,1.9-0.2c-0.2-0.8-0.4-1.3-0.5-2C211.4,1205.7,212.2,1205.4,213.1,1205L213.1,1205z
	 M203.2,1203.7c3-2.1,5.9-4.1,8.9-6.2C207.8,1197.1,203.1,1200.4,203.2,1203.7z M214.1,1201c1.6,1.5,3.1,3.1,4.6,4.5
	C219.3,1202.6,217.6,1200.9,214.1,1201z"/>
</svg>
