<?xml version="1.0" encoding="UTF-8"?>
<svg id="Layer_1" data-name="Layer 1" xmlns="http://www.w3.org/2000/svg" viewBox="0 0 203.93 167.24">
  <defs>
    <style>
      .cls-1 {
        fill: #2b5e2e;
        stroke-width: 0px;
      }
    </style>
  </defs>
  <path class="cls-1" d="m74.52,72.61c-1.56.08-3.06.37-4.44,1.17-.71.42-1.5.73-2.28.99-1.2.4-1.86-.37-2.03-1.26-.38-2-.59-4.03-.91-6.03-.06-.36-.24-.73-.45-1.03-.42-.59-.83-1.22-1.37-1.7-.97-.88-2.15-1.44-3.38-1.86-1.67-.56-2.8-1.69-3.47-3.31-.44-1.07-.75-2.21-1.36-3.18-.9-1.44-1.72-3.04-3.37-3.81-1.65-.77-2.94-2.02-4.33-3.14-1.09-.88-2.27-1.65-3.32-2.58-.88-.77-1.75-1.65-2.01-2.84-.23-1.04-.24-2.13-.25-3.2,0-1.11.14-2.22.14-3.32,0-2-1.04-3.55-2.27-5.01-.32-.37-.59-.78-.86-1.2-.56-.87-.84-1.82-.27-2.77.42-.69.89-1.39,1.48-1.93,1.51-1.37,3.25-2.41,5.19-3.06.62-.21,1.31-.23,1.96-.39,1.64-.41,3.16-1.05,4.39-2.28.59-.59,1.35-1.01,1.94-1.59.76-.76,1.37-1.67,2.14-2.4.75-.72,1.6-1.36,2.47-1.93,1.23-.82,2.51-1.59,4.04-1.71.62-.05,1.27.05,1.86-.1,1.05-.25,2.08-.58,3.09-.97,1.58-.61,3.15-1.25,4.68-1.95,1.02-.47,1.98-1.06,2.96-1.62.9-.51,1.79-1.03,2.67-1.58,1.06-.66,2.09-1.37,3.14-2.04,1.28-.82,2.53-1.69,3.87-2.4,1.1-.59,2.26-1.1,3.46-1.43,1.02-.28,2.13-.3,3.21-.33,1.65-.05,3.3,0,4.95-.03,2.03-.04,4.05-.1,6.07-.22.88-.05,1.75-.32,2.64-.42.75-.09,1.56-.25,2.26-.06.73.19,1.38.74,2.04,1.15.17.11.27.34.45.44,1.03.61,1.16,1.61,1.21,2.67.04.88.16,1.75.18,2.63.03,1.66.48,3.23,1.04,4.78.11.3.13.65.29.92.45.76.97,1.49,1.43,2.24.29.47.59.95.77,1.46.62,1.75,1.14,3.55,1.82,5.27.34.86.94,1.61,1.44,2.4.38.59.73,1.2,1.17,1.74.77.93,1.63,1.68,2.92,1.97,1.62.37,3.07,1.13,3.9,2.75.76,1.48,2,2.51,3.38,3.43,1.06.7,2.34,1.14,3.04,2.37.48.85.98,1.63.96,2.67-.02,1.06.16,2.11.22,3.17.07,1.24-.33,2.34-.96,3.39-.45.74-.83,1.51-1.28,2.25-.53.88-1.46,1.14-2.36,1.47-.84.32-1.65.69-2.47,1.06-.29.13-.54.34-.83.46-1.41.59-2.11,1.91-3.1,2.94-1.27,1.33-2.71,2.45-4.56,2.78-1.58.28-3.21.32-4.81.48-1.39.14-2.78.33-4.18.44-.82.07-1.67.13-2.48.02-1.14-.16-2.12.31-3.14.62-1.24.38-2.33,1.11-3.44,1.75-1.37.79-2.66,1.73-3.99,2.59-1.12.73-2.25,1.46-3.39,2.15-2.08,1.25-4.2,2.43-6.25,3.72-1.32.83-2.49,1.89-3.82,2.72-1.28.79-2.74,1.14-4.25,1.28-1.07.1-2.14.22-3.21.32h0Zm-9.78-59.15c-.27.51-.87.39-1.36.48-.81.16-1.65.18-2.44.41-.51.15-.95.55-1.41.85-.58.38-1.17.76-1.74,1.17-.51.37-1.04.74-1.49,1.18-.86.84-1.64,1.76-2.5,2.59-.7.68-1.48,1.28-2.24,1.9-1.25,1.03-2.57,1.89-4.21,2.2-1.14.22-2.26.58-3.36.97-.54.19-1,.64-1.53.87-1.03.45-1.88,1.1-2.6,1.96-.85,1.02-.92,2.03-.13,3.07.7.94,1.48,1.83,2.11,2.82.44.69.89,1.5.95,2.29.16,1.94.02,3.89.14,5.84.08,1.29.45,2.53,1.58,3.38,1.24.93,2.47,1.87,3.69,2.83,1.09.86,2.15,1.77,3.25,2.62.6.46,1.33.78,1.86,1.31.72.71,1.35,1.52,1.97,2.33,1.03,1.35,1.7,2.89,2.23,4.5.13.38.31.75.53,1.09.75,1.21,2.1,1.56,3.28,2,1.49.55,2.62,1.4,3.61,2.61.83,1.01,1.38,2.05,1.32,3.37-.08,1.68.26,3.3.73,4.91.16.55.44.62.9.42.64-.29,1.27-.62,1.93-.86,1.06-.38,2.12-.83,3.22-1.01,1.46-.24,2.98-.14,4.44-.37,1.23-.19,2.45-.56,3.63-.98,1.53-.55,2.63-1.81,3.98-2.67,1.66-1.06,3.31-2.14,5.01-3.16,1.56-.94,3.19-1.75,4.73-2.71,1.62-1.01,3.16-2.14,4.77-3.17.77-.49,1.6-.92,2.44-1.27,1.37-.57,2.76-1.06,4.3-.96.87.06,1.75-.07,2.62-.15,2.63-.25,5.25-.56,7.88-.77,1.08-.09,2.02-.48,2.81-1.1,1.1-.86,2.12-1.85,3.08-2.87,1.44-1.54,3.29-2.32,5.23-2.85,1.2-.32,2.11-.8,2.61-1.96.22-.52.55-.99.72-1.52.26-.85.55-1.72.59-2.59.05-1.19-.02-2.41-.24-3.58-.15-.84-.44-1.8-1-2.39-.77-.81-1.88-1.28-2.8-1.96-.64-.46-1.22-1.01-1.79-1.56-.31-.3-.54-.68-.81-1.03-.42-.54-.8-1.11-1.28-1.6-.85-.88-2-1.21-3.11-1.65-.76-.3-1.56-.69-2.14-1.25-.83-.8-1.55-1.75-2.2-2.71-1.23-1.81-2.16-3.79-2.74-5.91-.42-1.53-.99-2.99-2-4.25-.98-1.23-1.45-2.72-1.75-4.19-.35-1.66-.32-3.4-.47-5.1-.06-.64.03-1.39-.27-1.89-.43-.71-1.14-1.25-1.77-1.82-.21-.19-.52-.35-.79-.35-.86,0-1.75-.05-2.59.12-2.17.46-4.36.58-6.56.68-1.58.08-3.17.11-4.75.08-2.05-.04-4.08-.07-6.04.61-2.1.73-3.99,1.84-5.78,3.17-1.24.92-2.54,1.78-3.85,2.59-.96.59-1.99,1.06-3,1.57-1.16.59-2.28,1.28-3.49,1.75-1.75.68-3.55,1.21-5.34,1.79-.13.04-.32-.08-.5-.14h-.02Z"/>
  <path class="cls-1" d="m58.59,19.57c-.74,2.16-9.38,7.69-12.97,6.52.06-.63.65-.65,1.01-.67,2.55-.18,4.81-1.17,6.94-2.46,1.76-1.06,3.41-2.29,5.02-3.38h0Z"/>
  <path class="cls-1" d="m57.31,25.31c.38-.33.73-.68,1.13-.98,1.05-.75,2.11-1.48,3.18-2.2.18-.12.44-.11.67-.17-.08.19-.11.44-.25.57-1.19,1.18-2.3,2.45-3.98,2.97-.2.06-.43,0-.65,0-.03-.07-.07-.14-.1-.21h0Z"/>
  <path class="cls-1" d="m113.4,24.79c-.4-.29-.91-.5-1.18-.89-.77-1.14-1.47-2.34-2.15-3.55-.2-.35-.25-.79-.31-1.2-.02-.11.17-.25.26-.38.12.11.29.2.35.33.6,1.3,1.12,2.63,1.79,3.9.32.6.89,1.07,1.35,1.59-.04.07-.08.13-.13.2h0Z"/>
  <path class="cls-1" d="m59.53,22.37c-.7.55-1.37,1.15-2.11,1.64-.69.46-1.46.81-2.2,1.21-.06.03-.11.1-.17.1-.32-.02-.64-.06-.96-.09.22-.2.41-.45.65-.6,1.3-.78,2.61-1.54,3.93-2.3.2-.12.44-.18.66-.28.06.1.13.21.19.31h0Z"/>
  <path class="cls-1" d="m68.57,71.32c-.28-2.25-.54-4.39-.78-6.39.88.85,1.59,5.34.78,6.39Z"/>
  <path class="cls-1" d="m110.2,21.91c.76,1.38,1.64,2.48,2.99,3.14-.8.29-2.03-.41-2.88-1.69-.24-.36-.62-.81-.11-1.44h0Z"/>
  <path class="cls-1" d="m73.79,67.56c-.26-.8-.55-1.58-.78-2.39-.15-.53-.24-1.08-.3-1.62-.02-.18.14-.38.21-.56.12.17.32.32.35.51.22,1.34.42,2.68.61,4.03-.04.01-.07.03-.11.04h0Z"/>
  <path class="cls-1" d="m69.9,67.34c.08.3.18.6.23.91.11.63.21,1.27.28,1.91,0,.11-.16.25-.27.34-.02.02-.24-.11-.25-.18-.09-.98-.16-1.95-.24-2.93l.24-.04h0Z"/>
  <path class="cls-1" d="m74.97,64.19c-.25-.75-.5-1.49-.76-2.25.07-.02.14-.05.21-.07.27.75.53,1.5.79,2.25-.08.02-.16.04-.24.06h0Z"/>
  <path class="cls-1" d="m75.89,66.08l.53,1.56s-.08.03-.13.05c-.21-.51-.41-1.02-.61-1.53l.21-.07h0Z"/>
  <g>
    <path class="cls-1" d="m158.87,122.11c.52-1.62,2.12-1.93,3.32-2.66,2.5-1.53,5.09-2.93,7.66-4.34.76-.42,1.6-.71,2.39-1.09.43-.21.83-.47,1.25-.69,1.4-.74,2.82-1.46,4.21-2.24.62-.35,1.18-.8,1.77-1.19.84-.55,1.68-1.11,2.55-1.61.91-.52,1.88-.95,2.78-1.48,1.07-.62,2.09-1.33,3.14-1.98.48-.3.99-.56,1.54-.87-1.34-.28-2.56-.49-3.76-.79-2.37-.6-4.73-1.29-7.11-1.89-1.59-.4-3.22-.65-4.8-1.1-1.93-.54-3.83-1.23-5.75-1.81-1.06-.32-2.16-.55-3.23-.83-1.39-.36-2.78-.75-4.17-1.1-.94-.23-1.89-.39-2.82-.63-2.7-.7-5.39-1.44-8.09-2.14-2.3-.59-4.63-1.08-6.91-1.75-.99-.3-1.77-.07-2.62.33-.77.37-1.55.69-2.34,1-.22.08-.49.01-.6.01-.5.3-.91.61-1.37.78-1.46.54-2.94,1.05-4.42,1.54-1.4.46-2.81.89-4.22,1.33-1.31.41-2.64.78-3.94,1.23-1.4.48-2.8.99-4.17,1.54-1.42.57-2.79,1.27-4.21,1.82-1.28.49-2.62.84-3.91,1.29-.84.3-1.64.67-2.46,1.01v.23c.51.14,1.02.26,1.52.42,1.19.37,2.38.75,3.56,1.15.88.3,1.76.62,2.63.94.78.29,1.57.56,2.34.9,1.5.65,2.99,1.34,4.48,2,.78.35,1.54.73,2.35,1,.95.32,1.95.5,2.91.8,1.18.36,2.34.79,3.52,1.17,1.18.38,2.37.73,3.56,1.12,1.34.44,2.67.9,4.01,1.34,1.23.4,2.46.76,3.69,1.16.96.31,1.9.65,2.86.96,1.45.47,2.93.89,4.37,1.39,1.73.6,3.43,1.26,5.14,1.93.85.34,1.68.73,2.5,1.13.19.09.32.28.48.43-.19.04-.4.17-.56.11-2.14-.7-4.27-1.44-6.41-2.15-1.18-.39-2.38-.71-3.57-1.09-1.79-.57-3.57-1.15-5.35-1.74-2.41-.8-4.83-1.61-7.24-2.43-1.68-.57-3.35-1.19-5.04-1.73-1.63-.52-3.28-.96-4.92-1.47-1.24-.39-2.49-.75-3.67-1.27-1.43-.63-2.79-1.44-4.21-2.11-.76-.36-1.59-.57-2.38-.86-1.57-.58-3.14-1.18-4.72-1.74-.56-.2-1.15-.31-1.71-.48-2.38-.75-4.74-1.55-7.13-2.25-1.88-.55-3.79-.99-5.69-1.48-1.27-.33-2.54-.63-3.79-1.02-.38-.12-.68-.48-1.03-.74.27-.34.47-.8.82-1,.82-.49,1.7-.87,2.57-1.27.95-.43,1.89-.86,2.87-1.2.93-.32,1.92-.49,2.87-.77.69-.2,1.36-.45,2.03-.69,1.36-.47,2.7-.99,4.08-1.42,1.21-.38,2.45-.65,3.67-1.01,1.81-.53,3.62-1.1,5.43-1.66,1.72-.54,3.43-1.15,5.16-1.65,1.72-.5,3.47-.94,5.22-1.36.77-.19,1.57-.28,2.36-.41,0-.07,0-.14-.02-.2-.55-.13-1.11-.27-1.66-.38-1.85-.35-3.69-.73-5.55-1.02-1.71-.26-3.44-.41-5.17-.62-1.69-.21-3.39-.38-5.08-.66-2.75-.45-5.48-.99-8.23-1.44-1.76-.29-3.53-.47-5.29-.72-.37-.05-.73-.16-1.09-.27-.71-.22-.88-.54-.63-1.58.22-.93.53-1.84.88-2.73.8-2.03,1.66-4.04,2.46-6.07.22-.55.63-.76,1.13-.83,2.52-.34,5.05-.21,7.58,0,.85.07,1.71.08,2.56.13.94.06,1.87.17,2.81.21,1.26.06,2.52.05,3.78.12,1.55.09,3.1.25,4.65.36,1.2.09,2.41.17,3.61.21,1.12.04,2.25-.03,3.37.02,1.6.06,3.19.19,4.79.28,1.62.09,3.24.15,4.86.25,1.66.1,3.32.25,4.98.34,1.16.06,2.32.04,3.48.08,1.73.06,3.46.17,5.19.22,2.2.07,4.4.08,6.6.17,3.14.13,6.27.29,9.41.46,2,.1,4.01.19,6,.38.89.08,1.76.37,2.63.7-.16.05-.32.13-.47.13-1.09-.03-2.17-.09-3.26-.12-.91-.03-1.81-.03-2.72-.06-1.04-.04-2.07-.11-3.1-.15-1.24-.04-2.48-.05-3.71-.11-.63-.03-1.26-.18-1.89-.2-1.05-.04-2.11.01-3.16-.02-1.45-.05-2.91-.16-4.36-.2-1.24-.03-2.48.05-3.72,0-1.12-.04-2.24-.21-3.35-.28-.54-.03-1.09.09-1.63.06-2.27-.13-4.52-.32-6.79-.44-2.23-.12-4.46-.15-6.7-.26-.82-.04-1.64-.2-2.47-.27-.67-.05-1.35-.03-2.02-.07-2.08-.1-4.15-.21-6.22-.32-1.41-.07-2.83-.15-4.24-.24-1.59-.1-3.19-.22-4.78-.32-1.76-.11-3.52-.24-5.29-.32-1.85-.08-3.7-.1-5.56-.15-.32,0-.64-.05-.98-.08-1.21,3.23-2.45,6.53-3.68,9.81h7.07c.14-.11.31-.24.49-.38h-.02c-.13.36.09.49.38.51.84.08,1.68.13,2.48.19.5-1.4.96-2.72,1.43-4.04.08.02.15.04.23.06-.38,1.33-.76,2.65-1.15,4.02.67.07,1.42.16,2.23.25.19-.92.37-1.83.58-2.74.22-.92.47-1.82.71-2.73.07.02.14.04.2.06-.19,1.1-.38,2.2-.58,3.3-.13.68-.29,1.35-.47,2.16.73.08,1.41.17,2.1.24.74.07,1.48.16,2.23.19,1.05.05,2.09.04,3.14.1,1.3.07,2.59.14,3.88.26,2.15.21,4.29.44,6.44.69.85.1,1.69.31,2.54.43.82.12,1.65.14,2.47.27,2.07.32,4.13.69,6.2,1.01.82.13,1.66.19,2.49.27,1.2.12,2.4.27,3.6.34,1.68.09,3.37.1,5.05.18,1.19.06,2.37.18,3.56.26,1.52.1,3.05.17,4.56.29.92.07,1.84.22,2.76.29,1.33.1,2.67.17,4,.25,1.26.07,2.52.13,3.79.19,1.1.06,2.2.15,3.3.19,1.15.04,1.62-.34,1.91-1.31.47-1.64.99-3.26,1.47-4.9.42-1.41.78-2.85,1.21-4.26.21-.69.51-1.35.79-2.01.04-.1.18-.24.26-.23.13.02.34.15.34.23,0,.78.78.75,1.16,1.11.67.65,1.51,1.12,2.29,1.66.38.27.81.47,1.17.77,1.02.87,2.24,1.45,3.26,2.3,1.49,1.24,2.93,2.54,4.42,3.78,1.83,1.52,3.7,2.99,5.54,4.51.68.56,1.28,1.24,1.95,1.81,1.06.91,2.17,1.76,3.24,2.66.74.62,1.45,1.29,2.17,1.95.09.09.11.25.16.38-.15.03-.34.13-.44.07-.65-.33-1.32-.64-1.9-1.07-.91-.66-1.76-1.4-2.62-2.14-.78-.67-1.51-1.39-2.29-2.05-1.34-1.14-2.69-2.26-4.04-3.38-1.49-1.25-2.97-2.52-4.49-3.74-1.19-.96-2.42-1.88-3.64-2.81-1.5-1.16-3.01-2.32-4.5-3.49-.39-.31-.8-.61-1.12-.99-.37-.45-.57-.33-.71.12-.22.69-.42,1.39-.58,2.1-.26,1.16-.42,2.34-.73,3.47-.46,1.66-1.03,3.29-1.57,4.94-.1.31-.28.58-.43.89.82.32,1.62.58,2.39.93.79.35,1.55.77,2.32,1.17,1.02.53,2.06,1.04,3.04,1.64.92.57,1.76,1.29,2.67,1.89,1.05.69,2.14,1.33,3.21,2,1.72,1.08,3.54,1.99,5.15,3.25.88.69,1.96,1.13,2.92,1.71.91.55,1.78,1.18,2.7,1.72.57.34,1.2.6,1.73.87,1.12-2.39,2.23-4.74,3.33-7.1.06-.02.13-.04.19-.06.07.2.26.44.21.59-.34,1.05-.72,2.09-1.12,3.12-.48,1.24-.96,2.49-1.51,3.7-.33.73-.56,1.44-.55,2.25,0,.66-.2,1.18-.88,1.54-.56.3-.95.9-1.47,1.29-1.51,1.11-3.04,2.22-4.59,3.26-1.78,1.19-3.59,2.33-5.4,3.46-2.45,1.53-4.93,3.03-7.38,4.57-.64.41-1.21.93-1.82,1.39-1.29.97-2.59,1.93-3.87,2.92-1.53,1.2-3.04,2.43-4.57,3.63-1.5,1.17-3,2.35-4.53,3.47-1.53,1.12-3.11,2.16-4.67,3.24-.09.06-.18.14-.24.22-.58.81-1.46,1.11-2.34,1.41-.17.06-.41.04-.57-.02-1.61-.64-3.21-1.34-4.83-1.95-1.43-.54-2.92-.91-4.32-1.52-1.15-.5-2.36-.8-3.54-1.21-1.75-.6-3.56-1.06-5.33-1.6-.8-.25-1.59-.54-2.38-.83-1.71-.63-3.42-1.28-5.13-1.93-1.56-.59-3.12-1.19-4.68-1.76-.74-.27-1.51-.46-2.25-.74-1.34-.51-2.66-1.07-3.99-1.61-1.19-.48-2.35-1.03-3.57-1.43-2.38-.79-4.69-1.74-7-2.7-2.77-1.15-5.49-2.42-8.43-3.14-1.34-.32-2.63-.83-3.93-1.3-.46-.17-.84-.51-1.28-.73-1.06-.52-2.13-1.01-3.2-1.51-.67-.32-1.35-.62-2.02-.94-.24-.11-.47-.34-.7-.34-.74,0-.86-.55-.91-1.04-.15-1.55-.2-3.12-.32-4.68-.09-1.11-.24-2.22-.34-3.32-.05-.57-.12-1.16.5-1.7.22.86.5,1.62.6,2.4.15,1.25.15,2.51.26,3.76.09,1.02.18,2.03.37,3.03.06.31.38.67.68.82,1.49.76,3.02,1.46,4.54,2.19.16.08.32.16.46.26,1.34.99,2.92,1.38,4.47,1.82.62.17.77-.03.79-.69.02-.51.19-1.01.24-1.52.07-.67.11-1.34.15-2.01.02-.29,0-.58.09-.87.37,1.78.51,3.55.07,5.39,1.44.54,3.02,1.06,4.54,1.72,2.32,1.01,4.78,1.66,7,2.93,1.16.66,2.54.95,3.8,1.45,1.64.64,3.27,1.34,4.91,1.98.92.36,1.87.62,2.8.96,2.04.75,4.07,1.56,6.11,2.3,2.3.82,4.61,1.58,6.93,2.35,1.4.46,2.81.89,4.21,1.33,1.42.45,2.86.82,4.25,1.34,2.56.96,5.1,1.97,7.64,3.01,1.12.46,2.2,1.01,3.44,1.59,0-2,.12-3.87-.03-5.71-.15-1.77.02-3.51.05-5.26,0-.51.03-1.02.01-1.53,0-.08-.16-.15-.24-.23h-.03Zm23.51-24.16s.07,0,.1,0v3.41c.48.11,1,.24,1.48.35.3-2.04.58-3.99.86-5.95.09,0,.17.02.26.03-.05.67-.08,1.34-.14,2.01-.11,1.24-.2,2.48-.39,3.7-.06.4.1.46.35.54.5.16,1.02.27,1.51.46.41.15.69.15.78-.31.15.21.26.56.44.6,1.5.34,3.05,1.09,4.43-.3.04-.04.12-.06.17-.09.97-.53,1.95-1.06,2.97-1.62-.17-.11-.31-.2-.45-.3-.84-.53-1.68-1.07-2.52-1.61-1.21-.77-2.4-1.57-3.63-2.32-.78-.47-1.6-.87-2.4-1.31-1.44-.8-2.66-1.98-4.45-2.18-1.9-.21-3.59-1.33-5.55-1.42-.86-.04-1.72-.23-2.57-.39-1.28-.25-2.59-.41-3.81-.85-1.41-.51-2.83-.94-4.28-1.3-.49-.12-1.01-.19-1.44-.42-1.8-.92-3.72-1.52-5.69-1.79-2.56-.36-5.15-.5-7.74-.7-.94-.07-1.89,0-2.83,0v2.46c-.07,0-.13,0-.2.01-.04-.66-.06-1.32-.15-1.97-.03-.22-.24-.58-.39-.59-.77-.06-1.55-.03-2.27-.03.08,1.97.17,3.84.25,5.7.4.07.76.07,1.08.19.85.32,1.78.3,2.6.79.45.26,1.08.18,1.62.29,1.26.27,2.52.53,3.77.85,1.81.46,3.6.97,5.4,1.46,2.02.56,4.04,1.15,6.07,1.7,1.39.38,2.79.69,4.17,1.09,1.67.47,3.31,1.03,4.98,1.46,1.6.42,3.23.74,4.85,1.09.8.17,1.61.3,2.41.45.12-1.13.24-2.17.35-3.21h0Zm-22.44,36.13c.33-.31.56-.54.8-.76.43-.39.82-.83,1.29-1.16,1.18-.83,2.41-1.59,3.6-2.4,1.33-.91,2.64-1.83,3.94-2.77,1.15-.84,2.34-1.63,3.38-2.59,1.02-.94,1.98-1.96,3.1-2.78.46-.34.99-.58,1.48-.86.62-.36,1.28-.66,1.86-1.08,1.55-1.11,3.04-2.32,4.63-3.38,2.19-1.45,4.45-2.79,6.67-4.21,1.62-1.04,3.22-2.1,4.8-3.19,1.35-.93,2.66-1.92,3.98-2.9.17-.13.35-.37.36-.57.04-.68.02-1.37.02-2.01-1.39-.71-2.85-1.47-4.25-2.19-1.47,1.01-2.96,2.09-4.51,3.06-1.37.85-2.82,1.56-4.22,2.35-1.19.67-2.36,1.38-3.53,2.08-.8.48-1.59.98-2.37,1.48-.74.48-1.43,1.06-2.22,1.46-1.6.81-3.28,1.49-4.88,2.31-1.24.64-2.38,1.44-3.59,2.12-.98.55-2,1.06-3.01,1.56-.86.42-1.74.8-2.55,1.18.62,1.66.32,3.33.41,4.97.09,1.64.02,3.29.02,4.94-.05,0-.1,0-.16,0-.18-3.25-.37-6.51-.55-9.74-1.64.96-3.35,1.86-4.65,3.4.04.51.16,1.1.13,1.69-.06,1.53-.23,3.05-.25,4.58-.02,1.14.12,2.29.19,3.43.04.62.07,1.24.11,1.98h0Zm-18.39-48.34c-.46-.05-1-.15-1.54-.16-1.22-.04-2.4-.55-3.67.22-1.19.72-2.56,1.19-3.91,1.56-1.68.47-3.41.82-5.14,1.04-1.6.2-3.16.54-4.69,1.02-1.85.57-3.68,1.2-5.53,1.76-1.29.39-2.61.7-3.92,1.06-1.7.47-3.4.95-5.09,1.43-.96.28-1.91.55-2.86.86-1.3.43-2.59.9-3.88,1.34-1.17.4-2.36.74-3.53,1.15-1.09.38-2.16.8-3.22,1.24-.8.33-1.57.7-2.51,1.12.96.22,1.78.4,2.58.61.5.13.99.46,1.47.45,1.28-.03,2.44.41,3.64.71,1.01.25,1.98.64,2.98.95,1.46.47,2.92.95,4.39,1.37.3.09.71.01,1-.13.65-.32,1.22-.81,1.88-1.07,1.71-.67,3.46-1.26,5.19-1.89,2.13-.78,4.23-1.61,6.37-2.35,1.54-.53,3.15-.91,4.7-1.43,1.3-.44,2.56-1.01,3.86-1.46,1.81-.62,3.66-1.12,5.45-1.79,1.83-.69,3.63-1.49,5.4-2.34.35-.17.56-.72.71-1.14.09-.25-.11-.58-.11-.87-.02-1.07,0-2.14,0-3.26h0Zm-6.13-.67c0-.08,0-.16,0-.24-.69-.11-1.37-.24-2.06-.34-1.03-.15-2.07-.29-3.1-.44-1.3-.19-2.58-.4-3.88-.56-1.28-.16-2.55-.28-3.83-.4-1.65-.15-3.3-.4-4.95-.4-2.36,0-4.72.02-7.07-.23-2.59-.27-5.18-.55-7.78-.82-.24-.02-.48,0-.72,0,.07.14.14.2.21.21,1.84.31,3.69.57,5.52.93,1.85.37,3.68.83,5.57,1,2.32.21,4.64.44,6.93.8,2.89.47,5.75,1.1,8.63,1.64.71.13,1.41.45,2.18.09.49-.23,1.06-.29,1.59-.44.92-.26,1.84-.54,2.77-.81h0Zm45.92,7.18c.02-.08.04-.17.07-.25-1.03-.58-2.05-1.19-3.09-1.74-1.27-.68-2.55-1.34-3.85-1.95-.59-.28-1.24-.55-1.88-.62-1.66-.18-3.33-.25-5.01-.34-1.73-.09-3.46-.16-5.19-.24,0,.07-.02.15-.03.22.88.26,1.75.53,2.63.78,1.14.32,2.29.58,3.43.92.96.28,1.88.7,2.85.93,1.8.41,3.63.7,5.44,1.07.63.13,1.25.32,1.86.48.34.09.67.22,1.01.31.58.15,1.17.29,1.75.43h0Zm-36.61-.54c.04-.29.1-.44.08-.59-.1-1.32-.2-2.64-.33-3.96-.04-.39-.11-1-.33-1.08-.51-.2-1.12-.14-1.74-.18.1,1.26.2,2.35.25,3.45,0,.27-.12.6-.3.8-.32.34-.31.61.09.77.74.3,1.5.53,2.29.8h0Z"/>
    <path class="cls-1" d="m103.65,80.43c-.83-.41-.85-.59-.6-1.49.48-1.74.89-3.49,1.31-5.13.21.35.18.98-.22,2.5.18-.07.32-.13.51-.2-.06.16-.07.3-.15.4-.25.3-.46.55-.18,1,.12.2-.07.59-.14.88-.17.68-.36,1.36-.54,2.04h.02Z"/>
    <path class="cls-1" d="m180.55,79.3c-.37,3.18-.82,6.33-2.27,9.24-.07-.02-.13-.03-.2-.05.82-3.06,1.64-6.13,2.46-9.19h0Z"/>
    <path class="cls-1" d="m133.76,119.05c-.11,1.91-.23,3.81-.34,5.72l-.34-.02c-.36-1.94.32-3.82.47-5.72l.21.03h0Z"/>
    <path class="cls-1" d="m132.06,120.18c0,.41.03.83,0,1.24-.06.69-.14,1.38-.25,2.06-.03.16-.22.29-.33.43-.06-.17-.2-.35-.18-.5.07-.54.2-1.07.28-1.6.08-.53.13-1.07.19-1.6.1,0,.2-.01.29-.02h0Z"/>
    <path class="cls-1" d="m135.58,120.96c-.12.59-.24,1.19-.36,1.78-.13.62-.27,1.23-.4,1.85-.09-.02-.18-.04-.27-.06.26-1.21.51-2.41.77-3.62.09.02.17.03.26.05h0Z"/>
    <path class="cls-1" d="m105.82,79.95c-.33-.85-.02-1.63.27-2.41.21.84,0,1.63-.27,2.41Z"/>
    <path class="cls-1" d="m100.81,107.43v2.68c-.37-.21-.43-1.53,0-2.68Z"/>
    <path class="cls-1" d="m110.72,76.01c-.07-.02-.14-.04-.2-.06.18-.89.35-1.78.53-2.67.07.01.13.02.2.04-.18.9-.35,1.79-.52,2.69h0Z"/>
    <path class="cls-1" d="m114.71,115.28c-.05.49-.09.99-.14,1.48l-.11-.02v-1.48c.08,0,.16,0,.25.02Z"/>
    <path class="cls-1" d="m186.46,97.47c.27.56.01,3.97-.68,4.6.24-1.62.46-3.06.68-4.6Z"/>
    <path class="cls-1" d="m163.44,121.2c.43,1.26.37,2.55.37,3.91-.39-.27-.66-3.12-.37-3.91Z"/>
  </g>
  <path class="cls-1" d="m79.66,121.51c-.05.66-.12,1.32-.13,1.99-.01.69.06,1.37.06,2.06,0,.4-.08.8-.09,1.21-.03.59-.02,1.19-.04,1.78-.05,1.37.04,2.75-.29,4.11-.23.94-.43,1.89-.59,2.84-.24,1.52-.88,2.91-1.32,4.36-.18.61-.31,1.24-.48,1.86-.07.27-.16.54-.3.78-.64,1.09-1.32,2.15-1.94,3.25-.36.64-.59,1.35-.93,2.01-.5.99-1.02,1.98-1.59,2.94-.21.36-.56.64-.86.94-1.01,1-2.03,1.99-3.06,2.98-1.8,1.73-3.55,3.52-5.42,5.17-1.06.94-2.26,1.74-3.62,2.26-.73.28-1.41.67-2.12,1-1.77.82-3.54,1.64-5.45,2.1-.54.13-1.05.44-1.54.73-.61.36-1.24.59-1.94.69-.45.06-.88.23-1.32.28-1.16.12-2.32.24-3.48.3-1.37.07-2.75.11-4.13.1-.95-.01-1.9-.09-2.84-.22-2.39-.33-4.7-1-7.01-1.66-1.09-.31-2.08-.93-3.12-1.38-.68-.29-1.35-.62-2.06-.8-.8-.19-1.52-.53-2.25-.88-.32-.15-.64-.31-.96-.47-.55-.27-1.1-.55-1.57-.97-1.05-.94-2.32-1.58-3.51-2.31-1.79-1.1-3.45-2.37-4.84-3.97-.65-.75-1.3-1.5-1.96-2.23-.24-.26-.53-.47-.77-.73-1.87-1.99-3.13-4.36-4.2-6.84-.38-.89-.62-1.85-1-2.74-.49-1.16-1.07-2.28-1.59-3.42-.12-.25-.17-.55-.2-.83-.12-1.28-.21-2.56-.34-3.84-.07-.64-.22-1.27-.29-1.91-.07-.61-.12-1.23-.14-1.85-.06-1.81-.08-3.62-.14-5.43-.02-.59-.07-1.19-.19-1.77-.23-1.08.11-2.08.38-3.09.42-1.51.78-3.04,1.26-4.53.43-1.33.99-2.62,1.48-3.93.27-.73.51-1.48.77-2.21.12-.33.27-.66.42-.98.63-1.34,1.39-2.61,2.29-3.77.82-1.05,1.75-2,2.64-2.99.56-.62,1.14-1.22,1.7-1.82.08-.09.16-.18.25-.25.94-.7,1.72-1.55,2.48-2.44.84-.98,1.89-1.74,2.96-2.46.86-.59,1.75-1.14,2.64-1.68.34-.21.73-.34,1.1-.51,1.49-.69,2.98-1.39,4.48-2.05.56-.25,1.11-.5,1.65-.8,1.15-.62,2.41-1,3.73-1.12,1.3-.12,2.6-.27,3.91-.39,1.84-.17,3.69-.37,5.54-.45,1.09-.05,2.18.07,3.27.14,1.14.07,2.27.19,3.41.28.95.07,1.9.17,2.85.19,2.07.05,3.85.98,5.69,1.75.99.41,1.99.8,2.95,1.27,1.07.52,2.12,1.08,3.15,1.67.8.46,1.61.93,2.34,1.5,1.21.95,2.45,1.87,3.53,2.98.64.66,1.35,1.29,2.1,1.82.9.64,1.54,1.48,2.13,2.38.85,1.28,1.7,2.57,2.52,3.87.35.56.61,1.19.97,1.73.67,1.01,1.23,2.07,1.73,3.17.25.56.73,1.01.98,1.57.33.73.58,1.51.8,2.28.35,1.21.65,2.44.97,3.65.33,1.22.6,2.45.5,3.73h0Zm-22.81-29.89s-.04.07-.06.1c.66.56,1.34,1.1,1.99,1.68.54.47,1.07.95,1.56,1.47.63.68,1.16,1.44,1.81,2.1,1.54,1.56,2.94,3.25,4.19,5.05.22.31.39.65.56.99.86,1.77,1.73,3.55,2.57,5.33.31.66.6,1.35.8,2.06.49,1.71.91,3.44,1.39,5.15.5,1.81.99,3.62.83,5.53-.11,1.23-.11,2.47-.25,3.7-.13,1.13-.4,2.25-.55,3.38-.19,1.48-.67,2.86-1.27,4.22-.27.62-.48,1.27-.75,1.9-.43.97-.84,1.96-1.35,2.9-.46.85-1.04,1.64-1.58,2.45-.18.27-.38.55-.62.77-1.24,1.17-2.52,2.29-3.72,3.49-1.42,1.41-3.15,2.36-4.86,3.34-.59.34-1.16.73-1.69,1.16-.74.61-1.49,1.18-2.43,1.45-.8.23-1.55.6-2.39.68-.18.02-.37.09-.54.16-1.97.85-4.04,1.4-6.08,2.04-.57.18-1.19.21-1.83.13-.6-.07-1.26-.41-1.85.11-.16.65-.34,1.31-.38,1.99-.02.35.01.71.04,1.06.02.3.09.61.09.91.01.97,0,1.94,0,2.91,0,.5-.02,1-.09,1.49-.06.45-.22.55-.69.51-.19-.02-.38-.06-.55-.14-.5-.27-1.01-.53-1.48-.84-1.31-.85-2.65-1.68-3.9-2.61-1.38-1.04-2.88-1.95-3.92-3.4-.44-.61-1-1.14-1.48-1.73-.56-.7-1.07-1.46-1.65-2.15-1.17-1.38-2.4-2.7-3.41-4.21-.37-.55-.75-1.1-1.04-1.69-.43-.87-.71-1.82-1.19-2.66-.31-.55-.33-1.03-.12-1.55.23-.57.5-1.14.79-1.68.56-1.05,1.17-2.07,1.74-3.11.9-1.65,1.87-3.26,3.14-4.66.82-.9,1.63-1.8,2.64-2.5.39-.27.74-.6,1.08-.93.85-.8,1.67-1.62,2.71-2.2.54-.3,1.06-.66,1.53-1.06,1.01-.86,1.97-1.78,2.99-2.65.76-.65,1.56-1.25,2.36-1.86.22-.16.47-.42.77-.22.31.2.32.56.28.9-.02.19-.04.38-.06.57-.15,1.37-.28,2.75-.14,4.13.06.54.19,1.1.12,1.63-.17,1.32-.11,2.67-.55,3.95-.05.14-.03.3-.06.61.89-.57,1.67-1.05,2.43-1.57.39-.27.72-.61,1.08-.92.23-.2.44-.45.71-.6,1.58-.94,2.97-2.14,4.39-3.31,1.03-.84,2.14-1.59,3.13-2.47,1.18-1.06,2.27-2.22,3.41-3.33.88-.86,1.38-1.99,2.12-2.95.24-.32.44-.69.58-1.06.51-1.33.99-2.67,1.47-4,.05-.15.11-.34.06-.47-.29-.73-.58-1.45-.92-2.15-.3-.61-.7-1.18-1.02-1.79-.67-1.27-1.41-2.47-2.46-3.48-.23-.22-.36-.55-.54-.83-.24-.38-.42-.81-.71-1.14-.52-.59-1.11-1.11-1.64-1.69-.68-.76-1.32-1.55-1.99-2.32-.27-.3-.56-.58-.85-.86-1.09-1.1-2.18-2.2-3.28-3.28-.41-.4-.85-.76-1.3-1.12-.85-.68-1.7-1.37-2.57-2.02-.5-.37-1-.78-1.72-.87.04.43.06.81.1,1.18.13,1.36.03,2.69-.16,4.04-.19,1.35-.19,2.74-.25,4.1-.02.57-.03,1.13-.27,1.51-.43.08-.71.12-1,.18-1.06.24-2.12.58-3.2.71-.9.11-1.79.25-2.66.51-.52.16-1.03.37-1.56.51-1.63.46-3.12,1.28-4.68,1.91-.15.06-.3.14-.43.25-.76.61-1.51,1.23-2.26,1.85-.51.42-.98.89-1.6,1.17-.27.12-.5.36-.71.59-.58.63-1.14,1.28-1.72,1.91-.52.56-1.06,1.09-1.57,1.65-.59.65-1.18,1.3-1.74,1.98-.64.76-1.33,1.5-1.83,2.35-.95,1.62-1.87,3.27-2.64,4.98-.73,1.62-1.33,3.32-1.85,5.02-.45,1.45-.72,2.96-1.04,4.44-.11.49-.16.99-.18,1.48-.04,1.02-.01,2.05-.06,3.07-.08,1.61.13,3.19.5,4.73.54,2.19,1,4.4,1.87,6.51.38.91.77,1.77,1.37,2.55.17.22.27.5.39.75.37.71.7,1.45,1.11,2.14.35.59.8,1.12,1.17,1.7.97,1.54,2.25,2.83,3.54,4.09.62.61,1.4,1.06,2.12,1.58,1.41,1.01,2.81,2.03,4.23,3.03,1.3.92,2.59,1.84,3.9,2.75.13.09.29.16.45.19.6.14,1.2.27,1.81.39.86.17,1.72.37,2.59.5,1.03.16,2.08.22,3.11.38,1.08.18,2.16.31,3.26.25,1.75-.11,3.5-.2,5.25-.33.47-.03.93-.23,1.4-.25.64-.03,1.2-.25,1.76-.54.61-.32,1.21-.73,1.87-.87,1.57-.35,3.03-.98,4.47-1.67,1.12-.53,2.24-1.04,3.36-1.56.34-.16.71-.29,1.03-.49,1.31-.79,2.49-1.76,3.59-2.81,1.36-1.3,2.68-2.63,4.02-3.95.95-.93,1.88-1.89,2.88-2.76.99-.86,1.62-1.95,2.11-3.1.57-1.34,1.24-2.61,1.95-3.88.66-1.19,1.6-2.27,1.67-3.73,0-.07.03-.14.06-.21.49-1.49.99-2.97,1.46-4.48.23-.75.38-1.52.57-2.28.12-.51.32-1.01.33-1.52.05-1.42.02-2.85.02-4.28,0-.31.05-.61.08-.92.05-.47.14-.94.14-1.42.01-1.81.04-3.62-.03-5.42-.03-.77-.19-1.57-.47-2.29-.29-.76-.48-1.54-.63-2.33-.2-1.04-.45-2.05-.96-2.98-.34-.63-.74-1.22-1.09-1.84-.7-1.27-1.33-2.58-2.07-3.83-1.12-1.88-2.3-3.72-3.48-5.57-.24-.37-.58-.69-.92-.98-.91-.79-1.89-1.52-2.77-2.35-1.58-1.48-3.21-2.9-5.15-3.92-1.28-.68-2.56-1.36-3.83-2.04-.18-.09-.37-.17-.55-.25h-.01Zm-17.22,8.1c0-.57-.02-1.14,0-1.71.03-.69.12-1.37.17-2.05.05-.73.1-1.47.14-2.2.07-1.11.33-2.22.18-3.35-.05-.37-.03-.76,0-1.14.02-.37.25-.63.51-.55.57.16,1.2.26,1.67.58,1.45,1,2.88,2.03,4.22,3.16,1.09.91,2.04,1.98,3.04,3,.73.75,1.44,1.51,2.15,2.28.68.73,1.25,1.54,1.97,2.24.75.72,1.46,1.5,1.87,2.5.16.39.43.75.71,1.06.6.67,1.25,1.3,1.67,2.11.25.48.52.97.84,1.4.48.63.84,1.31,1.16,2.04.54,1.26.59,2.51.13,3.79-.11.32-.19.64-.32.95-.38.9-.67,1.86-1.2,2.66-1.09,1.64-2.08,3.34-3.48,4.78-1.41,1.46-2.89,2.82-4.54,3.99-.93.66-1.89,1.29-2.78,2-1.38,1.1-2.69,2.27-4.07,3.37-.55.44-1.2.75-1.81,1.12-.34.21-.68.44-1.04.63-.71.37-1.08-.11-1.16-.82-.03-.23.07-.47.11-.7.08-.49.18-.98.24-1.48.25-2.01.19-4.04.22-6.06.01-.69-.11-1.38-.17-2.14-.18.11-.29.16-.38.22-1.5,1.03-2.89,2.18-4.19,3.44-.52.5-1.13.9-1.72,1.33-.46.33-1.01.57-1.42.96-1.25,1.17-2.6,2.23-3.84,3.4-1.11,1.05-2.06,2.31-2.91,3.59-1.2,1.8-2.25,3.7-3.33,5.58-.36.63-.61,1.32-.88,1.92.62.83,1.2,1.52,1.4,2.44.13.61.44,1.14.83,1.63.58.75,1.09,1.56,1.65,2.32.34.46.72.89,1.07,1.33.7.87,1.46,1.7,2.07,2.63.86,1.3,1.85,2.47,2.98,3.52.69.65,1.5,1.17,2.24,1.77,1.63,1.31,3.3,2.57,5.11,3.63.32.18.68.28,1.1.45,0-.35,0-.58,0-.81-.03-.76-.08-1.52-.09-2.28-.02-.95.18-1.9-.04-2.85-.03-.13,0-.29.02-.43.16-.79.3-1.59.48-2.38.11-.5.38-.73.88-.78.19-.02.38.01.57.02.74,0,1.48.1,2.2,0,1.89-.25,3.61-1.15,5.44-1.62.5-.13.97-.39,1.46-.55.93-.29,1.89-.5,2.8-.84.5-.18,1.01-.48,1.37-.86.93-1,2.14-1.58,3.3-2.21,1.1-.6,2.11-1.28,3-2.16.73-.72,1.46-1.44,2.23-2.11.98-.86,2.02-1.66,2.72-2.8.84-1.35,1.86-2.59,2.44-4.1.45-1.17.87-2.36,1.31-3.54.11-.31.26-.61.33-.93.23-1.07.44-2.14.64-3.22.13-.7.26-1.41.33-2.11.13-1.37.18-2.75.33-4.12.1-.89.02-1.76-.19-2.61-.42-1.73-.86-3.46-1.34-5.18-.38-1.37-.68-2.78-1.3-4.07-.68-1.39-1.43-2.74-2.08-4.15-.45-.97-.86-1.95-1.47-2.84-.76-1.12-1.52-2.24-2.55-3.15-.57-.5-1.11-1.05-1.57-1.66-1.15-1.53-2.58-2.78-4.04-3.99-.88-.73-1.77-1.44-2.69-2.12-.72-.53-1.41-1.14-2.38-1.21-.07,0-.16-.03-.19-.08-.31-.42-.78-.43-1.22-.49-.52-.08-1.04-.13-1.56-.18-1.26-.12-2.51-.23-3.77-.35-.4-.04-.81-.06-1.21-.09-.97-.08-1.94-.19-2.91-.24-.4-.02-.8.07-1.21.09-1.71.12-3.42.21-5.13.35-1.38.11-2.75.27-4.12.43-.54.06-1.09.14-1.61.3-.82.24-1.63.51-2.42.84-.52.22-.97.58-1.47.85-.84.45-1.67.92-2.54,1.3-1.97.84-4,1.54-5.65,2.98-.86.75-1.76,1.45-2.61,2.2-.39.34-.66.83-1.06,1.15-1.79,1.41-3.14,3.25-4.75,4.83-1.67,1.64-2.64,3.77-3.89,5.69-.05.08-.1.17-.11.26-.08,1.06-.47,2.02-.89,2.98-.14.33-.3.65-.4.99-.44,1.46-.86,2.92-1.28,4.38-.31,1.05-.65,2.09-.92,3.14-.14.55-.25,1.13-.22,1.69.06,1.21.24,2.41.33,3.61.07.92.1,1.85.12,2.78.03,1.31-.1,2.62.22,3.91.06.25.09.52.12.78.17,1.47.3,2.94.5,4.4.08.61.29,1.17.63,1.72.63,1.03,1.24,2.08,1.59,3.26.18.61.38,1.24.67,1.81.78,1.5,1.58,2.99,2.45,4.43.44.72,1.04,1.36,1.59,2,.45.52.98.97,1.41,1.51,1.26,1.57,2.73,2.91,4.38,4.06.94.65,1.93,1.22,2.87,1.86.71.48,1.37,1.03,2.09,1.49.74.48,1.52.89,2.29,1.32.87.49,1.74.96,2.72,1.2.51.13,1.01.31,1.51.47-.22-.29-.49-.48-.77-.66-1.6-1.03-3.25-1.97-4.75-3.16-.56-.44-1.2-.79-1.72-1.27-.93-.88-1.86-1.77-2.67-2.77-1.4-1.74-2.71-3.54-3.6-5.62-.3-.69-.75-1.32-1.06-2.01-.34-.76-.56-1.56-.88-2.33-.57-1.39-1.12-2.78-1.38-4.27-.21-1.19-.4-2.39-.61-3.58-.23-1.25-.14-2.51-.09-3.77.06-1.45-.13-2.91.29-4.33.17-.57.29-1.16.39-1.74.27-1.57.76-3.09,1.27-4.59.66-1.95,1.63-3.75,2.56-5.58.78-1.53,1.56-3.04,2.8-4.28.84-.84,1.56-1.79,2.37-2.67.96-1.05,1.96-2.07,2.95-3.1.21-.22.4-.51.67-.63.86-.4,1.47-1.11,2.2-1.68.84-.66,1.67-1.36,2.61-1.85,1.56-.81,3.2-1.47,4.89-1.97.43-.13.84-.32,1.28-.44,1.1-.3,2.21-.53,3.35-.66,1.08-.13,2.15-.38,3.27-.59h.01Z"/>
  <path class="cls-1" d="m56.85,91.62c.18.08.37.16.55.25,1.28.68,2.55,1.36,3.83,2.04,1.93,1.02,3.56,2.43,5.15,3.92.88.83,1.86,1.55,2.77,2.35.34.29.68.61.92.98,1.18,1.84,2.36,3.69,3.48,5.57.74,1.25,1.37,2.56,2.07,3.83.34.62.74,1.21,1.09,1.84.51.93.76,1.95.96,2.98.16.79.34,1.57.63,2.33.27.72.44,1.52.47,2.29.07,1.81.04,3.62.03,5.42,0,.47-.09.94-.14,1.42-.03.31-.08.61-.08.92-.01,1.42.02,2.85-.02,4.28-.02.51-.21,1.02-.33,1.52-.18.76-.34,1.53-.57,2.28-.46,1.5-.97,2.98-1.46,4.48-.02.07-.05.14-.06.21-.06,1.46-1.01,2.54-1.67,3.73-.7,1.27-1.37,2.54-1.95,3.88-.49,1.15-1.12,2.24-2.11,3.1-1,.87-1.93,1.83-2.88,2.76-1.34,1.31-2.66,2.65-4.02,3.95-1.1,1.05-2.28,2.02-3.59,2.81-.32.2-.69.33-1.03.49-1.12.52-2.25,1.03-3.36,1.56-1.44.68-2.9,1.31-4.47,1.67-.66.15-1.26.55-1.87.87-.56.29-1.12.5-1.76.54-.47.03-.93.22-1.4.25-1.75.13-3.5.22-5.25.33-1.1.07-2.17-.07-3.26-.25-1.03-.17-2.08-.23-3.11-.38-.87-.13-1.73-.33-2.59-.5-.6-.12-1.21-.25-1.81-.39-.16-.04-.32-.1-.45-.19-1.3-.91-2.6-1.83-3.9-2.75-1.41-1.01-2.82-2.02-4.23-3.03-.71-.52-1.49-.97-2.12-1.58-1.29-1.26-2.57-2.54-3.54-4.09-.37-.58-.82-1.11-1.17-1.7-.41-.69-.74-1.42-1.11-2.14-.13-.25-.22-.53-.39-.75-.6-.78-1-1.64-1.37-2.55-.88-2.11-1.34-4.32-1.87-6.51-.38-1.55-.59-3.12-.5-4.73.05-1.02.02-2.05.06-3.07.02-.5.07-1,.18-1.48.32-1.49.59-2.99,1.04-4.44.53-1.7,1.12-3.4,1.85-5.02.77-1.71,1.68-3.36,2.64-4.98.5-.85,1.2-1.58,1.83-2.35.56-.68,1.15-1.33,1.74-1.98.51-.56,1.06-1.09,1.57-1.65.58-.63,1.14-1.28,1.72-1.91.21-.22.44-.46.71-.59.62-.29,1.09-.75,1.6-1.17.75-.62,1.51-1.24,2.26-1.85.13-.1.28-.19.43-.25,1.57-.62,3.05-1.45,4.68-1.91.53-.15,1.03-.36,1.56-.51.87-.26,1.76-.4,2.66-.51,1.08-.13,2.13-.47,3.2-.71.28-.06.57-.11,1-.18.24-.38.24-.94.27-1.51.06-1.37.06-2.75.25-4.1.19-1.35.29-2.69.16-4.04-.04-.37-.06-.74-.1-1.18.72.09,1.22.49,1.72.87.87.65,1.72,1.34,2.57,2.02.44.36.89.72,1.3,1.12,1.1,1.08,2.19,2.18,3.28,3.28.29.29.58.56.85.86.67.77,1.31,1.56,1.99,2.32.53.58,1.12,1.1,1.64,1.69.29.33.48.76.71,1.14.17.28.3.61.54.83,1.04,1.01,1.79,2.21,2.46,3.48.32.61.72,1.17,1.02,1.79.35.7.64,1.43.92,2.15.05.13-.01.32-.06.47-.48,1.34-.96,2.68-1.47,4-.14.37-.33.74-.58,1.06-.74.96-1.24,2.09-2.12,2.95-1.14,1.11-2.23,2.27-3.41,3.33-.99.89-2.1,1.63-3.13,2.47-1.42,1.16-2.8,2.37-4.39,3.31-.26.16-.47.4-.71.6-.36.31-.69.65-1.08.92-.76.52-1.54,1-2.43,1.57.03-.31.01-.47.06-.61.44-1.28.38-2.64.55-3.95.07-.53-.06-1.09-.12-1.63-.14-1.38,0-2.76.14-4.13.02-.19.04-.38.06-.57.03-.34.03-.7-.28-.9-.3-.19-.55.06-.77.22-.8.6-1.6,1.21-2.36,1.86-1.01.86-1.97,1.78-2.99,2.65-.47.4-.99.76-1.53,1.06-1.04.58-1.86,1.4-2.71,2.2-.34.33-.69.66-1.08.93-1.01.7-1.82,1.6-2.64,2.5-1.27,1.4-2.24,3.01-3.14,4.66-.57,1.04-1.18,2.07-1.74,3.11-.29.54-.56,1.11-.79,1.68-.21.52-.19,1,.12,1.55.48.84.76,1.79,1.19,2.66.29.59.68,1.14,1.04,1.69,1,1.51,2.24,2.84,3.41,4.21.58.69,1.09,1.45,1.65,2.15.48.59,1.04,1.11,1.48,1.73,1.04,1.45,2.54,2.36,3.92,3.4,1.25.94,2.59,1.76,3.9,2.61.48.31.98.58,1.48.84.16.09.36.13.55.14.47.04.63-.06.69-.51.07-.49.08-.99.09-1.49.02-.97.02-1.94,0-2.91,0-.3-.07-.6-.09-.91-.02-.35-.06-.71-.04-1.06.03-.68.21-1.33.38-1.99.58-.52,1.24-.18,1.85-.11.63.08,1.25.05,1.83-.13,2.04-.64,4.11-1.19,6.08-2.04.17-.08.36-.14.54-.16.84-.07,1.6-.45,2.39-.68.94-.27,1.69-.84,2.43-1.45.53-.43,1.1-.82,1.69-1.16,1.71-.98,3.43-1.93,4.86-3.34,1.21-1.2,2.49-2.32,3.72-3.49.24-.23.44-.5.62-.77.54-.81,1.12-1.6,1.58-2.45.51-.93.92-1.92,1.35-2.9.27-.62.47-1.28.75-1.9.6-1.36,1.07-2.74,1.27-4.22.15-1.13.42-2.25.55-3.38.14-1.23.14-2.47.25-3.7.16-1.92-.33-3.72-.83-5.53-.48-1.71-.9-3.45-1.39-5.15-.2-.7-.49-1.39-.8-2.06-.84-1.79-1.71-3.56-2.57-5.33-.17-.34-.34-.68-.56-.99-1.25-1.8-2.65-3.48-4.19-5.05-.65-.66-1.18-1.42-1.81-2.1-.48-.52-1.02-1-1.56-1.47-.65-.57-1.32-1.12-1.99-1.68.02-.03.04-.07.06-.1h.01Z"/>
</svg>