<?xml version="1.0" encoding="UTF-8"?>
<svg id="Layer_1" data-name="Layer 1" xmlns="http://www.w3.org/2000/svg" viewBox="0 0 378.16 193.91">
  <defs>
    <style>
      .cls-1 {
        fill: #d34327;
        stroke-width: 0px;
      }
    </style>
  </defs>
  <path class="cls-1" d="m256.48,0c4.23.84,8.2,1.61,12.17,2.42,2.79.57,5.57,1.14,8.33,1.83,2.28.57,4.51,1.32,6.78,1.94,2.54.7,5.11,1.3,7.65,2,1.27.35,2.51.82,3.76,1.25,3.75,1.29,7.55,2.47,11.25,3.9,6.05,2.34,12.05,4.81,18.02,7.33,1.43.6,2.65,1.68,4.04,2.42,1,.53,2.17.76,3.18,1.29,4.75,2.52,9.61,4.87,14.17,7.71,3.9,2.43,7.49,5.36,11.11,8.22,1.89,1.49,3.62,3.23,5.27,4.99,1.56,1.67,3.02,3.46,4.37,5.31,1.93,2.66,3.97,5.29,5.51,8.18,1.67,3.14,2.92,6.53,4.15,9.88.65,1.76,1.04,3.66,1.25,5.52.37,3.38.82,6.8.65,10.17-.2,3.7-.99,7.38-2.43,10.86-1.04,2.5-1.8,5.16-3.11,7.51-1.35,2.43-2.15,5.26-4.61,7.01-.46.32-.47,1.21-.85,1.72-1.35,1.78-2.77,3.5-4.17,5.24-.91,1.14-1.75,2.36-2.75,3.42-1.27,1.33-2.69,2.52-4.02,3.8-1.32,1.28-2.55,2.67-3.92,3.9-2.65,2.39-5.33,4.75-8.09,7.02-2.97,2.44-6.03,4.77-9.06,7.13-1.13.88-2.18,1.98-3.46,2.53-3.75,1.61-6.57,4.64-10.17,6.47-2.62,1.33-5.04,3.05-7.6,4.5-1.92,1.09-3.92,2.03-5.89,3.03-2.04,1.04-4.09,2.06-6.12,3.12-1.42.74-2.78,1.59-4.21,2.29-1.35.66-2.77,1.2-4.16,1.77-4.06,1.65-8.12,3.33-12.2,4.91-1.88.73-3.85,1.23-5.75,1.93-1.41.52-2.72,1.29-4.14,1.78-2.52.87-5.09,1.64-7.64,2.41-3.92,1.19-7.85,2.37-11.78,3.52-3.21.94-6.44,1.86-9.66,2.77-2.21.62-4.42,1.25-6.65,1.76-1.79.41-3.62.61-5.42.97-3.68.75-7.34,1.58-11.02,2.3-1.92.38-3.88.58-5.82.9-2.27.37-4.53.86-6.81,1.17-4.05.56-8.11,1.08-12.18,1.54-3.11.35-6.25.57-9.36.9-1.99.21-3.97.64-5.96.76-2.39.15-4.8.05-7.2.11-3.42.08-6.84.21-10.26.29-4.23.1-8.45.24-12.68.21-3.45-.03-6.89-.3-10.33-.43-2.78-.11-5.58-.05-8.34-.3-3.99-.36-7.97-.93-11.95-1.42-2.03-.25-4.05-.49-6.08-.76-2.88-.38-5.76-.76-8.63-1.18-2.92-.43-5.86-.8-8.75-1.38-3.02-.61-6-1.46-9-2.19-1.61-.39-3.23-.7-4.83-1.11-1.81-.47-3.61-1-5.41-1.51-1.62-.46-3.25-.88-4.85-1.38-1.99-.62-3.97-1.28-5.94-1.97-1.77-.62-3.51-1.3-5.26-1.97-2.53-.96-5.1-1.83-7.57-2.92-3.86-1.71-7.75-3.4-11.46-5.42-3.97-2.17-7.86-4.55-11.57-7.15-3.66-2.57-7.2-5.38-10.52-8.38-3.05-2.75-5.91-5.73-8.15-9.24-1.34-2.1-2.98-4.01-4.27-6.13-.99-1.64-1.66-3.47-2.42-5.24-.12-.27.09-.68-.13-.86-.44-.86-1.07-1.67-1.3-2.59-.81-3.21-1.69-6.42-2.13-9.69-.24-1.78.35-3.67.5-5.52.03-.39-.5-.93-.37-1.2.94-1.92-.4-4.4,1.51-6.04-.35-2.66,1.46-4.57,2.4-6.76.87-2.03,1.97-3.97,3.08-5.88,1-1.72,2.03-3.45,3.26-5,2.03-2.54,4.19-4.98,6.37-7.4,1.59-1.77,3.3-3.43,4.96-5.13.3-.31.63-.59.96-.86,2.52-2.1,5-4.24,7.58-6.26,2.26-1.77,4.6-3.43,6.95-5.06,2.76-1.9,5.5-3.84,8.38-5.53,4.98-2.93,10.06-5.7,15.12-8.51,2.25-1.25,4.51-2.49,6.83-3.61.9-.43,1.98-.5,2.98-.74.13-.03.32,0,.38-.07,2.03-2.43,5.15-2.84,7.78-4.12,2.79-1.36,5.76-2.38,8.69-3.45,4.91-1.79,9.82-3.59,14.78-5.22,3.98-1.3,8.07-2.3,12.08-3.51,2.94-.89,5.82-1.99,8.77-2.82,2.01-.56,4.12-.77,6.16-1.23,1.71-.38,3.37-.97,5.08-1.35,1.52-.33,3.08-.45,4.6-.74.96-.18,1.87-.6,2.83-.75,3.36-.52,6.73-.94,10.08-1.47,3.49-.55,6.97-1.24,10.46-1.74,3.12-.45,6.27-.72,9.4-1.07,2.59-.29,5.17-.59,7.76-.87,2.24-.25,4.49-.47,6.73-.71,2.36-.25,4.71-.57,7.07-.74,1.8-.13,3.61-.03,5.41-.1,4.07-.16,8.13-.4,12.19-.53,3.56-.12,7.13-.27,10.68-.18,4.79.12,9.58.41,14.36.71,1.62.1,3.33.9,4.82.57,1.39-.31,2.58-.07,3.85.09,1.44.19,2.86.52,4.3.76,1.5.26,3.03.4,4.52.74,2.13.49,4.23,1.11,6.34,1.68-.01.22-.03.44-.04.66-.32.09-.66.29-.97.26-2.51-.29-5.01-.66-7.52-.95-2.63-.3-5.27-.58-7.91-.76-3.4-.22-6.8-.3-10.2-.51-1.05-.06-2.08-.46-3.13-.51-.86-.04-1.74.32-2.6.3-1.18-.03-2.36-.35-3.54-.36-.9,0-1.79.38-2.7.41-2.59.08-5.27-.35-7.74.21-1.94.44-3.79-.14-5.67.34-1.3.33-2.73.12-4.1.2-3.22.18-6.45.33-9.67.58-3.57.28-7.13.61-10.68,1-2.27.25-4.52.73-6.79.97-1.85.19-3.72.16-5.58.26-.93.05-1.85.19-2.77.32-2.75.4-5.5.79-8.24,1.22-2.24.35-4.48.77-6.72,1.14-2.18.36-4.37.64-6.53,1.04-1.88.35-3.73.83-5.6,1.23-5.42,1.15-10.87,2.2-16.26,3.48-3.43.82-6.77,2.01-10.17,2.98-1.73.49-3.51.8-5.23,1.32-1.83.56-3.6,1.33-5.42,1.92-3.4,1.1-6.84,2.06-10.22,3.23-3.36,1.16-6.68,2.45-9.97,3.8-5.14,2.11-10.27,4.23-15.33,6.51-2.72,1.22-5.28,2.8-7.92,4.19-2.62,1.37-5.32,2.61-7.88,4.09-2.66,1.54-5.2,3.28-7.79,4.95-2.51,1.62-5.04,3.22-7.52,4.89-1.54,1.04-3.05,2.13-4.47,3.31-3.05,2.55-6.08,5.12-9.04,7.77-1.92,1.72-3.63,3.67-5.54,5.42-4.56,4.17-7.92,9.28-10.8,14.62-2.56,4.75-4.12,9.94-4.48,15.45-.19,2.87-.1,5.68.59,8.44.6,2.42,1.47,4.78,2.26,7.15.14.42.47.77.75,1.2-.22.26-.48.57-.48.58.81,1.25,1.6,2.32,2.22,3.47,1.35,2.5,2.81,4.93,4.69,7.08,1.66,1.89,3.21,3.87,4.94,5.7,1.57,1.66,3.21,3.27,4.99,4.7,2.53,2.03,5.18,3.9,7.83,5.76,2.26,1.59,4.53,3.21,6.93,4.57,2.57,1.45,5.3,2.62,7.98,3.87,2.81,1.31,5.6,2.68,8.48,3.83,2.6,1.03,5.3,1.79,7.96,2.69.76.25,1.54.48,2.25.83,3.47,1.67,7.24,2.4,10.89,3.49,3.02.89,6.01,1.87,9.05,2.67,2.14.56,4.35.87,6.54,1.29,4.97.96,9.93,2.02,14.92,2.84,3.66.6,7.38.86,11.08,1.29,3.4.39,6.78.87,10.19,1.17,2.83.25,5.69.26,8.53.44,2.31.15,4.62.5,6.93.56,3.14.08,6.29-.02,9.44-.05,1.23-.01,2.46-.03,3.69-.04,4.14-.03,8.27.01,12.41-.11,2.51-.08,5.02-.43,7.53-.62,3.6-.27,7.22-.46,10.82-.78,2.21-.19,4.41-.53,6.61-.83,4.77-.66,9.54-1.34,14.32-2,2.72-.38,5.44-.7,8.15-1.12.82-.13,1.59-.57,2.41-.74,3.66-.77,7.32-1.51,10.99-2.22,1.96-.38,4.03-.39,5.89-1.05,1.17-.41,2.3-.72,3.5-.98,2.84-.62,5.64-1.41,8.44-2.18,3.04-.83,6.07-1.67,9.08-2.59,3.13-.95,6.25-1.95,9.35-3,4.61-1.58,9.23-3.16,13.79-4.87,2.35-.88,4.59-2.06,6.89-3.07,2.88-1.27,5.8-2.45,8.65-3.8,2.9-1.37,5.73-2.9,8.58-4.37,1.27-.66,2.52-1.36,3.79-2.04,2.11-1.14,4.28-2.2,6.32-3.45,3.15-1.93,6.52-3.65,9.25-6.07,3.09-2.73,7.08-4.07,9.94-7.07.83-.87,2.07-1.32,3.03-2.08,2.03-1.63,4-3.34,5.99-5.03.22-.19.38-.47.63-.59,2.17-1.03,3.84-2.73,5.61-4.27,2.45-2.12,4.73-4.44,7.27-6.45,4.54-3.61,7.98-8.23,11.36-12.77,3.23-4.33,5.86-9.12,7.04-14.65.7-3.28,1.36-6.53,1.31-9.85-.04-2.55-.45-5.14-1-7.64-.95-4.33-2.72-8.4-4.79-12.3-.67-1.25-1.66-2.33-2.46-3.52-.3-.45-.38-1.04-.69-1.47-.54-.77-1.18-1.46-1.77-2.2-1.58-2-3.14-3.98-5.19-5.58-1.56-1.22-2.64-3.03-4.16-4.3-3.1-2.58-6.34-5-9.56-7.44-1.96-1.48-3.94-2.96-6.02-4.27-2.29-1.44-4.7-2.69-7.06-4.01-2.18-1.21-4.33-2.49-6.56-3.57-2.03-.99-4.2-1.66-6.22-2.66-1.5-.74-2.84-1.82-4.3-2.65-.35-.2-.97.14-1.38-.02-2.8-1.1-5.57-2.3-8.37-3.41-3.46-1.37-6.91-2.76-10.41-4-4.42-1.56-8.87-3.02-13.35-4.41-3.05-.95-6.17-1.66-9.25-2.53-2.64-.75-5.26-1.61-7.91-2.34-1.73-.48-3.49-.89-5.27-1.16-.67-.1-1.2-1.04-1.99-.38-.1-.24-.19-.48-.41-1.03Z"/>
</svg>