<?xml version="1.0" encoding="UTF-8"?>
<svg id="Layer_1" data-name="Layer 1" xmlns="http://www.w3.org/2000/svg" viewBox="0 0 536.53 447.93">
  <defs>
    <style>
      .cls-1 {
        fill: #285d2e;
        stroke-width: 0px;
      }
    </style>
  </defs>
  <path class="cls-1" d="m220.5,413.07c-2.06,2.29-4.9,2.45-7.74,2.77-3.2.36-6.37,1.12-9.58,1.33-4.11.27-8.25.41-12.35.15-6.52-.4-13.01-1.12-19.51-1.82-2-.22-3.97-.76-5.93-1.26-6.11-1.56-12.27-3-18.31-4.82-3.85-1.16-7.55-2.82-11.28-4.37-5.82-2.42-11.62-4.91-17.41-7.42-6.45-2.8-12.98-5.45-19.26-8.59-3.73-1.86-7.16-4.39-10.52-6.9-3.94-2.96-7.83-6.03-11.4-9.42-2.66-2.53-4.87-5.57-7.12-8.51-2.24-2.93-4.34-5.97-6.4-9.03-1.63-2.4-3.05-4.94-4.68-7.33-2.07-3.05-4.29-6.01-6.39-9.04-.92-1.32-1.61-2.8-2.55-4.11-1.65-2.29-3.57-4.39-5.1-6.75-2.64-4.06-5.04-8.27-7.59-12.38-3.2-5.16-5.85-10.59-7.75-16.34-1.02-3.11-1.53-6.38-2.31-9.57-.32-1.32-.83-2.6-1.11-3.93-.81-3.86-1.69-7.72-2.28-11.61-.36-2.37-.32-4.82-.31-7.23,0-8.25.15-16.5.09-24.75-.02-2.65-.61-5.3-.81-7.95-.41-5.48-1.06-10.97-1.01-16.45.05-4.58.86-9.16,1.51-13.71.54-3.76,1.24-7.5,2.07-11.21.59-2.68,1.43-5.31,2.28-7.91,2.29-6.99,4.67-13.96,6.96-20.95,1.15-3.52,2.17-7.09,3.26-10.64,1.71-5.58,3.57-11.08,7.03-15.88.37-.52.67-1.09,1.14-1.88C32.97,123.79,18.25,116.89.03,120c0-.19-.02-.38-.03-.57.51-.25,1-.59,1.53-.73,2.88-.75,5.79-1.43,8.67-2.18,3.9-1.02,7.85-1.02,11.82-.62,7.14.73,13.61,3.37,19.81,6.86,2.82,1.59,5.72,3.02,8.6,4.5.41.21.91.26,1.17.33,4.15-4.96,8.1-9.85,12.25-14.57,4.48-5.1,8.97-10.21,13.79-14.99,3.55-3.51,7.62-6.5,11.47-9.71,2.98-2.48,5.97-4.95,8.98-7.4.62-.51,1.34-.9,2.01-1.36,1.73-1.19,3.4-2.46,5.19-3.55,2.07-1.26,4.22-2.39,6.37-3.51,4.07-2.13,8.13-4.29,12.27-6.29,2.4-1.15,4.94-2,7.42-2.99,3.89-1.55,7.76-3.13,11.66-4.66,2.4-.94,4.81-1.82,7.24-2.68,2.81-1,5.61-2.05,8.47-2.88,2.24-.65,4.56-1.15,6.87-1.44,4.23-.53,8.49-.84,12.79-1.25,1.29-1.94,1.29-4.19,1.63-6.28.65-4.06,1.16-8.17,1.41-12.27.34-5.49.39-10.99.53-16.49.06-2.24-.69-4.22-1.76-6.2-1.1-2.05-1.86-4.29-2.62-6.5-.24-.71-.04-1.57.34-2.56.56.81,1.33,1.54,1.64,2.44,1.59,4.61,4.54,8.35,7.45,12.13,2.89,3.74,5.14,7.81,6.57,12.33.82,2.61,1.92,5.13,2.76,7.73,1.59,4.93,1.9,10,1.46,15.13-.04.48-.05.97-.04,1.45,0,.14.15.27.23.42,5.16-.6,10.3-.2,15.44.28,4.59.43,9.2.72,13.76,1.35,6.88.95,13.81,1.66,20.43,3.97,3.89,1.36,7.81,2.64,11.73,3.92,2.07.68,4.2,1.2,6.25,1.94.96.35,1.79,1.04,2.66,1.61.81.53,1.56,1.17,2.41,1.63,4.34,2.33,8.67,4.69,13.08,6.88,4.56,2.27,9.05,4.59,13.22,7.58,3.28,2.35,6.62,4.58,9.58,7.37,2.46,2.31,5.2,4.32,7.81,6.47,3.36,2.78,6.77,5.52,10.05,8.39,3.4,2.97,6.75,6.02,10.02,9.14,3.87,3.7,7.09,7.98,10.05,12.42,2.42,3.63,4.86,7.27,6.89,11.12,2.49,4.7,5.01,9.39,6.89,14.42,1.84,4.92,3.88,9.76,5.26,14.84,2.39,8.8,5.11,17.55,6.01,26.67.6,6.09,1.57,12.21.16,18.84,1.15-.43,1.88-.64,2.55-.97,5.97-3,11.97-5.97,17.89-9.07,3.93-2.06,7.74-4.35,11.64-6.48,4.52-2.47,9.12-4.81,13.61-7.34,4.57-2.58,9.01-5.4,13.58-8,6.04-3.43,12.14-6.76,18.22-10.12,3.96-2.19,7.9-4.43,11.93-6.5,3.37-1.73,6.81-3.32,10.28-4.84,2.29-1,4.73-1.67,7.03-2.65,3.59-1.52,6.57-.88,9.65,1.56,2.78,2.2,5.11,4.68,7.07,7.56.32.46.38,1.1.55,1.67.04.14,0,.41.07.44,3.34,1.43,4.27,4.84,5.88,7.56,3.25,5.49,6.14,11.19,9.13,16.83,1.89,3.57,3.77,7.16,5.51,10.8,1.49,3.13,2.75,6.38,4.18,9.54,1.72,3.81,3.53,7.58,5.29,11.37.92,1.97,1.87,3.94,2.72,5.94.85,1.99,1.72,3.98,2.35,6.04.78,2.55,1.28,5.18,1.99,7.75.75,2.72,1.45,5.46,2.42,8.11,2.09,5.73,3.9,11.48,3,17.72-.08.55-.02,1.14.03,1.7.52,5.9.23,11.76-.56,17.63-.61,4.56-.62,9.2-1.27,13.75-.6,4.14-1.78,8.2-2.58,12.31-.84,4.31-2.46,8.37-3.88,12.49-1.13,3.27-2.58,6.43-3.88,9.64-.82,2.02-1.52,4.11-2.47,6.07-2.99,6.18-6.41,12.12-10.38,17.72-3.22,4.54-6.6,8.97-9.89,13.46-1.43,1.95-2.64,4.1-4.25,5.89-3.52,3.89-7.31,7.55-10.86,11.41-2.65,2.88-5.74,5.18-8.88,7.45-.84.61-1.48,1.5-2.31,2.13-2.96,2.23-5.95,4.44-8.97,6.59-2.49,1.77-5.14,3.33-7.56,5.2-3.65,2.81-7.42,5.39-11.66,7.26-1.38.61-2.54,1.73-3.92,2.35-4.7,2.1-9.42,4.16-14.2,6.07-6.23,2.49-12.45,5-18.8,7.17-4.73,1.62-9.62,2.75-14.46,4.01-4.54,1.18-9.1,2.29-13.67,3.36-4.65,1.08-9.29,2.21-13.98,3.07-4.52.83-9.12,1.27-13.66,2.03-1.41.24-2.74-.47-4.21.12-1.46.59-3.14.65-4.73.83-1.53.18-3.07.22-4.61.31-1.62.09-3.23.16-4.85.26-1.53.09-3.07.3-4.6.31-6.87,0-13.74-.11-20.53-1.36-5.01-.92-10.04-1.73-15.02-2.77-2.28-.48-4.48-1.37-6.7-2.12-5.9-1.99-11.78-4.03-17.69-6.01-1.91-.64-3.85-1.2-5.8-1.7-5.51-1.42-10.73-3.61-15.84-6.07-2.83-1.36-5.67-2.69-8.52-4.03-6.44-3.03-12.73-6.35-18.82-10.03-.47-.29-1.02-.45-1.74-.76Zm-175.69-93.34l-.08-.1c1.85,2.93,3.64,5.9,5.55,8.79,1.29,1.95,2.8,3.75,4.15,5.66,1.16,1.64,2.2,3.38,3.36,5.02,1.17,1.65,2.08,3.45,3.3,5.09,2.9,3.88,5.44,8.03,8.24,11.99,2.51,3.56,4.95,7.21,7.81,10.49,6.33,7.25,13.9,13.07,22.22,17.84,3.91,2.24,8.09,4.04,12.24,5.85,6.22,2.72,12.53,5.22,18.77,7.9,3.18,1.37,6.24,3.04,9.45,4.34,3.89,1.57,7.82,3.11,11.85,4.27,4.57,1.32,9.25,2.23,13.89,3.25,1.65.36,3.33.6,5.01.8,3.45.4,6.91.68,10.35,1.08,3.45.4,6.88,1.04,10.34,1.31,3.86.3,7.74.29,11.61.45,4.59.18,9-.83,13.38-2.05.47-.13.87-.53,1.36-.84-2.22-1.56-4.34-2.88-6.26-4.45-3.62-2.97-7.06-6.15-10.67-9.13-2.35-1.94-4.18-4.27-5.6-6.91-1.68-3.12-3.31-6.28-4.84-9.48-2.02-4.2-3.53-8.52-2.69-13.32.63-3.58.98-7.22,1.8-10.76,1.56-6.79,3.98-13.31,6.73-19.7,1.43-3.34,2.94-6.64,4.35-9.99,2.16-5.14,4.24-10.32,6.41-15.46.41-.97,1.09-1.83,1.89-3.14.17.8.31,1.04.25,1.23-.88,3.02-1.71,6.06-2.69,9.05-1.47,4.44-3.03,8.85-4.58,13.26-1.42,4.03-2.86,8.05-4.32,12.07-1.96,5.38-3.63,10.86-4.65,16.5-.4,2.22-.23,4.54-.67,6.74-.61,3.09-.24,6.09.46,9.04.91,3.85,2.07,7.64,3.13,11.45.13.46.2,1.02.51,1.35,1.5,1.58,2.91,3.29,4.63,4.6,5.03,3.8,10.13,7.5,15.31,11.1,3.25,2.26,6.61,4.39,10.07,6.31,4.33,2.39,8.2,5.37,12.1,8.36,2.09,1.61,4.31,3.12,6.67,4.29,2.23,1.1,4.69,1.77,7.08,2.51,6.32,1.95,12.67,3.82,18.99,5.75,3.09.94,6.22,1.78,9.22,2.97,8.44,3.36,16.99,6.26,25.99,7.71,8.17,1.31,16.38,2.05,24.65,1.47,7.9-.56,15.79-1.18,23.68-1.82,2.82-.23,5.65-.46,8.43-.96,9.71-1.75,19.38-3.72,29.1-5.39,5.36-.92,10.63-2.01,15.65-4.19,6.89-2.99,13.87-5.78,20.76-8.78,8.41-3.67,15.78-9.11,23.48-14.01,3.4-2.16,6.4-4.86,9.87-6.96,4.6-2.79,8.85-6.15,13.24-9.29,1.56-1.12,3.13-2.24,4.61-3.47,3.28-2.74,6.51-5.54,9.76-8.31,1.23-1.05,2.39-2.2,3.73-3.09,2.54-1.67,4.74-3.7,6.35-6.25,3.28-5.2,6.63-10.37,9.59-15.75,2.52-4.59,5.3-9.05,7.21-13.98,1.78-4.58,3.78-9.07,5.67-13.61.5-1.19,1-2.39,1.4-3.61,1.18-3.61,2.28-7.25,3.48-10.86,1.67-5.05,3.47-10.07,5.07-15.15.47-1.51.66-3.19.57-4.76-.16-2.88-.64-5.75-.94-8.63-.75-7.23-1.49-14.45-2.2-21.68-.06-.66-.34-1.48.87-2.02.39,1.29.76,2.53,1.14,3.77.16,0,.32,0,.49,0,.09-.83.19-1.66.26-2.49.34-4.16-.47-8.22-1.1-12.28-.25-1.58-.64-3.18-1.23-4.67-.95-2.4-2.15-4.71-3.19-7.08-2.06-4.65-4.42-9.18-5.41-14.24-.14-.7-.46-1.38-.78-2.03-2.67-5.38-4.71-10.99-6.28-16.79-.69-2.56-1.6-5.13-2.87-7.45-2.28-4.18-4.97-8.14-7.37-12.26-3.94-6.78-7.74-13.65-11.71-20.42-.88-1.5-2.01-3.03-3.4-4.01-2.37-1.65-5.06-2.82-7.56-4.29-.78-.46-1.4-.56-2.25-.26-3.04,1.09-6.12,2.09-9.17,3.17-4.04,1.43-8.11,2.74-11.81,4.99-2.28,1.39-4.59,2.74-6.95,3.96-3.95,2.04-8.04,3.82-11.94,5.97-3.95,2.18-7.72,4.7-11.59,7.03-5.26,3.18-10.5,6.41-15.83,9.46-5.47,3.14-11.06,6.07-16.58,9.13-2.11,1.17-4.12,2.54-6.26,3.63-5.68,2.9-11.43,5.68-17.13,8.54-5.34,2.68-10.65,5.41-16,8.09-2.31,1.16-4.72,2.12-6.98,3.36-3.89,2.13-7.67,4.49-11.57,6.61-6.82,3.72-13.71,7.3-20.53,11.01-6.39,3.48-12.74,7.04-19.08,10.6-1.89,1.06-3.67,2.33-5.56,3.4-4.37,2.46-8.81,4.77-13.15,7.27-6.31,3.63-12.54,7.39-18.82,11.07-1.53.89-3.11,1.71-4.7,2.49-4.26,2.11-8.56,4.13-12.8,6.29-3.97,2.02-7.94,4.05-11.78,6.28-6.09,3.54-11.95,7.45-17.09,12.33-.65.62-1.27,1.36-2.88,1.72.64-1.12.95-1.81,1.4-2.39,2.97-3.79,6.49-6.97,10.67-9.38,2.23-1.28,4.5-2.47,6.77-3.67,2.42-1.28,4.93-2.39,7.26-3.81,4.69-2.87,9.22-6.01,13.94-8.82,7.48-4.46,15.09-8.69,22.6-13.1,5.07-2.98,10.03-6.14,15.07-9.15,2.99-1.78,6.01-3.5,9.08-5.14,3.06-1.64,6.22-3.1,9.3-4.71,6.66-3.49,13.27-7.09,19.96-10.53,3.16-1.63,6.45-2.98,9.66-4.51,2.83-1.35,5.61-2.81,8.45-4.15,1.45-.69,3.05-1.1,4.45-1.87,5.02-2.78,9.97-5.68,14.96-8.5,1.47-.83,2.27-1.95,2.26-3.7,0-2.18.07-4.37.19-6.55.36-6.76-.55-13.45-1.8-20.03-1.19-6.26-3.1-12.39-4.95-18.5-2.58-8.54-6.2-16.66-10.5-24.47-2.76-5.02-5.33-10.16-8.78-14.77-2.18-2.91-4.29-5.87-6.59-8.68-1.17-1.42-2.7-2.54-4.08-3.8-1.32-1.2-3.16-2.16-3.83-3.64-.86-1.9-2.53-2.28-3.86-3.29-.06-.05-.11-.12-.17-.17-2.61-2.15-5.17-4.35-7.82-6.45-6.15-4.86-12.33-9.67-18.51-14.5-1.21-.94-2.4-1.9-3.67-2.76-3.39-2.31-6.71-4.78-10.27-6.81-3.64-2.07-7.52-3.76-11.34-5.5-4.03-1.84-8.05-3.74-12.19-5.28-4.38-1.63-8.87-2.99-13.38-4.24-4.2-1.16-8.52-1.9-12.73-3.06-5.36-1.47-10.85-1.83-16.33-2.15-4.35-.25-8.72.06-13.08.03-1.77,0-3.54-.23-5.34-.36-.37.65-.83,1.17-.99,1.77-1.08,4.06-2.24,8.11-3.1,12.21-.96,4.59-1.61,9.24-2.44,13.85-.1.55-.44,1.07-.67,1.6-1.28-.61-.9-1.48-.83-2.25.51-5.58,1.57-11.05,3.18-16.42,2.3-7.65,3.55-15.46,3.2-23.47-.39-8.87-3.22-16.93-8.3-24.21-1.33-1.9-2.73-3.73-4.86-5.33,0,.87-.05,1.41,0,1.95.26,2.57.71,5.14.78,7.72.09,3.23-.19,6.47-.17,9.7.04,7.31-.79,14.52-2.38,21.65-1.35,6.04-4.09,11.56-6.39,17.25-.1.25-.42.42-.74.71-.82-.84-.74-1.77-.54-2.58.65-2.74,1.37-5.47,2.14-8.18.62-2.22,1.34-4.41,2.06-6.74-2.85,0-5.36-.18-7.83.03-9.56.82-18.34,4.39-27.13,7.89-3.61,1.44-7.24,2.8-10.85,4.23-3.98,1.58-8.11,2.87-11.87,4.87-5.26,2.8-10.68,5.38-15.4,9.12-.63.5-1.33.92-1.99,1.39-3.23,2.29-6.59,4.42-9.64,6.93-3.68,3.03-7.08,6.4-10.64,9.58-3.56,3.18-7.11,6.34-10.15,10.06-2.9,3.55-6.23,6.77-8.88,10.49-1.79,2.52-3.84,4.71-5.94,6.9-.65.68-1.12,1.52-1.78,2.45,1.07.39,1.88.91,2.72.94,2.23.09,4.48.05,6.71-.09,1.44-.09,2.86-.52,4.3-.69,4.45-.52,8.83-.47,13.22.84,4.5,1.33,8.94,2.7,13.22,4.67,2.55,1.17,5.3,2,8.05,2.61,2.92.65,5.68-.26,8.42-1.55-.17-.61-.22-1.01-.4-1.36-2.67-5.35-6.06-10.02-11.2-13.41-4.93-3.25-8.9-7.51-11.02-13.19-.46-1.23-1.13-2.07-2.39-2.53-.59-.22-1.06-.79-1.98-1.51,1.07-.28,1.57-.49,2.08-.53,4.34-.37,8.52.81,12.74,1.48,1.66.26,3.29.85,4.85,1.48,3.36,1.34,6.15,3.5,8.67,6.09,2.58,2.65,5.25,5.24,8.01,7.71,4.45,3.98,9.09,7.77,12.56,12.71.09.12.26.18.47.32,2.52-.93,5.19-1.67,7.64-2.87,4.95-2.4,8.89-6.18,12.49-10.23,3.01-3.39,5.26-7.29,7.19-11.46,3.04-6.59,4.84-13.52,6.6-20.49.43-1.7,0-3.62,1.28-5.11-.59-1.65.19-3.17.43-4.74.07-.45-.12-.95-.22-1.42-.47-2.21-1-4.42-1.4-6.64-.15-.81-.02-1.67-.02-2.51.16-.05.31-.1.47-.15.43.63.9,1.24,1.28,1.9,1.95,3.43,4.57,6.27,7.78,8.53,3.62,2.56,7.32,5.01,11,7.49,1.6,1.08,3.26,2.08,4.85,3.2,3.76,2.64,7.54,5.25,11.21,8.01,3.96,2.98,7.36,6.55,10.33,10.52,2.17,2.91,4.6,5.69,6.35,8.85,1.91,3.44,3.19,7.23,4.7,10.88,1.59,3.83,1.03,7.68-.38,11.35-2.37,6.19-6.06,11.61-10.54,16.45-1.91,2.07-3.91,4.26-6.31,5.62-6.26,3.52-12.7,6.72-19.42,9.35-3.3,1.29-6.52,2.87-9.61,4.62-5.39,3.04-9.44,7.56-12.98,12.55-1.01,1.43-1.5,2.95-1.01,4.8.55,2.1.87,4.28,1.15,6.44.69,5.16,1.97,10.2,3.91,14.99,2.06,5.08,4.51,10.03,7.15,14.83,3.64,6.62,5.28,13.67,5.48,21.14.11,4.12-1.38,7.87-2.7,11.67-2.28,6.56-6.5,11.36-12.61,14.7-5.44,2.97-10.75,6.18-16.01,9.46-2.32,1.45-4.49,3.19-6.49,5.05-1.82,1.69-3.42,3.64-4.17,6.15-.45,1.5-1.15,2.92-1.83,4.62-.35-.56-.65-.85-.75-1.21-.82-2.83-1.08-5.73-.64-8.63,1.42-9.54,6.65-16.64,14.36-22.11,3.82-2.71,7.68-5.35,11.49-8.07.91-.65,1.78-1.43,2.46-2.31,4.16-5.38,5.2-11.43,3.29-17.87-1.73-5.84-4.53-11.21-8.26-16.07-1.96-2.56-4.16-4.9-6.37-7.24-5.27-5.59-10.3-11.41-17.19-15.2-2.12-1.16-4.02-2.01-6.35-.85-.94.46-1.97.73-2.94,1.15-3.92,1.69-7.81,3.48-11.76,5.1-5.76,2.36-11.56,4.61-17.35,6.9-1.13.45-2.28.83-3.4,1.3-3.27,1.37-6.52,2.78-9.79,4.16-2.68,1.13-5.38,2.2-8.05,3.37-1.25.55-2.55,1.09-3.61,1.92-2.94,2.29-5.77,4.72-8.63,7.1-1.3,1.08-2.66,2.12-3.86,3.31-1.14,1.15-2.14,2.45-3.14,3.74-1.73,2.24-3.58,4.41-5.07,6.79-3.16,5.05-5.77,10.4-8.26,15.81-2.12,4.59-3.39,9.4-3.59,14.47-.03.7-.23,1.39-.36,2.08-.37-.7-.52-1.4-.55-2.11-.25-4.62.03-9.24,1.61-13.58,1.68-4.63,3.84-9.08,5.81-13.6.42-.96.82-1.96,1.45-2.78,2.53-3.34,4.9-6.82,8.04-9.66,1.67-1.5,3.21-3.14,4.84-4.69,2.98-2.83,5.9-5.72,8.99-8.41,2.97-2.58,6.58-4.1,10.2-5.52,3.68-1.44,7.52-2.55,11.02-4.33,2.48-1.26,5.03-2.11,7.63-3,4.35-1.49,8.74-2.84,12.86-5.02,5.48-2.9,10.97-5.85,17.22-6.86,2.42-.39,4.84-.68,7.13.46,4.06,2.03,7.76,4.65,11.1,7.7,3.46,3.16,6.79,6.47,10.08,9.81,3.51,3.57,6.53,7.55,8.86,11.99,1.61,3.07,3.17,6.19,4.39,9.42,1.44,3.82,2.06,7.85,1.43,11.94-.39,2.57-1.28,5.02-2.65,7.25-1.53,2.5-3.73,4.45-6.05,6.05-4.58,3.16-9.13,6.34-13.42,9.88-3.57,2.95-7.08,5.94-9.08,10.28-1.08,2.35-2.07,4.71-2.01,7.43.63-.51,1.06-1.14,1.56-1.71,1.11-1.28,2.16-2.64,3.41-3.77,6.06-5.44,13.22-9.23,20.16-13.37,2.41-1.44,5.03-2.59,6.93-4.81,2.82-3.3,4.89-6.91,6-11.2,1.21-4.66,1.31-9.28.63-13.94-.94-6.41-3.61-12.22-6.61-17.87-3.53-6.65-6.7-13.41-8.4-20.82-1-4.36-1.63-8.73-1.29-13.18.22-2.92.92-5.8,2.73-8.2,1.39-1.85,2.84-3.71,4.5-5.31,4.1-3.94,8.66-7.27,13.89-9.59,2.42-1.07,4.81-2.21,7.22-3.31,4.18-1.9,8.32-3.89,12.55-5.68,7.77-3.29,13.62-8.57,17.15-16.28.69-1.51,1.22-3.2,1.34-4.83.28-3.88-.92-7.51-2.57-10.99-.25-.53-.61-1.02-.92-1.52-.4.63-.42,1.15-.48,1.67-.1.95.05,2.06-.39,2.83-1.15,2.02-2.52,3.93-3.89,5.82-.36.5-.98.88-1.57,1.1-.42.16-.98-.04-1.86-.1.97-1.6,2.41-1.92,3.41-2.77.52-.44,1.22-.93,1.37-1.51.46-1.86.75-3.77,1.02-5.67.64-4.45-1.35-7.62-5.78-9.22-.67,2.2-1.79,4.13-3.46,5.74-.45.43-.76,1.04-1.02,1.62-2.07,4.58-4.9,8.52-9.18,11.31-.4.26-.66.71-1.04,1.01-1.69,1.36-3.3,2.85-5.13,4-1.43.9-3.15,1.3-4.9.84-3.17-.85-5.14-3.02-6.14-6.01-1.51-4.54-1.69-9.24-1.07-13.94.93-7.06,2.57-13.97,4.83-20.73.18-.54.29-1.1.5-1.63.34-.89.09-1.53-.66-2.1-1.03-.78-2.14-1.52-2.98-2.48-3.23-3.73-6.43-7.49-8.73-11.9-.18-.35-.55-.59-1.1-1.16-.12,1.53-.18,2.65-.31,3.76-.14,1.2-.34,2.39-.51,3.59-.16,1.12.02,2.45-.54,3.31-.7,1.07-.32,2.13-.62,3.15-2.47,8.56-5.22,16.94-10.34,24.44-2.99,4.37-6.57,7.94-10.74,11.05-.84.62-1.65,1.31-2.56,1.81-1.46.81-2.95,1.6-4.5,2.19-1.4.53-2.92.79-4.57,1.21,2.66,3.75,5.19,7.33,7.84,11.08,1.63-2.58,1.9-6.15,5.87-7.48-1.13,3.69-3.23,6.63-2.85,10.24,1.45-1.71,2.66-3.58,4.05-5.3,1.41-1.74,2.63-3.79,5.41-4.43-.59,3.86-3.57,6.32-4.37,9.82,1.03-.48,1.84-1.22,2.77-1.74,1.02-.58,2.05-1.37,3.65-.72-1.73,2.79-5.08,4.06-6.47,7.47,2.14-.34,4.01-.81,5.89-.87,1.88-.07,3.91-.67,6.02.79-4.55,2.17-9.73,2.11-13.38,5.56,2.48,1.03,4.71,1.93,6.91,2.89.99.43,1.77,1.08,1.44,2.59-3.03-.63-5.97-1.24-8.92-1.86-.09.15-.18.3-.28.45.91.94,1.77,1.95,2.75,2.82,1.78,1.58,2.87,3.38,2.44,6.54-1.38-2.26-3.16-2.93-5.08-3.35-1.89-.41-3.75-1.1-5.89-.91,2.99,3.63,5.45,9.48,4.81,11.3-1.04-.05-1.16-1.02-1.56-1.64-1.07-1.71-2.03-3.5-3.11-5.2-.45-.71-1.09-1.29-2.04-2.39-.97,4.02-1.81,7.49-2.65,10.95-.7-.69-1.02-1.4-1.15-2.15-.71-4.16.42-8.05,2.08-11.76.46-1.03,1.81-1.76,2.89-2.4.55-.32,1.4-.14,2.04-.18.9-1.63.84-3.09.15-4.69-.61-1.4-.93-2.93-1.26-4.43-1.4-6.35-3.96-12.09-8.55-16.82-1.13-1.16-2.27-2.32-3.24-3.61-3.77-4.99-7.83-9.68-12.83-13.51-1.47-1.12-2.7-2.54-4.04-3.84-1.92-1.86-3.76-3.81-5.75-5.59-2.73-2.45-5.81-4.44-9.36-5.43-3.03-.85-6.14-1.41-9.23-2.06-.52-.11-1.08.03-1.83.07,1.33,2.92,2.95,5.4,5.2,7.39,2.42,2.14,4.91,4.22,7.46,6.22,3.72,2.92,6.98,6.25,9.58,10.19.97,1.47,1.76,3.08,2.58,4.65,2.33,4.43,4.7,8.84,5.91,13.77,1.56,6.38,3.79,12.52,7.31,18.12.25.39.36.88.47,1.34.27,1.09,2.61,3.12,3.63,3,1.81-.22,3.61-.51,5.41-.82.81-.14,1.45-.12,1.76,1.01-1.39,1.91-2.94,3.86-4.3,5.94-1.33,2.04-2.46,4.21-3.68,6.33-.99-1.98.05-3.57.39-5.24.33-1.65,2.14-2.76,1.94-4.94-5.76,2.64-9.31,7.59-13.85,11.34,1.14-5.2,5.76-7.83,8.8-11.83-3.95-.95-7.42,1.42-11.29.83.95-2.2,2.61-3.05,4.35-3.69,1.68-.62,3.43-1.06,5.52-1.69-3.4-.56-6.46-1.07-10.02-1.66,1.3-.51,2.2-1,3.16-1.2.98-.2,2.02-.11,3.61-.17-1.65-1.99-3.07-3.38-4.71-4.5-1.72-1.17-3.52-2.26-5.36-3.23-1.7-.9-3.91-.18-5.84-1.61,4.43-1.48,8.2-.28,12.3,1.7-2.16-7.22-3.39-14.22-7.33-20.24-1.27.62-2.46,1.28-3.7,1.81-4.3,1.81-8.36.86-12.42-.96-4.63-2.08-9.14-4.41-14.24-5.38-4.82-.92-9.56-1.61-14.39-.42-4.03.99-8.1.82-12.03-.1-4.4-1.03-8.6-2.77-12.42-5.3-5.97-3.95-12.51-6.4-19.57-7.49-.62-.1-1.27-.01-1.91-.01.93.78,1.85,1.3,2.83,1.6,5.6,1.73,10.74,4.38,15.44,7.87,1.76,1.31,3.26,3.02,5.12,4.15,2.44,1.48,4.37,3.56,6.54,5.32,3.67,2.98,7.47,5.69,11.6,7.91,3.51,1.89,7.48,2.45,11.34,3.27,3.47.74,6.87,1.55,10.04,3.37,3.73,2.14,6.61,5.18,9.67,8.04,1.7,1.59,3.44,3.22,3.66,5.82.04.5.59.95.84,1.45,1.22,2.46,2.62,4.85,3.54,7.42.73,2.02,1,4.24,1.19,6.4.11,1.25-.26,2.57-.57,3.82-.32,1.33-.52,2.86-1.32,3.86-.81,1.02-.9,2.18-1.44,3.21-2.57,4.88-6.22,8.91-10.45,12.34-6.29,5.12-13.31,9.21-20.32,13.21-6.29,3.59-11.27,8.41-15.13,14.38-4.4,6.8-8.17,13.95-10.34,21.83-.13.46-.37.89-.56,1.33.1-4.91,1.32-9.43,3.36-13.83,2.62-5.68,5.64-11.08,9.5-16,.75-.95,1.63-1.8,2.5-2.64,3.04-2.94,6.4-5.39,10.19-7.35,3.86-2,7.55-4.34,11.23-6.67,2.93-1.85,5.95-3.67,8.56-5.92,4.18-3.62,7.72-7.81,9.78-13.1,2-5.13,2.26-10.24.24-15.37-1.42-3.6-2.97-7.15-4.51-10.7-.24-.55-.66-1.08-1.12-1.47-2.31-1.9-4.62-3.82-7.04-5.58-1.36-.99-2.85-1.91-4.42-2.47-2.73-.97-5.53-1.89-8.37-2.4-6.81-1.22-13.12-3.43-18.44-8.03-1.82-1.57-3.75-3.01-5.81-4.66-2.08,3.42-4.38,6.54-5.5,10.32-1.24,4.17-2.4,8.37-3.7,12.52-.98,3.15-2.16,6.24-3.16,9.39-1.83,5.77-3.72,11.53-5.34,17.36-1.36,4.89-2.52,9.86-3.5,14.84-.78,3.96-1.19,7.99-1.71,12-.22,1.68-.39,3.37-.4,5.06-.03,3.77-.13,7.55.14,11.31.26,3.54,1.12,7.03,1.43,10.56.35,3.93.46,7.88.51,11.83.09,6.7-.13,13.42.92,20.07.51,3.26.48,6.61,1.88,9.74.62,1.37.85,2.94,1.07,4.45.71,4.75,2.23,9.27,3.91,13.73,1.8,4.76,4.02,9.35,6.64,13.73.78,1.31,1.52,2.65,2.28,3.97ZM186.49,98.04c-1.34,6.53-2.54,12.52-3.79,18.51-.85,4.06-1.18,8.18-.83,12.3.25,2.87.59,5.78,2.94,7.98,1.23,1.15,2.42,1.73,4.13,1.26,2.38-.65,4.57-1.54,6.23-3.46,1.53-1.76,3.01-3.58,4.65-5.23,3.22-3.24,5.5-7.16,8.01-10.91.36-.53.61-1.14.83-1.74.87-2.37.76-2.74-1.36-4.19-2.6-1.77-5.22-3.5-7.82-5.28-1.32-.9-2.63-1.84-3.91-2.8-1.55-1.16-3.04-2.39-4.61-3.52-1.29-.93-2.66-1.75-4.48-2.93Zm-14.32-22.29c-.11.07-.22.15-.34.22.08.29.12.6.25.88,2.97,6.41,7.24,11.8,12.92,16,3.7,2.74,7.58,5.23,11.33,7.91,4.33,3.09,8.67,6.18,12.88,9.44,3.77,2.92,7.46,5.96,10.41,9.75,1.01,1.3,1.88,2.7,2.82,4.06-.1-2.24-.45-4.41-1.63-6.24-1.96-3.06-4.1-6.01-6.21-8.96-.89-1.25-1.96-2.37-2.88-3.6-.39-.53-.43-1.56-.88-1.74-2.15-.87-3.7-2.49-5.35-3.97-3.39-3.05-7.27-5.33-11.11-7.73-6.22-3.88-12.84-7.16-18.23-12.27-1.33-1.26-2.67-2.49-4.01-3.74Z"/>
  <path class="cls-1" d="m44.75,318c.31.38.78.71.88,1.14.24.98-.36.75-.9.48,0,0,.08.1.08.1,0-.59.02-1.19.03-1.79,0,0-.09.06-.09.06Z"/>
  <path class="cls-1" d="m327.31,343.58c2.63-1.64,5.14-3.4,7.27-5.74,4.8-5.25,9.63-10.47,14.55-15.61,1.04-1.09,2.43-1.87,3.76-2.63,1.31-.75,2.74-.82,4.2-.17,1.21.54,2.01,1.33,2.16,2.68.04.32.13.65.08.97-.77,5.51-1.16,11.14-4.48,15.93-1.11,1.6-2.14,3.38-4.65,2.29-.29-.13-.85.35-1.68.73,1.51-3.03,4.27-4.99,4.79-8.29-1.31-.55-2.65-.83-3.61-1.59-.88-.7-1.36-1.91-2.11-3.03-2.63,2.56-5.33,5.07-7.88,7.71-3.01,3.11-6.17,5.97-10.29,7.53-.96.36-2.06.8-3,.64-1.14-.19-2,.04-2.99.49-1.52.7-3.1,1.31-5.29.77,1.67-1.35,3.1-2.45,4.45-3.63,3.47-3.02,6.71-6.29,9.11-10.24,1.62-2.68,3.23-5.42,4.39-8.32,1.54-3.85,2.04-8,1.77-12.14-.2-3.13-.55-6.3-1.28-9.35-1.55-6.52-4.48-12.28-10.08-16.35-2.59-1.88-5.57-2.65-8.69-2.57-4.22.11-8.36.87-12.25,2.62-.86.39-1.66.93-2.67,1.49,1.1,7.83,2.19,15.54,3.28,23.26-.05.03-.1.06-.15.09-.36-.86-.75-1.72-1.07-2.59-.48-1.28-.34-2.78-2.01-3.57-.58-.28-.69-1.73-.86-2.68-.55-2.93-1.03-5.88-1.57-8.97-1.21.43-1.4,1.15-1.24,2.25.94,6.65,2.02,13.26,4.43,19.57.05.13-.01.3-.04.73-1.68-1.85-2.1-4.05-2.72-6.11-.63-2.13-1.14-4.31-1.52-6.5-.37-2.18-.51-4.4-.79-6.97-1.58,2.14-2.16,4.11-1.52,6.36,1.12,3.88,2.26,7.75,3.39,11.63.09.3.15.61.28,1.13-1.41-.23-2.09-1.24-2.44-2.16-1.24-3.33-2.33-6.71-3.37-10.11-.23-.73-.08-1.61,0-2.41.17-1.51.42-3,.67-4.7.31.1.69.23,1.25.42.48-.89.99-1.87,1.54-2.83.6-1.05,1.15-2.16,1.9-3.09.62-.76,1.52-1.28,2.51-2.08-3.58.08-7.82,3.76-11.84,10.04-.15-.52-.26-.92-.41-1.47-1.82.62-2.3,2.43-3.25,3.7-2.92,3.9-4.44,8.48-5.04,13.22-.41,3.24,0,6.61.28,9.9.35,4.13,1.54,8.1,2.97,11.97.92,2.49,2.08,4.93,3.42,7.23,2.7,4.6,5.6,9.08,8.41,13.61.21.34.5.69.55,1.07.06.44.04,1.1-.22,1.31-.37.29-1.12.5-1.5.31-1.22-.61-2.56-1.2-3.44-2.18-1.67-1.84-3.18-3.86-4.54-5.95-2.16-3.32-4.22-6.7-6.16-10.15-.86-1.53-1.43-3.25-1.94-4.94-.79-2.63-1.5-5.29-2.07-7.97-.92-4.29-1.29-8.68-.89-13.02.53-5.68,2.2-11,5.68-15.76,2.62-3.58,5.51-6.75,9.11-9.27,3.42-2.4,6.66-5.12,10.77-6.39,2.53-.79,4.94-2.04,7.5-2.66,6.61-1.61,12.99-1.12,18.81,2.8.6.4,1.17.86,1.69,1.36,3.13,3,5.53,6.54,7.09,10.56,1.22,3.15,2.29,6.4,3.04,9.69,1.03,4.48.55,8.99-.26,13.5-.98,5.49-2.91,10.58-5.88,15.25-1.91,3-4.13,5.8-6.88,8.11-.3.25-.58.52-.86.79l.32.48Z"/>
  <path class="cls-1" d="m418.86,285.02c1.76,2.27,4.44,2.66,6.87,3.71-1.06,1.55-2.4,1.68-3.79,1.59-2.6-.17-4.86-1.21-6.8-2.89-1-.87-1.99-1.26-3.45-.47.42.32.69.59,1.01.76,1.68.93,3.38,1.82,5.06,2.75.28.15.54.37.74.62.91,1.13,1.56,2.55.95,3.81-.68,1.42-2.22.94-3.49.64-3.3-.8-5.82-2.64-7.54-5.6-.98-1.68-1.25-1.89-3.01-2.96-.32.98-.57,1.99-.98,2.93-.91,2.1-.34,3.99,1.82,4.92,1.45.63,3.07.87,4.59,1.37.63.21,1.54.52,1.68.99.17.53-.21,1.43-.63,1.92-1.27,1.48-2.98,1.89-4.86,1.45-6.37-1.49-9.05-5.6-8.34-11.91.69-6.18,4.02-10.96,9.51-13.78,3.35-1.72,7.09-2.71,11.01-1.72,2.23.56,4.67.29,6.87,1.54-.97-1.12-1.98-2.2-2.89-3.36-1.37-1.74-1.79-3.8-1.54-5.95.18-1.59.88-1.92,2.52-1.66.86.14,1.76.13,2.63.08,2.21-.13,4.33,0,6.39,1,2.22,1.09,3.79,3.85,3.56,6.44-.04.48.26,1.03.5,1.49,1.49,2.85-.21,4.36-2.37,4.93-1.85.48-3.71.34-5.2-1.16-.33-.33-.76-.57-1.44-.64.5.81,1.02,1.61,1.5,2.43,1.12,1.91.7,2.66-1.47,3.11-.76.16-1.43.75-2.11,1.13.33,1.23.58,2.14.96,3.58-2.81-1.65-5.26-3.36-8.26-1.1Z"/>
  <path class="cls-1" d="m473.12,313.2c-2.37.92-4.22-.23-5.85-1.55-1.43-1.15-2.62-2.63-3.78-4.07-.42-.52-.63-1.33-.65-2.02-.04-1.99,1.47-2.96,3.23-2.1.63.31,1.17.84,1.71,1.32,1.2,1.09,2.41,2.16,3.54,3.32,1.03,1.06,1.95,2.23,3,3.44,2.28-3.69,3.56-7.97,4.83-12.42-1.5-.09-2.84-.14-4.18-.25-4.12-.34-7.49-2.41-10.66-4.83-1.4-1.08-2.67-2.34-3.92-3.6-.62-.62-1.15-1.4-.38-2.69.57.23,1.24.37,1.77.74,1.85,1.28,3.69,2.59,5.47,3.97,3.34,2.58,7.13,4.02,11.24,4.8,1.2.23,1.89-.08,2.21-1.21.65-2.25,1.25-4.51,1.94-6.74.35-1.12.03-1.86-.94-2.45-1.8-1.08-3.55-2.23-5.36-3.27-1.35-.77-1.94-1.65-1.52-2.62.41-.94,1.67-1.44,2.95-.98,2.69.97,4.82,2.61,5.92,5.37.36.9.83,1.75,1.13,2.66.24.75.5,1.59.39,2.34-.35,2.46-.72,4.94-1.35,7.34-.91,3.43-2.09,6.79-3.11,10.19-1.75,5.87-4.82,11.09-7.85,16.33-1.66,2.86-3.52,5.61-5.29,8.4-.13.2-.25.43-.43.59-3.3,2.96-5.77,6.73-9.34,9.46-3.13,2.39-6.04,5.08-9.07,7.6-.92.76-1.93,1.42-2.89,2.13.07.15.14.29.21.44,1.68-.74,3.36-1.47,5.39-2.36-.35.62-.46,1.1-.75,1.31-1.77,1.25-3.51,2.6-5.43,3.59-.76.39-1.96-.05-2.98-.31-2.95,1.74-5.87,3.69-9.32,4.47-.12-.18-.24-.35-.35-.53.69-.6,1.31-1.31,2.07-1.79,5.22-3.27,9.73-7.47,14.56-11.25,4.43-3.46,7.92-7.84,11.53-12.12,3.78-4.47,6.98-9.26,9.39-14.61.88-1.96,2.15-3.75,3.24-5.61-.1-.15-.2-.3-.29-.44Z"/>
  <path class="cls-1" d="m454.94,220.04c1.9.79,3.78,1.62,5.71,2.33.58.21,1.28.1,1.92.11.95.01,1.91,0,3.48,0-.77.76-1.05,1.23-1.47,1.41-.95.43-1.94.82-2.95,1.05-3.31.76-4.13,1.74-4.28,5.58,3.82,1.57,8.19,1.75,12.16,3.65-1.13,1.7-2.77,1.77-4.18,1.72-3.14-.11-6.34-.25-9.4-.9-4.41-.94-8.86-2-13.03-3.66-2.61-1.04-5.09-3.05-6.3-5.78-.74-1.68-.67-3.71-1.02-5.95-1.02-.51-2.57-1.19-2.5-3.28,1.84-1.69,2.98.42,4.5.92,2.97-2.37,6.57-3.53,10.26-3.71,4.93-.23,9.84.5,14.59,2.01.38.12.82.31,1.03.61.4.56,1.03,1.34.88,1.81-.2.61-1.02,1.34-1.65,1.43-1.42.2-2.9.03-4.35.04-1.15,0-2.3.05-3.45.07.01.18.03.36.04.54Z"/>
  <path class="cls-1" d="m376.32,319.38c1.19,3.94,3.65,6.84,7.46,8.64-.37,1.26-1.29,1.19-2.17,1.04-2.91-.51-4.99-2.1-6.17-4.85-.69-1.62-.72-1.6-2.36-2.01-.86.94-.85,2.03-.39,3.12.95,2.22,1.98,4.42,2.97,6.63.55,1.22,1.07,2.45,1.85,4.22-1.15-.16-1.86-.04-2.25-.35-1-.78-2.06-1.61-2.74-2.66-1.35-2.08-2.45-4.32-3.64-6.46-2.72,4.44-3.45,5.13.32,9.47.55-.63,1.08-1.24,1.64-1.89,1.27,1.82,1.13,5.07-.19,6.31-.86.81-3.1.93-4.36.22-1.55-.87-2.58-2.21-3.19-3.84-1.85-4.97-2.42-10.11-.95-15.21.79-2.74,2.24-5.36,3.74-7.82,1.17-1.91,3.32-2.06,5.43-1.72,2.58.42,4.6,1.94,6.54,3.53,2.31,1.9,4.51,3.91,6.76,5.89.24.21.48.44.67.7.53.75,1.02,1.57.2,2.39-.71.7-1.53.44-2.2-.09-1.45-1.14-2.87-2.32-4.25-3.53-.77-.68-1.45-1.46-2.18-2.19-.18.15-.37.3-.55.46Z"/>
  <path class="cls-1" d="m489.13,271.08c.71-5.24,1.68-10.45,1.64-15.83-2.86-.46-5.49,1.5-8.71-.09,2.88-1.43,5.63-1.72,8.21-3.06.04-4.38-1.44-8.58-2.24-13.03-2.76.41-5.23.14-7.4-1.74,2.16.19,4.32.38,6.81.6-1.41-4.95-3.63-9.3-6.24-13.43-2.59-4.1-6.33-7.14-10.4-9.86,1.71-1.41,2.06-1.42,3.4-.61,6.54,3.96,11.29,9.49,14.8,16.27,2.59,5.02,4.38,10.28,5.35,15.77.54,3.07.53,6.31.3,9.44-.22,3.12-.9,6.22-1.62,9.27-.4,1.71-1.23,3.33-1.99,4.93-.29.61-.89,1.07-1.35,1.6-.19-.08-.38-.16-.57-.23Z"/>
  <path class="cls-1" d="m450.84,248.43c.15.37.22.59.33.79,1.21,2.11.84,3.01-1.51,3.61-1.02.26-2.04.49-3.07.68-1.81.34-3.61.72-5.43.92-2.57.28-4.58-.97-6.06-2.9-1.24-1.62-.8-4.02.74-5.52,1.89-1.84,4.33-2.6,6.79-2.94,2.69-.37,5.45-.27,8.19-.3,2.97-.04,5.95.03,8.93,0,1.85-.01,3.71-.19,5.56-.13.61.02,1.2.57,1.8.88-.29.53-.49,1.14-.87,1.59-1.36,1.61-3.39,1.84-5.25,2.21-2.37.47-4.79.64-7.2.91-.94.1-1.88.13-2.93.19Z"/>
  <path class="cls-1" d="m303.73,106.83c.29,2.46,2.65,3.76,2.53,6.71-1.3-1.24-2.39-2.15-3.33-3.2-4.64-5.19-9.51-10.16-15.14-14.24-4.24-3.07-8.81-5.71-13.31-8.42-2.7-1.62-5.48-3.13-8.33-4.47-3.94-1.86-7.97-3.51-11.96-5.27-1.22-.54-2.41-1.16-3.68-1.77.7-1.43,1.66-.99,2.41-.75,2.38.75,4.78,1.5,7.09,2.45,10.36,4.25,20.04,9.75,29.29,16.34,1.12-1,2.09-.48,3.15.28,4.62,3.33,8.86,7.06,12.52,11.42,3.9,4.64,7.69,9.37,11.52,14.07.34.42.59.93.68,1.56-2.65-1.99-4.47-4.77-6.71-7.14-2.32-2.45-4.49-5.04-6.73-7.56Z"/>
  <path class="cls-1" d="m396.72,312.04c.69.94,1.12,1.47,1.49,2.04.43.66.91,1.32,1.2,2.05.7,1.82.54,2.58-.57,3.48-.98.8-2.61.9-3.84.01-1.13-.81-2.23-1.53-3.81-1.55-.31,2.05,1.02,3.28,2.12,4.56-1.08,1.65-1.13,1.68-2.33.94-3.49-2.15-5.46-5.3-5.56-9.37-.05-2.4,1.03-4.63,2.74-6.3,1.95-1.91,4.06-4.02,7.12-3.47,2.26.41,4.51,1.2,6.59,2.19.87.41,1.5,1.69,1.88,2.71.63,1.69-1.39,3.72-3.26,3.41-.56-.09-1.1-.29-1.65-.4-.53-.1-1.06-.15-2.13-.29Z"/>
  <path class="cls-1" d="m492.22,323.74c-.33,2.36-1,4.66-2.02,6.82-.65,1.38-1.53,2.65-2.35,3.95-1.8,2.86-3.51,5.81-5.49,8.54-1.74,2.41-3.74,4.65-5.76,6.83-5.39,5.82-11.86,10.19-18.87,13.82-1.97,1.02-3.13,1.35-5.42,1.39,1.05-.96,1.82-1.75,2.68-2.41,3.53-2.69,7.34-4.98,10.62-8.03,4.44-4.13,8.7-8.41,12.34-13.27,3.15-4.19,6.27-8.41,9.38-12.63,1.1-1.48,2.11-3.03,3.21-4.51.26-.35.74-.53,1.11-.79.19.09.37.18.56.27Z"/>
  <path class="cls-1" d="m381.77,375.04c.51,1.5.02,2.27-.66,2.83-1.67,1.38-3.26,2.96-5.15,3.96-3.58,1.88-7.43,3.01-11.46,3.71-4.4.76-8.77,1.36-13.25,1.35-3.49-.01-6.92-.43-10.3-1.22-2.75-.64-5.49-1.35-8.17-2.2-1.57-.5-3.03-1.34-4.87-2.17,1.33-1.11,2.36-.66,3.3-.48,2.06.4,4.12.83,6.14,1.39,3.48.97,7.03.71,10.56.84,5.52.21,10.89-.88,16.27-1.94,3.81-.75,7.5-1.84,11.1-3.25,1.28-.5,2.49-1.15,3.74-1.71.85-.38,1.72-.7,2.74-1.12Z"/>
  <path class="cls-1" d="m342.36,255.05c-1.98,2.45-41.61,22.9-47.77,25.1-4.27,1.52-8.15,4.08-12.62,5.04-.09-.15-.19-.3-.28-.46.33-.39.6-.9,1.02-1.15,3.63-2.1,7.22-4.3,10.97-6.18,7.01-3.52,14.08-6.91,21.18-10.22,8.16-3.8,16.38-7.45,24.59-11.14.93-.42,1.94-.67,2.91-1Z"/>
  <path class="cls-1" d="m359.77,387.96c-1.23,1.63-2.56,2.39-3.96,2.93-6.39,2.45-12.9,4.21-19.86,3.87-3.74-.18-7.4-.49-10.95-1.82-2.03-.76-4.28-.96-6.29-1.77-2.15-.88-4.16-2.13-6.15-3.33-.61-.37-.98-1.14-1.65-1.95,1.74-.77,2.99-.33,4.29.05,3.49,1.04,6.95,2.19,10.5,2.97,3.23.71,6.55,1,9.83,1.45,4.51.62,9.04.57,13.52.01,2.95-.37,5.83-1.31,8.74-1.99.51-.12,1.03-.21,1.96-.41Z"/>
  <path class="cls-1" d="m54.5,316c.31.34.7.64.91,1.03,3.45,6.63,7.97,12.54,12.41,18.49,5.14,6.89,11.26,12.88,18.04,18.19,2.15,1.68,4.17,3.55,6.46,5.02,4.12,2.65,8.4,5.06,12.61,7.56.28.16.58.27.72.62-1.65.41-2.9-.33-4.13-.91-7.63-3.62-14.56-8.3-21.01-13.77-6.45-5.47-12.08-11.64-16.94-18.51-2.79-3.95-5.41-8.03-8.02-12.1-.73-1.14-1.24-2.45-1.72-3.73-.19-.51-.03-1.14-.03-1.72.24-.05.47-.11.71-.16Z"/>
  <path class="cls-1" d="m96.84,312.92c-2.48-3.23-4.25-6.88-5.54-10.68-1.4-4.11-2.4-8.37-3.29-12.63-1.18-5.62-1.66-11.33-1.51-17.08.12-4.6.04-9.26.75-13.78.84-5.33,2.41-10.55,3.77-15.79.25-.95,1-1.76,1.95-2.52.02.4.13.83.04,1.21-.69,2.83-1.43,5.64-2.14,8.46-1.38,5.44-1.72,11.03-2.07,16.59-.26,4.01-.35,8.07-.05,12.08.31,4.24,1.1,8.46,1.81,12.67,1.14,6.72,3.23,13.15,6.12,19.33.3.63.44,1.33.65,2-.16.05-.32.1-.48.14Z"/>
  <path class="cls-1" d="m429.45,395.68c-.53.78-.93,1.68-1.6,2.3-1.47,1.37-3.04,2.65-4.65,3.88-1.86,1.42-3.8,2.74-5.71,4.09-2.28,1.61-4.77,2.71-7.51,3.26-3.01.6-5.98,1.53-9.09,1.27-1.43-.12-2.84-.5-4.23-.85-.92-.23-1.27-.97-1.16-1.88.12-.97.83-1.3,1.7-1.43,3.59-.54,7.23-.86,10.74-1.71,2.79-.68,5.49-1.89,8.11-3.12,2.85-1.34,5.53-3.02,8.33-4.46,1.47-.75,3.06-1.29,4.59-1.93.16.19.32.38.48.57Z"/>
  <path class="cls-1" d="m215.54,316.95c-1.38-5.13,1.31-10.92,5.35-11-.15,1.29-.3,2.54-.45,3.8-.16,1.36-.33,2.73-.49,4.09-.15,1.24.31,1.97,1.63,2.22,1.48.28,2.92.72,4.84,1.21-2.4,2.29-4.81,2.07-7.37,1.59-.12.73-.23,1.33-.32,1.88.93.79,1.76,1.49,2.6,2.2-.86,1.75-2.35,2.24-3.71,2.37-2.47.23-5.02.26-7.38-.81-1.28-.58-2.4-1.41-2.47-3.01-.08-1.74,1.04-2.72,2.47-3.21,1.66-.57,3.41-.88,5.29-1.34Z"/>
  <path class="cls-1" d="m326.15,301.81c1.83-2.87,2.08-6.37,4.16-9.41.4.53.86.87.87,1.22.02.88-.06,1.79-.29,2.64-1.64,6.08-3.49,12.11-4.07,18.42-.49,5.3-1.03,10.59-1.55,15.89-.09.91.19,1.95-.94,2.74-1.05-1.63-1.24-3.41-1.15-5.11.26-5.24.72-10.47,1.1-15.7,0-.14-.11-.29-.26-.65-.53.78-.99,1.46-1.45,2.13l-.36-.06c0-.41-.09-.84.01-1.23,1.54-5.97,2.46-12.03,2.75-18.19.06-1.28.24-2.57.49-3.83.07-.36.56-.63.96-1.06,1.51,2.17.45,4.24.34,6.24-.11,1.99-.39,3.97-.59,5.95Z"/>
  <path class="cls-1" d="m497.78,275.25c.74-2.25,1.3-4.26,2.05-6.19,2.04-5.24,2.49-10.72,2.05-16.22-.18-2.26-1.26-4.49-2.11-6.65-.61-1.56-1.53-3-2.3-4.5-.14-.28-.32-.63-.28-.91.11-.67.15-1.69.56-1.9.59-.29,1.5-.09,2.22.11.41.11.78.59,1.04.98,2.11,3.16,4.11,6.34,4.79,10.2.72,4.12.61,8.11-.43,12.2-.99,3.9-2.38,7.52-4.84,10.71-.67.87-1.33,1.76-2.76,2.18Z"/>
  <path class="cls-1" d="m313.2,366.78c.49-2.4,1.17-4.81,2.99-6.66,1.29-1.32,2.76-2.48,4.19-3.67,1.11-.93,2.46-1.19,3.87-1.12,1.37.07,2.05,1.19,1.66,2.51-.41,1.4-.61,2.87-1.11,4.23-.53,1.43-1.23,2.81-1.98,4.14-.87,1.53-1.74,3.11-2.87,4.45-2.15,2.54-5.03,1.96-6.19-1.15-.3-.82-.36-1.73-.55-2.71Z"/>
  <path class="cls-1" d="m224.41,356.04c.29,1.02.64,2.03.85,3.07,1.61,8.19,4.1,16.12,7.24,23.84,2.72,6.7,6.41,12.85,11.04,18.42,1.2,1.45,2.25,3.01,3.37,4.52-.15.15-.29.3-.44.44-.85-.65-1.79-1.22-2.54-1.97-7.37-7.4-12.52-16.16-16.08-25.94-2.45-6.73-3.76-13.66-4.15-20.79-.03-.5.1-1.01.15-1.52.19-.03.37-.06.56-.08Z"/>
  <path class="cls-1" d="m292.75,369.37c-1.8-2.46-3.7-4.86-5.38-7.41-1.1-1.67-1.91-3.54-2.79-5.35-.39-.8-.8-1.76.26-2.35,1.11-.62,1.55.35,2.07,1.06,1.64,2.28,3.33,4.52,4.93,6.83,1.92,2.77,4.68,4.66,7.12,6.87,3.72,3.38,7.61,6.5,12.35,8.4.46.19.81.66,1.4,1.16-1.65.84-3.05.6-4.41.14-4.79-1.63-9.05-4.19-12.89-7.48-.85-.73-1.82-1.31-2.74-1.96l.08.08Z"/>
  <path class="cls-1" d="m75.48,303.91c-2.12-2.13-3.54-4.64-4.9-7.16-2.97-5.49-5.14-11.26-6.61-17.36-1.25-5.21-2.34-10.4-2.23-15.76.05-2.49.34-4.98.65-7.46.17-1.33.48-1.46,1.82-1.4-.09,2.79-.34,5.6-.25,8.38.2,6.09,1.58,11.97,3.16,17.84,1.92,7.12,4.51,13.96,7.81,20.54.29.57.51,1.18.73,1.78.04.11-.09.29-.19.6Z"/>
  <path class="cls-1" d="m67.39,324.53c1.17,1.51,2.35,3,3.49,4.53,3.07,4.11,6.83,7.54,10.67,10.9,6.56,5.74,13.79,10.45,21.53,14.4,3.51,1.79,7.16,3.34,10.72,5.04.99.47,1.92,1.09,2.74,2.03-.35,0-.73.1-1.04-.01-5.09-1.82-10.16-3.65-15.06-6.03-5-2.42-9.64-5.34-13.95-8.72-6.24-4.89-12.08-10.27-16.6-16.89-.91-1.33-1.78-2.68-2.61-4.06-.17-.28-.12-.7-.18-1.06l.3-.12Z"/>
  <path class="cls-1" d="m77.91,261.18c.06,4.96-.37,9.87.38,14.8.77,5.06,2.2,9.93,3.34,14.88,1.11,4.84,2.85,9.48,4.94,14-.14.08-.27.16-.41.25-.38-.23-.89-.37-1.13-.7-2.57-3.44-4.87-7.02-5.88-11.3-.66-2.82-1.64-5.57-2.22-8.4-.61-3-1.16-6.05-1.3-9.1-.15-3.29.14-6.61.39-9.9.12-1.64.5-3.28,1.89-4.54Z"/>
  <path class="cls-1" d="m308.46,135.94c-1.91-2.58-3.7-5-5.5-7.42-3.34-4.51-7.18-8.47-11.83-11.69-3.58-2.48-6.9-5.34-10.42-7.91-4.62-3.37-8.99-7.17-14.5-9.13-.24-.09-.4-.41-.65-.68.77-.99,1.52-.48,2.24-.23,3.46,1.19,6.74,2.81,9.68,4.94,5.75,4.15,11.55,8.28,17.01,12.8,6.03,5,10.64,11.23,13.75,18.49.09.2.11.43.21.83Z"/>
  <path class="cls-1" d="m462.59,187.3c-1.98,1.82-4.48,2.78-6.85,3.9-3.95,1.85-8.03,3.41-11.98,5.28-3.7,1.75-7.28,3.74-10.93,5.61-.71.37-1.46.72-2.23.91-.4.1-1.18-.05-1.26-.29-.16-.44-.15-1.24.14-1.5,1.12-1.03,2.27-2.11,3.6-2.8,4.31-2.22,8.6-4.51,13.08-6.33,4.7-1.91,9.6-3.33,14.42-4.94.58-.19,1.22-.22,1.83-.33.06.17.12.33.19.5Z"/>
  <path class="cls-1" d="m452.24,306.04c-.3-.11-1.06-.23-1.64-.61-2.12-1.43-4.39-2.72-5.21-5.47-.26-.88-1.03-1.62-1.58-2.42-.27-.4-.58-.78-.83-1.19-.6-.96-.78-1.97-.11-2.95.52-.76,2.45-1.19,3.37-.61,3.54,2.24,7.05,4.56,9.38,8.2.72,1.13.75,2.34.11,3.43-.65,1.1-1.76,1.63-3.49,1.61Z"/>
  <path class="cls-1" d="m301.96,153.17c-.58-1.21-1.25-2.38-1.72-3.63-2.26-5.97-5.48-11.38-10.02-15.85-2.75-2.71-5.91-5-8.99-7.35-2.37-1.81-4.91-3.41-7.33-5.15-.6-.43-1.7-.9-.99-1.81.29-.37,1.53-.34,2.16-.07,4.59,1.94,8.49,4.97,12.27,8.16,4,3.37,7.37,7.28,9.8,11.91,2.27,4.34,3.98,8.9,4.82,13.8Z"/>
  <path class="cls-1" d="m384.24,349.44c.15-2,.24-4,.48-5.98.18-1.54.75-1.83,2.3-1.64,1.92.24,3.08,1.45,3.71,3.09,1.1,2.91,1.57,5.96,1.34,9.07-.17,2.4-2.6,3.58-4.66,2.35-1.84-1.1-2.94-2.74-3.06-4.93-.04-.65,0-1.29,0-1.94-.04,0-.07,0-.11,0Z"/>
  <path class="cls-1" d="m399.15,201.94c1.08-.8,2.08-1.73,3.25-2.36,7.96-4.32,15.95-8.57,23.92-12.86,6.83-3.68,13.65-7.4,20.48-11.07,1.9-1.02,3.86-1.93,5.89-2.69-17.31,10.61-34.88,20.75-53.11,29.69-.14-.24-.29-.48-.43-.72Z"/>
  <path class="cls-1" d="m404.3,342.79c1.76,1.13,2.2,2.66,2.64,4.07,1.68,5.49,3.02,11.08,2.94,16.87-.03,1.83-.49,3.66-.79,5.49-.06.39-.18.85-.44,1.11-.42.43-.98.72-1.48,1.08-.34-.49-.69-.97-1.02-1.47-.04-.06-.02-.16-.02-.24.13-8.51-1.41-16.9-1.89-25.36-.02-.39.03-.78.06-1.54Z"/>
  <path class="cls-1" d="m125.37,320.65c-3.01-1.19-5.16-3.45-7.18-5.87-3.69-4.42-6.88-9.15-8.97-14.56-.96-2.47-2.03-4.91-2.93-7.41-.34-.94-.72-2.13.57-2.78.71-.36,1.32.48,1.96,2.02,1.34,3.2,2.73,6.38,4.23,9.51,1.08,2.25,2.44,4.37,3.54,6.62,1.55,3.16,3.72,5.85,6.06,8.44,1.07,1.19,2.11,2.41,3.17,3.61-.15.14-.29.27-.44.41Z"/>
  <path class="cls-1" d="m372.88,376.44c0-.39-.08-.79.01-1.16,1.25-4.72,1.16-9.6,1.67-14.41.43-4.09.96-8.18,1.49-12.26.06-.5.41-.96.95-1.38,0,1.23.01,2.46,0,3.68-.08,6.17.85,12.22,2.03,18.25.14.71.32,1.45.25,2.15-.05.46-.42,1.04-.81,1.27-.22.13-.92-.24-1.18-.56-.44-.54-.72-1.22-1.2-2.1-.61,2.54-.56,5.14-2.65,6.74-.18-.07-.37-.15-.55-.22Z"/>
  <path class="cls-1" d="m44.75,318s.09-.06.09-.06c-.41-.75-.97-1.45-1.2-2.24-1.53-5.26-3.04-10.53-4.44-15.82-.33-1.24-.57-2.65.76-3.83.07.67.08,1.35.21,2.01.27,1.34-.18,3.01,1.63,3.71.16.06.24.39.31.61,3.12,9.11,7.21,17.78,11.63,26.31.92,1.77,1.7,3.61,2.36,5.51-4.73-6.25-7.84-13.43-11.88-20.16.19.72.43,1.44.54,2.18.08.59,0,1.2,0,1.8Z"/>
  <path class="cls-1" d="m423.4,331.93c.08,2.17-1.02,3.14-3.15,2.79-1.96-.32-3.22-1.73-4.51-3.01-1.6-1.59-2.14-3.73-2.39-5.91-.22-1.99.6-2.7,2.53-2.16,1.67.47,3.33.84,4.82,1.99,1.76,1.37,2.57,2.96,2.55,5.1,0,.4.09.8.14,1.2Z"/>
  <path class="cls-1" d="m264.95,283.5c11.67-8.32,23.8-14.7,36.84-19.37-2.67,2.12-5.66,3.7-8.66,5.27-3.15,1.64-6.28,3.34-9.39,5.06-3.03,1.68-6.06,3.37-9.04,5.13-5.45,3.22-7.79,4.28-9.75,3.92Z"/>
  <path class="cls-1" d="m132.52,355.17c-7.81-.73-22.03-11.87-27.55-21.56.89.34,1.51.42,1.9.76,1.76,1.55,3.52,3.11,5.16,4.78,5.2,5.3,11.2,9.52,17.56,13.26,1.14.67,2.17,1.53,3.25,2.3l-.33.45Z"/>
  <path class="cls-1" d="m87.66,324.45c.43.37,1,.66,1.27,1.12,3.65,6.23,8,11.95,12.97,17.16,2.44,2.56,5.31,4.72,7.99,7.06,1.02.89,2.06,1.76,3.08,2.64-.09.15-.18.29-.26.44-.61-.26-1.28-.45-1.83-.81-4.37-2.79-8.52-5.89-12.17-9.57-3.75-3.78-7.21-7.84-9.88-12.49-.9-1.57-1.87-3.19-1.7-5.11.18-.15.36-.29.54-.44Z"/>
  <path class="cls-1" d="m173.5,380.77c-.66.27-1.19.66-1.74.69-2.14.12-4.3.27-6.44.16-6.47-.33-12.51-2.32-18.34-5.04-1.08-.51-2.16-1.06-2.76-2.5.49-.05.88-.22,1.17-.1,6.18,2.48,12.74,3.47,19.21,4.75,1.81.36,3.71.27,5.54.56,1.09.18,2.47-.09,3.35,1.49Z"/>
  <path class="cls-1" d="m469.93,272.41c.05,1.95-1.09,3.05-2.97,2.94-2.23-.14-4.2-1.03-5.91-2.46-.67-.57-1.36-1.17-1.85-1.89-.68-1-1.3-2.17-.64-3.37.66-1.19,1.85-1.78,3.23-1.75.71.02,1.45.15,2.11.41,2.47.99,4.27,2.79,5.67,5,.25.39.29.91.35,1.13Z"/>
  <path class="cls-1" d="m363.14,360.1c-.13,1-.2,2.05-.42,3.07-.38,1.78-1.64,2.73-3.47,2.76-1.39.02-2.45-1.03-2.79-2.83-.72-3.77.37-7.17,2.25-10.37.68-1.16,1.78-1.2,2.5-.05.67,1.07,1.17,2.3,1.48,3.52.31,1.24.3,2.56.44,3.89Z"/>
  <path class="cls-1" d="m156.11,391.49c-6.86,2.39-25.73-2.37-29-8.63.69-1.13,1.57-.5,2.33-.16,3.03,1.33,6.03,2.71,9.05,4.07,3.64,1.63,7.5,2.46,11.38,3.22,1.93.38,3.83.92,6.25,1.5Z"/>
  <path class="cls-1" d="m314.71,263.32c14.16-7.14,28.16-14.66,43.07-20.2.38-.14.86-.02,1.43.4-2.97,1.36-5.92,2.78-8.92,4.07-11.9,5.13-23.09,11.88-35.58,15.72Z"/>
  <path class="cls-1" d="m440.68,188.58c-.93.71-1.78,1.58-2.81,2.1-3.08,1.58-6.23,3-9.34,4.52-1.3.64-2.58,1.33-3.84,2.05-1.61.93-3.27,1.29-5.05.79-.6-2.01-.57-2.35.98-3.21,1.68-.94,3.43-1.82,5.24-2.48,3.86-1.41,7.77-2.69,11.68-3.96.89-.29,1.87-.33,2.8-.48.11.22.22.44.34.67Z"/>
  <path class="cls-1" d="m409.94,263.63c-.74.21-1.49.63-2.22.6-6.5-.21-12.13-3.8-14.31-9.78-.19-.51-.33-1.12-.23-1.63.31-1.55,1.76-1.95,2.86-.8.78.82,1.54,1.68,2.12,2.64,2.05,3.4,4.95,5.71,8.62,7.13,1.05.4,2.09.83,3.13,1.25.01.19.02.39.03.58Z"/>
  <path class="cls-1" d="m103.14,372.31c5.6,4.16,11.12,8.44,16.84,12.44,5.67,3.97,11.55,7.65,17.61,11.63-8.21-2.18-32.59-18.91-34.45-24.07Z"/>
  <path class="cls-1" d="m204.71,366.38c1.55,4.58,2.22,9.44,4.57,13.75-.54-5.91-1.29-11.75-.69-17.66,1.21,7.64,2.42,15.28,3.66,23.05-1.79-.23-1.33-2.04-2.26-2.98-.38.26-.78.54-1.18.81-2.27-2.16-4.75-12.1-4.1-16.98Z"/>
  <path class="cls-1" d="m267.81,414.28c-1.23-.86-2.56-1.6-3.66-2.61-4.55-4.18-8.55-8.84-11.67-14.19-.41-.69-.81-1.43-.98-2.21-.1-.45.16-1.35.43-1.43.52-.15,1.23.03,1.74.31.38.2.57.76.82,1.18,3.44,5.8,7.56,11.09,12.06,16.11.63.71,1.19,1.47,1.79,2.21-.17.21-.35.42-.52.63Z"/>
  <path class="cls-1" d="m451.55,281.51c-3.26-.63-6.17-1.2-7.78-4.29-.5-.96-.71-1.79-.14-2.69.61-.96,1.57-1.04,2.59-.87.24.04.49.08.7.18,2.81,1.42,5.65,2.79,8.41,4.3,1.13.62,1.08,1.66-.1,2.21-1.22.57-2.59.83-3.68,1.15Z"/>
  <path class="cls-1" d="m385.51,217.25c2.68-4.41,17.71-13.05,22.69-13.37.69.98.24,1.68-.62,2.18-1.68.97-3.36,1.93-5.08,2.81-4.51,2.32-9.04,4.6-13.57,6.88-.97.49-1.98.88-3.41,1.5Z"/>
  <path class="cls-1" d="m508.46,270.72c.7-2.3,1.28-4.3,1.92-6.28.74-2.3.74-4.59.12-6.91-.21-.78-.5-1.57-.52-2.36-.01-.57.21-1.42.61-1.65.52-.31,1.44-.37,1.99-.11,1.95.91,2.42,2.88,2.36,4.7-.16,4.28-1.44,8.23-4.4,11.48-.32.35-.71.66-1.1.94-.17.12-.43.09-.98.19Z"/>
  <path class="cls-1" d="m295.89,381.25c-3.68.6-6.64-1.29-9.4-3.26-4.7-3.37-7.97-7.59-8.03-10.13.82.31,1.56.48,2.18.85.69.41,1.33.94,1.9,1.51,3.79,3.8,8.21,6.78,12.62,9.77.38.26.86.39,1.29.58-.19.23-.37.46-.56.69Z"/>
  <path class="cls-1" d="m320.23,112.08c-9.29-11.48-20.6-20.59-33.13-28.28.07-.16.14-.32.2-.48.82.29,1.68.5,2.45.88,5,2.49,9.71,5.48,13.94,9.11,2.93,2.51,5.66,5.29,8.28,8.13,3.04,3.29,5.88,6.78,8.8,10.19-.18.15-.37.3-.55.44Z"/>
  <path class="cls-1" d="m135.16,96.97c-.31,5.13-.18,10.13.92,15.12.92-1.91.77-4.23,2.69-5.91-.21,1.9-.4,3.56-.56,5.23-.06.64-.18,1.3-.09,1.93.21,1.54.75,3.1-.97,4.21-.22.15-.16.74-.23,1.12-1.19.11-1.43-.74-1.71-1.48-2-5.34-2.49-10.86-1.9-16.49.15-1.39.52-2.8,1.86-3.72Z"/>
  <path class="cls-1" d="m74.2,353.41c-.52-.46-1.1-.86-1.55-1.37-6.16-7.06-11.64-14.62-16.37-22.71-.68-1.17-1.07-2.51-1.6-3.78-.34-.81-.41-1.56.66-2.25,1.92,3.43,3.76,6.88,5.76,10.23,2.02,3.39,4.11,6.75,6.35,10.01,2.24,3.25,4.69,6.34,7.05,9.5-.1.12-.21.25-.31.37Z"/>
  <path class="cls-1" d="m318.67,311.7c-2.66-6.54-2.75-13.44-2.39-20.37.07-1.4.01-3.09,1.55-4.17,1.1.83,1.06,1.94,1.03,3.06-.06,2.42-.23,4.85-.15,7.26.14,4.03.46,8.05.69,12.08.04.68,0,1.36,0,2.05-.24.03-.49.06-.73.09Z"/>
  <path class="cls-1" d="m343.09,241.85c2.03-2.92,16.29-9.36,21.13-9.2-1.49.95-2.91,2.04-4.48,2.83-4.46,2.24-8.96,4.38-13.48,6.49-1,.47-2.17,1.18-3.17-.12Z"/>
  <path class="cls-1" d="m350.16,157.49c-2.71-5.49-5.5-10.93-8.1-16.47-2.59-5.5-5.83-10.59-9.07-15.82.4.29.85.53,1.18.89,3.77,4.07,6.64,8.71,9.1,13.67,2.71,5.45,5.01,11.03,6.96,16.78.09.27.15.55.23.83-.1.04-.2.07-.3.11Z"/>
  <path class="cls-1" d="m345.8,297.55c.46.48,1.23.95,1.48,1.61.96,2.48,1.8,5.02,1.38,7.76-.33,2.16-1.41,3.94-2.93,5.44-1.08,1.07-1.69,1.1-3.24.45.54-.79,1.12-1.54,1.59-2.35,1.52-2.59,1.43-5.4,1-8.24-.12-.8-.31-1.59-.5-2.37-.23-.98-.07-1.76,1.21-2.29Z"/>
  <path class="cls-1" d="m498.38,248.62c2.23,4.83,1,19.43-1.97,23.77-.07-.67-.19-1.11-.16-1.55.46-7.09.93-14.17,1.43-21.26.02-.26.35-.49.7-.96Z"/>
  <path class="cls-1" d="m393.63,358.79c2.86.56,4.3,2.12,5.84,3.54.17.16.4.47.34.62-.67,1.71.75,3.24.4,4.9-.25,1.17-.44,2.38-.93,3.46-.23.51-1.09.74-1.66,1.1-.35-.58-.89-1.12-1.01-1.74-.19-.94-.18-1.94-.11-2.9.17-2.28-.58-4.29-1.66-6.23-.41-.73-.68-1.53-1.2-2.74Z"/>
  <path class="cls-1" d="m232.75,298.72c1.54-2.41,3.92-3.07,5.88-4.25,6.63-3.99,13.34-7.83,20.03-11.72,1.52-.88,3.06-1.73,4.98-2.81-5.99,5.36-26.44,17.81-30.89,18.77Z"/>
  <path class="cls-1" d="m480.39,247.64c-1.82-.29-3.74-1.14-4.82-3.07-.39-.69-.25-1.94.13-2.69.25-.51,1.42-.95,2.04-.8,1.71.4,3.4,1.01,4.98,1.77,1.04.5,1.46,2.04,1.17,2.96-.35,1.09-1.56,1.8-3.49,1.84Z"/>
  <path class="cls-1" d="m250.9,284.56c.94-.72,1.81-1.58,2.84-2.15,7.28-4.01,14.59-7.99,21.92-11.93,1.62-.87,3.36-1.52,5.08-2.19-9.31,6.53-19.69,11.17-29.47,16.87-.12-.2-.25-.4-.37-.61Z"/>
  <path class="cls-1" d="m422.8,204.47c-10.65,5.8-21.34,11.53-32.98,16.45,2.75-2.56,29.32-15.81,32.98-16.45Z"/>
  <path class="cls-1" d="m215.02,401.86c-1.29.22-2-.54-2.59-1.23-1.2-1.41-2.39-2.87-3.34-4.45-1.33-2.21-2.45-4.56-3.64-6.86-1.23-2.38-1.86-4.94-2.11-7.63,3.85,6.65,7.7,13.3,11.68,20.16Z"/>
  <path class="cls-1" d="m339.88,148.18c1.64,1.42,2.24,3.48,3.2,5.3,1.31,2.49,2.47,5.07,3.52,7.68,1.05,2.61,1.91,5.29,2.78,7.96.26.8.46,1.71-.51,2.81-.49-.95-.93-1.65-1.23-2.42-2.37-5.99-4.73-11.98-7.03-17.99-.41-1.08-1.24-2.13-.66-3.42l-.08.08Z"/>
  <path class="cls-1" d="m458.15,327.38c-1.13-1-2.27-1.98-3.37-3.01-2.28-2.11-4.81-3.79-7.79-4.75-.61-.2-1.27-.42-1.73-.83-.34-.3-.56-.94-.52-1.4.02-.23.76-.57,1.16-.55,2.49.08,4.83.89,6.75,2.37,2.15,1.66,4.3,3.44,5.4,6.08.24.57.37,1.18.56,1.77-.15.11-.3.21-.45.32Z"/>
  <path class="cls-1" d="m465.98,320.71c-1.1,2.14-1.66,2.54-3.41,2.31-1.11-.15-2.2-.48-3.3-.71-2.06-.44-2.71-2.17-3.33-3.81-.38-1.02.87-2.15,2.09-2.02.47.05.96.22,1.37.45,2.16,1.22,4.3,2.47,6.58,3.79Z"/>
  <path class="cls-1" d="m362.23,276.43c-.43-.58-.92-1.11-1.27-1.73-2.16-3.91-4.93-7.35-7.97-10.6-.58-.62-1.58-1.31-.75-2.22.83-.9,1.71-.31,2.49.42,3.4,3.18,6.05,6.88,7.66,11.26.31.85.3,1.81.44,2.73-.2.05-.4.09-.6.14Z"/>
  <path class="cls-1" d="m433.82,233.18c-1.47.17-2.57.51-3.62.39-2.92-.33-5.65-1.39-8.16-2.88-.86-.51-1.61-1.4-2.09-2.29-.26-.47.03-1.37.33-1.94.11-.21,1.13-.23,1.47.02,3.48,2.57,7.38,4.29,11.4,5.79.12.05.19.24.68.91Z"/>
  <path class="cls-1" d="m284.71,143.85c-.74-1.11-1.45-2.25-2.24-3.32-2.75-3.74-6.3-6.66-9.87-9.55-.75-.61-1.85-1.04-1.6-2.37,4.66.09,13.96,9.44,13.72,15.25Z"/>
  <path class="cls-1" d="m508.59,255.99c.16,1.05.49,1.97.39,2.84-.63,5.89-2.06,11.6-4.28,17.1-.21.52-.53,1-.83,1.48-.3.47-.63.92-1.27,1.26.34-1.24.67-2.48,1.02-3.72,1.51-5.37,2.75-10.79,3.21-16.37.08-.92-.02-2.03,1.77-2.58Z"/>
  <path class="cls-1" d="m418.93,307.85c.63.56,1.47,1,1.86,1.69,1.74,3.12,4.14,5.49,7.33,7.1.18.09.25.38.43.66-.53.79-1.28.81-2.11.75-2.37-.18-4.32-1.25-5.94-2.9-2.55-2.6-3.19-5.36-1.57-7.3Z"/>
  <path class="cls-1" d="m523.67,243.27c1.55-1.77,1.99-1.82,2.93.06.75,1.49,1.4,3.11,1.7,4.75.54,2.92.84,5.9,1.13,8.86.09.89-.2,1.82-.55,2.75-2.11-5.41-2.01-11.45-5.21-16.42Z"/>
  <path class="cls-1" d="m215.58,349.61c-1.96-1.84-2.38-4.02-2.78-6.07-.58-3-.84-6.07-1.09-9.12-.08-1.01.24-2.07.51-3.07.08-.29.65-.71.88-.65.39.11.87.5.98.87.17.6.1,1.27.08,1.92-.17,5.03.81,9.94,1.42,14.9.03.28,0,.58,0,1.23Z"/>
  <path class="cls-1" d="m83.79,191.67c2.38-3.17,8.81-6.32,11.61-5.77-.21.43-.4.81-.58,1.2-.22.47-.66.96-.61,1.4.18,1.63-.6,2.76-1.64,3.85-1.33,1.39-2.68,2.7-4.86,3.33.6-3.02,3.58-4.28,4.54-7.45-2.98,1.21-5.52,2.24-8.46,3.43Z"/>
  <path class="cls-1" d="m294.18,319.14c-3.05-2.54-3.27-6.16-3.68-9.56-.4-3.31-1.29-6.67-.33-10.04,2-.04,2.03-.04,1.97,1.72-.16,4.78.19,9.51,1.11,14.2.25,1.24.62,2.46.93,3.68Z"/>
  <path class="cls-1" d="m185.39,370.19c-3.09,2.29-6.63,3.16-10.48,3.11-1.69-.02-3.38-.04-4.64-1.93.58-.36,1.06-.88,1.59-.93,3.99-.42,8-.76,12-1.09.45-.04.92.14,1.38.22.05.2.1.41.15.61Z"/>
  <path class="cls-1" d="m238.52,382.93c.4.49.88.93,1.2,1.47.73,1.25,1.36,2.56,2.06,3.82,3.26,5.9,6.54,11.8,10.01,18.06-3.03-1.96-11.91-15.88-13.27-23.35Z"/>
  <path class="cls-1" d="m350.21,397.9c-.06,1.55-.92,2.08-1.82,2.39-3.1,1.07-6.17.83-9.16-.45-.71-.3-1.45-.76-1.3-1.8.15-1.04.92-1.19,1.76-1.28.24-.02.49-.1.72-.07,3.23.39,6.45.79,9.8,1.2Z"/>
  <path class="cls-1" d="m185.98,176.57c-.31-1.01-.6-1.96-.89-2.91,2.77-3.16,8.05-3.86,11.19-1.38-2.21,1.36-4.96.35-7.33,1.83,1.6.42,2.95.77,4.3,1.12l-.02.37c-2.39.32-4.78.64-7.24.97Z"/>
  <path class="cls-1" d="m440.53,308.74c-.79,1.38-1.79,1.13-2.86.88-2.58-.59-4.15-2.38-5.38-4.53-.55-.97-.7-2.08.3-2.87.95-.76,1.82-.19,2.59.48,2.07,1.79,3.85,3.83,5.35,6.04Z"/>
  <path class="cls-1" d="m468.78,337.12c-2.14,4.55-15.11,16.73-18.17,17.42-.28-.93.23-1.5.85-2.05,5.41-4.82,10.82-9.64,16.23-14.46.35-.32.73-.61,1.1-.91Z"/>
  <path class="cls-1" d="m410.53,396.41c-.31.42-.54.97-.95,1.23-3.44,2.17-7.15,2.86-11.12,1.8-.53-.14-1.1-.38-1.48-.75-.29-.28-.5-.9-.39-1.26.1-.33.65-.65,1.05-.74.45-.1.97.02,1.44.12,3.02.63,5.94.06,8.85-.64.75-.18,1.54-.22,2.31-.33.1.2.2.39.3.59Z"/>
  <path class="cls-1" d="m207.18,345.18c-2.25-2.63-2.73-5.79-2.57-8.98.11-2.34-.53-5.01,1.81-7.16.39.63.77,1.04.91,1.51.18.61.25,1.27.23,1.91-.11,4.24-.25,8.48-.38,12.72Z"/>
  <path class="cls-1" d="m128.9,73.07c-8.92,4.14-17.04,9.62-25.27,14.93,2.28-4.17,20.37-14.67,25.27-14.93Z"/>
  <path class="cls-1" d="m326.36,243.56c1.88-2.91,12.61-8.22,23.49-11.63.05.06.12.11.13.18.01.07-.02.18-.07.21-2.3,1.18-4.59,2.36-6.9,3.52-5.34,2.67-10.68,5.32-16.02,7.97-.11.06-.31-.03-.45-.08-.07-.02-.12-.11-.17-.16Z"/>
  <path class="cls-1" d="m454.08,333.51c-.82-.21-1.74-.25-2.45-.66-2.22-1.31-4.44-2.64-6.48-4.19-.89-.68-1.41-1.9-1.95-2.95-.16-.31.04-1.04.33-1.26.28-.22.89-.13,1.33-.04.29.06.54.34.78.55,2.64,2.24,5.29,4.48,7.9,6.74.38.33.62.83.92,1.26-.13.19-.25.37-.38.56Z"/>
  <path class="cls-1" d="m489.9,261.76c-1.41,2.48-1.71,2.74-3.86,2.07-1.59-.5-3.12-1.26-4.54-2.13-.6-.37-1.04-1.24-1.24-1.97-.28-1,.48-1.79,1.51-1.58,1.87.37,3.8.51,5.27,2.1.66.71,1.79.97,2.86,1.51Z"/>
  <path class="cls-1" d="m213.48,376.07c.84,3.93,1.87,7.84,2.44,11.82.22,1.55,1.1,2.64,1.54,3.99.48,1.46,1.15,2.85,1.71,4.28.49,1.25.96,2.52,1.51,3.97-1.45.14-1.79-.8-2.11-1.5-.96-2.13-1.95-4.28-2.66-6.5-1.59-4.93-2.89-9.94-2.73-15.19,0-.31.05-.62.08-.93.07.02.14.04.21.06Z"/>
  <path class="cls-1" d="m152.29,102.25c-3.61,4.22-4.68,9.22-5.09,14.36-1.43-.1-1.73-.77-1.75-1.5-.04-1.36-.06-2.73.08-4.09.27-2.65,1.61-4.9,3.01-7.07.93-1.45,1.78-1.76,3.75-1.7Z"/>
  <path class="cls-1" d="m440.04,339.18c-1.87-1.26-3.71-2.49-5.55-3.73.35-1.05,1.13-1.01,1.78-.72,1.24.55,2.64,1.03,3.57,1.95,1.71,1.67,3.59,3.26,4.57,5.79-1.71.71-.61,2.24-.89,3.45-2.49-.8-4.09-3.66-3.49-6.74Z"/>
  <path class="cls-1" d="m96.86,358.65c-3.44-.38-5.88-2.32-8.15-4.32-4.41-3.89-8.58-8.06-12.85-12.12-.11-.1-.14-.27-.29-.57.98-.14,1.46.55,1.96,1.05,5.39,5.38,11.19,10.24,17.51,14.5.64.43,1.21.97,1.82,1.46Z"/>
  <path class="cls-1" d="m354.79,363.81c0,1.41.23,2.87-.05,4.22-.61,2.9-1.42,5.77-2.28,8.61-.27.89-.9,1.7-1.5,2.43-.21.26-.98.39-1.23.21-.26-.18-.38-.87-.26-1.24.4-1.3,1.02-2.54,1.4-3.84.84-2.85,1.58-5.74,2.39-8.6.19-.66.51-1.28.77-1.92.25.04.51.08.76.12Z"/>
  <path class="cls-1" d="m173.3,103.82c1.24.98,1.27,2.14.9,3.21-.74,2.16-1.86,4.15-3.79,5.48-.54.37-1.33.58-1.98.53-1.24-.1-1.63-.9-1.19-2.06.09-.22.19-.46.34-.64,1.89-2.17,3.79-4.33,5.72-6.52Z"/>
  <path class="cls-1" d="m210.6,132.97c.76.85.2,1.42-.39,2.05-2.66,2.82-5.88,4.79-9.43,6.25-1.49.61-3.02,1.17-4.58,1.58-.76.2-1.62.04-2.44.04-.04-.2-.08-.4-.12-.6.77-.36,1.52-.76,2.3-1.08,4.28-1.72,8.56-3.43,12.24-6.33.81-.64,1.66-1.24,2.49-1.85l-.07-.05Z"/>
  <path class="cls-1" d="m477.18,268.82c2.8-1.31,5.44-1.15,8.06-.03.44.19.99.29,1.27.62.33.38.66,1.01.58,1.44-.09.43-.65,1-1.09,1.09-2.41.49-4.81.37-7.1-.61-1.01-.43-1.71-1.18-1.72-2.51Z"/>
  <path class="cls-1" d="m179.38,186.38c3.05,1.95,5.87,3.75,8.81,5.64q-1.45.51-4.85-.39c.98,2.58,3.35,4.06,4.38,6.45-2.95-1.84-5.4-4.24-7-7.25-.62-1.17-2.37-2.19-1.34-4.44Z"/>
  <path class="cls-1" d="m220.15,133.34c.22,1.66-.23,2.97-1.21,3.95-1.53,1.54-3.18,2.97-4.87,4.34-.99.81-2.23.94-3.45.52-1.08-.37-1.24-1.54-.35-2.26.13-.1.26-.22.41-.26,3.41-.93,5.81-3.34,8.32-5.59.28-.25.65-.4,1.14-.69Z"/>
  <path class="cls-1" d="m319,253.76c6.24-2.77,12.45-5.32,18.92-7.46-.92.64-1.79,1.4-2.78,1.91-3.79,1.95-7.61,3.84-11.43,5.73-.79.39-1.62.73-2.46,1.01-.8.27-1.6.33-2.25-1.18Z"/>
  <path class="cls-1" d="m126.41,76.7c7.1-5.51,15.35-8.41,23.99-10.39-8,3.46-15.99,6.93-23.99,10.39Z"/>
  <path class="cls-1" d="m168.75,121.34c3.05-5.98,6-11.75,8.95-17.53.09.02.17.03.26.05-.44,1.77-.66,3.63-1.36,5.29-1.53,3.65-3.24,7.22-5.01,10.76-.44.89-1,2.17-2.84,1.43Z"/>
  <path class="cls-1" d="m290.93,265.88c3.05-2.81,19.55-12.45,21.93-12.92-1.4,1.95-18.11,11.9-21.93,12.92Z"/>
  <path class="cls-1" d="m395.62,222.16c-8.05,4.36-15.56,8.56-23.71,11.4,1.18-1.74,20.07-10.6,23.71-11.4Z"/>
  <path class="cls-1" d="m389.02,362.18c0,1.52-.09,3.05.02,4.56.14,1.84.42,3.67.73,5.49.15.92.06,1.61-.9,1.95-.92.32-1.62-.05-2.01-.87-.31-.65-.54-1.36-.63-2.07-.35-2.7.16-5.32,1.06-7.86.19-.54.73-.95,1.12-1.42.2.07.4.14.61.21Z"/>
  <path class="cls-1" d="m475.74,294.01c-2.55-.19-4.46-.98-6.11-2.34-.79-.65-1.21-1.58-.7-2.59.52-1.05,1.56-.86,2.34-.53,2.06.89,4.08,1.88,6.04,2.97.72.4.77,1.28,0,1.81-.55.38-1.26.55-1.57.67Z"/>
  <path class="cls-1" d="m87.9,369.68c-6.84-5.22-13.23-10.4-18.01-17.26,1.44.45,16.3,14.82,18.01,17.26Z"/>
  <path class="cls-1" d="m62.59,307.74c.43.57.94,1.1,1.28,1.72,3.56,6.43,6.94,12.98,11.93,18.49.14.16.18.41.28.65-4.31-.52-11.45-14.15-13.42-20.92,0,0-.06.06-.06.06Z"/>
  <path class="cls-1" d="m338,349c1.39.39,1.4,1.28,1.29,2.06-.55,3.86-2.68,6.69-5.92,8.74-.86.55-1.67.52-2.39-.64,1.41-1.49,3.04-2.85,4.21-4.53,1.16-1.68,1.86-3.69,2.8-5.63Z"/>
  <path class="cls-1" d="m291.87,333.15c-3.5-5.12-5.34-10.87-6.88-16.74-.39-1.49-.31-1.51.67-3.55,1.6,3.43,1.62,7.02,2.87,10.23,1.28,3.29,2.24,6.7,3.34,10.06Z"/>
  <path class="cls-1" d="m294.24,92.55c-.86-.41-1.84-.67-2.56-1.26-2.09-1.71-4.71-2.58-6.6-4.7-1.08-1.21-3.06-1.59-4.6-2.41-2.5-1.32-4.98-2.68-7.46-4.05-.67-.37-1.29-.84-1.79-1.62.27.04.57.01.8.12,7.21,3.32,14.1,7.2,20.39,12.06.67.52,1.17,1.26,1.76,1.9l.06-.06Z"/>
  <path class="cls-1" d="m333.59,365.04c-.13.72-.15,1.49-.42,2.15-1.25,3.03-3.09,5.64-5.68,7.67-1.73,1.35-4.05,1.59-5.59.62-.24-.15-.4-.43-.78-.87.52-.11.81-.25,1.07-.22,3.12.33,5.16-1.44,6.93-3.61.9-1.11,1.62-2.37,2.41-3.57.51-.78,1.01-1.57,1.51-2.35.19.06.37.13.56.19Z"/>
  <path class="cls-1" d="m434.26,224.04c-1.45.94-2.74,1.04-3.97.65-1.44-.46-2.84-1.11-4.16-1.84-.57-.32-1.04-.99-1.32-1.6-.2-.44-.24-1.27.02-1.53.39-.37,1.11-.41,1.71-.51.2-.04.47.12.67.24,2.27,1.47,4.53,2.95,7.05,4.59Z"/>
  <path class="cls-1" d="m460.14,353.74c5.9-5.79,11.6-11.73,16.43-18.44-2.18,4.81-12.47,18.25-16.43,18.44Z"/>
  <path class="cls-1" d="m165.12,217.17c-2.43-4.59-4.45-9.35-5.28-14.56-.11-.7.13-1.45.24-2.52.62.49,1.01.64,1.08.88,1.51,5.32,2.98,10.65,4.46,15.97-.17.08-.33.15-.5.23Z"/>
  <path class="cls-1" d="m425.3,358c-2.05.25-3.28-.68-4.38-1.71-1.95-1.83-3.62-3.88-4.3-6.55-.12-.46-.28-.96-.22-1.41.04-.31.37-.73.66-.81.3-.09.73.1,1.05.28.17.1.24.4.34.63,1.41,3.39,3.46,6.33,6.23,8.75.17.15.27.36.63.83Z"/>
  <path class="cls-1" d="m358.84,230.23c.41-.43.75-1.04,1.25-1.28,5.01-2.35,10.05-4.64,15.35-6.57-.27.29-.49.66-.82.84-3.54,1.93-7.1,3.84-10.66,5.74-.77.41-1.54.85-2.35,1.18-.77.32-1.6.52-2.4.77-.13-.23-.25-.46-.38-.68Z"/>
  <path class="cls-1" d="m81.69,184.87c.81-2.03,2.68-2.35,4.28-2.87,1.81-.59,3.74-.94,5.67-.42.53.14,1.11.35,1.48.72.57.55.33,1.17-.26,1.63-.12.09-.3.12-.46.13-3.49.27-6.97.53-10.71.81Z"/>
  <path class="cls-1" d="m187.69,49.36c1.31,8.44-.7,21.15-4.2,22.37,1.1-3.74,2.44-7.28,3.14-10.94.69-3.62.72-7.36,1.07-11.42Z"/>
  <path class="cls-1" d="m422.42,233.67c2.8,2.39,5.08,5.43,8.79,6.53,0,.17-.02.33-.03.5-.64.17-1.29.54-1.9.47-2.04-.23-3.94-.87-5.47-2.35-1.95-1.89-2.41-3.3-1.39-5.14Z"/>
  <path class="cls-1" d="m192.25,179.71c-.98.32-1.7.63-2.45.78-1.97.41-3.95.76-5.92,1.13-.32.06-.63.15-.95.17-1.39.09-2.28-.36-2.3-1.2-.02-1.22.96-1.35,1.84-1.47,2-.27,3.99-.54,6-.72,1.29-.11,2.52.13,3.78,1.31Z"/>
  <path class="cls-1" d="m80.1,161.32c2.79-.28,4.85.85,6.78,2.05,1.48.92,2.75,2.2,4.09,3.36.29.25.59.63.66.99.1.5-.01,1.05-.03,1.57-.58-.09-1.16-.14-1.73-.28-.2-.05-.38-.29-.53-.48-2.23-2.85-5.19-4.75-8.32-6.45-.25-.14-.46-.37-.92-.77Z"/>
  <path class="cls-1" d="m198.27,351.36c-.72,5.79-1.44,11.59-2.19,17.38-.01.11-.4.18-.61.27-1.29-2.77.18-13.23,2.8-17.64Z"/>
  <path class="cls-1" d="m75.09,174.25c1.21-.74,2.42-1.47,3.61-2.22.64-.4,1.22-.89,1.86-1.3.32-.21.71-.48,1.05-.46,2.49.19,4.97.42,7.44.7.4.05.76.45,1.09,1.14-.56.07-1.17.32-1.68.19-3.34-.82-6.35.44-9.42,1.36-1.22.37-2.42.79-3.63,1.19l-.32-.62Z"/>
  <path class="cls-1" d="m367.16,249.76c1.23-1.37,2.27-.58,2.92.25,1.53,1.94,2.98,3.97,4.23,6.1.91,1.55,1.46,3.31,2.17,4.97-.2.11-.39.22-.59.33-1.35-1.98-2.63-4.02-4.06-5.94-1.43-1.91-3.03-3.71-4.67-5.71Z"/>
  <path class="cls-1" d="m330.3,318.66c.25-7.01,2.2-13.86,1.56-21.32,1.88.83,1.75,2.05,1.64,3.07-.35,3.36-.76,6.71-1.24,10.05-.4,2.76-.92,5.49-1.39,8.24-.19-.01-.37-.03-.56-.04Z"/>
  <path class="cls-1" d="m364.96,263.95c-.64-.19-1.17-.2-1.51-.47-1.22-.92-2.41-1.89-3.53-2.92-.95-.88-1.05-2.24-.26-3,.83-.8,1.78-.6,2.67-.08,2.25,1.32,3.12,3.34,2.64,6.46Z"/>
  <path class="cls-1" d="m311.99,309.33c-2.69-3.25-3.6-16.12-1.36-19.72,0,6.61,0,13.21,1.36,19.72Z"/>
  <path class="cls-1" d="m289.22,263.28c3.14-2.76,17.84-10.75,21.19-11.52-1.01,1.25-19.29,11.19-21.19,11.52Z"/>
  <path class="cls-1" d="m301.93,321.75c.12,2.2.17,4.41.37,6.61.19,2.12,1.42,4.1.88,6.34-1.02.59-1.51-.16-1.92-.83-1.49-2.44-1.35-9.44.67-12.11Z"/>
  <path class="cls-1" d="m331.19,375.93c1.73-1.37,3.45-2.42,4.77-3.85,1.29-1.4,2.16-3.17,3.24-4.81.92,1.93-.29,5.33-2.67,7.66-1.78,1.74-3.34,2.08-5.33,1Z"/>
  <path class="cls-1" d="m381.95,358.1c.22,1.21.48,2.41.66,3.63.35,2.39.65,4.79.97,7.19.03.24.06.48.09.72.08.8-.07,1.62-1,1.57-.44-.02-1.16-.75-1.2-1.21-.23-2.96-.36-5.93-.41-8.91-.02-.99.29-1.98.46-2.97.14,0,.29-.02.43-.03Z"/>
  <path class="cls-1" d="m143.63,210.46c.32,4.05.62,7.95.95,12.16-.52-.47-1.01-.74-1.26-1.15-1.78-2.88-2.12-6.02-1.52-9.3.17-.91.48-1.72,1.83-1.71Z"/>
  <path class="cls-1" d="m465.07,295.47c.96.71,1.96,1.36,2.86,2.13,1.82,1.54,3.85,2.65,6.16,3.25.46.12.99.22,1.32.52.31.28.61.85.53,1.21-.07.33-.65.75-1.01.76-.79.01-1.66-.04-2.35-.38-3.1-1.53-5.58-3.84-7.78-6.47-.12-.15-.07-.43-.11-.66.12-.12.25-.24.37-.36Z"/>
  <path class="cls-1" d="m128.03,106.08c.66,1.94,1.28,3.76,1.91,5.57.81,2.33,2.13,4.33,3.81,6.12.31.33.34.92.5,1.39-.59.09-1.48.47-1.71.23-1.07-1.16-2.22-2.36-2.85-3.77-1.33-2.95-2.15-6.07-1.66-9.54Z"/>
  <path class="cls-1" d="m356.46,299.48c1.44,3.39.98,6.23-.6,8.9-.32.54-1.31.93-2.01.95-.82.03-1.3-.69-.94-1.55,1.1-2.64,2.24-5.27,3.54-8.3Z"/>
  <path class="cls-1" d="m141.97,115.46c-1.85-.3-2.29-1.58-2.24-2.7.17-3.85,1.33-7.33,4.65-9.76-1.46,3.99-3.11,7.92-2.41,12.45Z"/>
  <path class="cls-1" d="m273.76,426.83c5.66,1.78,10.74,4.82,16.05,7.35-5.9-1.23-11.16-3.89-16.05-7.35Z"/>
  <path class="cls-1" d="m288.14,310.03c.34,1.1.65,1.71.71,2.35.81,8.33,1.39,10.65,4.63,18.13-3.05-2.33-6.91-14.94-5.35-20.47Z"/>
  <path class="cls-1" d="m481.08,227.32c-1.17.59-2.34,1.17-3.76,1.88,1.1.74,2.01.33,2.87.18.8-.14,1.56-.88,2.44-.17-1.47,2.52-5.07,2.81-9.52.88,3.31-2.21,6.27-3.46,7.77-3.27.06.17.13.33.19.5Z"/>
  <path class="cls-1" d="m283.84,323.62c2.51,5.56,4.83,10.71,7.16,15.86-.08.08-.15.16-.23.23-.39-.39-.9-.73-1.14-1.19-1.88-3.56-3.75-7.13-5.52-10.74-.55-1.11-.9-2.37-.27-4.16Z"/>
  <path class="cls-1" d="m370.8,368.42c.85,2.73.43,5.33-.28,7.88-.13.48-1.05,1.22-1.27,1.12-.57-.27-1.37-.95-1.35-1.44.13-2.79.62-5.52,2.89-7.56Z"/>
  <path class="cls-1" d="m525.56,307.48c.68-5.24,1.35-10.47,2.05-15.71.02-.15.36-.26.8-.55.73,2.94.12,5.65-.41,8.32-.53,2.7-1.27,5.36-1.92,8.03l-.52-.09Z"/>
  <path class="cls-1" d="m425.58,342.84c.61.94,1.15,1.44,1.31,2.05.97,3.87,2.63,7.38,5.07,10.69-.38-.15-.84-.21-1.12-.46-2.08-1.91-3.84-3.96-4.56-6.87-.39-1.58-1.64-2.96-.7-5.41Z"/>
  <path class="cls-1" d="m302.3,115.15c-1.02.39-1.45-.44-1.98-1-3.5-3.68-6.97-7.39-10.49-11.05-1.11-1.15-2.32-2.2-3.38-3.42,6.32,4.1,11.22,9.65,15.82,15.51l.03-.04Z"/>
  <path class="cls-1" d="m183.18,199.93c-1.55.24-2.28-.63-2.94-1.36-1.36-1.49-2.5-3.16-2.95-5.2-.23-1.04-.15-1.91,1.21-2.26,1.55,2.92,3.07,5.78,4.68,8.81Z"/>
  <path class="cls-1" d="m476.87,339.68c2.65-4.98,5.31-9.96,7.99-15,.73.21.53.95.36,1.52-.32,1.08-.65,2.2-1.21,3.16-2.11,3.6-4.13,7.28-7.14,10.31Z"/>
  <path class="cls-1" d="m292.67,369.29c.53.69,1.02,1.4,1.59,2.05.72.81,1.5,1.56,2.48,2.55-3.36-.12-8.73-4.66-9.26-7.87.93.61,1.61,1.06,2.29,1.49.99.63,1.99,1.24,2.98,1.86,0,0-.08-.08-.08-.08Z"/>
  <path class="cls-1" d="m81.77,177c2.21-.83,4.54-.88,6.87-.97.56-.02,1.16.12,1.68-.03,1.68-.48,2.59.27,3.27,1.89-2.07,1.09-3.96-.34-5.89-.28-1.97.06-3.95.01-5.92.01,0-.21,0-.42,0-.63Z"/>
  <path class="cls-1" d="m200.23,373.63c-2.3-5.29-1.24-10.77-.78-16.22.44,5.38.87,10.76,1.31,16.14-.18.03-.36.05-.53.08Z"/>
  <path class="cls-1" d="m401.38,266.69c-3.2-.21-4.71-2.58-6.67-4.3-.25-.22-.27-.97-.09-1.31.18-.33.78-.65,1.16-.61.51.04,1.15.31,1.46.69,1.43,1.8,2.77,3.68,4.14,5.53Z"/>
  <path class="cls-1" d="m242.48,409.35c-4.66-3.55-8.39-7.87-11.33-12.84.16-.13.32-.26.48-.4,3.62,4.41,7.23,8.82,10.85,13.23Z"/>
  <path class="cls-1" d="m139.79,221.42c-1.18-4.62-1.82-9.21.95-13.46l.65.08c-.38,2.21-.85,4.41-1.11,6.64-.27,2.24-.33,4.5-.48,6.75Z"/>
  <path class="cls-1" d="m312.7,287.22c.75,5.63,1.46,10.91,2.17,16.2-1.21-2.51-1.78-5.21-2.22-7.93q-1.04-6.4.06-8.27Z"/>
  <path class="cls-1" d="m294.25,376.49c-3.7-.61-8.82-4.72-9.63-7.83.51.12.96.13,1.3.33.47.29.87.72,1.28,1.1,2.29,2.08,4.59,4.17,7.05,6.41Z"/>
  <path class="cls-1" d="m424.44,350.62c-2.72-.6-4.13-2.53-5.31-4.65-.23-.41-.15-1.14.05-1.62.29-.73,1.14-.97,1.55-.34,1.37,2.1,2.99,4.08,3.71,6.61Z"/>
  <path class="cls-1" d="m210.67,133.03c-.66-.51-1.32-1.03-1.8-1.4,1.62-2.48,3.11-4.75,4.89-7.48.05,3.47-1.02,6.08-2.29,8.63-.08.17-.57.14-.87.2,0,0,.07.06.07.06Z"/>
  <path class="cls-1" d="m297.08,344.56c.78,3.24,1.56,6.49,2.34,9.75-.9.69-1.64.47-1.96-.45-1.03-2.98-1.62-6.01-1.02-9.15.21-.05.42-.1.63-.15Z"/>
  <path class="cls-1" d="m189,56.84c0-4.8,0-9.6.02-14.4,0-.16.32-.31.64-.6.27.45.69.83.7,1.21.09,4.65.01,9.29-1.35,13.79Z"/>
  <path class="cls-1" d="m82.51,144.98c3.59.31,6.66,1.77,9.44,3.86.41.31.58.95,1.07,1.79-.88-.05-1.33.06-1.61-.11-2.98-1.82-5.93-3.69-8.89-5.54Z"/>
  <path class="cls-1" d="m358.32,367.03c.1,4.73-2.27,10.91-4.61,11.97-.25-2.37,1.53-3.88,2.11-5.77.61-1.96,1.52-3.83,2.5-6.2Z"/>
  <path class="cls-1" d="m125.58,108.77c.85,3.79,2.92,6.97,5.36,10.16-1.64.58-2.27-.06-2.89-.85-1.85-2.36-2.75-5.37-2.47-9.31Z"/>
  <path class="cls-1" d="m437.47,343.48c-.64-1.45-2.23-2.19-1.93-3.94,1.89.69,2.96,2.14,4.78,6.31-1.08.71-3.83.32-4.33-.69-.13-.27-.02-.84.19-1.05.31-.31.82-.41,1.29-.63Z"/>
  <path class="cls-1" d="m296.68,362.25c3.64,2.63,6.19,5.84,9.33,8.45-1.26.25-1.86-.87-2.76-1.3-.94-.45-1.8-1.09-2.63-1.74-.89-.7-1.74-1.45-2.54-2.25-.7-.7-1.71-1.27-1.4-3.15Z"/>
  <path class="cls-1" d="m350.39,369.22c.56,2.07-.48,3.77-.96,5.59-.31,1.16-.77,2.31-1.32,3.38-.19.37-.87.76-1.25.7-.79-.12-.91-.8-.63-1.51.06-.15.11-.3.19-.45,1.32-2.57,2.65-5.14,3.98-7.71Z"/>
  <path class="cls-1" d="m143.98,395.86c5.34,1.76,10.68,3.53,16.03,5.29-5.18-.3-9.89-2.4-14.79-3.77-.54-.15-.98-.68-1.47-1.03.08-.16.15-.33.23-.49Z"/>
  <path class="cls-1" d="m135.92,205.67v11.07c-.91-.95-1.06-1.3-1.48-5.58-.19-1.91-.93-3.97.83-5.55.22.02.44.05.66.07Z"/>
  <path class="cls-1" d="m359.79,301.17c1.65,1.23,1.81,2.67,1.53,4.08-.55,2.79-2.44,4.75-4.71,6.45.15-.37.27-.76.47-1.1,1.36-2.31,2.65-4.62,2.15-7.49-.09-.51.31-1.11.57-1.95Z"/>
  <path class="cls-1" d="m318.34,125.86c2.06,2.87,4.15,5.72,6.15,8.63,1.25,1.82,2.35,3.75,3.13,5.88-.43-.55-.87-1.08-1.28-1.64-2.38-3.22-4.71-6.49-7.15-9.66-.79-1.03-1.29-1.98-.82-3.26l-.02.05Z"/>
  <path class="cls-1" d="m125.85,206.79c-1.38.92-2.79,1.8-4.14,2.77-.74.53-1.37,1.19-2.19,1.66.46-2.63,1.96-4.54,3.93-6.08.54-.42,1.39-.44,2.45-.75-.06,1.11-.1,1.8-.13,2.49,0,0,.08-.08.08-.08Z"/>
  <path class="cls-1" d="m435.22,350.9c-2.21,1.38-3.27.42-4.36-.39-1.17-.87-1.88-2.02-1.71-3.5.05-.47.45-1.12.84-1.27.3-.11.96.37,1.25.76.57.77.87,1.74,1.49,2.45.62.71,1.49,1.19,2.5,1.96Z"/>
  <path class="cls-1" d="m377.88,310.64c-.15,0-.41.05-.44,0-.89-1.71-1.77-3.43-2.62-5.16-.32-.65-.29-1.39.48-1.61.5-.14,1.27-.02,1.67.3,1.51,1.22,1.84,4.03.91,6.48Z"/>
  <path class="cls-1" d="m306.7,304.26c-1.22-3.51-1.84-13.27-.98-15.4.79,5.1.97,10.24.98,15.4Z"/>
  <path class="cls-1" d="m171.72,193.06c.79,3.86,1.55,7.59,2.35,11.52-3.33-4.62-4.28-9.39-2.35-11.52Z"/>
  <path class="cls-1" d="m109.9,159.4c2.7-.79,5.17-.26,7.57.76.37.16.8.31,1.04.59.28.33.62,1.06.5,1.19-.33.34-1,.74-1.35.61-2.61-.98-5.18-2.08-7.76-3.14Z"/>
  <path class="cls-1" d="m454.5,330.02c-2.47-.52-3.89-2.2-5.15-4.04-.19-.27-.03-.93.18-1.26.15-.23.8-.4,1.02-.26.95.57,2.02,1.12,2.66,1.96.71.93,1.81,1.9,1.28,3.61Z"/>
  <path class="cls-1" d="m467.59,320.03c-4.22-2.29-7.13-5.86-9.73-9.74,3.31,3.19,6.89,6.09,9.73,9.74Z"/>
  <path class="cls-1" d="m460.93,310.24c2.22,1.22,4.44,2.42,6.64,3.66.77.43,1.54.89,2.2,1.47.27.23.24.8.35,1.22-.44.07-.88.22-1.3.18-.28-.03-.55-.31-.8-.51-1.83-1.5-3.82-2.77-5.83-4-.62-.38-1.09-1.02-1.62-1.55.12-.16.24-.31.36-.47Z"/>
  <path class="cls-1" d="m322.39,299.94c-.81-4.4-.35-10.83.89-12.3.56,1.24,0,9.09-.89,12.3Z"/>
  <path class="cls-1" d="m157.51,205.86c1.41,2.6,2.55,5.08,2.89,7.93-1.9-1.33-3.1-3.14-3.72-5.32-.31-1.07-.25-1.09.83-2.61Z"/>
  <path class="cls-1" d="m101.22,201.91c-.94-.57-.94-1.25-.53-1.95,1.08-1.88,4.59-3.29,7.03-2.74-2.25,1.62-4.4,3.17-6.5,4.69Z"/>
  <path class="cls-1" d="m222.79,401.43c2.48,3.15,4.65,5.91,6.87,8.72-2.68-.55-6.94-5.65-6.87-8.72Z"/>
  <path class="cls-1" d="m304.83,342.81c-.42,3.93-.8,7.4-1.17,10.92-1.74-2.7-1.35-7.19,1.17-10.92Z"/>
  <path class="cls-1" d="m383.24,213.6c-3.64,3.31-8.47,6.04-11.15,6.43.99-1.29,7.92-5.36,11.15-6.43Z"/>
  <path class="cls-1" d="m435.53,298.6c-1.77-.31-2.98-1.45-3.83-2.95-.39-.69-.49-1.64.35-2.18.9-.56,1.62.05,2.03.75.75,1.28,1.35,2.65,2.01,3.98-.19.13-.37.26-.56.39Z"/>
  <path class="cls-1" d="m447.97,338.28c-2.64-2.53-5.04-4.83-7.54-7.23,1.97.14,3.67,1.11,5.75,3.49.82.94,2.1,1.77,1.79,3.74Z"/>
  <path class="cls-1" d="m223.11,395.65c-2.76-3.17-4.04-7.1-5.16-11.1,1.99,3.56,3.98,7.11,5.96,10.67-.27.14-.54.29-.8.43Z"/>
  <path class="cls-1" d="m474.28,329.88c-.16,4.47-2.5,8.05-5.47,11.34,1.82-3.78,3.65-7.56,5.47-11.34Z"/>
  <path class="cls-1" d="m358.98,379.31c.97-3.49,1.89-6.8,2.9-10.43,1.12,3.75-.43,9.35-2.9,10.43Z"/>
  <path class="cls-1" d="m469.53,223.38c2.52-1.23,4.74-2.31,7.07-3.45.03,3.33-2.96,4.78-7.07,3.45Z"/>
  <path class="cls-1" d="m126.3,119.9c-2.6-.63-3.88-4.07-3.63-9.56,1.17,3.07,2.37,6.25,3.63,9.56Z"/>
  <path class="cls-1" d="m415.43,312.75c-1.04.79-1.78.21-2.36-.44-.73-.8-1.4-1.68-1.9-2.62-.14-.26.34-1.1.73-1.31.33-.17,1.11.03,1.4.33,1.06,1.15,2.14,2.35,2.14,4.04Z"/>
  <path class="cls-1" d="m452.19,274.18c-.83-.31-1.72-.43-2.25-.93-.41-.38-.58-1.29-.47-1.89.14-.74.87-1.25,1.67-.89.77.34,1.53.82,2.12,1.41.32.32.49,1.11.31,1.49-.18.39-.87.53-1.38.81Z"/>
  <path class="cls-1" d="m519.16,320.19c1.09-4.26,2.17-8.51,3.27-12.76.02-.1.25-.14.74-.4-.84,4.75-2.04,9.11-3.56,13.39-.15-.07-.3-.15-.45-.22Z"/>
  <path class="cls-1" d="m431.76,290.63c1.77-1.74,4.14-1.72,5.32-.08.2.28-.05,1.31-.23,1.35-1.06.23-2.21.49-3.25.3-.68-.13-1.22-1.01-1.84-1.56Z"/>
  <path class="cls-1" d="m304.96,353.53c-1.01-3.42.28-6.49,1.84-9.53-.39,3.18-.78,6.36-1.17,9.54-.22,0-.45,0-.67-.01Z"/>
  <path class="cls-1" d="m49.33,313.29c-1.57-2.73-2.3-5.69-2.74-8.76,1.56,1.01,1.61,2.78,2.16,4.25.52,1.41,1.47,2.82.58,4.51Z"/>
  <path class="cls-1" d="m482.34,234.66c-4.04,1.56-7.95.98-9.86-1.3.67-.04,1.18-.18,1.63-.07,1.72.42,3.41,1,5.14,1.34.99.19,2.05.04,3.08.04Z"/>
  <path class="cls-1" d="m113.49,386.46c-3.83-2.37-7.65-4.73-11.48-7.1.1-.16.19-.32.29-.47,4.04,2.01,7.77,4.53,11.55,6.96-.12.2-.24.4-.37.61Z"/>
  <path class="cls-1" d="m144.44,135.43c-.11,1.8-.09,3.15-.32,4.47-.08.48-.68,1.17-1.12,1.23-.8.12-1.33-.55-1.35-1.36-.05-1.81.67-3.2,2.79-4.34Z"/>
  <path class="cls-1" d="m128.05,211.23c-.27-3.84.95-6.85,3.13-7.76,0,1.19-2.34,6.97-3.13,7.76Z"/>
  <path class="cls-1" d="m359.18,225.13c.13-.29.18-.71.4-.84,3.86-2.24,7.74-4.44,11.61-6.65.11.2.22.4.33.6-4.14,2.28-8.27,4.57-12.41,6.85l.06.04Z"/>
  <path class="cls-1" d="m325.11,398.95c.39-1.16,1.03-1.65,2.07-1.13,1.48.74,2.92,1.57,4.43,2.39-1.69.89-4.15.41-6.5-1.26Z"/>
  <path class="cls-1" d="m237.57,320.27c.9-2.37,2.37-3.04,5.47-2.7-.4,1.77-2.01,2.18-3.25,2.86-.53.29-1.4-.08-2.21-.15Z"/>
  <path class="cls-1" d="m234.91,409.37c-3.3-2.28-5.85-4.57-7.93-7.68,1.53.47,6.61,5.35,7.93,7.68Z"/>
  <path class="cls-1" d="m463.73,346.76c-1.04,2.36-2.81,3.91-4.91,5.06-.31.17-.86-.08-1.3-.14.13-.41.12-1.02.4-1.21,1.9-1.29,3.87-2.48,5.81-3.71Z"/>
  <path class="cls-1" d="m315.42,323.31c.13-2.76.26-5.51.4-8.38,1.64,2.46,1.64,6.59-.4,8.38Z"/>
  <path class="cls-1" d="m454.07,357.17c-3.43,1.7-6.8,3.81-10.9,3.28,3.63-1.09,7.27-2.19,10.9-3.28Z"/>
  <path class="cls-1" d="m268.22,286.53c-.19.33-.3.81-.58.96-3.27,1.73-6.57,3.41-9.87,5.08-.17.09-.42.01-.77-.35,3.76-1.88,7.51-3.77,11.27-5.65l-.05-.04Z"/>
  <path class="cls-1" d="m412.01,353.96c2.35,2.27,3.49,4.97,3.24,8.71-1.31-1.56-1.16-3.13-1.67-4.46-.54-1.41-1.05-2.83-1.57-4.25Z"/>
  <path class="cls-1" d="m466.37,300.08c2.51,1.72,5.03,3.44,7.54,5.16-.11.15-.21.3-.32.46-3.37-.44-5.25-3.09-7.23-5.61Z"/>
  <path class="cls-1" d="m181.77,184.34c3.02-.78,5.41.8,7.91,1.98-2.71-.38-5.43-.69-7.91-1.98Z"/>
  <path class="cls-1" d="m214.01,358.92c1.13,3.4,2.51,6.72,3.27,10.24-.2.06-.4.13-.6.19-1.06-3.4-2.11-6.79-3.17-10.19.17-.08.34-.16.5-.24Z"/>
  <path class="cls-1" d="m300.74,354.31c-1.07-2.65-.98-7.05-.12-8.56.28,2.87.76,5.73.12,8.56Z"/>
  <path class="cls-1" d="m308.31,358.02c-.29-.41-.78-.79-.74-1.1.28-2.04,1.44-3.68,2.6-5.45.33,1.95-.37,4.44-1.86,6.55Z"/>
  <path class="cls-1" d="m95.4,144.45c-2.06-.55-4.12-1.1-6.18-1.65,2.05-1.05,4.05-.96,6,.1.48.26.46.42.18,1.55Z"/>
  <path class="cls-1" d="m363.87,376.59c1-2.38,2.01-4.77,3.2-7.62-.21,3.25-.45,5.95-2.63,7.92-.19-.1-.39-.2-.58-.3Z"/>
  <path class="cls-1" d="m81.68,330.82c.53,0,1.3-.23,1.56.03,1.69,1.74,3.27,3.59,4.7,5.57-1.94-.79-3.2-2.3-4.44-3.84-.52-.65-1.2-1.17-1.81-1.75,0,0-.01,0-.01,0Z"/>
  <path class="cls-1" d="m482.62,250.74c1.09-.42,2.17-.9,3.29-1.24,1.09-.33,1.65-1.86,3.13-1.44-.86,2.37-2.74,3.23-6.41,2.68Z"/>
  <path class="cls-1" d="m419.6,393.83c-.72,1.78-2.4,2.06-4.03,2.34-.27.05-.81-.29-.87-.54-.07-.28.18-.86.43-.96,1.37-.54,2.79-.98,4.2-1.46.09.21.18.41.27.62Z"/>
  <path class="cls-1" d="m253.47,417.78c3.01,1.96,6.03,3.92,9.04,5.88-3.68-.97-6.5-3.27-9.38-5.48l.33-.39Z"/>
  <path class="cls-1" d="m124.5,392.65c-3.21-1.85-6.43-3.69-9.64-5.54.09-.15.17-.31.26-.46,3.37,1.59,6.37,3.84,9.68,5.53-.1.15-.19.31-.29.46Z"/>
  <path class="cls-1" d="m452.39,261.17c-1.42.19-2.5-.64-3.53-1.45-.27-.21-.24-.81-.34-1.24.49-.12,1.17-.5,1.45-.3,1,.69,1.87,1.58,2.79,2.39-.12.2-.25.4-.37.6Z"/>
  <path class="cls-1" d="m132.76,205.87c.54,1.64-.03,5.74-1.02,7.94-.34-2.89-.41-5.26,1.02-7.94Z"/>
  <path class="cls-1" d="m444.76,263.45c-1.99-.26-3.23-.87-3.87-2.29-.18-.41.09-1.02.15-1.54.49.14,1.17.12,1.43.44.78.94,1.39,2.02,2.29,3.4Z"/>
  <path class="cls-1" d="m365.19,394.8c-.86,1.97-1.95,2.51-3.35,2.31-.42-.06-.76-.68-1.14-1.04.33-.29.63-.76,1.01-.84.99-.22,2.01-.27,3.48-.43Z"/>
  <path class="cls-1" d="m364.49,254.87c.5-.22,1.04-.68,1.51-.62,1.06.15,1.99,1.58,2.17,3.33-1.33-.71-2.47-1.31-3.6-1.92-.02-.26-.05-.53-.07-.79Z"/>
  <path class="cls-1" d="m450.42,339.39c-1-1.73-2.01-3.46-3.23-5.57,2,.16,2.01,1.55,2.54,2.36.59.89.96,1.93,1.42,2.9-.24.1-.49.21-.73.31Z"/>
  <path class="cls-1" d="m427.63,298.97c-1.49-.17-2.78-1.18-2.73-2.18.02-.41.36-.91.71-1.14.2-.14.81.04,1.05.27.88.82,1.13,1.86.97,3.05Z"/>
  <path class="cls-1" d="m170.92,98.79c-.03,2.58-.47,4.02-1.9,6.24-.3-1.47.49-4.04,1.9-6.24Z"/>
  <path class="cls-1" d="m323.34,120.47c.35.16.81.22,1.04.49,1.51,1.76,2.98,3.57,4.61,5.54-1.9-.82-3.74-2.87-5.6-6.09l-.06.06Z"/>
  <path class="cls-1" d="m87.83,139.11c-1.74,1.58-3.6.44-5.46,0h5.46Z"/>
  <path class="cls-1" d="m311.43,326.22c-.82-1.83.03-3.49.24-5.22.85,1.79.95,3.54-.24,5.22Z"/>
  <path class="cls-1" d="m223.33,384.33c-1.9-1.88-2.73-4.26-3.32-6.75.17-.07.33-.15.5-.22.92,2.34,1.85,4.69,2.77,7.03,0,0,.05-.06.05-.06Z"/>
  <path class="cls-1" d="m401.19,362.4c-1.25-1.5-.76-3.38-1.12-5.07.17-.04.33-.08.5-.12.44,1.67.88,3.34,1.32,5.01-.23.06-.47.12-.7.18Z"/>
  <path class="cls-1" d="m197.94,378.95c.55,2.49,1.1,4.99,1.65,7.48-1.55-2.26-1.5-4.89-1.65-7.48Z"/>
  <path class="cls-1" d="m393.12,365.48c.35,1.58.61,2.97-.46,4.35-1.02-1.73-.93-2.68.46-4.35Z"/>
  <path class="cls-1" d="m174.17,194.13c.75,1.99,1.5,3.98,2.25,5.98-1.77-1.64-2.71-3.6-2.25-5.98Z"/>
  <path class="cls-1" d="m315.31,355.38c-.83,1.4-1.65,2.8-2.54,4.31-.97-1.3-.54-2.08,2.54-4.31Z"/>
  <path class="cls-1" d="m45.24,297.6c.48,1.8.95,3.6,1.43,5.39-.18.05-.36.1-.55.15-1.21-1.57-.82-3.62-1.44-5.36.19-.06.37-.12.56-.18Z"/>
  <path class="cls-1" d="m223.28,384.39c1.27,2.2,2.54,4.41,4.03,6.98-1.88-1.37-3.39-4.2-3.98-7.03,0,0-.05.05-.05.05Z"/>
  <path class="cls-1" d="m356.55,240.11c1.01-1.22,2.31-1.51,3.95-1.63-1.8,2.15-2.64,2.49-3.95,1.63Z"/>
  <path class="cls-1" d="m442.41,336.33c1.84.71,3.27,1.78,3.55,3.91l-3.55-3.91Z"/>
  <path class="cls-1" d="m516.96,332.5c-.75,1.78-1.49,3.56-2.24,5.34-.19-.08-.37-.15-.56-.23l2.1-5.42c.23.1.46.2.7.3Z"/>
  <path class="cls-1" d="m202.96,350.4c.24,2.29.48,4.58.74,7.01-.89-1.51-1.09-2.88-.74-7.01Z"/>
  <path class="cls-1" d="m335.2,313.37c-.03-.21-.1-.42-.08-.63.15-1.89.32-3.78.48-5.68.16.01.32.03.48.04-.18,2.09-.36,4.18-.54,6.27-.11,0-.22,0-.34-.01Z"/>
  <path class="cls-1" d="m318.37,125.81c-.64.57-1.26.69-1.84-.08-.72-.96-1.44-1.91-1.88-3.17,1.23,1.11,2.45,2.22,3.69,3.32.01-.01.03-.06.03-.06Z"/>
  <path class="cls-1" d="m478.46,223.91c-.76,1.57-2.26,2.06-4.02,2.19,1.2-.9,2.4-1.8,3.6-2.7.14.17.28.34.41.51Z"/>
  <path class="cls-1" d="m341.77,372.68c-.17,1.33-.34,2.66-.53,4.14-1.04-1.52-.97-2.28.53-4.14Z"/>
  <path class="cls-1" d="m298.43,95.43c1.09.88,2.18,1.76,3.26,2.64-.11.13-.21.26-.32.4-1.06-.91-2.13-1.81-3.19-2.72.08-.1.17-.21.25-.31Z"/>
  <path class="cls-1" d="m156.43,200.3c-.26-1.01-.51-2.02-.77-3.04.2-.05.4-.1.6-.15.24,1.02.48,2.03.72,3.05-.18.05-.37.09-.55.14Z"/>
  <path class="cls-1" d="m105.25,202.25c.77-.51,1.55-1.02,2.32-1.53.1.15.2.3.31.45-.49.92-1.57.99-2.35,1.49-.09-.14-.19-.28-.28-.41Z"/>
  <path class="cls-1" d="m450.47,263.73c.57.28,1.14.56,1.81.89q-1.24,1.01-1.81-.89Z"/>
  <path class="cls-1" d="m141.31,75.42c-.74,1.23-2.06,1.28-3.16,1.79-.07-.16-.14-.31-.21-.47,1.14-.42,2.29-.84,3.43-1.27l-.06-.06Z"/>
  <path class="cls-1" d="m112.02,88.72c-.82.57-1.63,1.13-2.45,1.7l-.32-.51c.86-.49,1.71-.98,2.57-1.47.07.09.14.19.2.28Z"/>
  <path class="cls-1" d="m94.76,146.86c.49.5.97,1.01,1.46,1.51-1.14.23-1.65-.26-1.92-1.05.15-.15.31-.31.46-.46Z"/>
  <path class="cls-1" d="m94.94,93.19l-1.33,1.48-.33-.26c.42-.53.84-1.05,1.26-1.58.13.12.27.24.4.36Z"/>
  <path class="cls-1" d="m359.13,225.09c-.8.54-1.6,1.08-2.4,1.63.41-1.25,1.23-1.79,2.45-1.59,0,0-.05-.03-.05-.03Z"/>
  <path class="cls-1" d="m294.18,92.61c.8.4,1.59.8,2.39,1.2-.1.17-.2.33-.3.5-.86-.33-1.72-.67-2.04-1.75,0,0-.06.06-.06.06Z"/>
  <path class="cls-1" d="m81.69,330.82c-.28-.92-.57-1.84-.85-2.76.85.75,2.14,1.37.84,2.76,0,0,.01,0,.01,0Z"/>
  <path class="cls-1" d="m331.28,129.43c-.64-.44-1.27-.88-1.91-1.32.15-.16.31-.32.46-.49.46.62.93,1.24,1.39,1.86l.05-.06Z"/>
  <path class="cls-1" d="m521.62,237.02c.22.55.43,1.1.65,1.65-.06.02-.11.04-.17.06-.27-.52-.54-1.05-.81-1.57.11-.05.22-.09.33-.14Z"/>
  <path class="cls-1" d="m323.4,120.41c-.68-.62-1.37-1.24-2.05-1.85q1.36.3,2,1.91s.05-.06.05-.06Z"/>
  <path class="cls-1" d="m339.96,148.1c-1.39-.12-1.33-.97-.97-1.96l-.07.07c.32.65.64,1.31.96,1.97,0,0,.07-.08.07-.08Z"/>
  <path class="cls-1" d="m338.98,146.14c-1.05-.11-1.16-.87-.89-1.85.27.64.55,1.28.82,1.92,0,0,.07-.07.07-.07Z"/>
  <path class="cls-1" d="m286.16,265.46c.49-.5.97-1,1.46-1.5.1.13.2.25.29.38-.6.36-1.21.71-1.81,1.07l.06.05Z"/>
  <path class="cls-1" d="m120.47,81.8c.38-.19.76-.38,1.14-.56.06.08.12.15.18.23-.33.27-.66.53-.99.8-.11-.16-.22-.31-.32-.47Z"/>
  <path class="cls-1" d="m268.27,286.56c.59-.37,1.19-.74,1.78-1.11-.3.94-.91,1.29-1.83,1.08,0,0,.05.03.05.03Z"/>
  <path class="cls-1" d="m141.37,75.48l1.61-.93c.06.16.12.32.18.49-.61.13-1.22.27-1.84.39,0,0,.05.05.05.05Z"/>
  <path class="cls-1" d="m332.99,350.24c.35-.26.71-.52,1.06-.78l.26.18c-.12.2-.22.43-.38.59-.17.17-.42.26-.63.38-.1-.13-.2-.26-.31-.38Z"/>
  <path class="cls-1" d="m60.68,319.39c.15.44.3.87.45,1.31-.11.04-.22.08-.33.12l-.54-1.18c.14-.08.28-.17.42-.25Z"/>
  <path class="cls-1" d="m125.85,206.79s-.08.08-.08.08c.29-.23.57-.45.86-.68-.11.62-.13,1.38-1.02.96-.02,0,0-.16.04-.22.04-.06.13-.09.2-.13Z"/>
  <path class="cls-1" d="m297.35,316.29c.08.44.16.88.24,1.32-.07.01-.14.03-.2.04-.1-.44-.2-.87-.29-1.31.09-.02.17-.04.26-.05Z"/>
  <path class="cls-1" d="m302.27,115.19c.21.59.43,1.17.68,1.85-1.13-.38-.91-1.12-.66-1.88,0-.01-.02.03-.02.03Z"/>
  <path class="cls-1" d="m286.1,265.41c-.49.31-.98.62-1.47.92-.07-.15-.14-.31-.2-.46.57-.14,1.15-.28,1.73-.42,0,0-.05-.04-.05-.04Z"/>
  <path class="cls-1" d="m331.23,129.49c.38.44.75.88,1.13,1.32-.11.07-.23.14-.34.2-.25-.53-.5-1.05-.74-1.58,0,0-.05.06-.05.06Z"/>
  <path class="cls-1" d="m334.85,317.1v-1.25c.06,0,.11,0,.17.01-.05.36-.1.72-.17,1.23Z"/>
  <path class="cls-1" d="m62.65,307.68c-.37-.52-.74-1.03-1.11-1.55.19-.09.39-.18.58-.27.16.63.32,1.25.48,1.88,0,0,.06-.06.06-.06Z"/>
  <path class="cls-1" d="m193.67,113.36c-.38.5-.52.8-.76.98-2.15,1.63-3.75,3.72-5.01,6.09-.56,1.06-.61,1.04-2,1.11-.74-3.82,3.63-8.65,7.77-8.17Z"/>
  <path class="cls-1" d="m197.6,117.87c-.97,2.72-2.85,4.68-5.44,5.99-.32.16-1.13,0-1.26-.23-.21-.41-.13-1.03-.01-1.52.06-.25.47-.41.72-.61,1.44-1.16,2.86-2.34,4.32-3.47.36-.28.83-.4,1.25-.59.14.14.28.29.41.43Z"/>
</svg>