<?xml version="1.0" encoding="UTF-8"?>
<svg id="Layer_1" data-name="Layer 1" xmlns="http://www.w3.org/2000/svg" viewBox="0 0 1239 1585.56">
  <defs>
    <style>
      .cls-1 {
        fill: #d44000;
        stroke-width: 0px;
      }
    </style>
  </defs>
  <path class="cls-1" d="m1239,1505.67c-12.57,6.06-25.06,12.29-37.72,18.15-53.93,24.93-109.66,44.53-168.2,55.44-34.24,6.38-68.86,7.18-103.54,5.63-25.95-1.16-51.92-2.36-77.79-4.63-28.67-2.51-57.32-5.6-85.81-9.63-38.53-5.44-77.04-11.21-115.3-18.28-78.22-14.45-154.71-28.14-229.03-57.37-29.36-11.55-56.57-32.5-82.77-49.62-30.41-19.87-60.57-40.08-87.97-64.08-22.96-20.1-43.45-42.29-58.26-69.23-21.78-39.63-25.27-81.43-14.28-124.78,8.8-34.72,22.35-66.65,42.03-96.37,12.84-19.39,33.07-33.06,52.49-45.32,31.41-19.84,65.48-34.05,100.27-46.63,58.4-21.11,118.57-36.18,178.48-52.17,31.13-8.31,62.35-16.67,92.79-27.15,25.37-8.74,47.7-23.6,66.2-43.48,27.77-29.84,19.39-63.32-5.76-86.32-16.18-14.79-36.31-21.93-57.13-27.14-23.32-5.83-47.1-9.04-71.06-10.12-45.93-2.07-91.9-3.23-137.83-5.28-39.08-1.74-78.13-4.27-116.31-13.79-25.25-6.3-49.26-15.37-69.4-32.53-21.72-18.5-32.51-42.51-34.92-70.57-2.19-25.59.61-50.57,10.48-74.41,12.51-30.22,34.53-52.21,61.62-69.57,30.99-19.86,64.92-33.26,100.29-42.32,49.41-12.65,99.25-23.63,148.94-35.21,36.61-8.53,73.26-16.92,107.92-31.99,20.17-8.77,38.96-19.62,53.44-36.73,27.03-31.95,24.57-91.63-23.94-117.8-21.13-11.4-43.86-17.34-67.32-20.83-49.51-7.36-99.28-6.66-149.09-4.27-21.13,1.01-42.25,2-63.37,3.28-28.92,1.75-57.81,3.96-86.74,5.63-51.74,2.99-103.52,5.57-155.32,2.07-28.43-1.92-56.81-5.3-83.2-16.98-28.34-12.55-51.63-31.17-64.44-60.33-3.29-7.48-4.33-15.94-6.4-23.95C.71,105.54.36,104.1,0,102.67,0,99.33,0,96,0,92.67c1.04-5.86,1.8-11.79,3.18-17.57C9.41,48.91,22.69,26.8,42.59,8.76c3.81-3.45,8.56-5.87,12.88-8.76.51.46,1.02.91,1.53,1.37-.51,1.29-.64,3.28-1.57,3.77-14.72,7.81-24.21,20.66-32.74,34.26C12,56.43,5.27,74.87,4.77,95.26c-.6,24.39,8.79,44.7,25.35,62.03,22.78,23.84,51.35,36.13,83.35,41.59,42.26,7.21,84.84,7.98,127.51,6.06,37.26-1.68,74.5-3.89,111.75-5.91,38.08-2.07,76.14-4.64,114.25-6.14,27.12-1.06,54.32-1.45,81.46-.81,36,.86,71.82,4.05,106.26,15.81,19.34,6.61,37.11,15.9,50.22,32.13,27.19,33.64,22.01,85.07-10.99,113.54-19.8,17.08-43.06,27.53-67.37,36.05-37.75,13.23-76.82,21.4-115.8,29.88-49.06,10.68-98.33,20.57-145.93,36.97-32.24,11.11-63.24,24.74-90.05,46.43-30.92,25.01-48.8,56.94-52.19,96.89-1.67,19.65-.92,38.96,5.62,57.68,9.07,25.96,27.35,43.68,51.35,55.98,22.3,11.43,46.31,17.36,70.85,21.42,38.38,6.34,77.15,7.82,115.94,9.07,36.46,1.17,72.95,2.07,109.36,4.22,30.9,1.82,61.66,5.59,91.2,15.79,19.65,6.79,37.57,16.34,50.66,33.15,20.1,25.81,19.47,55.86-2.29,80.17-20.78,23.23-46.65,39.6-76.06,48.86-38.03,11.97-76.7,21.96-115.24,32.27-56.22,15.04-112.43,30.09-166.82,51.06-30.33,11.7-59.83,25.11-87.14,42.98-23.87,15.61-42.95,35.37-56.46,60.79-14.91,28.05-28.01,56.63-33.86,88.1-8.72,46.9,1.23,89.52,28.97,128.16,19.35,26.95,43.66,48.88,69.93,68.77,34.69,26.26,70.87,50.39,108.65,71.89,29.62,16.85,62.01,27.47,94.46,37.49,63.32,19.56,127.93,33.8,193.21,44.87,39.67,6.73,79.56,12.24,119.47,17.39,50.89,6.57,102.01,10.05,153.36,11.22,52.05,1.19,102.38-7.33,151.83-22.65,47.32-14.67,92.89-33.58,136.7-56.7.87-.46,1.83-.75,2.75-1.12v5Z"/>
</svg>